<?xml version="1.0" standalone="no"?>
<!DOCTYPE svg PUBLIC "-//W3C//DTD SVG 1.1//EN" "http://www.w3.org/Graphics/SVG/1.1/DTD/svg11.dtd" >
<svg>
<metadata>
Created by FontForge 20090914 at Tue Jul  7 10:51:08 2020
 By www-data
Copyright (c) 2012 by Fontfabric LLC. All rights reserved.
</metadata>
<defs>
<font id="Panton-Light" horiz-adv-x="547" >
  <font-face 
    font-family="Panton Light"
    font-weight="300"
    font-stretch="normal"
    units-per-em="1000"
    panose-1="0 0 4 0 0 0 0 0 0 0"
    ascent="740"
    descent="-260"
    x-height="512"
    cap-height="710"
    bbox="-208.782 -253.001 1142 956.77"
    underline-thickness="50"
    underline-position="-150"
    unicode-range="U+0020-U+FB02"
  />
<missing-glyph horiz-adv-x="686" 
d="M600 13c0 -8.66699 -4.66699 -13 -14 -13h-481c-9.33301 -0 -14 4.33301 -14 13v684c0 8.66699 4.66699 13 14 13h481c9.33301 0 14 -4.33301 14 -13v-684zM138 667v-624h415v624h-415z" />
    <glyph glyph-name="fi" unicode="fi" horiz-adv-x="556" 
d="M474 740c7.33301 0 11 -4.00098 11 -12.001v-16c0 -8 -3.66699 -12 -11 -12h-152c-60.667 0 -102.167 -10.667 -124.5 -32s-33.5 -62 -33.5 -122v-34h310c7.33301 0 11 -3.66699 11 -11v-489c0 -8 -3.66699 -12 -11 -12h-20c-8 0 -12 4 -12 12v461h-278v-461
c0 -8 -4 -12 -12 -12h-19c-8 0 -12 4 -12 12v461h-103c-8 0 -12 3.66699 -12 11v17c0 7.33301 4 11 12 11h103v33c0 72.667 15 123.334 45 152.001s82 43 156 43h152z" />
    <glyph glyph-name="fl" unicode="fl" horiz-adv-x="521" 
d="M435 740c8 0 12.001 -4 12.001 -12v-716c0 -8 -4 -12 -12 -12h-19c-8 0 -12 4 -12 12v688h-82c-60.667 0 -102.167 -10.667 -124.5 -32s-33.5 -62 -33.5 -122v-34h134c8 0 12 -3.66699 12 -11v-17c0 -7.33301 -4 -11 -12 -11h-134v-461c0 -8 -4 -12 -12 -12h-19
c-8 0 -12 4 -12 12v461h-103c-8 0 -12 3.66699 -12 11v17c0 7.33301 4 11 12 11h103v34c0 72 15.167 122.333 45.5 151s82.166 43 155.499 43h113z" />
    <glyph glyph-name=".notdef" horiz-adv-x="686" 
d="M600 13c0 -8.66699 -4.66699 -13 -14 -13h-481c-9.33301 -0 -14 4.33301 -14 13v684c0 8.66699 4.66699 13 14 13h481c9.33301 0 14 -4.33301 14 -13v-684zM138 667v-624h415v624h-415z" />
    <glyph glyph-name="space" unicode=" " horiz-adv-x="244" 
 />
    <glyph glyph-name="exclam" unicode="!" horiz-adv-x="189" 
d="M106 740c8 0 12 -4 12 -12l-6 -566c0 -7.33301 -4 -11 -12 -11h-11c-7.33301 0 -11 3.66699 -11 11l-6 566c0 8 3.66699 12 11 12h23zM97 55c10.667 0 18 -1.83398 22 -5.50098s6 -10.834 6 -21.501v-6c0 -10 -2 -17 -6 -21s-11.333 -6 -22 -6h-5
c-10 0 -17 1.83301 -21 5.5s-6 10.834 -6 21.501v6c0 10.667 2 17.834 6 21.501s11 5.5 21 5.5h5z" />
    <glyph glyph-name="quotedbl" unicode="&#x22;" horiz-adv-x="268" 
d="M101 494c0 -6.66699 -3.66699 -10 -11 -10h-11c-7.33301 0 -11 3.33301 -11 10v205c0 4.66699 0.666992 7.66699 2 9s4.33301 2 9 2h19c8 0 11.667 -3.66699 11 -11zM198 494c-0.666992 -6.66699 -4.66699 -10 -12 -10h-11c-7.33301 0 -11 3.33301 -11 10v205
c0 4.66699 0.666992 7.66699 2 9s4.33301 2 9 2h20c7.33301 0 11 -3.66699 11 -11z" />
    <glyph glyph-name="numbersign" unicode="#" horiz-adv-x="665" 
d="M619 469c8 0 11.001 -4 9.00098 -12l-6 -18c-1.33301 -6.66699 -6.33301 -10 -15 -10h-117l-56 -187h117c8.66699 0 11.667 -4 9 -12l-6 -18c-1.33301 -6.66699 -6.33301 -10 -15 -10h-116l-57 -190c-3.33301 -8 -8.66602 -12 -15.999 -12h-20c-8 0 -10.667 4 -8 12
l57 190h-176l-57 -190c-0.666992 -8 -5.33398 -12 -14.001 -12h-20c-8 0 -10.667 4 -8 12l56 190h-115c-8 0 -10.667 3.66699 -8 11l5 18c2.66699 7.33301 8 11 16 11h114l56 187h-115c-8 0 -11 3.66699 -9 11l6 18c1.33301 7.33301 6.66602 11 15.999 11h114l50 166
c2 8 7 12 15 12h20c8 0 10.667 -4 8 -12l-50 -166h175l51 166c2 8 6.66699 12 14 12h19c8.66699 0 12 -4 10 -12l-50 -166h117zM271.001 429l-56 -187h176l56 187h-176z" />
    <glyph glyph-name="dollar" unicode="$" horiz-adv-x="589" 
d="M300 788c8 0 11.9951 -3.99902 11.9951 -11.999v-70c56.667 -4 101.167 -18.667 133.5 -44s61.5 -64 87.5 -116c4.66699 -8 2.33398 -14 -6.99902 -18l-18 -7c-7.33301 -4 -13 -2.33301 -17 5c-24 48.667 -51 83.667 -81 105s-72.667 32 -128 32
c-118.667 0 -178 -50.667 -178 -152c0 -21.333 4 -39.833 12 -55.5s17.167 -27.834 27.5 -36.501s25.833 -15.834 46.5 -21.501s37.834 -9.5 51.501 -11.5s33.834 -4.33301 60.501 -7c29.333 -3.33301 52.5 -6.33301 69.5 -9s37.667 -8 62 -16s43 -17.833 56 -29.5
s24.5 -28.334 34.5 -50.001s15 -47.167 15 -76.5c0 -122.667 -75.667 -187 -227 -193v-71c0 -8 -4 -12 -12 -12h-19c-8 0 -12 4 -12 12v71c-58.667 3.33301 -105.5 19.5 -140.5 48.5s-63.167 70.5 -84.5 124.5c-3.33301 9.33301 -0.666016 15.666 8.00098 18.999l17 6
c8 2.66699 14 0 18 -8c21.333 -50 47.333 -87.167 78 -111.5s73.667 -36.5 129 -36.5c132.667 0 199 50 199 150c0 16.667 -2.16699 31.5 -6.5 44.5s-9.16602 23.833 -14.499 32.5s-14 16.334 -26 23.001s-22 11.834 -30 15.501s-21 7.16699 -39 10.5s-31 5.5 -39 6.5
s-22.667 2.5 -44 4.5c-20 2 -36.5 3.83301 -49.5 5.5s-28.667 4.5 -47 8.5s-33.333 8.66699 -45 14s-24.167 12.333 -37.5 21s-23.833 18.667 -31.5 30s-14 25.333 -19 42s-7.5 35.334 -7.5 56.001c0 60.667 17.667 107.667 53 141s88.333 51.333 159 54v70c0 8 4 12 12 12
h19z" />
    <glyph glyph-name="percent" unicode="%" horiz-adv-x="808" 
d="M38 579c0 45.333 13.333 81 40 107s65 39 115 39s88.167 -12.833 114.5 -38.5s39.5 -61.5 39.5 -107.5v-75c0 -45.333 -13.167 -80.833 -39.5 -106.5s-64.5 -38.5 -114.5 -38.5s-88.333 12.833 -115 38.5s-40 61.167 -40 106.5v75zM675 710
c9.33301 0 11.333 -4.33301 6 -13l-505 -686c-6 -7.33301 -14.333 -11 -25 -11h-16c-10.667 -0 -13 4.33301 -7 13l505 686c5.33301 7.33301 13 11 23 11h19zM310 577c0 35.333 -10.1689 62.833 -30.502 82.5s-49.166 29.5 -86.499 29.5s-66.166 -9.83301 -86.499 -29.5
s-30.5 -47.167 -30.5 -82.5v-71c0 -35.333 10 -62.666 30 -81.999s49 -29 87 -29s67 9.66699 87 29s30 46.666 30 81.999v71zM460.998 204c0 46 13.333 82 40 108s64.667 39 114 39c50 0 88.333 -13 115 -39s40 -62 40 -108v-74c0 -45.333 -13.333 -80.833 -40 -106.5
s-65 -38.5 -115 -38.5c-49.333 0 -87.333 12.833 -114 38.5s-40 61.167 -40 106.5v74zM731.998 203c0 35.333 -10.1689 62.833 -30.502 82.5s-49.166 29.5 -86.499 29.5s-66.166 -9.83301 -86.499 -29.5s-30.5 -47.167 -30.5 -82.5v-71c0 -35.333 10 -62.666 30 -81.999
s49 -29 87 -29s67 9.66699 87 29s30 46.666 30 81.999v71z" />
    <glyph glyph-name="ampersand" unicode="&#x26;" horiz-adv-x="653" 
d="M107 558c0 44.667 16.1689 83.5 48.502 116.5s74.166 49.5 125.499 49.5c49.333 0 90.666 -16.167 123.999 -48.5s50 -70.833 50 -115.5c0 -46 -13.333 -82.833 -40 -110.5s-70.667 -54.167 -132 -79.5l-10 -4l207 -199l73 69c5.33301 5.33301 10.666 5.33301 15.999 0
l14 -14c4.66699 -4.66699 4.66699 -9.66699 0 -15l-73 -70l128 -125c8 -8 6 -12 -6 -12h-27c-7.33301 0 -13.666 2.66699 -18.999 8l-105 102c-55.333 -50.667 -100.5 -84 -135.5 -100s-72.833 -24 -113.5 -24c-52.667 0 -97.167 17.833 -133.5 53.5
s-54.5 80.167 -54.5 133.5c0 52.667 14.333 94.167 43 124.5s68.667 56.833 120 79.5c-30.667 30 -55 59.167 -73 87.5s-27 59.5 -27 93.5zM413.002 560c0 33.333 -12.5 62.6699 -37.5 88.0029s-56.5 38 -94.5 38c-39.333 0 -71.166 -12.667 -95.499 -38
s-36.5 -55.333 -36.5 -90c0 -16.667 2.33301 -32.334 7 -47.001s12.5 -29.334 23.5 -44.001s20.667 -26.334 29 -35.001l36.5 -37l19 10c27.333 11.333 47.666 20.5 60.999 27.5s28 16.5 44 28.5s27.333 26 34 42s10 35 10 57zM235.002 348.004
c-49.333 -20.667 -86.168 -44 -110.501 -70s-36.5 -61.333 -36.5 -106c0 -40.667 14.167 -75 42.5 -103s62.5 -42 102.5 -42c34.667 0 67.334 7.5 98.001 22.5s70.667 44.833 120 89.5z" />
    <glyph glyph-name="quotesingle" unicode="'" horiz-adv-x="172" 
d="M101 494c0 -6.66699 -3.66699 -10 -11 -10h-11c-7.33301 0 -11 3.33301 -11 10v205c0 4.66699 0.666992 7.66699 2 9s4.33301 2 9 2h19c8 0 11.667 -3.66699 11 -11z" />
    <glyph glyph-name="parenleft" unicode="(" horiz-adv-x="241" 
d="M63 611c0 58.667 11.333 105.171 34 139.504s57.667 62.166 105 83.499c6.66699 3.33301 11.667 1.33301 15 -6l8 -16c3.33301 -6 1.33301 -11.333 -6 -16c-38.667 -18 -67.334 -40.833 -86.001 -68.5s-28 -65.834 -28 -114.501v-516
c0 -48.667 9.33301 -86.834 28 -114.501s47.334 -50.5 86.001 -68.5c7.33301 -4.66699 9.33301 -10 6 -16l-8 -16c-3.33301 -7.33301 -8.33301 -9.33301 -15 -6c-47.333 21.333 -82.333 49.166 -105 83.499s-34 80.833 -34 139.5v512z" />
    <glyph glyph-name="parenright" unicode=")" horiz-adv-x="241" 
d="M24 828c3.33301 7.33301 8.33301 9.3291 15 5.99609c47.333 -21.333 82.333 -49.166 105 -83.499s34 -80.833 34 -139.5v-512c0 -58.667 -11.333 -105.167 -34 -139.5s-57.667 -62.166 -105 -83.499c-6.66699 -3.33301 -11.667 -1.33301 -15 6l-9 16
c-2.66699 6 -0.333984 11.333 6.99902 16c38.667 18 67.334 40.833 86.001 68.5s28 65.834 28 114.501v516c0 48.667 -9.33301 86.834 -28 114.501s-47.334 50.5 -86.001 68.5c-7.33301 4.66699 -9.66602 10 -6.99902 16z" />
    <glyph glyph-name="asterisk" unicode="*" horiz-adv-x="387" 
d="M201 673c6 0 8.66699 -2.66504 8 -7.99805l-6 -114l107 40c6 2 10 0.333008 12 -5l5 -14c1.33301 -6.66699 -0.666992 -10.334 -6 -11.001l-112 -29l73 -90c4 -4 3.33301 -8 -2 -12l-12 -9c-5.33301 -3.33301 -9.33301 -2.33301 -12 3l-62 96l-64 -96
c-2.66699 -5.33301 -6.33398 -6.33301 -11.001 -3l-13 10c-5.33301 3.33301 -5.66602 7.33301 -0.999023 12l73 89l-110 30c-6.66699 0.666992 -9 4 -7 10l5 15c2.66699 5.33301 6.66699 6.66602 12 3.99902l106 -40l-6 114c-0.666992 5.33301 2 8 8 8h15z" />
    <glyph glyph-name="plus" unicode="+" horiz-adv-x="578" 
d="M513 347c8 0 12 -4 12 -12v-16c0 -8 -4 -12 -12 -12h-204v-203c0 -8.66699 -4 -13 -12 -13h-16c-8 0 -12 4.33301 -12 13v203h-203c-8.66699 0 -13 4 -13 12v16c0 8 4.33301 12 13 12h203v203c0 8.66699 4 13 12 13h16c8 0 12 -4.33301 12 -13v-203h204z" />
    <glyph glyph-name="comma" unicode="," horiz-adv-x="162" 
d="M52 -110c-2.66699 -7.33301 -7.66699 -11 -15 -11h-8c-6 0 -8.66699 3 -8 9l38 157c2.66699 10 8.66699 15 18 15h17c12 0 16.333 -5 13 -15z" />
    <glyph glyph-name="hyphen" unicode="-" horiz-adv-x="426" 
d="M350 286c8 0 12 -4 12 -12v-17c0 -8 -4 -12 -12 -12h-273c-8.66699 0 -13 4 -13 12v17c0 8 4.33301 12 13 12h273z" />
    <glyph glyph-name="period" unicode="." horiz-adv-x="165" 
d="M85 55c10.667 0 17.834 -1.83398 21.501 -5.50098s5.5 -10.834 5.5 -21.501v-6c0 -10 -1.83301 -17 -5.5 -21s-10.834 -6 -21.501 -6h-5c-10.667 0 -18 1.83301 -22 5.5s-6 10.834 -6 21.501v6c0 10.667 2 17.834 6 21.501s11.333 5.5 22 5.5h5z" />
    <glyph glyph-name="slash" unicode="/" horiz-adv-x="392" 
d="M80 -49c-2.66699 -7.33301 -8 -11 -16 -11h-21c-7.33301 0 -10 3.66699 -8 11l278 748c2.66699 7.33301 8 11 16 11h21c7.33301 0 10 -3.66699 8 -11z" />
    <glyph glyph-name="zero" unicode="0" horiz-adv-x="622" 
d="M61 497c0 70 22 125.333 66 166s105.333 61 184 61s140 -20.333 184 -61s66 -96 66 -166v-284c0 -70.667 -22 -126.167 -66 -166.5s-105.333 -60.5 -184 -60.5s-140 20.167 -184 60.5s-66 95.833 -66 166.5v284zM515 497c0 57.333 -17.8291 102.333 -53.4961 135
s-85.834 49 -150.501 49s-114.834 -16.333 -150.501 -49s-53.5 -77.667 -53.5 -135v-284c0 -58 17.667 -103.167 53 -135.5s85.666 -48.5 150.999 -48.5s115.666 16.167 150.999 48.5s53 77.5 53 135.5v284z" />
    <glyph glyph-name="one" unicode="1" horiz-adv-x="445" 
d="M340 710c8 0 12 -4.33301 12 -13v-684c0 -8.66699 -4 -13 -12 -13h-21c-8.66699 -0 -13 4.33301 -13 13v641l-247 -137c-7.33301 -4.66699 -13.333 -3 -18 5l-10 17c-4.66699 6 -3 11.333 5 16l269 150c4.66699 3.33301 10.667 5 18 5h17z" />
    <glyph glyph-name="two" unicode="2" horiz-adv-x="585" 
d="M55 562c23.333 54 55.4971 94.502 96.4971 121.502s94.167 40.5 159.5 40.5s118.5 -20.167 159.5 -60.5s61.5 -89.833 61.5 -148.5c0 -21.333 -2.33301 -41.166 -7 -59.499s-10.5 -34.333 -17.5 -48s-17.333 -27 -31 -40s-26.167 -23.667 -37.5 -32
s-27.333 -17.5 -48 -27.5s-38 -18 -52 -24s-34 -14 -60 -24c-29.333 -11.333 -51.833 -20.5 -67.5 -27.5s-33.5 -17.167 -53.5 -30.5s-34.5 -29 -43.5 -47s-13.5 -38.667 -13.5 -62v-50h415c8.66699 0 13 -4 13 -12v-18c0 -8.66699 -4.33301 -13 -13 -13h-450
c-8.66699 0 -13 4.33301 -13 13v72c0 25.333 4.16699 48.666 12.5 69.999s18.333 38.666 30 51.999s28.167 26.5 49.5 39.5s40 23 56 30s37.667 15.833 65 26.5c70.667 26.667 117.667 48 141 64c51.333 35.333 77 84 77 146c0 47.333 -16.167 87.166 -48.5 119.499
s-74.166 48.5 -125.499 48.5c-53.333 0 -96.666 -11 -129.999 -33s-60.333 -56 -81 -102c-3.33301 -7.33301 -8.66602 -9.66602 -15.999 -6.99902l-20 7c-8 3.33301 -10.667 8.66602 -8 15.999z" />
    <glyph glyph-name="three" unicode="3" horiz-adv-x="592" 
d="M520 527c0 -36.667 -7.83203 -69.335 -23.499 -98.002s-39.834 -49.334 -72.501 -62.001c78 -24 117 -82 117 -174c0 -65.333 -19.5 -116.166 -58.5 -152.499s-98.167 -54.5 -177.5 -54.5c-74.667 0 -131.334 14.667 -170.001 44s-66.667 74 -84 134
c-2.66699 8 0 13.333 8 16l19 7c8 2.66699 13.333 0 16 -8c16 -52.667 39.333 -90.834 70 -114.501s77.667 -35.5 141 -35.5c126 0 189 54.667 189 164c0 46.667 -12.833 83.334 -38.5 110.001s-62.167 40 -109.5 40h-167c-8 0 -12 4 -12 12v17c0 8.66699 4 13 12 13h162
c44 0 77.333 13.333 100 40s34 59.667 34 99c0 50.667 -14.333 89.5 -43 116.5s-71 40.5 -127 40.5c-60.667 0 -106.167 -11.333 -136.5 -34s-53.166 -60 -68.499 -112c-2.66699 -7.33301 -8 -9.66602 -16 -6.99902l-19 6c-8 2.66699 -10.667 8.33398 -8 17.001
c17.333 58.667 45 102.167 83 130.5s93.333 42.5 166 42.5c70 0 123.167 -17.167 159.5 -51.5s54.5 -82.833 54.5 -145.5z" />
    <glyph glyph-name="four" unicode="4" horiz-adv-x="600" 
d="M558 249c8 0 12 -4.33301 12 -13v-16c0 -8.66699 -4 -13 -12 -13h-105v-194c0 -8.66699 -4.33301 -13 -13 -13h-18c-8.66699 -0 -13 4.33301 -13 13v194h-370c-8.66699 0 -13 4.33301 -13 13v13c0 6 1.33301 11.333 4 16l371 463c5.33301 6 11.333 9 18 9h21
c8.66699 0 13 -4.66699 13 -14v-458h105zM409 656l-327 -407h327v407z" />
    <glyph glyph-name="five" unicode="5" horiz-adv-x="580" 
d="M498 710c8 0 12.0029 -4.33203 12.0029 -12.999v-18c0 -8 -4 -12 -12 -12h-351l-24 -247h187c73.333 0 129.333 -20 168 -60s58 -90.667 58 -152c0 -62.667 -21.333 -115.5 -64 -158.5s-100.334 -64.5 -173.001 -64.5c-132.667 0 -217.667 52 -255 156
c-2.66699 8 -0.333984 13.333 6.99902 16l21 7c8 4 13.333 1.33301 16 -8c30 -85.333 100.333 -128 211 -128c57.333 0 103.166 17.167 137.499 51.5s51.5 77.166 51.5 128.499c0 49.333 -15.5 89.833 -46.5 121.5s-75.5 47.5 -133.5 47.5h-219c-12 0 -17 5.66699 -15 17
l30 294c0.666992 14.667 8.66699 22 24 22h370z" />
    <glyph glyph-name="six" unicode="6" horiz-adv-x="615" 
d="M106 371c58 25.333 129.998 37.999 215.998 37.999c82.667 0 143.834 -17.333 183.501 -52s59.5 -88 59.5 -160c0 -66.667 -22.333 -118.5 -67 -155.5s-106.667 -55.5 -186 -55.5c-82 0 -144.5 21.833 -187.5 65.5s-64.5 104.5 -64.5 182.5v242
c0 81.333 21.333 143 64 185s105.334 63 188.001 63c122.667 0 203.667 -50.333 243 -151c2.66699 -7.33301 -0.333008 -12.333 -9 -15l-19 -7c-6.66699 -3.33301 -12 -0.666016 -16 8.00098c-32.667 81.333 -99 122 -199 122c-67.333 0 -118.5 -17.333 -153.5 -52
s-52.5 -85.667 -52.5 -153v-105zM105.998 233.999c0 -65.333 17.667 -115.833 53 -151.5s86.333 -53.5 153 -53.5c66 0 117 14.5 153 43.5s54 70.5 54 124.5c0 57.333 -16.167 99.833 -48.5 127.5s-82.833 41.5 -151.5 41.5c-81.333 0 -152.333 -13.333 -213 -40v-92z" />
    <glyph glyph-name="seven" unicode="7" horiz-adv-x="510" 
d="M485 710c8.66699 0 13.001 -4.33301 13.001 -13v-12c0 -4.66699 -1.33301 -10.667 -4 -18l-288 -656c-2.66699 -4.66699 -5.33398 -7.66699 -8.00098 -9s-7.66699 -2 -15 -2h-21c-8 -0 -10 4.33301 -6 13l289 654h-404c-8.66699 0 -13 4 -13 12v18
c0 8.66699 4.33301 13 13 13h444z" />
    <glyph glyph-name="eight" unicode="8" horiz-adv-x="610" 
d="M71 545c0 57.333 20.665 101.498 61.998 132.498s98.333 46.5 171 46.5c77.333 0 135.833 -15 175.5 -45s59.5 -73.667 59.5 -131c0 -29.333 -5.33301 -55.666 -16 -78.999s-25.167 -42 -43.5 -56s-35.166 -24.667 -50.499 -32s-31.666 -13.666 -48.999 -18.999
c57.333 -18 101.5 -40.667 132.5 -68s46.5 -67.666 46.5 -120.999c0 -124.667 -85 -187 -255 -187c-168.667 0 -253 59.333 -253 178c0 25.333 4.5 48.833 13.5 70.5s20 39.334 33 53.001s28.5 26.167 46.5 37.5s33.5 19.666 46.5 24.999s26.833 10 41.5 14
c-50.667 17.333 -90.167 39.666 -118.5 66.999s-42.5 65.333 -42.5 114zM493.998 543.998c0 45.333 -16.167 80 -48.5 104s-79.166 36 -140.499 36c-59.333 0 -105.333 -12 -138 -36s-49 -58.667 -49 -104c0 -20.667 4 -39.334 12 -56.001s16.833 -29.834 26.5 -39.501
s24.667 -19.167 45 -28.5s37.166 -16.166 50.499 -20.499s33.333 -10.166 60 -17.499l15 -4c111.333 26 167 81.333 167 166zM510.998 172.998c0 26.667 -4.8291 49.333 -14.4961 68s-25.334 34.167 -47.001 46.5s-42.334 21.833 -62.001 28.5s-46.834 14.667 -81.501 24
l-23 6l-31.5 -7.5c-9.66699 -2.33301 -24.834 -8.16602 -45.501 -17.499s-38.167 -19.833 -52.5 -31.5s-27.333 -28.334 -39 -50.001s-17.5 -45.5 -17.5 -71.5c0 -94.667 69.333 -142 208 -142c137.333 0 206 49 206 147z" />
    <glyph glyph-name="nine" unicode="9" horiz-adv-x="615" 
d="M509 339c-60.667 -25.333 -132.664 -37.999 -215.997 -37.999c-82.667 0 -143.834 17.333 -183.501 52s-59.5 88 -59.5 160c0 66.667 22.167 118.5 66.5 155.5s106.166 55.5 185.499 55.5c82 0 144.667 -21.833 188 -65.5s65 -104.5 65 -182.5v-242
c0 -80.667 -21.5 -142.167 -64.5 -184.5s-105.833 -63.5 -188.5 -63.5c-123.333 0 -204 50.333 -242 151c-2.66699 7.33301 0 12.333 8 15l19 7c8 3.33301 13.333 0.666016 16 -8.00098c32.667 -81.333 99 -122 199 -122c67.333 0 118.666 17.333 153.999 52
s53 85.667 53 153v105zM509.003 476.001c0 65.333 -17.668 115.833 -53.001 151.5s-86.666 53.5 -153.999 53.5c-66 0 -116.833 -14.5 -152.5 -43.5s-53.5 -70.5 -53.5 -124.5c0 -57.333 16 -99.833 48 -127.5s82.333 -41.5 151 -41.5c78 0 149.333 13.333 214 40v92z" />
    <glyph glyph-name="colon" unicode=":" horiz-adv-x="188" 
d="M97 482c10 0 17 -2 21 -6s6 -11.333 6 -22v-5c0 -10.667 -2 -18 -6 -22s-11 -6 -21 -6h-5c-10.667 0 -18 2 -22 6s-6 11.333 -6 22v5c0 10.667 2 18 6 22s11.333 6 22 6h5zM97 55c10 0 17 -1.83398 21 -5.50098s6 -10.834 6 -21.501v-6c0 -10 -2 -17 -6 -21
s-11 -6 -21 -6h-5c-10.667 0 -18 1.83301 -22 5.5s-6 10.834 -6 21.501v6c0 10.667 2 17.834 6 21.501s11.333 5.5 22 5.5h5z" />
    <glyph glyph-name="semicolon" unicode=";" horiz-adv-x="225" 
d="M126 482c10 0 17 -2 21 -6s6 -11.333 6 -22v-5c0 -10.667 -2 -18 -6 -22s-11 -6 -21 -6h-5c-10.667 0 -18 2 -22 6s-6 11.333 -6 22v5c0 10.667 2 18 6 22s11.333 6 22 6h5zM88 -110c-2.66699 -7.33301 -7.33301 -11 -14 -11h-9c-6 0 -8.66699 3 -8 9l38 157
c2.66699 10 8.66699 15 18 15h17c12.667 0 17 -5 13 -15z" />
    <glyph glyph-name="less" unicode="&#x3c;" horiz-adv-x="504" 
d="M424 551c10 5.33301 15 2.33105 15 -9.00195v-17c0 -9.33301 -4.33301 -16.666 -13 -21.999l-330 -175v-2l330 -176c6 -3.33301 9.66699 -6 11 -8s2 -6.33301 2 -13v-19c0 -11.333 -5 -14.333 -15 -9l-374 202c-7.33301 4.66699 -11 10.334 -11 17.001v12
c0 8 3.66699 13.667 11 17z" />
    <glyph glyph-name="equal" unicode="=" horiz-adv-x="602" 
d="M525 447c8 0 12 -4.33301 12 -13v-17c0 -8 -4 -12 -12 -12h-447c-8.66699 0 -13 4 -13 12v17c0 8.66699 4.33301 13 13 13h447zM525 249c8 0 12 -4.33301 12 -13v-16c0 -8.66699 -4 -13 -12 -13h-447c-8.66699 0 -13 4.33301 -13 13v16c0 8.66699 4.33301 13 13 13h447z
" />
    <glyph glyph-name="greater" unicode="&#x3e;" horiz-adv-x="504" 
d="M65 542c0 11.333 4.66699 14.6689 14 10.002l374 -203c8 -3.33301 12 -9 12 -17v-12c0 -6.66699 -4 -12.334 -12 -17.001l-374 -202c-9.33301 -5.33301 -14 -2.33301 -14 9v17c0 6.66699 0.666992 11.167 2 13.5s5 5.16602 11 8.49902l330 175v2l-330 176
c-6 3.33301 -9.66699 6 -11 8s-2 6.66699 -2 14v18z" />
    <glyph glyph-name="question" unicode="?" horiz-adv-x="553" 
d="M33 575c42.667 110 125.999 165.002 249.999 165.002c72 0 129.167 -19.667 171.5 -59s63.5 -88.333 63.5 -147c0 -26 -3.16699 -50 -9.5 -72s-13.333 -39.833 -21 -53.5s-19.334 -27.834 -35.001 -42.501s-28 -25.167 -37 -31.5s-22.833 -15.5 -41.5 -27.5
c-22 -14.667 -39 -27.334 -51 -38.001s-23.5 -26.334 -34.5 -47.001s-16.5 -43.667 -16.5 -69c0 -8.66699 -4 -13 -12 -13h-16c-8 0 -12 4.33301 -12 13c0 24.667 3 46.667 9 66s15.333 36.5 28 51.5s24.334 26.833 35.001 35.5s25.334 19.334 44.001 32.001
c20.667 14 36.167 25.167 46.5 33.5s22.666 20.5 36.999 36.5s24.666 34.167 30.999 54.5s9.5 43.833 9.5 70.5c0 48 -16.833 87.667 -50.5 119s-80.167 47 -139.5 47c-101.333 0 -170.333 -46 -207 -138c-3.33301 -8 -8.66602 -10.667 -15.999 -8l-19 6
c-7.33301 2.66699 -9.66602 8 -6.99902 16zM254.999 55.002c10 0 17 -1.83398 21 -5.50098s6 -10.834 6 -21.501v-6c0 -10 -2 -17 -6 -21s-11 -6 -21 -6h-5c-10.667 0 -18 1.83301 -22 5.5s-6 10.834 -6 21.501v6c0 10.667 2 17.834 6 21.501s11.333 5.5 22 5.5h5z" />
    <glyph glyph-name="at" unicode="@" horiz-adv-x="900" 
d="M50 326c0 123.333 35.1689 220.494 105.502 291.494s167.5 106.5 291.5 106.5c127.333 0 225.666 -36 294.999 -108s104 -168.667 104 -290v-69c0 -67.333 -17 -119.166 -51 -155.499s-75.333 -54.5 -124 -54.5c-34 0 -54.667 14.333 -62 43
c-53.333 -26.667 -115.666 -40 -186.999 -40c-114 0 -171 54 -171 162v158c0 52 14.167 92.333 42.5 121s71.166 43 128.499 43c67.333 0 125.666 -10 174.999 -30c13.333 -5.33301 22.333 -11.166 27 -17.499s7 -16.5 7 -30.5v-336c0 -26 13.667 -39 41 -39
c38 0 70.5 14.667 97.5 44s40.5 73.333 40.5 132v70c0 112 -31.5 200.667 -94.5 266s-152.5 98 -268.5 98c-112.667 0 -200.834 -32.333 -264.501 -97s-95.5 -153.667 -95.5 -267v-70c0 -114 31.5 -201.833 94.5 -263.5s151.5 -92.5 265.5 -92.5
c20.667 0 41.5 0.833008 62.5 2.5s40.167 3.83398 57.5 6.50098s32.5 5.33398 45.5 8.00098s24.5 5.33398 34.5 8.00098l15 3c4.66699 0.666992 7 -0.666016 7 -3.99902v-19c0 -5.33301 -2.66699 -9 -8 -11c-63.333 -18 -134.666 -27 -213.999 -27
c-125.333 0 -222.833 33.833 -292.5 101.5s-104.5 163.5 -104.5 287.5v69zM572.002 474.994c-37.333 15.333 -86 22.999 -146 22.999c-90.667 0 -136 -43 -136 -129v-156c0 -85.333 45.333 -128 136 -128c70.667 0 126.334 13 167.001 39v322
c0 8.66699 -1.33301 14.834 -4 18.501s-8.33398 7.16699 -17.001 10.5z" />
    <glyph glyph-name="A" unicode="A" horiz-adv-x="632" 
d="M620 12c3.33301 -8 -0.000976562 -12 -10.001 -12h-18c-13.333 0 -20.666 3.66699 -21.999 11l-89 221h-332l-88 -221c-2.66699 -7.33301 -10.334 -11 -23.001 -11h-17c-9.33301 0 -12.333 4 -9 12l277 691c3.33301 8 9 12 17 12h20c8.66699 0 14.334 -4 17.001 -12z
M325.999 626c-2 6 -5.33301 20.332 -10 42.999h-3c0 -13.333 -2.66699 -27.666 -8 -42.999l-142 -355h305z" />
    <glyph glyph-name="B" unicode="B" horiz-adv-x="640" 
d="M379 710c60 0 106.333 -15.3311 139 -45.998s49 -75 49 -133c0 -84.667 -34.667 -139.334 -104 -164.001v-2c85.333 -18.667 128 -77.334 128 -176.001c0 -60 -17.667 -106.5 -53 -139.5s-84 -49.5 -146 -49.5h-297c-8.66699 -0 -13 4.33301 -13 13v684
c0 8.66699 4.33301 13 13 13h284zM520 526.002c0 46 -12.5 81 -37.5 105s-61.167 36 -108.5 36h-246v-284h246c46.667 0 82.667 12 108 36s38 59.667 38 107zM543 193.002c0 48 -13.167 84.666 -39.5 109.999s-64.166 38 -113.499 38h-262v-298h262
c49.333 0 87.166 12.833 113.499 38.5s39.5 62.834 39.5 111.501z" />
    <glyph glyph-name="C" unicode="C" horiz-adv-x="634" 
d="M61 478c0 77.333 23.0029 137.668 69.0029 181.001s112.667 65 200 65c75.333 0 133.666 -14.333 174.999 -43s70.666 -72.334 87.999 -131.001c2 -7.33301 -1 -13 -9 -17l-18 -6c-8.66699 -2 -14.334 0.666992 -17.001 8c-15.333 50.667 -39.833 87.667 -73.5 111
s-82.167 35 -145.5 35c-72.667 0 -128 -17.667 -166 -53s-57 -85 -57 -149v-247c0 -63.333 19.333 -113 58 -149s93.667 -54 165 -54c64.667 0 113.667 12.167 147 36.5s58 62.5 74 114.5c3.33301 8 9 10.667 17 8l19 -7c8 -2.66699 10.667 -8 8 -16
c-18 -60 -47.5 -104.833 -88.5 -134.5s-99.833 -44.5 -176.5 -44.5c-86 0 -152.333 21.833 -199 65.5s-70 104.167 -70 181.5v245z" />
    <glyph glyph-name="D" unicode="D" horiz-adv-x="646" 
d="M299 710c92 0 163.333 -23.5 214 -70.5s76 -111.5 76 -193.5v-182c0 -82 -25.333 -146.5 -76 -193.5s-122 -70.5 -214 -70.5h-204c-8.66699 -0 -13 4.33301 -13 13v684c0 8.66699 4.33301 13 13 13h204zM543 446c0 70 -20.999 124.333 -62.999 163s-102 58 -180 58h-172
v-624h172c77.333 0 137.166 19.333 179.499 58s63.5 93 63.5 163v182z" />
    <glyph glyph-name="E" unicode="E" horiz-adv-x="570" 
d="M503 710c8.66699 0 13 -4.33301 13 -13v-18c0 -8 -4.33301 -12 -13 -12h-375v-286h332c8 0 12 -4 12 -12v-18c0 -8.66699 -4 -13 -12 -13h-332v-295h389c8.66699 0 13 -4 13 -12v-18c0 -8.66699 -4.33301 -13 -13 -13h-422c-8.66699 -0 -13 4.33301 -13 13v684
c0 8.66699 4.33301 13 13 13h408z" />
    <glyph glyph-name="F" unicode="F" horiz-adv-x="551" 
d="M503 710c8.66699 0 13 -4.33301 13 -13v-18c0 -8 -4.33301 -12 -13 -12h-375v-296h326c8.66699 0 13 -4.33301 13 -13v-18c0 -8 -4.33301 -12 -13 -12h-326v-315c0 -8.66699 -4 -13 -12 -13h-21c-8.66699 -0 -13 4.33301 -13 13v684c0 8.66699 4.33301 13 13 13h408z" />
    <glyph glyph-name="G" unicode="G" horiz-adv-x="651" 
d="M586 358c8.66699 0 13.0039 -4.66406 13.0039 -13.9971v-117c0 -74 -23.333 -132.667 -70 -176s-112.667 -65 -198 -65c-86.667 0 -153.334 22 -200.001 66s-70 104.667 -70 182v244c0 77.333 23 137.666 69 180.999s112.667 65 200 65
c75.333 0 133.666 -14.333 174.999 -43s70.666 -72.334 87.999 -131.001c2 -7.33301 -1 -13 -9 -17l-18 -6c-8.66699 -2.66699 -14.334 0 -17.001 8c-15.333 50.667 -39.833 87.667 -73.5 111s-82.167 35 -145.5 35c-73.333 0 -128.833 -17.667 -166.5 -53
s-56.5 -85 -56.5 -149v-245c0 -64.667 19.333 -115 58 -151s94 -54 166 -54c71.333 0 126.333 17.667 165 53s58 83.666 58 144.999v87h-214c-8.66699 0 -13 4.33301 -13 13v18c0 8.66699 4.33301 13 13 13h246z" />
    <glyph glyph-name="H" unicode="H" horiz-adv-x="679" 
d="M584 710c8.66699 0 13 -4.33301 13 -13v-684c0 -8.66699 -4.33301 -13 -13 -13h-21c-8 -0 -12 4.33301 -12 13v325h-423v-325c0 -8.66699 -4 -13 -12 -13h-21c-8.66699 -0 -13 4.33301 -13 13v684c0 8.66699 4.33301 13 13 13h21c8 0 12 -4.33301 12 -13v-316h423v316
c0 8.66699 4 13 12 13h21z" />
    <glyph glyph-name="I" unicode="I" horiz-adv-x="210" 
d="M82 697c0 8.66699 4.33301 13 13 13h21c8 0 12 -4.33301 12 -13v-684c0 -8.66699 -4 -13 -12 -13h-21c-8.66699 -0 -13 4.33301 -13 13v684z" />
    <glyph glyph-name="J" unicode="J" horiz-adv-x="567" 
d="M478 710c8 0 11.998 -4.00098 11.998 -12.001v-481c0 -72 -20.5 -128.667 -61.5 -170s-99.167 -62 -174.5 -62c-129.333 0 -206.666 65.667 -231.999 197c-2.66699 8.66699 0 14.334 8 17.001l20 7c8 2.66699 13.333 0 16 -8c10.667 -56 30.834 -98.167 60.501 -126.5
s72.167 -42.5 127.5 -42.5c61.333 0 108.333 16.5 141 49.5s49 79.167 49 138.5v481c0 8 4 12 12 12h22z" />
    <glyph glyph-name="K" unicode="K" horiz-adv-x="600" 
d="M579 13c4.66699 -8.66699 2.33398 -12.999 -6.99902 -12.999h-20c-12.667 0 -21 3.66699 -25 11l-117 233c-17.333 34 -37.333 58.333 -60 73s-54.334 22 -95.001 22h-127v-326c0 -8.66699 -4 -13 -12 -13h-21c-8.66699 0 -13 4.33301 -13 13v684
c0 8.66699 4.33301 13 13 13h21c8 0 12 -4.33301 12 -13v-316h124c12 0 20.333 -0.333008 25 -1l236 319c6 7.33301 14.667 11 26 11h23c10 0 12 -4.33301 6 -13l-243 -325c29.333 -6.66699 54 -18.834 74 -36.501s38 -42.167 54 -73.5z" />
    <glyph glyph-name="L" unicode="L" horiz-adv-x="518" 
d="M116 710c8 0 12 -4.33301 12 -13v-654h364c8 0 12 -4 12 -12v-18c0 -8.66699 -4 -13 -12 -13h-397c-8.66699 -0 -13 4.33301 -13 13v684c0 8.66699 4.33301 13 13 13h21z" />
    <glyph glyph-name="M" unicode="M" horiz-adv-x="795" 
d="M701 710c8 0 12 -4.33203 12 -12.999v-684c0 -8.66699 -4 -13 -12 -13h-20c-8 0 -12 4.33301 -12 13v459c0 56 2.33301 111.667 7 167h-2c-24.667 -50.667 -49.667 -98.334 -75 -143.001l-178 -316c-3.33301 -6.66699 -8.66602 -10 -15.999 -10h-13
c-8.66699 0 -14.334 3.33301 -17.001 10l-181 320c-24 40.667 -48 87 -72 139h-2c4 -59.333 6 -115 6 -167v-459c0 -8.66699 -4.33301 -13 -13 -13h-18c-8.66699 -0 -13 4.33301 -13 13v684c0 8.66699 4.33301 13 13 13h16c8 0 14.333 -3.66699 19 -11l268 -473l266 472
c4.66699 8 10.667 12 18 12h19z" />
    <glyph glyph-name="N" unicode="N" horiz-adv-x="688" 
d="M594 710c8 0 12.0029 -4.33496 12.0029 -13.002v-684c0 -8.66699 -4 -13 -12 -13h-21c-6 0 -10.667 2.66699 -14 8l-355 506c-12 16.667 -26.833 40.334 -44.5 71.001s-29.834 50.334 -36.501 59.001h-2c0 -10.667 1 -35 3 -73s3 -68.667 3 -92v-466
c0 -8.66699 -4 -13 -12 -13h-20c-8.66699 -0 -13 4.33301 -13 13v684c0 8.66699 4.33301 13 13 13h20c6 0 10.667 -2.33301 14 -7l345 -493c13.333 -18.667 30.166 -44.667 50.499 -78s34.166 -55 41.499 -65h2c0 12.667 -1.16699 39.5 -3.5 80.5s-3.5 74.167 -3.5 99.5v451
c0 8 4.33301 12 13 12h20z" />
    <glyph glyph-name="O" unicode="O" horiz-adv-x="660" 
d="M61 477c0 77.333 23.333 137.833 70 181.5s113.334 65.5 200.001 65.5c86 0 152.167 -21.833 198.5 -65.5s69.5 -104.167 69.5 -181.5v-244c0 -77.333 -23.167 -137.833 -69.5 -181.5s-112.5 -65.5 -198.5 -65.5c-86.667 0 -153.334 21.833 -200.001 65.5
s-70 104.167 -70 181.5v244zM553 477c0 64.667 -19.167 114.834 -57.5 150.501s-93.166 53.5 -164.499 53.5c-72.667 0 -128.167 -17.833 -166.5 -53.5s-57.5 -85.834 -57.5 -150.501v-244c0 -64.667 19.167 -114.834 57.5 -150.501s93.833 -53.5 166.5 -53.5
c71.333 0 126.166 17.833 164.499 53.5s57.5 85.834 57.5 150.501v244z" />
    <glyph glyph-name="P" unicode="P" horiz-adv-x="618" 
d="M364 710c68 0 121.833 -19.334 161.5 -58.001s59.5 -92 59.5 -160c0 -67.333 -19.833 -120.166 -59.5 -158.499s-93.5 -57.5 -161.5 -57.5h-236v-263c0 -8.66699 -4 -13 -12 -13h-21c-8.66699 -0 -13 4.33301 -13 13v684c0 8.66699 4.33301 13 13 13h269zM360 318.999
c54.667 0 97.834 15.333 129.501 46s47.5 73 47.5 127c0 54.667 -15.833 97.5 -47.5 128.5s-74.834 46.5 -129.501 46.5h-232v-348h232z" />
    <glyph glyph-name="Q" unicode="Q" horiz-adv-x="670" 
d="M611 -28c5.33301 -6 4.66699 -12 -2 -18l-14 -11c-6 -6 -12 -5.66699 -18 1l-75 89c-42.667 -31.333 -99.667 -47 -171 -47c-86.667 0 -153.334 21.833 -200.001 65.5s-70 104.167 -70 181.5v244c0 77.333 23.333 137.833 70 181.5s113.334 65.5 200.001 65.5
c86 0 152.167 -21.833 198.5 -65.5s69.5 -104.167 69.5 -181.5v-244c0 -73.333 -20.667 -131.333 -62 -174zM107.001 233c0 -64.667 19.167 -114.834 57.5 -150.501s93.833 -53.5 166.5 -53.5c71.333 0 126.166 17.833 164.499 53.5s57.5 85.834 57.5 150.501v244
c0 64.667 -19.167 114.834 -57.5 150.501s-93.166 53.5 -164.499 53.5c-72.667 0 -128.167 -17.833 -166.5 -53.5s-57.5 -85.834 -57.5 -150.501v-244z" />
    <glyph glyph-name="R" unicode="R" horiz-adv-x="640" 
d="M382 710c63.333 0 113 -17.498 149 -52.498s54 -84.167 54 -147.5c0 -56.667 -15.667 -101.834 -47 -135.501s-74.333 -52.834 -129 -57.501c32.667 -14 60 -41.333 82 -82l112 -222c6 -8.66699 3.66699 -13 -7 -13h-19c-13.333 0 -21.666 3.66699 -24.999 11l-104 206
c-17.333 34 -37.333 58.333 -60 73s-54.334 22 -95.001 22h-165v-299c0 -8.66699 -4 -13 -12 -13h-21c-8.66699 -0 -13 4.33301 -13 13v684c0 8.66699 4.33301 13 13 13h287zM537 510.002c0 50 -14 88.667 -42 116s-67.333 41 -118 41h-249v-312h249
c50.667 0 90 13.5 118 40.5s42 65.167 42 114.5z" />
    <glyph glyph-name="S" unicode="S" horiz-adv-x="622" 
d="M56 525c0 61.333 22.166 109.827 66.499 145.494s105.833 53.5 184.5 53.5c66 0 119.5 -12.333 160.5 -37s74.833 -64 101.5 -118c4.66699 -8 2.66699 -13.667 -6 -17l-20 -9c-6.66699 -2.66699 -12 -0.666992 -16 6c-22.667 45.333 -51.167 78.5 -85.5 99.5
s-79.166 31.5 -134.499 31.5c-64.667 0 -114.834 -13.333 -150.501 -40s-53.5 -64 -53.5 -112c0 -22.667 4.33301 -42.5 13 -59.5s19.5 -30.5 32.5 -40.5s30.333 -18.5 52 -25.5s41.334 -12 59.001 -15s40.167 -5.83301 67.5 -8.5c30 -3.33301 54.5 -6.66602 73.5 -9.99902
s40.833 -9.33301 65.5 -18s44.167 -19.334 58.5 -32.001s26.5 -30 36.5 -52s15 -47.667 15 -77c0 -65.333 -22.5 -115.666 -67.5 -150.999s-110.5 -53 -196.5 -53c-69.333 0 -125.5 14.167 -168.5 42.5s-76.5 72.5 -100.5 132.5c-3.33301 8.66699 -1 14.667 7 18l19 7
c7.33301 2.66699 13 0 17 -8c42 -98.667 117.333 -148 226 -148c145.333 0 218 52.667 218 158c0 22.667 -4.16699 42.334 -12.5 59.001s-18.333 29.834 -30 39.501s-28.167 17.834 -49.5 24.501s-40 11.334 -56 14.001s-37.667 5.66699 -65 9
c-26 3.33301 -47.167 6.33301 -63.5 9s-36 6.83398 -59 12.501s-41.5 12.834 -55.5 21.501s-28 19.5 -42 32.5s-24.333 29.167 -31 48.5s-10 41.666 -10 66.999z" />
    <glyph glyph-name="T" unicode="T" horiz-adv-x="532" 
d="M506 710c8.66699 0 13 -4.33301 13 -13v-18c0 -8 -4.33301 -12 -13 -12h-217v-654c0 -8.66699 -4 -13 -12 -13h-21c-8.66699 -0 -13 4.33301 -13 13v654h-217c-8.66699 0 -13 4 -13 12v18c0 8.66699 4.33301 13 13 13h480z" />
    <glyph glyph-name="U" unicode="U" horiz-adv-x="679" 
d="M122 240c0 -66 18.334 -117.833 55.001 -155.5s91 -56.5 163 -56.5c71.333 0 125.333 18.833 162 56.5s55 89.5 55 155.5v457c0 8.66699 4 13 12 13h22c8 0 12 -4.33301 12 -13v-457c0 -79.333 -22.333 -141.666 -67 -186.999s-110 -68 -196 -68
c-86.667 0 -152.334 22.667 -197.001 68s-67 107.666 -67 186.999v457c0 8.66699 4.33301 13 13 13h21c8 0 12 -4.33301 12 -13v-457z" />
    <glyph glyph-name="V" unicode="V" horiz-adv-x="613" 
d="M592 710c8.66699 0 11.334 -4 8.00098 -12l-267 -686c-2.66699 -8 -8.33398 -12 -17.001 -12h-19c-8.66699 0 -14.334 3.66699 -17.001 11l-267 687c-3.33301 8 -0.666016 12 8.00098 12h19c12 0 19.333 -3.66699 22 -11l222 -575c3.33301 -8.66699 7.5 -21 12.5 -37
l9.5 -30h3c1.33301 4 4.33301 14 9 30s8.66699 28.333 12 37l221 575c2.66699 7.33301 10 11 22 11h19z" />
    <glyph glyph-name="W" unicode="W" horiz-adv-x="870" 
d="M838 710c8 0 10.668 -4 8.00098 -12l-185 -686c-2.66699 -8 -8.33398 -12 -17.001 -12h-20c-10 0 -15.667 3.66699 -17 11l-149 527c-6.66699 24.667 -13.667 55 -21 91h-3c-7.33301 -38 -14.666 -68.333 -21.999 -91l-149 -526c-1.33301 -8 -7 -12 -17 -12h-19
c-10 0 -15.667 3.66699 -17 11l-186 687c-2 8 0.666992 12 8 12h25c10 0 15.667 -3.66699 17 -11l143 -538c2.66699 -10 6.16699 -26.333 10.5 -49s7.5 -38 9.5 -46h2c0.666992 3.33301 3.66699 16.833 9 40.5s9.66602 41.5 12.999 53.5l149 523c1.33301 8 7 12 17 12h20
c10 0 15.667 -4 17 -12l149 -525c3.33301 -13.333 10.333 -44 21 -92h3l18 92l144 541c1.33301 7.33301 7 11 17 11h22z" />
    <glyph glyph-name="X" unicode="X" horiz-adv-x="607" 
d="M589 15c7.33301 -10 5.66602 -14.999 -5.00098 -14.999h-26c-11.333 0 -19.333 3.66699 -24 11l-232 314l-230 -314c-5.33301 -7.33301 -13.333 -11 -24 -11h-25c-10 0 -12 5 -6 15l257 345l-250 338c-5.33301 8 -3 12 7 12h26c10.667 0 18.334 -3.66699 23.001 -11
l224 -302l223 302c4.66699 7.33301 12.334 11 23.001 11h26c4 0 6.66699 -1.33301 8 -4s0.666016 -5.33398 -2.00098 -8.00098l-249 -337z" />
    <glyph glyph-name="Y" unicode="Y" horiz-adv-x="619" 
d="M596 710c9.33301 0 11.668 -4.33301 7.00098 -13l-271 -405v-279c0 -8.66699 -4 -13 -12 -13h-21c-8.66699 -0 -13 4.33301 -13 13v280l-270 404c-4.66699 8.66699 -2.33398 13 6.99902 13h27c12 0 19.667 -3.66699 23 -11l237 -359l237 359
c4.66699 7.33301 12.667 11 24 11h25z" />
    <glyph glyph-name="Z" unicode="Z" horiz-adv-x="555" 
d="M502 710c8.66699 0 13 -4.33398 13 -13.001v-16c0 -6.66699 -1.66699 -12 -5 -16l-421 -621h425c8.66699 0 13 -4.33301 13 -13v-18c0 -8.66699 -4.33301 -13 -13 -13h-470c-8 0 -12 4.33301 -12 13v17c0 6.66699 1.66699 12.334 5 17.001l420 620h-408
c-8.66699 0 -13 4 -13 12v18c0 8.66699 4.33301 13 13 13h453z" />
    <glyph glyph-name="bracketleft" unicode="[" horiz-adv-x="257" 
d="M232 856c4.66699 0 7.83594 -0.669922 9.50293 -2.00293s2.5 -4.33301 2.5 -9v-17c0 -4.66699 -0.833008 -7.66699 -2.5 -9s-4.83398 -2 -9.50098 -2h-120v-923h120c5.33301 0 8.66602 -0.666992 9.99902 -2s2 -4.66602 2 -9.99902v-17
c0 -4.66699 -0.833008 -7.66699 -2.5 -9s-4.83398 -2 -9.50098 -2h-151c-4.66699 0 -7.66699 0.833008 -9 2.5s-2 4.83398 -2 9.50098v978c0 4.66699 0.666992 7.83398 2 9.50098s4.33301 2.5 9 2.5h151z" />
    <glyph glyph-name="backslash" unicode="\" horiz-adv-x="392" 
d="M34 699c-2 7.33301 0.666992 11 8 11h22c8 0 13.333 -3.66699 16 -11l278 -748c2 -7.33301 -0.666992 -11 -8 -11h-22c-8 0 -13.333 3.66699 -16 11z" />
    <glyph glyph-name="bracketright" unicode="]" horiz-adv-x="257" 
d="M175 856c4.66699 0 7.83398 -0.667969 9.50098 -2.00098s2.5 -4.66602 2.5 -9.99902v-978c0 -5.33301 -0.833008 -8.66602 -2.5 -9.99902s-4.83398 -2 -9.50098 -2h-150c-4.66699 0 -7.83398 0.666992 -9.50098 2s-2.5 4.33301 -2.5 9v17
c0 5.33301 0.833008 8.66602 2.5 9.99902s4.83398 2 9.50098 2h120v923h-120c-4.66699 0 -7.83398 0.666992 -9.50098 2s-2.5 4.33301 -2.5 9v17c0 4.66699 0.833008 7.66699 2.5 9s4.83398 2 9.50098 2h150z" />
    <glyph glyph-name="asciicircum" unicode="^" horiz-adv-x="594" 
d="M301 810c6 0 11.333 -3.33301 16 -10l220 -265c7.33301 -10 5 -15 -7 -15h-20c-9.33301 0 -17 3.66699 -23 11l-191 233h-3l-187 -233c-6 -7.33301 -14 -11 -24 -11h-19c-12 0 -14 5 -6 15l216 265c4.66699 6.66699 10 10 16 10h12z" />
    <glyph glyph-name="underscore" unicode="_" horiz-adv-x="510" 
d="M469 0c8 0 12 -4.33301 12 -13v-16c0 -8.66699 -4 -13 -12 -13h-427c-8.66699 0 -13 4.33301 -13 13v16c0 8.66699 4.33301 13 13 13h427z" />
    <glyph glyph-name="grave" unicode="`" horiz-adv-x="257" 
d="M37 722c4.66699 5.33301 12 5.66602 22 0.999023l169 -107c6 -3.33301 6.66699 -7.66602 2 -12.999l-7 -8c-3.33301 -4 -8.66602 -4.66699 -15.999 -2l-178 103c-6.66699 2.66699 -7.33398 7.66699 -2.00098 15z" />
    <glyph glyph-name="a" unicode="a" horiz-adv-x="509" 
d="M57 421c36.667 70.667 102.334 105.998 197.001 105.998c72.667 0 123.167 -17.667 151.5 -53s42.5 -82.666 42.5 -141.999v-263c0 -17.333 -2.5 -29.666 -7.5 -36.999s-14.5 -14 -28.5 -20c-40 -17.333 -93 -26 -159 -26c-82 0 -138 12.167 -168 36.5
s-45 62.833 -45 115.5c0 55.333 16.667 94.333 50 117s89 34 167 34c28.667 0 78 -3.66699 148 -11v55c0 48.667 -10.833 86.667 -32.5 114s-61.834 41 -120.501 41c-74.667 0 -127 -28.333 -157 -85c-4 -6 -9.33301 -7.66699 -16 -5l-16 6c-8 4 -10 9.66699 -6 17z
M405 241.998c-73.333 7.33301 -124 10.999 -152 10.999c-62 0 -105.667 -8.66699 -131 -26s-38 -46.666 -38 -87.999c0 -40 11.5 -69.5 34.5 -88.5s66.833 -28.5 131.5 -28.5c54 0 98 6.66699 132 20c10 4 16.333 8.16699 19 12.5s4 12.5 4 24.5v163z" />
    <glyph glyph-name="b" unicode="b" horiz-adv-x="534" 
d="M100 740c7.33301 0 11 -4.00195 11 -12.002v-239c66 25.333 125 38 177 38c128.667 0 193 -64.333 193 -193v-146c0 -134.667 -70.333 -202 -211 -202c-62 0 -116.333 9.66699 -163 29c-16 6.66699 -26.5 13.334 -31.5 20.001s-7.5 18.334 -7.5 35.001v658
c0 8 4 12 12 12h20zM438 332.998c0 102.667 -51.333 154.001 -154 154.001c-58.667 0 -116.334 -13 -173.001 -39v-366c0 -10 1.33301 -16.833 4 -20.5s9.33398 -7.83398 20.001 -12.501c38.667 -16 83 -24 133 -24c113.333 0 170 54.333 170 163v145z" />
    <glyph glyph-name="c" unicode="c" horiz-adv-x="513" 
d="M53 333c0 61.333 18 108.999 54 142.999s89 51 159 51c110.667 0 179.334 -45.667 206.001 -137c2.66699 -8 0.333984 -13.667 -6.99902 -17l-17 -6c-8 -2.66699 -13.333 0 -16 8c-12 39.333 -30.833 68 -56.5 86s-62.834 27 -111.501 27
c-55.333 0 -97.333 -13.5 -126 -40.5s-43 -64.5 -43 -112.5v-156c0 -48 14.667 -85.667 44 -113s71 -41 125 -41c47.333 0 84.666 9.66699 111.999 29s46.666 49.333 57.999 90c2.66699 8 8 10.667 16 8l18 -6c8 -3.33301 10.333 -8.66602 7 -15.999
c-29.333 -96 -99.666 -144 -210.999 -144c-68.667 0 -121 17 -157 51s-54 81.667 -54 143v153z" />
    <glyph glyph-name="d" unicode="d" horiz-adv-x="534" 
d="M54 331c0 130.667 64 196 192 196c58 0 117 -12 177 -36v237c0 8 4 12 12 12h19c8 0 12 -4 12 -12v-658c0 -16 -2.66699 -27.5 -8 -34.5s-16 -13.833 -32 -20.5c-48 -19.333 -103 -29 -165 -29c-138 0 -207 66.333 -207 199v146zM423 449
c-52.667 25.333 -109.668 37.998 -171.001 37.998c-104 0 -156 -52.333 -156 -157v-144c0 -107.333 56 -161 168 -161c48 0 93 7.66699 135 23c10.667 4.66699 17.334 8.83398 20.001 12.501s4 10.834 4 21.501v367z" />
    <glyph glyph-name="e" unicode="e" horiz-adv-x="527" 
d="M51 318c0 65.333 18.498 116.5 55.498 153.5s90.5 55.5 160.5 55.5c70.667 0 124.334 -18.667 161.001 -56s55 -87.666 55 -150.999v-51c0 -14.667 -7.66699 -22 -23 -22h-366v-68c0 -48.667 14.167 -86.834 42.5 -114.501s69.833 -41.5 124.5 -41.5
c82 0 141 32.667 177 98c4.66699 7.33301 10.667 9 18 5l14 -8c8 -4 9.33301 -10 4 -18c-40.667 -76 -111.667 -114 -213 -114c-69.333 0 -121.666 17.5 -156.999 52.5s-53 83.167 -53 144.5v135zM439.998 322c0 52 -14.667 92.833 -44 122.5s-72.333 44.5 -129 44.5
s-99.667 -14.833 -129 -44.5s-44 -70.5 -44 -122.5v-40h346v40z" />
    <glyph glyph-name="f" unicode="f" horiz-adv-x="344" 
d="M322 740c8 0 12 -4.00098 12 -12.001v-17c0 -7.33301 -4 -11 -12 -11c-61.333 0 -103 -10.667 -125 -32s-33 -62.333 -33 -123v-33h160c8 0 12 -3.66699 12 -11v-17c0 -7.33301 -4 -11 -12 -11h-160v-461c0 -8 -4 -12 -12 -12h-19c-8 0 -12 4 -12 12v461h-103
c-8 0 -12 3.66699 -12 11v17c0 7.33301 4 11 12 11h103v33c0 72 14.5 122.333 43.5 151s79.167 43.334 150.5 44.001h7z" />
    <glyph glyph-name="g" unicode="g" horiz-adv-x="534" 
d="M53 325c0 134.667 69.999 202 209.999 202c62.667 0 117.334 -9.66699 164.001 -29c16 -7.33301 26.5 -14.333 31.5 -21s7.5 -18 7.5 -34v-480c0 -144 -69 -216 -207 -216c-91.333 0 -156 37.667 -194 113c-4.66699 8.66699 -3 15 5 19l14 7
c7.33301 4 13.333 2.33301 18 -5c15.333 -30.667 35 -54.167 59 -70.5s56.333 -24.5 97 -24.5c110 0 165 58.333 165 175v68c-56.667 -24 -116 -36 -178 -36c-128 0 -192 64 -192 192v140zM397.999 464c-40.667 15.333 -84.667 22.999 -132 22.999
c-113.333 0 -170 -54.333 -170 -163v-138c0 -102.667 51.333 -154 154 -154c56 0 113.667 12.333 173 37v362c0 10 -1.5 16.833 -4.5 20.5s-9.83301 7.83398 -20.5 12.501z" />
    <glyph glyph-name="h" unicode="h" horiz-adv-x="549" 
d="M102 740c8 0 11.999 -4 11.999 -12v-236c50.667 23.333 109.334 35 176.001 35c128.667 0 193 -64.333 193 -193v-322c0 -8 -3.66699 -12 -11 -12h-20c-8 0 -12 4 -12 12v320c0 103.333 -51.667 155 -155 155c-64.667 0 -121.667 -12 -171 -36v-439c0 -8 -4 -12 -12 -12
h-19c-8 0 -12 4 -12 12v716c0 8 4 12 12 12h19z" />
    <glyph glyph-name="i" unicode="i" horiz-adv-x="184" 
d="M95 691c9.33301 0 15.833 -1.83301 19.5 -5.5s5.5 -10.167 5.5 -19.5v-6c0 -9.33301 -1.83301 -16 -5.5 -20s-10.167 -6 -19.5 -6h-5c-10 0 -16.833 1.83301 -20.5 5.5s-5.5 10.5 -5.5 20.5v6c0 9.33301 1.83301 15.833 5.5 19.5s10.5 5.5 20.5 5.5h5zM102 512
c8 0 12 -3.66699 12 -11v-489c0 -8 -4 -12 -12 -12h-20c-7.33301 0 -11 4 -11 12v489c0 7.33301 3.66699 11 11 11h20z" />
    <glyph glyph-name="j" unicode="j" horiz-adv-x="185" 
d="M95 691c9.33301 0 16 -1.83301 20 -5.5s6 -10.167 6 -19.5v-6c0 -9.33301 -2 -16 -6 -20s-10.667 -6 -20 -6h-5c-9.33301 0 -16 1.83301 -20 5.5s-6 10.5 -6 20.5v6c0 9.33301 2 15.833 6 19.5s10.667 5.5 20 5.5h5zM102 512c8 0 12 -3.66699 12 -11v-510
c0 -74 -15 -129.333 -45 -166s-80.667 -55 -152 -55c-8 0 -12 4 -12 12v17c0 7.33301 4 11 12 11c57.333 0 97.333 14.833 120 44.5s34 75.167 34 136.5v510c0 7.33301 4 11 12 11h19z" />
    <glyph glyph-name="k" unicode="k" horiz-adv-x="499" 
d="M475 13c4 -8.66699 1.66406 -12.999 -7.00293 -12.999h-20c-9.33301 0 -15.666 3.33301 -18.999 10l-83 168c-11.333 23.333 -25.166 40.166 -41.499 50.499s-37.833 15.5 -64.5 15.5h-126v-232c0 -8 -4 -12 -12 -12h-19c-8 0 -12 4 -12 12v716c0 8 4 12 12 12h19
c8 0 12 -4 12 -12v-445h121h10l174 220c4 6 11.667 9 23 9h17c12.667 0 15.334 -4.33301 8.00098 -13l-178 -223c40.667 -8 72 -34.667 94 -80z" />
    <glyph glyph-name="l" unicode="l" horiz-adv-x="192" 
d="M117 12c0 -8 -3.66699 -12 -11 -12h-20c-7.33301 0 -11 4 -11 12v716c0 8 3.66699 12 11 12h20c7.33301 0 11 -4 11 -12v-716z" />
    <glyph glyph-name="m" unicode="m" horiz-adv-x="813" 
d="M387 479c56 32 117 48.001 183 48.001c117.333 0 176 -62 176 -186v-329c0 -8 -4 -12 -12 -12h-19c-8 0 -12 4 -12 12v327c0 50.667 -11.167 88 -33.5 112s-57.166 36 -104.499 36c-54 0 -105.667 -13.667 -155 -41c16 -26.667 24 -61.667 24 -105v-329
c0 -8 -4 -12 -12 -12h-19c-8 0 -12 4 -12 12v327c0 98.667 -47.333 148 -142 148c-44 0 -83 -8 -117 -24c-14 -6.66699 -21 -18.334 -21 -35.001v-416c0 -8 -3.66699 -12 -11 -12h-20c-8 0 -12 4 -12 12v427c0 15.333 2.66699 26.833 8 34.5s15.333 15.167 30 22.5
c45.333 20.667 94.666 31 147.999 31c58.667 0 103 -16 133 -48z" />
    <glyph glyph-name="n" unicode="n" 
d="M106 494c56 22 116.333 33.001 181 33.001c129.333 0 194 -64.333 194 -193v-322c0 -8 -4 -12 -12 -12h-20c-7.33301 0 -11 4 -11 12v320c0 103.333 -52 155 -156 155c-54 0 -104 -8.66699 -150 -26c-14 -6.66699 -21 -17.667 -21 -33v-416c0 -8 -3.66699 -12 -11 -12
h-20c-8 0 -12 4 -12 12v427c0 15.333 2.5 26.666 7.5 33.999s15.167 14.333 30.5 21z" />
    <glyph glyph-name="o" unicode="o" horiz-adv-x="537" 
d="M54 351c0 54 19.333 96.833 58 128.5s90.667 47.5 156 47.5c66 0 118.333 -15.667 157 -47s58 -74.333 58 -129v-190c0 -54 -19.333 -96.667 -58 -128s-91 -47 -157 -47c-65.333 0 -117.333 15.667 -156 47s-58 74 -58 128v190zM440 352c0 42 -15.667 75.167 -47 99.5
s-73 36.5 -125 36.5c-51.333 0 -92.666 -12.333 -123.999 -37s-47 -57.667 -47 -99v-191c0 -41.333 15.667 -74.333 47 -99s72.666 -37 123.999 -37c52 0 93.667 12.167 125 36.5s47 57.5 47 99.5v191z" />
    <glyph glyph-name="p" unicode="p" horiz-adv-x="534" 
d="M108 498c48 19.333 103.667 29 167 29c137.333 0 206 -66.667 206 -200v-147c0 -129.333 -65.667 -194 -197 -194c-55.333 0 -113 14.333 -173 43v-237c0 -8 -3.66699 -12 -11 -12h-20c-8 0 -12 4 -12 12v651c0 16 2.66699 27.5 8 34.5s16 13.833 32 20.5zM438 326
c0 107.333 -55.999 161.002 -167.999 161.002c-48.667 0 -93.334 -7.66699 -134.001 -23c-11.333 -4.66699 -18.333 -8.83398 -21 -12.501s-4 -10.834 -4 -21.501v-361c58.667 -29.333 115.667 -44 171 -44c104 0 156 52 156 156v145z" />
    <glyph glyph-name="q" unicode="q" horiz-adv-x="534" 
d="M264 527c62 0 116.333 -9.66699 163 -29c16 -7.33301 26.5 -14.333 31.5 -21s7.5 -18 7.5 -34v-651c0 -8 -4 -12 -12 -12h-19c-8 0 -12 4 -12 12v237c-62 -28.667 -121 -43 -177 -43c-128 0 -192 64 -192 192v147c0 134.667 70 202 210 202zM96 179
c0 -102.667 51.332 -154.002 153.999 -154.002c56.667 0 114.334 14.667 173.001 44v361c0 10.667 -1.33301 17.834 -4 21.501s-9.66699 7.83398 -21 12.501c-40.667 15.333 -84.667 23 -132 23c-113.333 0 -170 -54.333 -170 -163v-145z" />
    <glyph glyph-name="r" unicode="r" horiz-adv-x="337" 
d="M284 527h31c7.33301 0 11 -4 11 -12v-16c0 -8 -3.66699 -12 -11 -12h-32c-56.667 0 -107 -8.66699 -151 -26c-14 -6.66699 -21 -17.667 -21 -33v-416c0 -8 -3.66699 -12 -11 -12h-20c-8 0 -12 4 -12 12v428c0 15.333 2.5 26.666 7.5 33.999s15.167 14.333 30.5 21
c50.667 20.667 110 31.334 178 32.001z" />
    <glyph glyph-name="s" unicode="s" horiz-adv-x="492" 
d="M51 383c0 46 16.1689 81.5 48.502 106.5s79.833 37.5 142.5 37.5c102.667 0 169.334 -36.667 200.001 -110c4 -7.33301 2 -13 -6 -17l-15 -6c-6.66699 -3.33301 -12.334 -1.66602 -17.001 5.00098c-12 29.333 -30.333 51.5 -55 66.5s-60 22.5 -106 22.5
c-100 0 -150 -34.667 -150 -104c0 -18.667 3.16699 -34.5 9.5 -47.5s13.5 -23 21.5 -30s20.833 -12.833 38.5 -17.5s32.167 -7.66699 43.5 -9s29.666 -3.33301 54.999 -6c30 -2.66699 54.833 -6.33398 74.5 -11.001s39.167 -11.834 58.5 -21.501s33.666 -23.667 42.999 -42
s14 -40.833 14 -67.5c0 -46 -16.5 -81.833 -49.5 -107.5s-82.833 -38.5 -149.5 -38.5c-109.333 0 -180.333 42 -213 126c-2.66699 8 -0.333984 13.333 6.99902 16l17 5c6.66699 2.66699 11.667 0.333984 15 -6.99902c24.667 -68 82.334 -102 173.001 -102
c105.333 0 158 35.333 158 106c0 38 -12.667 63.833 -38 77.5s-65 23.167 -119 28.5c-27.333 2.66699 -48 5 -62 7s-31.5 6.16699 -52.5 12.5s-36.667 14.333 -47 24s-19.5 23.167 -27.5 40.5s-12 38.333 -12 63z" />
    <glyph glyph-name="t" unicode="t" horiz-adv-x="344" 
d="M154 632c8 0 12 -3.66797 12 -11.001v-109h159c8 0 12 -3.66699 12 -11v-17c0 -7.33301 -4 -11 -12 -11h-159v-290c0 -63.333 10.833 -105.166 32.5 -125.499s63.167 -30.5 124.5 -30.5c8 0 12 -4 12 -12v-17c0 -8 -4 -12 -12 -12
c-75.333 -0.666992 -127.5 12.833 -156.5 40.5s-43.5 79.5 -43.5 155.5v291h-108c-7.33301 0 -11 3.66699 -11 11v17c0 7.33301 3.66699 11 11 11h108v109c0 7.33301 4 11 12 11h19z" />
    <glyph glyph-name="u" unicode="u" 
d="M467 512c7.33301 0 11 -3.66797 11 -11.001v-428c0 -15.333 -2.5 -26.666 -7.5 -33.999s-14.833 -14.333 -29.5 -21c-54 -21.333 -114.333 -32 -181 -32c-129.333 0 -194 64.333 -194 193v322c0 7.33301 4 11 12 11h19c8 0 12 -3.66699 12 -11v-320
c0 -104 51.667 -156 155 -156c56 0 106 8.66699 150 26c14 6.66699 21 18 21 34v416c0 7.33301 4 11 12 11h20z" />
    <glyph glyph-name="v" unicode="v" horiz-adv-x="498" 
d="M471 512c6 0 9.66699 -0.835938 11 -2.50293s1 -5.16699 -1 -10.5l-209 -491c-3.33301 -8 -9 -12 -17 -12h-12c-8 0 -13.667 4 -17 12l-208 491c-4 8.66699 -1 13 9 13h15c6.66699 0 11.167 -0.666992 13.5 -2s4.5 -4.66602 6.5 -9.99902l159 -374
c3.33301 -8.66699 8.16602 -22.167 14.499 -40.5s10.833 -30.5 13.5 -36.5h2c2 4.66699 6 15.834 12 33.501s11 31.834 15 42.501l158 376c2.66699 7.33301 9.33398 11 20.001 11h15z" />
    <glyph glyph-name="w" unicode="w" horiz-adv-x="729" 
d="M695 512c5.33301 0 8.49805 -1 9.49805 -3s0.833008 -5.33301 -0.5 -10l-154 -492c-2.66699 -8 -8 -12 -16 -12h-15c-7.33301 0 -12.666 4 -15.999 12l-118 361c-3.33301 11.333 -7.16602 25.833 -11.499 43.5s-7.16602 28.5 -8.49902 32.5h-3
c-0.666992 -2 -3.33398 -12.167 -8.00098 -30.5s-9 -33.5 -13 -45.5l-116 -361c-3.33301 -8 -8.66602 -12 -15.999 -12h-15c-7.33301 0 -12.333 4 -15 12l-154 492c-1.33301 3.33301 -1.83301 6 -1.5 8s1.16602 3.33301 2.49902 4s4 1 8 1h15c11.333 0 18 -4 20 -12
l109 -353c2.66699 -8.66699 6.66699 -24.5 12 -47.5s9.33301 -38.5 12 -46.5h2c2.66699 7.33301 6.83398 22.333 12.501 45s10.167 39.334 13.5 50.001l111 337c1.33301 5.33301 3.16602 8.66602 5.49902 9.99902s6.83301 2 13.5 2h10c6 0 10.167 -0.666992 12.5 -2
s4.16602 -4.33301 5.49902 -9l110 -334c4 -12.667 9 -30.5 15 -53.5s10.333 -38.167 13 -45.5h2c2.66699 8 6.83398 23.667 12.501 47l12.5 51l108 350c2 7.33301 8.66699 11 20 11h14z" />
    <glyph glyph-name="x" unicode="x" horiz-adv-x="477" 
d="M440 512c10.667 0 13 -4 7 -12l-181 -237l193 -251c5.33301 -8 2.66602 -12 -8.00098 -12h-21c-8 -0 -14.667 3.33301 -20 10l-172 223l-171 -223c-4 -6.66699 -10.667 -10 -20 -10h-20c-10 0 -12.667 4 -8 12l193 252l-184 236c-4.66699 8 -1.66699 12 9 12h20
c9.33301 0 16 -3 20 -9l162 -209l161 209c4.66699 6 11.334 9 20.001 9h20z" />
    <glyph glyph-name="y" unicode="y" horiz-adv-x="549" 
d="M467 512c7.33301 0 10.999 -3.66699 10.999 -11v-538c0 -144 -69.333 -216 -208 -216c-92 0 -157 37.667 -195 113c-6 8.66699 -4.33301 15 5 19l13 7c8 4 14.333 2.33301 19 -5c32 -63.333 84.333 -95 157 -95c110.667 0 166 58.333 166 175v65
c-59.333 -22 -117.666 -33 -174.999 -33c-129.333 0 -194 64.333 -194 193v315c0 7.33301 4 11 12 11h19c8 0 12 -3.66699 12 -11v-313c0 -104 51.667 -156 155 -156c56.667 0 113.667 11.333 171 34v435c0 7.33301 4 11 12 11h20z" />
    <glyph glyph-name="z" unicode="z" horiz-adv-x="447" 
d="M406 39c7.33301 0 11 -4 11 -12v-15c0 -8 -3.66699 -12 -11 -12h-364c-7.33301 0 -11 4 -11 12v15c0 5.33301 1.66699 10 5 14l322 432h-312c-7.33301 0 -11 4 -11 12v16c0 7.33301 3.66699 11 11 11h355c7.33301 0 11 -3.66699 11 -11v-16c0 -6 -1.66699 -11 -5 -15
l-322 -431h321z" />
    <glyph glyph-name="braceleft" unicode="{" horiz-adv-x="306" 
d="M283 856c7.33301 0 11.001 -4 11.001 -12v-16c0 -8 -3.66699 -12 -11 -12h-44c-28.667 0 -49.334 -7.16699 -62.001 -21.5s-19 -36.5 -19 -66.5v-255c0 -61.333 -22 -101 -66 -119c44 -14.667 66 -54.334 66 -119.001v-254c0 -30 6.33301 -52.167 19 -66.5
s33.334 -21.5 62.001 -21.5h44c7.33301 0 11 -4 11 -12v-16c0 -8 -3.66699 -12 -11 -12h-44c-44.667 0 -76.334 10 -95.001 30s-28 52 -28 96v251c0 34.667 -7 60.334 -21 77.001s-37.333 25 -70 25h-11c-6.66699 0 -10 4 -10 12v20c0 8 3.33301 12 10 12h11
c32.667 0 56 8.5 70 25.5s21 42.5 21 76.5v252c0 44 9.33301 76 28 96s50 30 94 30h45z" />
    <glyph glyph-name="bar" unicode="|" horiz-adv-x="181" 
d="M99 856c8 0 12 -4 12 -12v-979c0 -8 -4 -12 -12 -12h-18c-7.33301 0 -11 4 -11 12v979c0 8 3.66699 12 11 12h18z" />
    <glyph glyph-name="braceright" unicode="}" horiz-adv-x="306" 
d="M67 856c44 0 75.501 -10 94.501 -30s28.5 -52 28.5 -96v-252c0 -34 7 -59.5 21 -76.5s37.333 -25.5 70 -25.5h11c6.66699 0 10 -4 10 -12v-20c0 -8 -3.33301 -12 -10 -12h-11c-32.667 0 -56 -8.33301 -70 -25s-21 -42.334 -21 -77.001v-251c0 -44 -9.33301 -76 -28 -96
s-50.334 -30 -95.001 -30h-44c-8 0 -12 4 -12 12v16c0 8 4 12 12 12h43c29.333 0 50.333 7.16699 63 21.5s19 36.5 19 66.5v254c0 64.667 22 104.334 66 119.001c-44 17.333 -66 57 -66 119v255c0 30 -6.33301 52.167 -19 66.5s-33.667 21.5 -63 21.5h-43c-8 0 -12 4 -12 12
v16c0 8 4 12 12 12h44z" />
    <glyph glyph-name="asciitilde" unicode="~" horiz-adv-x="562" 
d="M71 314c35.333 33.333 73.999 50 115.999 50c27.333 0 59.666 -7.5 96.999 -22.5s67 -22.5 89 -22.5c32.667 0 63.334 13.333 92.001 40c6 4.66699 11.667 4.33398 17 -0.999023l12 -11c6.66699 -5.33301 6.66699 -11.333 0 -18c-37.333 -32.667 -76.333 -49 -117 -49
c-27.333 0 -59.666 7.33301 -96.999 22s-67 22 -89 22c-31.333 0 -62 -13.333 -92 -40c-5.33301 -4.66699 -11 -4.33398 -17 0.999023l-11 11c-6.66699 6 -6.66699 12 0 18z" />
    <glyph glyph-name="exclamdown" unicode="&#xa1;" horiz-adv-x="178" 
d="M87 454c-10.667 0 -17.834 2 -21.501 6s-5.5 11 -5.5 21v6c0 10.667 1.83301 17.834 5.5 21.501s10.834 5.5 21.501 5.5h5c10.667 0 17.834 -1.83301 21.501 -5.5s5.5 -10.834 5.5 -21.501v-6c0 -10 -1.83301 -17 -5.5 -21s-10.834 -6 -21.501 -6h-5zM78 -231
c-8 0 -12 4 -12 12l6 566c0 8 4 12 12 12h11c7.33301 0 11 -4 11 -12l6 -566c0.666992 -8 -3 -12 -11 -12h-23z" />
    <glyph glyph-name="cent" unicode="&#xa2;" horiz-adv-x="533" 
d="M473 146c8 -3.33301 10.334 -8.66504 7.00098 -15.998c-14 -45.333 -36.167 -79.833 -66.5 -103.5s-71.166 -36.834 -122.499 -39.501v-59c0 -8 -4 -12 -12 -12h-20c-8 0 -12 4 -12 12v59c-61.333 2.66699 -108.333 21 -141 55s-49 80 -49 138v153
c0 57.333 16.167 102.833 48.5 136.5s79.5 52.167 141.5 55.5v73c0 8 4 12 12 12h20c8 0 12 -4 12 -12v-73c53.333 -2.66699 94.5 -15.167 123.5 -37.5s49.833 -54.833 62.5 -97.5c2.66699 -8.66699 0 -14.334 -8 -17.001l-16 -6c-7.33301 -2.66699 -13 0 -17 8
c-12 39.333 -30.667 68 -56 86s-62.333 27 -111 27c-55.333 0 -97.333 -13.5 -126 -40.5s-43 -64.5 -43 -112.5v-156c0 -48 14.667 -85.667 44 -113s71 -41 125 -41c47.333 0 84.666 9.66699 111.999 29s46.666 49.333 57.999 90c2.66699 8 8 10.667 16 8z" />
    <glyph glyph-name="sterling" unicode="&#xa3;" horiz-adv-x="629" 
d="M146 542c0 54 17.1641 97.834 51.4971 131.501s86.166 50.5 155.499 50.5c56.667 0 102.834 -12 138.501 -36s62.834 -63.667 81.501 -119c3.33301 -8 0.666016 -13.333 -8.00098 -16l-19 -7c-6.66699 -3.33301 -12 -0.666016 -16 8.00098
c-17.333 47.333 -39.666 80.333 -66.999 99s-63.666 28 -108.999 28c-54 0 -94.167 -12.833 -120.5 -38.5s-39.5 -59.5 -39.5 -101.5v-182h277c8 0 12 -4.33301 12 -13v-15c0 -8.66699 -4 -13 -12 -13h-277v-168c0 -48 -16.667 -84 -50 -108v-2c64 2 102.667 3 116 3h301
c8 0 12 -4 12 -12v-18c0 -8.66699 -4 -13 -12 -13h-511c-8 0 -12 4.33301 -12 13v18c0 7.33301 2.66699 11 8 11h22c26.667 1.33301 46.334 12.666 59.001 33.999s19 45.666 19 72.999v169h-84c-8.66699 0 -13 4.33301 -13 13v15c0 8.66699 4.33301 13 13 13h84v183z" />
    <glyph glyph-name="currency" unicode="&#xa4;" horiz-adv-x="594" 
d="M528 138c5.33301 -5.33301 5.33105 -11.001 -0.00195312 -17.001l-14 -14c-5.33301 -5.33301 -10.666 -5.33301 -15.999 0l-57 56c-41.333 -36 -89.333 -54 -144 -54c-53.333 0 -101 17.333 -143 52l-56 -56c-5.33301 -5.33301 -10.666 -5.33301 -15.999 0l-14 14
c-5.33301 5.33301 -5.33301 10.666 0 15.999l56 57c-36 40 -54 88 -54 144c0 54.667 17.667 102.334 53 143.001l-57 57c-5.33301 5.33301 -5.33301 10.666 0 15.999l14 14c5.33301 5.33301 11 5.33301 17 0l56 -56c42 35.333 90 53 144 53c54.667 0 102 -17.333 142 -52
l56 56c6 6 11.667 6 17 0l14 -13c5.33301 -5.33301 5.33301 -11 0 -17l-56 -56c36 -41.333 54 -89.666 54 -144.999c0 -53.333 -17.333 -100.666 -52 -141.999zM296.998 521.999c-52 0 -96 -17.833 -132 -53.5s-54 -79.5 -54 -131.5s18 -96.167 54 -132.5
s80 -54.5 132 -54.5s96 18.167 132 54.5s54 80.5 54 132.5s-18 95.833 -54 131.5s-80 53.5 -132 53.5z" />
    <glyph glyph-name="yen" unicode="&#xa5;" horiz-adv-x="629" 
d="M591 710c9.33301 0 11.668 -4.33301 7.00098 -13l-242 -358h146c8 0 12 -4 12 -12v-12c0 -7.33301 -4 -11 -12 -11h-164v-108h164c8 0 12 -4 12 -12v-12c0 -7.33301 -4 -11 -12 -11h-164v-148c0 -8.66699 -4.33301 -13 -13 -13h-21c-8 -0 -12 4.33301 -12 13v148h-166
c-8 0 -12 3.66699 -12 11v12c0 8 4 12 12 12h166v108h-166c-8 0 -12 3.66699 -12 11v12c0 8 4 12 12 12h148l-242 358c-4.66699 8.66699 -2.33398 13 6.99902 13h24c11.333 0 19 -3.66699 23 -11l230 -345l229 345c4.66699 7.33301 12.667 11 24 11h22z" />
    <glyph glyph-name="brokenbar" unicode="&#xa6;" horiz-adv-x="190" 
d="M104 856c7.33301 0 11 -4 11 -12v-401c0 -8 -3.66699 -12 -11 -12h-18c-7.33301 0 -11 4 -11 12v401c0 8 3.66699 12 11 12h18zM104 279c7.33301 0 11 -4 11 -12v-401c0 -8 -3.66699 -12 -11 -12h-18c-7.33301 0 -11 4 -11 12v401c0 8 3.66699 12 11 12h18z" />
    <glyph glyph-name="section" unicode="&#xa7;" horiz-adv-x="590" 
d="M62 555c0 54 18.8359 96.6553 56.5029 127.988s94.834 47 171.501 47c120.667 0 201.334 -56 242.001 -168c3.33301 -8 0.666016 -13.667 -8.00098 -17l-18 -8c-8 -3.33301 -13.667 -0.666016 -17 8.00098c-34 94.667 -100.333 142 -199 142
c-62.667 0 -108.667 -11.667 -138 -35s-44 -55.666 -44 -96.999c0 -21.333 4 -39.666 12 -54.999s17.167 -27.166 27.5 -35.499s25.666 -15.5 45.999 -21.5s37.333 -10.167 51 -12.5s33.5 -4.83301 59.5 -7.5s48.167 -5.66699 66.5 -9s38.333 -9 60 -17
s39.167 -17.667 52.5 -29s24.5 -26.666 33.5 -45.999s13.5 -41.666 13.5 -66.999c0 -66.667 -33.667 -118 -101 -154c72.667 -23.333 109 -73 109 -149c0 -53.333 -20.167 -95.833 -60.5 -127.5s-99.833 -47.5 -178.5 -47.5c-125.333 0 -207.666 57 -246.999 171
c-2.66699 8 0.333008 13.333 9 16l18 7c8 2.66699 13.667 -0.333008 17 -9c32 -94.667 99.667 -142 203 -142c64.667 0 113 11.667 145 35s48 55.666 48 96.999c0 18 -2.33301 33.667 -7 47s-12.334 24.5 -23.001 33.5s-21 16.333 -31 22s-24.333 10.334 -43 14.001
s-33.834 6.33398 -45.501 8.00098s-28.5 3.5 -50.5 5.5c-28.667 3.33301 -51.834 6.33301 -69.501 9s-38.334 7.83398 -62.001 15.501s-42.167 16.834 -55.5 27.501s-24.833 25.834 -34.5 45.501s-14.5 42.834 -14.5 69.501c0 72 38 124.333 114 157
c-72 22.667 -108 72.334 -108 149.001zM295.003 379.988c-34 4 -59.668 7.33008 -77.001 9.99707c-7.33301 -2 -14.5 -4.5 -21.5 -7.5s-16.667 -8.16699 -29 -15.5s-22.833 -15.666 -31.5 -24.999s-16.334 -21.666 -23.001 -36.999s-10 -32.333 -10 -51
c0 -20 3.83301 -37.5 11.5 -52.5s16.834 -26.833 27.501 -35.5s25.667 -15.834 45 -21.501s36.5 -9.66699 51.5 -12s34.833 -4.83301 59.5 -7.5c47.333 -5.33301 75.333 -8.66602 84 -9.99902c8.66699 4 17 8.5 25 13.5s18.667 13 32 24s24 25.167 32 42.5s12 36.333 12 57
c0 23.333 -5 43.333 -15 60s-24.833 29.334 -44.5 38.001s-39.167 15.167 -58.5 19.5s-42.666 7.83301 -69.999 10.5z" />
    <glyph glyph-name="dieresis" unicode="&#xa8;" horiz-adv-x="439" 
d="M124 676c8.66699 0 14.5 -1.66699 17.5 -5s4.5 -9.33301 4.5 -18v-7c0 -8.66699 -1.5 -14.5 -4.5 -17.5s-8.83301 -4.5 -17.5 -4.5h-7c-8.66699 0 -14.5 1.5 -17.5 4.5s-4.5 8.83301 -4.5 17.5v7c0 8.66699 1.5 14.667 4.5 18s8.83301 5 17.5 5h7zM314 676
c16 0 24 -7.66699 24 -23v-7c0 -14.667 -8 -22 -24 -22h-5c-9.33301 0 -15.666 1.5 -18.999 4.5s-5 8.83301 -5 17.5v7c0 8.66699 1.66699 14.667 5 18s9.66602 5 18.999 5h5z" />
    <glyph glyph-name="copyright" unicode="&#xa9;" horiz-adv-x="811" 
d="M47 351c0 101.333 34.667 186.5 104 255.5s154.666 103.5 255.999 103.5c100 0 184.5 -34.5 253.5 -103.5s103.5 -154.167 103.5 -255.5c0 -100.667 -34.5 -185.667 -103.5 -255s-153.5 -104 -253.5 -104c-101.333 0 -186.666 34.667 -255.999 104s-104 154.333 -104 255
zM731 351c0 92 -31.167 169.333 -93.5 232s-139.166 94 -230.499 94c-92.667 0 -170.334 -31.167 -233.001 -93.5s-94 -139.833 -94 -232.5c0 -92 31.333 -169.5 94 -232.5s140.334 -94.5 233.001 -94.5c91.333 0 168.166 31.5 230.499 94.5s93.5 140.5 93.5 232.5zM246 406
c0 45.333 13.5029 80.666 40.5029 105.999s65.833 38 116.5 38c44 0 77.833 -8.5 101.5 -25.5s40.5 -42.5 50.5 -76.5c2.66699 -6 1 -10.333 -5 -13l-12 -4c-6 -1.33301 -10.333 0.666992 -13 6c-8.66699 30 -22 51.167 -40 63.5s-45.667 18.5 -83 18.5
c-82 0 -123 -37.333 -123 -112v-120c0 -35.333 10.5 -63 31.5 -83s51.5 -30 91.5 -30c35.333 0 62.666 7 81.999 21s33.666 36.333 42.999 67c1.33301 6 5.66602 8 12.999 6l11 -4c6 -2.66699 8.33301 -6.66699 7 -12c-22 -72.667 -73.667 -109 -155 -109
c-50 0 -88.667 12.833 -116 38.5s-41 60.834 -41 105.501v119z" />
    <glyph glyph-name="ordfeminine" unicode="&#xaa;" horiz-adv-x="373" 
d="M67 611c26.667 39.333 66.998 59 120.998 59c44.667 0 76.334 -10.667 95.001 -32s28 -52 28 -92v-124c0 -15.333 -2.33301 -26.333 -7 -33s-13.334 -13 -26.001 -19c-22 -10 -54 -15 -96 -15c-45.333 0 -77.666 7.16699 -96.999 21.5s-29 35.833 -29 64.5
c0 30 9.83301 52.667 29.5 68s52.5 23 98.5 23c35.333 0 66 -2 92 -6v22c0 30.667 -6.66699 53.5 -20 68.5s-36.333 22.5 -69 22.5c-39.333 0 -69.666 -15.667 -90.999 -47c-4 -3.33301 -8.33301 -4 -13 -2l-11 5c-8 4.66699 -9.66699 10 -5 16zM275.998 498
c-28 4 -59.001 6.00195 -93.001 6.00195c-34.667 0 -58.667 -5.16699 -72 -15.5s-20 -25.833 -20 -46.5c0 -38.667 30 -58 90 -58c31.333 0 56 3.66699 74 11c8.66699 3.33301 14.334 7.16602 17.001 11.499s4 11.166 4 20.499v71z" />
    <glyph glyph-name="guillemotleft" unicode="&#xab;" horiz-adv-x="552" 
d="M274 80c4.66699 -5.33301 4.66797 -10.334 0.000976562 -15.001l-14 -14c-4.66699 -4.66699 -10 -4.66699 -16 0l-203 204c-4.66699 4.66699 -4.66699 9.66699 0 15l205 207c5.33301 4.66699 10.666 4.66699 15.999 0l12 -13c5.33301 -5.33301 5.33301 -10.666 0 -15.999
l-184 -185zM498.001 79.999c5.33301 -5.33301 5.33301 -10.333 0 -15l-13 -14c-6 -4.66699 -11.333 -4.66699 -16 0l-204 204c-4 4.66699 -4 9.66699 0 15l206 207c4.66699 4.66699 9.66699 4.66699 15 0l13 -13c4.66699 -6 4.66699 -11.333 0 -16l-184 -185z" />
    <glyph glyph-name="logicalnot" unicode="&#xac;" horiz-adv-x="576" 
d="M498 378c8 0 12 -4 12 -12v-215c0 -7.33301 -4 -11 -12 -11h-20c-8 0 -12 3.66699 -12 11v186h-385c-8 0 -12 4 -12 12v17c0 8 4 12 12 12h417z" />
    <glyph glyph-name="registered" unicode="&#xae;" horiz-adv-x="488" 
d="M50 516c0 53.333 19.167 99 57.5 137s84.166 57 137.499 57c52.667 0 98 -19 136 -57s57 -83.667 57 -137s-18.833 -99 -56.5 -137s-83.167 -57 -136.5 -57s-99.166 19 -137.499 57s-57.5 83.667 -57.5 137zM74 516c0 -47.333 16.833 -87.835 50.5 -121.502
s74.167 -50.5 121.5 -50.5c46.667 0 86.667 16.833 120 50.5s50 74.167 50 121.5c0 46.667 -16.667 86.834 -50 120.501s-73.333 50.5 -120 50.5c-47.333 0 -87.833 -16.667 -121.5 -50s-50.5 -73.666 -50.5 -120.999zM267 618.998c21.333 0 38.333 -5.83203 51 -17.499
s19 -27.834 19 -48.501c0 -34 -16 -54.333 -48 -61l40 -70c4.66699 -6 3.33398 -9 -3.99902 -9h-10c-4.66699 0 -8.33398 1.66699 -11.001 5l-40 71h-76v-71c0 -3.33301 -2 -5 -6 -5h-11c-4 0 -6 1.66699 -6 5v192c0 6 3.33301 9 10 9h92zM188 509.999h78
c31.333 0 47 14.333 47 43c0 14 -4.16699 24.833 -12.5 32.5s-19.833 11.5 -34.5 11.5h-78v-87z" />
    <glyph glyph-name="macron" unicode="&#xaf;" horiz-adv-x="352" 
d="M293 666c4.66699 0 7.66699 -0.666992 9 -2s2 -4.33301 2 -9v-11c0 -7.33301 -3.66699 -11 -11 -11h-238c-7.33301 0 -11 3.66699 -11 11v11c0 7.33301 3.66699 11 11 11h238z" />
    <glyph glyph-name="degree" unicode="&#xb0;" horiz-adv-x="383" 
d="M337 555c0 -39.333 -14.333 -73.5 -43 -102.5s-62.667 -43.5 -102 -43.5c-40.667 0 -75.167 14.167 -103.5 42.5s-42.5 62.833 -42.5 103.5s14.167 75 42.5 103s62.833 42 103.5 42c40 0 74.167 -14 102.5 -42s42.5 -62.333 42.5 -103zM82 555
c0 -30.667 10.668 -56.5 32.001 -77.5s47.333 -31.5 78 -31.5c29.333 0 54.666 10.833 75.999 32.5s32 47.167 32 76.5c0 30 -10.5 55.667 -31.5 77s-46.5 32 -76.5 32c-30.667 0 -56.667 -10.667 -78 -32s-32 -47 -32 -77z" />
    <glyph glyph-name="plusminus" unicode="&#xb1;" horiz-adv-x="659" 
d="M553 415c8 0 12 -4.33301 12 -13v-13c0 -8 -4 -12 -12 -12h-203v-130c0 -8.66699 -4.33301 -13 -13 -13h-14c-8.66699 0 -13 4.33301 -13 13v130h-204c-8.66699 0 -13 4 -13 12v13c0 8.66699 4.33301 13 13 13h204v133c0 8.66699 4.33301 13 13 13h14
c8.66699 0 13 -4.33301 13 -13v-133h203zM553 171c8 0 12 -4.33301 12 -13v-13c0 -8 -4 -12 -12 -12h-447c-8.66699 0 -13 4 -13 12v13c0 8.66699 4.33301 13 13 13h447z" />
    <glyph glyph-name="twosuperior" unicode="&#xb2;" horiz-adv-x="351" 
d="M40 707l2 8.00391l5.5 14.5c1.66699 4.33301 4.5 10.333 8.5 18s8.33301 14.334 13 20.001s10.667 11.834 18 18.501s15.166 12.167 23.499 16.5s18.5 8 30.5 11s25 4.5 39 4.5c42.667 0 75.5 -10.833 98.5 -32.5s34.5 -49.834 34.5 -84.501c0 -18.667 -3 -34.667 -9 -48
s-15.667 -24.5 -29 -33.5s-25.333 -15.833 -36 -20.5s-26.334 -10.334 -47.001 -17.001l-61 -22c-38 -14.667 -57 -41 -57 -79v-33h224c7.33301 0 11 -3.66699 11 -11v-12c0 -7.33301 -3.66699 -11 -11 -11h-246c-9.33301 0 -14 4.33301 -14 13v43
c0 59.333 25.667 98.666 77 117.999l61 23c2.66699 1.33301 8.66699 3.66602 18 6.99902s15.5 5.66602 18.5 6.99902l16 7c7.66699 3.33301 12.834 6.16602 15.501 8.49902l11.5 10c5 4.33301 8.5 8.83301 10.5 13.5s3.83301 10 5.5 16s2.5 12.667 2.5 20
c0 24.667 -8.16699 44.667 -24.5 60s-39.833 23 -70.5 23c-12 0 -23.167 -1.5 -33.5 -4.5s-18.833 -7 -25.5 -12s-12.667 -10.5 -18 -16.5s-9.5 -12.167 -12.5 -18.5s-5.5 -11.833 -7.5 -16.5s-3.33301 -9 -4 -13l-2 -6c-3.33301 -8 -8.66602 -11 -15.999 -9l-12 4
c-9.33301 2 -12 7.33301 -8 16z" />
    <glyph glyph-name="threesuperior" unicode="&#xb3;" horiz-adv-x="360" 
d="M37 708c11.333 38 29 65.8311 53 83.498s56.667 26.5 98 26.5c38.667 0 69 -10.167 91 -30.5s33 -47.166 33 -80.499c0 -42.667 -17 -72.334 -51 -89.001c41.333 -18.667 62 -52.334 62 -101.001c0 -34 -11.667 -61 -35 -81s-57 -30 -101 -30c-42 0 -75 9 -99 27
s-41.333 45 -52 81c-3.33301 8.66699 -1.33301 14 6 16l13 5c7.33301 2 12.333 -1 15 -9c9.33301 -30.667 22.666 -52.667 39.999 -66s43 -20 77 -20c32 0 56.5 7.33301 73.5 22s25.5 34.334 25.5 59.001c0 22 -6.5 40.333 -19.5 55s-30.167 22 -51.5 22h-71
c-4.66699 0 -7.66699 0.833008 -9 2.5s-2 4.83398 -2 9.50098v10c0 5.33301 0.666992 8.66602 2 9.99902s4.66602 2 9.99902 2h68c20.667 0 36.334 6.83301 47.001 20.5s16 30.5 16 50.5c0 24.667 -7.83301 44.334 -23.5 59.001s-37.167 22 -64.5 22c-32 0 -57 -7 -75 -21
s-31.333 -36 -40 -66c-3.33301 -9.33301 -9.66602 -12.333 -18.999 -9l-9 3c-8 2.66699 -10.667 8.33398 -8 17.001z" />
    <glyph glyph-name="acute" unicode="&#xb4;" horiz-adv-x="257" 
d="M201 723c10 4.66699 17.667 4.33398 23 -0.999023l9 -11c6 -7.33301 5.33301 -12.333 -2 -15l-177 -103c-8 -2.66699 -13.333 -2 -16 2l-7 8c-5.33301 5.33301 -5 9.66602 1 12.999z" />
    <glyph glyph-name="mu" unicode="&#xb5;" horiz-adv-x="542" 
d="M466 512c8 0 12.001 -3.66699 12.001 -11v-429c0 -14.667 -2.5 -25.667 -7.5 -33s-15.167 -14.333 -30.5 -21c-54.667 -22 -112.334 -33 -173.001 -33c-80 0 -133.333 28.333 -160 85l1 -278c0 -8 -3.66699 -12 -11 -12h-21c-7.33301 0 -11 4 -11 12v709
c0 7.33301 4 11 12 11h20c7.33301 0 11 -3.66699 11 -11v-321c0 -104 52 -156 156 -156c55.333 0 105 9 149 27c14.667 6 22 17 22 33v417c0 7.33301 3.66699 11 11 11h20z" />
    <glyph glyph-name="paragraph" unicode="&#xb6;" horiz-adv-x="359" 
d="M271 710c8 0 11.999 -3.99902 11.999 -11.999v-775c0 -8 -4 -12 -12 -12h-18c-7.33301 0 -11 4 -11 12v743h-52v-743c0 -8 -4 -12 -12 -12h-17c-8 0 -12 4 -12 12v586c-29.333 0.666992 -53 10.167 -71 28.5s-27 42.166 -27 71.499c0 30.667 9.33301 55.167 28 73.5
s43.334 27.5 74.001 27.5h118z" />
    <glyph glyph-name="periodcentered" unicode="&#xb7;" horiz-adv-x="192" 
d="M98 297c10.667 0 18 -2 22 -6s6 -11 6 -21v-6c0 -10.667 -2 -17.834 -6 -21.501s-11.333 -5.5 -22 -5.5h-5c-10.667 0 -17.834 1.83301 -21.501 5.5s-5.5 10.834 -5.5 21.501v6c0 10 1.83301 17 5.5 21s10.834 6 21.501 6h5z" />
    <glyph glyph-name="cedilla" unicode="&#xb8;" horiz-adv-x="251" 
d="M117 -82c8 2.66699 18.665 4 31.998 4c26.667 0 47.834 -6.83301 63.501 -20.5s23.167 -31.834 22.5 -54.501c-0.666992 -30 -11.167 -53 -31.5 -69s-47.166 -24 -80.499 -24c-31.333 0 -59.333 7.33301 -84 22c-6 3.33301 -9 8.66602 -9 15.999v13
c0 2 0.666992 3.66699 2 5s3 1 5 -1c22.667 -17.333 50 -26 82 -26c24.667 0 43.834 5.83301 57.501 17.5s20.5 27.834 20.5 48.501c0 32.667 -22.667 49 -68 49c-14 0 -26.667 -2 -38 -6c-4.66699 -1.33301 -7.83398 -0.666016 -9.50098 2.00098s-1.5 6.66699 0.5 12l36 94
h28z" />
    <glyph glyph-name="onesuperior" unicode="&#xb9;" horiz-adv-x="279" 
d="M206 810c8 0 11.999 -4 11.999 -12v-372c0 -8 -4 -12 -12 -12h-13c-8 0 -12 4 -12 12v337l-137 -76c-8 -4 -14 -2.66699 -18 4l-5 10c-3.33301 7.33301 -1.66602 13 5.00098 17l156 88c4.66699 2.66699 10 4 16 4h8z" />
    <glyph glyph-name="ordmasculine" unicode="&#xba;" horiz-adv-x="377" 
d="M56 552c0 36.667 11.333 65.5 34 86.5s55.334 31.5 98.001 31.5c43.333 0 76.166 -10.333 98.499 -31s33.5 -49.667 33.5 -87v-78c0 -37.333 -11.167 -66.333 -33.5 -87s-55.166 -31 -98.499 -31c-42.667 0 -75.334 10.333 -98.001 31s-34 49.667 -34 87v78zM284 553
c0 26.667 -8.16699 47.333 -24.5 62s-40.166 22 -71.499 22c-30.667 0 -54.334 -7.5 -71.001 -22.5s-25 -35.5 -25 -61.5v-80c0 -26.667 8.33301 -47.334 25 -62.001s40.334 -22 71.001 -22c31.333 0 55.166 7.33301 71.499 22s24.5 35.334 24.5 62.001v80z" />
    <glyph glyph-name="guillemotright" unicode="&#xbb;" horiz-adv-x="552" 
d="M52 448c-4.66699 4.66699 -4.66797 10 -0.000976562 16l13 13c4.66699 4.66699 9.66699 4.66699 15 0l206 -207c4 -5.33301 4 -10.333 0 -15l-204 -204c-5.33301 -5.33301 -10.666 -5.33301 -15.999 0l-13 14c-5.33301 4.66699 -5.33301 9.66699 0 15l184 183z
M276.999 448c-5.33301 5.33301 -5.33203 10.667 0.000976562 16l12 13c5.33301 4.66699 10.666 4.66699 15.999 0l206 -207c4 -5.33301 4 -10.333 0 -15l-204 -204c-6 -4.66699 -11.333 -4.66699 -16 0l-14 14c-4.66699 4.66699 -4.66699 9.66699 0 15l184 183z" />
    <glyph glyph-name="onequarter" unicode="&#xbc;" horiz-adv-x="777" 
d="M219 716c8 0 12 -4 12 -12v-372c0 -8 -4 -12 -12 -12h-13c-8.66699 0 -13 4 -13 12v337l-137 -76c-7.33301 -4 -13 -2.66699 -17 4l-5 10c-4 7.33301 -2.33301 13 5 17l156 88c4.66699 2.66699 10 4 16 4h8zM666 710c10 0 12.334 -4.33301 7.00098 -13l-504 -685
c-6.66699 -8 -15.334 -12 -26.001 -12h-16c-10.667 -0 -12.667 4.33301 -6 13l504 685c5.33301 8 13 12 23 12h18zM670.001 397c5.33301 0 8.66699 -0.833008 10 -2.5s2 -5.16699 2 -10.5v-240h50c4.66699 0 7.66699 -0.666992 9 -2s2 -4 2 -8v-11
c0 -4.66699 -0.666992 -7.66699 -2 -9s-4.33301 -2 -9 -2h-50v-101c0 -4.66699 -0.666992 -7.66699 -2 -9s-4.33301 -2 -9 -2h-15c-6.66699 0 -10 3.66699 -10 11v101h-201c-4.66699 0 -7.66699 0.666992 -9 2s-2 4.33301 -2 9v9c0 6.66699 1.33301 11.667 4 15l198 242
c4.66699 5.33301 10.667 8 18 8h16zM478.002 144h168v205z" />
    <glyph glyph-name="onehalf" unicode="&#xbd;" horiz-adv-x="843" 
d="M218 718c8 0 11.999 -4 11.999 -12v-372c0 -8 -4 -12 -12 -12h-13c-8 0 -12 4 -12 12v337l-137 -76c-8 -4 -14 -2.66699 -18 4l-5 10c-3.33301 7.33301 -1.66602 13 5.00098 17l156 88c4.66699 2.66699 10 4 16 4h8zM664.999 710c11.333 0 13.667 -4.33301 7 -13
l-504 -685c-5.33301 -8 -14 -12 -26 -12h-15c-10.667 -0 -12.667 4.33301 -6 13l504 685c5.33301 8 13 12 23 12h17zM526 293l3 9.00098l5.5 14.5c1.66699 4.33301 4.5 10.166 8.5 17.499s8.16699 14 12.5 20s10.333 12.333 18 19s15.667 12.167 24 16.5s18.5 8 30.5 11
s25 4.5 39 4.5c42 0 74.5 -11 97.5 -33s34.5 -50.333 34.5 -85c0 -18.667 -2.83301 -34.5 -8.5 -47.5s-15.334 -24.167 -29.001 -33.5s-25.5 -16.166 -35.5 -20.499s-25.667 -10.166 -47 -17.499l-61 -22c-38.667 -13.333 -58 -39.666 -58 -78.999v-32h224c8 0 12 -4 12 -12
v-12c0 -7.33301 -4 -11 -12 -11h-246c-9.33301 0 -14 4.33301 -14 13v43c0 58.667 26 98 78 118l61 23c2.66699 1.33301 8.66699 3.66602 18 6.99902s15.5 5.66602 18.5 6.99902l16 7c7.66699 3.33301 12.834 6.16602 15.501 8.49902l11.5 10
c5 4.33301 8.5 8.83301 10.5 13.5s3.83301 10 5.5 16s2.5 12.667 2.5 20c0 24.667 -8.16699 44.667 -24.5 60s-39.833 23 -70.5 23c-12 0 -23.167 -1.5 -33.5 -4.5s-19 -7 -26 -12s-13.167 -10.5 -18.5 -16.5s-9.5 -12.167 -12.5 -18.5s-5.5 -11.833 -7.5 -16.5
s-3.33301 -9 -4 -13l-2 -6c-2.66699 -7.33301 -7.66699 -10.333 -15 -9l-13 4c-8 2 -10.667 7.33301 -8 16z" />
    <glyph glyph-name="threequarters" unicode="&#xbe;" horiz-adv-x="818" 
d="M45 616c11.333 38 29 65.832 53 83.499s56.667 26.5 98 26.5c38.667 0 69 -10.167 91 -30.5s33 -47.166 33 -80.499c0 -42.667 -17 -72.334 -51 -89.001c41.333 -18.667 62 -52.334 62 -101.001c0 -34 -11.667 -61 -35 -81s-57 -30 -101 -30c-42 0 -75 9 -99 27
s-41.667 45 -53 81c-2.66699 8.66699 -0.666992 14 6 16l13 5c8 2 13.333 -1 16 -9c9.33301 -30.667 22.666 -52.667 39.999 -66s43 -20 77 -20c32 0 56.5 7.33301 73.5 22s25.5 34.334 25.5 59.001c0 22 -6.5 40.333 -19.5 55s-30.167 22 -51.5 22h-71
c-4.66699 0 -7.66699 0.833008 -9 2.5s-2 4.83398 -2 9.50098v10c0 5.33301 0.666992 8.66602 2 9.99902s4.66602 2 9.99902 2h67c21.333 0 37.333 6.83301 48 20.5s16 30.834 16 51.501c0 24.667 -7.83301 44.167 -23.5 58.5s-37.167 21.5 -64.5 21.5c-32 0 -57 -7 -75 -21
s-31.333 -36 -40 -66c-3.33301 -9.33301 -9.66602 -12.333 -18.999 -9l-10 3c-7.33301 3.33301 -9.66602 9 -6.99902 17zM709 709.999c10 0 12.334 -4.33301 7.00098 -13l-504 -685c-6.66699 -8 -15.334 -12 -26.001 -12h-16c-10.667 0 -12.667 4.33301 -6 13l504 685
c5.33301 8 13.333 12 24 12h17zM711.001 396.999c5.33301 0 8.66797 -0.833008 10.001 -2.5s2 -5.16699 2 -10.5v-240h50c8 0 12 -3.33301 12 -10v-11c0 -4.66699 -0.833008 -7.66699 -2.5 -9s-4.83398 -2 -9.50098 -2h-50v-101c0 -4.66699 -0.666992 -7.66699 -2 -9
s-4.33301 -2 -9 -2h-15c-6.66699 0 -10 3.66699 -10 11v101h-201c-7.33301 0 -11 3.66699 -11 11v9c0 6.66699 1.33301 11.667 4 15l198 242c4.66699 5.33301 10.667 8 18 8h16zM687.003 143.999v205l-168 -205h168z" />
    <glyph glyph-name="questiondown" unicode="&#xbf;" 
d="M296 455c-10.667 0 -18 1.83301 -22 5.5s-6 10.834 -6 21.501v5c0 10.667 2 18 6 22s11.333 6 22 6h5c10.667 0 17.834 -2 21.501 -6s5.5 -11.333 5.5 -22v-5c0 -10.667 -1.83301 -17.834 -5.5 -21.501s-10.834 -5.5 -21.501 -5.5h-5zM517 -65
c-41.333 -110 -124.329 -164.999 -248.996 -164.999c-72 0 -129.167 19.5 -171.5 58.5s-63.5 88.167 -63.5 147.5c0 26 3.33301 50 10 72s13.5 39.667 20.5 53s18.833 27.666 35.5 42.999s28.667 25.666 36 30.999s21 14.666 41 27.999c22 14.667 39.167 27.334 51.5 38.001
s24 26.334 35 47.001s16.5 43.667 16.5 69c0 8 4 12 12 12h15c8 0 12 -4 12 -12c0 -24.667 -3 -46.667 -9 -66s-15.333 -36.5 -28 -51.5s-24.334 -26.833 -35.001 -35.5s-25.334 -19.334 -44.001 -32.001l-37.5 -26c-7.66699 -5.33301 -18.334 -14.5 -32.001 -27.5
s-23.5 -25.333 -29.5 -37s-11.667 -26.667 -17 -45s-8 -38.166 -8 -59.499c0 -48 17 -87.667 51 -119s80.667 -47 140 -47c102 0 170.667 46 206 138c3.33301 8 8.66602 10.667 15.999 8l19 -6c8 -2.66699 10.333 -8 7 -16z" />
    <glyph glyph-name="Agrave" unicode="&#xc0;" horiz-adv-x="632" 
d="M223 886c4.66699 6 11.999 6.66602 21.999 1.99902l172 -102c6 -3.33301 6.66699 -8 2 -14l-7 -8c-3.33301 -4 -8.66602 -4.33301 -15.999 -1l-181 98c-7.33301 2.66699 -8 7.33398 -2 14.001zM619.999 11.999c3.33301 -8 -0.000976562 -12 -10.001 -12h-18
c-13.333 0 -20.666 3.66699 -21.999 11l-89 221h-332l-88 -221c-2.66699 -7.33301 -10.334 -11 -23.001 -11h-17c-9.33301 0 -12.333 4 -9 12l277 691c3.33301 8 9 12 17 12h20c8.66699 0 14.334 -4 17.001 -12zM325.998 625.999c-2 6 -5.33301 20.332 -10 42.999h-3
c0 -13.333 -2.66699 -27.666 -8 -42.999l-142 -355h305z" />
    <glyph glyph-name="Aacute" unicode="&#xc1;" horiz-adv-x="632" 
d="M386 895c9.33301 4.66699 16.667 4.00098 22 -1.99902l10 -11c5.33301 -6.66699 4.66602 -11.667 -2.00098 -15l-178 -102c-7.33301 -2.66699 -12.666 -2.33398 -15.999 0.999023l-7 8c-4.66699 6 -4 10.667 2 14zM620.001 12.001
c3.33301 -8 -0.000976562 -12 -10.001 -12h-18c-13.333 0 -20.666 3.66699 -21.999 11l-89 221h-332l-88 -221c-2.66699 -7.33301 -10.334 -11 -23.001 -11h-17c-9.33301 0 -12.333 4 -9 12l277 691c3.33301 8 9 12 17 12h20c8.66699 0 14.334 -4 17.001 -12zM326 626.001
c-2 6 -5.33301 20.332 -10 42.999h-3c0 -13.333 -2.66699 -27.666 -8 -42.999l-142 -355h305z" />
    <glyph glyph-name="Acircumflex" unicode="&#xc2;" horiz-adv-x="632" 
d="M319 897c8 0 15.999 -3.66699 23.999 -11l133 -112c5.33301 -6.66699 3 -10 -7 -10h-18c-8.66699 0 -15.334 2.33301 -20.001 7l-115 95l-116 -95c-5.33301 -4.66699 -11.666 -7 -18.999 -7h-18c-11.333 0 -13.666 3.33301 -6.99902 10l134 112
c7.33301 7.33301 15.333 11 24 11h5zM619.999 12c3.33301 -8 -0.000976562 -12 -10.001 -12h-18c-13.333 0 -20.666 3.66699 -21.999 11l-89 221h-332l-88 -221c-2.66699 -7.33301 -10.334 -11 -23.001 -11h-17c-9.33301 0 -12.333 4 -9 12l277 691c3.33301 8 9 12 17 12h20
c8.66699 0 14.334 -4 17.001 -12zM325.998 626c-2 6 -5.33301 20.332 -10 42.999h-3c0 -13.333 -2.66699 -27.666 -8 -42.999l-142 -355h305z" />
    <glyph glyph-name="Atilde" unicode="&#xc3;" horiz-adv-x="632" 
d="M460 875c6 0 9 -2.66699 9 -8c0 -62.667 -25 -94 -75 -94c-24.667 0 -52 12 -82 36s-54.667 36 -74 36c-15.333 0 -27.166 -5.83301 -35.499 -17.5s-12.5 -27.167 -12.5 -46.5c0 -5.33301 -2.66699 -8 -8 -8h-14c-5.33301 0 -8 2.66699 -8 8c0 62.667 25 94 75 94
c25.333 0 53.166 -12 83.499 -36s54.5 -36 72.5 -36c32 0 48 21.333 48 64c0 5.33301 2.66699 8 8 8h13zM620 12c3.33301 -8 -0.000976562 -12 -10.001 -12h-18c-13.333 0 -20.666 3.66699 -21.999 11l-89 221h-332l-88 -221c-2.66699 -7.33301 -10.334 -11 -23.001 -11h-17
c-9.33301 0 -12.333 4 -9 12l277 691c3.33301 8 9 12 17 12h20c8.66699 0 14.334 -4 17.001 -12zM325.999 626c-2 6 -5.33301 20.332 -10 42.999h-3c0 -13.333 -2.66699 -27.666 -8 -42.999l-142 -355h305z" />
    <glyph glyph-name="Adieresis" unicode="&#xc4;" horiz-adv-x="632" 
d="M223 853c9.33301 0 15.5 -1.66699 18.5 -5s4.5 -9.33301 4.5 -18v-7c0 -8.66699 -1.5 -14.5 -4.5 -17.5s-9.16699 -4.5 -18.5 -4.5h-6c-8.66699 0 -14.667 1.5 -18 4.5s-5 8.83301 -5 17.5v7c0 8.66699 1.66699 14.667 5 18s9.33301 5 18 5h6zM414 853
c8.66699 0 14.667 -1.66699 18 -5s5 -9.33301 5 -18v-7c0 -8.66699 -1.66699 -14.5 -5 -17.5s-9.33301 -4.5 -18 -4.5h-5c-9.33301 0 -15.666 1.5 -18.999 4.5s-5 8.83301 -5 17.5v7c0 8.66699 1.66699 14.667 5 18s9.66602 5 18.999 5h5zM620 12
c3.33301 -8 -0.000976562 -12 -10.001 -12h-18c-13.333 0 -20.666 3.66699 -21.999 11l-89 221h-332l-88 -221c-2.66699 -7.33301 -10.334 -11 -23.001 -11h-17c-9.33301 0 -12.333 4 -9 12l277 691c3.33301 8 9 12 17 12h20c8.66699 0 14.334 -4 17.001 -12zM325.999 626
c-2 6 -5.33301 20.332 -10 42.999h-3c0 -13.333 -2.66699 -27.666 -8 -42.999l-142 -355h305z" />
    <glyph glyph-name="Aring" unicode="&#xc5;" horiz-adv-x="632" 
d="M215 786c0 30 9.33203 53.998 27.999 71.998s43.334 27 74.001 27s55 -9 73 -27s27 -42 27 -72c0 -52 -23.667 -82.667 -71 -92l274 -682c3.33301 -8 0 -12 -10 -12h-18c-13.333 0 -20.666 3.66699 -21.999 11l-89 221h-332l-88 -221
c-2.66699 -7.33301 -10.334 -11 -23.001 -11h-17c-9.33301 0 -12.333 4 -9 12l274 683c-22.667 4.66699 -40.167 14.834 -52.5 30.501s-18.5 35.834 -18.5 60.501zM388.999 785.998c0 21.333 -6.5 38.5 -19.5 51.5s-30.5 19.5 -52.5 19.5c-22.667 0 -40.667 -6.5 -54 -19.5
s-20 -30.167 -20 -51.5s6.66699 -38.5 20 -51.5s31.333 -19.5 54 -19.5c22 0 39.5 6.5 52.5 19.5s19.5 30.167 19.5 51.5zM325.999 625.998c-2 6 -5.33301 20.332 -10 42.999h-3c0 -13.333 -2.66699 -27.666 -8 -42.999l-142 -355h305z" />
    <glyph glyph-name="AE" unicode="&#xc6;" horiz-adv-x="817" 
d="M765 43c8 0 11.999 -4 11.999 -12v-18c0 -8.66699 -4 -13 -12 -13h-329c-8 -0 -12 4.33301 -12 13v174h-270l-106 -176c-4.66699 -7.33301 -12 -11 -22 -11h-20c-9.33301 0 -12.333 4 -9 12l418 686c4.66699 8 10.334 12 17.001 12h319c8 0 12 -4.33301 12 -13v-18
c0 -8 -4 -12 -12 -12h-282v-286h238c8.66699 0 13 -4.33301 13 -13v-18c0 -8 -4.33301 -12 -13 -12h-238v-295h296zM423.999 635l-246 -409h246v409z" />
    <glyph glyph-name="Ccedilla" unicode="&#xc7;" horiz-adv-x="634" 
d="M587 181c8 -2.66699 10.6719 -7.99609 8.00488 -15.9961c-17.333 -58.667 -46 -103 -86 -133s-98 -45.333 -174 -46l-25 -68c8 2.66699 18.667 4 32 4c27.333 0 48.666 -6.83301 63.999 -20.5s22.666 -31.834 21.999 -54.501c-0.666992 -30 -11.167 -53 -31.5 -69
s-47.166 -24 -80.499 -24c-32 0 -59.667 7.33301 -83 22c-6 2.66699 -9 8 -9 16l-1 13c0 6.66699 2.66699 8 8 4c22.667 -17.333 49.667 -26 81 -26c24.667 0 44 5.83301 58 17.5s21 27.834 21 48.501c0 32.667 -23 49 -69 49c-13.333 0 -25.666 -2 -36.999 -6
c-4.66699 -0.666992 -7.83398 0.166016 -9.50098 2.49902s-1.5 6.16602 0.5 11.499l31 80c-78.667 4 -139.334 27.667 -182.001 71s-64 102 -64 176v245c0 77.333 23 137.666 69 180.999s112.667 65 200 65c75.333 0 133.666 -14.333 174.999 -43
s70.666 -72.334 87.999 -131.001c2 -7.33301 -1 -13 -9 -17l-18 -6c-8.66699 -2 -14.334 0.666992 -17.001 8c-15.333 50.667 -39.833 87.667 -73.5 111s-82.167 35 -145.5 35c-72.667 0 -128 -17.667 -166 -53s-57 -85 -57 -149v-247c0 -63.333 19.333 -113 58 -149
s93.667 -54 165 -54c64.667 0 113.667 12.167 147 36.5s58 62.5 74 114.5c3.33301 8 9 10.667 17 8z" />
    <glyph glyph-name="Egrave" unicode="&#xc8;" horiz-adv-x="570" 
d="M206 886c5.33301 6 12.667 6.66602 22 1.99902l173 -102c5.33301 -4 5.66602 -8.66699 0.999023 -14l-7 -8c-3.33301 -4 -8.66602 -4.33301 -15.999 -1l-180 98c-8 2.66699 -8.66699 7.33398 -2 14.001zM503.001 709.999c8.66699 0 13 -4.33301 13 -13v-18
c0 -8 -4.33301 -12 -13 -12h-375v-286h332c8 0 12 -4 12 -12v-18c0 -8.66699 -4 -13 -12 -13h-332v-295h389c8.66699 0 13 -4 13 -12v-18c0 -8.66699 -4.33301 -13 -13 -13h-422c-8.66699 0 -13 4.33301 -13 13v684c0 8.66699 4.33301 13 13 13h408z" />
    <glyph glyph-name="Eacute" unicode="&#xc9;" horiz-adv-x="570" 
d="M369 895c10 4.66699 17.667 4.00098 23 -1.99902l9 -11c6 -6.66699 5.33301 -11.667 -2 -15l-177 -102c-8 -2.66699 -13.333 -2.33398 -16 0.999023l-7 8c-5.33301 6 -5 10.667 1 14zM503 710.001c8.66699 0 13 -4.33301 13 -13v-18c0 -8 -4.33301 -12 -13 -12h-375v-286
h332c8 0 12 -4 12 -12v-18c0 -8.66699 -4 -13 -12 -13h-332v-295h389c8.66699 0 13 -4 13 -12v-18c0 -8.66699 -4.33301 -13 -13 -13h-422c-8.66699 0 -13 4.33301 -13 13v684c0 8.66699 4.33301 13 13 13h408z" />
    <glyph glyph-name="Ecircumflex" unicode="&#xca;" horiz-adv-x="570" 
d="M303 897c8 0 15.668 -3.66699 23.001 -11l133 -112c6.66699 -6.66699 4.66699 -10 -6 -10h-19c-8.66699 0 -15.334 2.33301 -20.001 7l-115 95l-116 -95c-4.66699 -4.66699 -11 -7 -19 -7h-18c-10.667 0 -12.667 3.33301 -6 10l133 112c7.33301 7.33301 15.333 11 24 11
h6zM503.001 710c8.66699 0 13 -4.33301 13 -13v-18c0 -8 -4.33301 -12 -13 -12h-375v-286h332c8 0 12 -4 12 -12v-18c0 -8.66699 -4 -13 -12 -13h-332v-295h389c8.66699 0 13 -4 13 -12v-18c0 -8.66699 -4.33301 -13 -13 -13h-422c-8.66699 -0 -13 4.33301 -13 13v684
c0 8.66699 4.33301 13 13 13h408z" />
    <glyph glyph-name="Edieresis" unicode="&#xcb;" horiz-adv-x="570" 
d="M207 853c8.66699 0 14.667 -1.66699 18 -5s5 -9.33301 5 -18v-7c0 -8.66699 -1.66699 -14.5 -5 -17.5s-9.33301 -4.5 -18 -4.5h-6c-8.66699 0 -14.667 1.5 -18 4.5s-5 8.83301 -5 17.5v7c0 8.66699 1.66699 14.667 5 18s9.33301 5 18 5h6zM398 853
c8.66699 0 14.665 -1.66699 17.998 -5s5 -9.33301 5 -18v-7c0 -8.66699 -1.66699 -14.5 -5 -17.5s-9.33301 -4.5 -18 -4.5h-6c-9.33301 0 -15.666 1.5 -18.999 4.5s-5 8.83301 -5 17.5v7c0 8.66699 1.83301 14.667 5.5 18s9.83398 5 18.501 5h6zM502.998 710
c8.66699 0 13 -4.33301 13 -13v-18c0 -8 -4.33301 -12 -13 -12h-375v-286h332c8 0 12 -4 12 -12v-18c0 -8.66699 -4 -13 -12 -13h-332v-295h389c8.66699 0 13 -4 13 -12v-18c0 -8.66699 -4.33301 -13 -13 -13h-422c-8.66699 -0 -13 4.33301 -13 13v684
c0 8.66699 4.33301 13 13 13h408z" />
    <glyph glyph-name="Igrave" unicode="&#xcc;" horiz-adv-x="210" 
d="M12 886c5.33301 6 13 6.66602 23 1.99902l172 -102c6 -3.33301 6.33301 -8 1 -14l-7 -8c-2.66699 -4 -8 -4.33301 -16 -1l-180 98c-7.33301 2.66699 -8 7.33398 -2 14.001zM83 696.999c0 8.66699 4 13 12 13h21c8.66699 0 13 -4.33301 13 -13v-684
c0 -8.66699 -4.33301 -13 -13 -13h-21c-8 0 -12 4.33301 -12 13v684z" />
    <glyph glyph-name="Iacute" unicode="&#xcd;" horiz-adv-x="210" 
d="M175 895c9.33301 4.66699 16.668 4.00098 22.001 -1.99902l10 -11c5.33301 -6.66699 4.66602 -11.667 -2.00098 -15l-178 -102c-7.33301 -2.66699 -12.666 -2.33398 -15.999 0.999023l-7 8c-4.66699 5.33301 -4.33398 10 0.999023 14zM82.002 697.001
c0 8.66699 4.33301 13 13 13h21c8 0 12 -4.33301 12 -13v-684c0 -8.66699 -4 -13 -12 -13h-21c-8.66699 0 -13 4.33301 -13 13v684z" />
    <glyph glyph-name="Icircumflex" unicode="&#xce;" horiz-adv-x="210" 
d="M108 897c8 0 15.998 -3.66699 23.998 -11l132 -112c6.66699 -6.66699 4.66699 -10 -6 -10h-18c-9.33301 0 -16.333 2.33301 -21 7l-114 95l-116 -95c-5.33301 -4.66699 -11.666 -7 -18.999 -7h-18c-11.333 0 -13.666 3.33301 -6.99902 10l134 112
c7.33301 7.33301 15.333 11 24 11h5zM81.998 697c0 8.66699 4.33301 13 13 13h21c8 0 12 -4.33301 12 -13v-684c0 -8.66699 -4 -13 -12 -13h-21c-8.66699 -0 -13 4.33301 -13 13v684z" />
    <glyph glyph-name="Idieresis" unicode="&#xcf;" horiz-adv-x="210" 
d="M12 853c9.33301 0 15.5 -1.66699 18.5 -5s4.5 -9.33301 4.5 -18v-7c0 -8.66699 -1.5 -14.5 -4.5 -17.5s-9.16699 -4.5 -18.5 -4.5h-6c-8.66699 0 -14.667 1.5 -18 4.5s-5 8.83301 -5 17.5v7c0 8.66699 1.66699 14.667 5 18s9.33301 5 18 5h6zM203 853
c8.66699 0 14.667 -1.66699 18 -5s5 -9.33301 5 -18v-7c0 -8.66699 -1.66699 -14.5 -5 -17.5s-9.33301 -4.5 -18 -4.5h-5c-9.33301 0 -15.666 1.5 -18.999 4.5s-5 8.83301 -5 17.5v7c0 8.66699 1.66699 14.667 5 18s9.66602 5 18.999 5h5zM82 697
c0 8.66699 4.33301 13 13 13h21c8 0 12 -4.33301 12 -13v-684c0 -8.66699 -4 -13 -12 -13h-21c-8.66699 -0 -13 4.33301 -13 13v684z" />
    <glyph glyph-name="Eth" unicode="&#xd0;" horiz-adv-x="655" 
d="M309 710c92 0 163.333 -23.5 214 -70.5s76 -111.5 76 -193.5v-182c0 -82 -25.333 -146.5 -76 -193.5s-122 -70.5 -214 -70.5h-205c-8.66699 -0 -13 4.33301 -13 13v328h-80c-6.66699 0 -10 3.33301 -10 10v13c0 6.66699 3.33301 10 10 10h80v323
c0 8.66699 4.33301 13 13 13h205zM553 446c0 70 -21.167 124.333 -63.5 163s-102.5 58 -180.5 58h-171v-293h191c6.66699 0 10 -3.33301 10 -10v-13c0 -6.66699 -3.33301 -10 -10 -10h-191v-298h171c78 0 138.167 19.333 180.5 58s63.5 93 63.5 163v182z" />
    <glyph glyph-name="Ntilde" unicode="&#xd1;" horiz-adv-x="688" 
d="M489 875c5.33301 0 7.99902 -2.66699 7.99902 -8c0 -62.667 -25 -94 -75 -94c-24 0 -51.167 12 -81.5 36s-54.833 36 -73.5 36c-15.333 0 -27.166 -5.83301 -35.499 -17.5s-12.5 -27.167 -12.5 -46.5c0 -5.33301 -2.66699 -8 -8 -8h-14c-5.33301 0 -8 2.66699 -8 8
c0 62.667 25 94 75 94c20 0 39 -6 57 -18s35 -24 51 -36s32 -18 48 -18c32 0 48 21.333 48 64c0 5.33301 2.66699 8 8 8h13zM593.999 710c8 0 12.0029 -4.33496 12.0029 -13.002v-684c0 -8.66699 -4 -13 -12 -13h-21c-6 0 -10.667 2.66699 -14 8l-355 506
c-12 16.667 -26.833 40.334 -44.5 71.001s-29.834 50.334 -36.501 59.001h-2c0 -10.667 1 -35 3 -73s3 -68.667 3 -92v-466c0 -8.66699 -4 -13 -12 -13h-20c-8.66699 -0 -13 4.33301 -13 13v684c0 8.66699 4.33301 13 13 13h20c6 0 10.667 -2.33301 14 -7l345 -493
c13.333 -18.667 30.166 -44.667 50.499 -78s34.166 -55 41.499 -65h2c0 12.667 -1.16699 39.5 -3.5 80.5s-3.5 74.167 -3.5 99.5v451c0 8 4.33301 12 13 12h20z" />
    <glyph glyph-name="Ograve" unicode="&#xd2;" horiz-adv-x="660" 
d="M237 896c5.33301 6 13 6.66602 23 1.99902l172 -102c6 -3.33301 6.33301 -8 1 -14l-7 -8c-2.66699 -4 -8 -4.33301 -16 -1l-180 98c-7.33301 2.66699 -8 7.33398 -2 14.001zM61 476.999c0 77.333 23.333 137.833 70 181.5s113.334 65.5 200.001 65.5
c86 0 152.167 -21.833 198.5 -65.5s69.5 -104.167 69.5 -181.5v-244c0 -77.333 -23.167 -137.833 -69.5 -181.5s-112.5 -65.5 -198.5 -65.5c-86.667 0 -153.334 21.833 -200.001 65.5s-70 104.167 -70 181.5v244zM553 476.999c0 64.667 -19.167 114.834 -57.5 150.501
s-93.166 53.5 -164.499 53.5c-72.667 0 -128.167 -17.833 -166.5 -53.5s-57.5 -85.834 -57.5 -150.501v-244c0 -64.667 19.167 -114.834 57.5 -150.501s93.833 -53.5 166.5 -53.5c71.333 0 126.166 17.833 164.499 53.5s57.5 85.834 57.5 150.501v244z" />
    <glyph glyph-name="Oacute" unicode="&#xd3;" horiz-adv-x="660" 
d="M400 905c10 4.66699 17.667 4.00098 23 -1.99902l9 -11c6.66699 -6.66699 6 -11.667 -2 -15l-177 -102c-7.33301 -2.66699 -12.666 -2.33398 -15.999 0.999023l-7 8c-4.66699 5.33301 -4.33398 10 0.999023 14zM61 477.001c0 77.333 23.333 137.833 70 181.5
s113.334 65.5 200.001 65.5c86 0 152.167 -21.833 198.5 -65.5s69.5 -104.167 69.5 -181.5v-244c0 -77.333 -23.167 -137.833 -69.5 -181.5s-112.5 -65.5 -198.5 -65.5c-86.667 0 -153.334 21.833 -200.001 65.5s-70 104.167 -70 181.5v244zM553 477.001
c0 64.667 -19.167 114.834 -57.5 150.501s-93.166 53.5 -164.499 53.5c-72.667 0 -128.167 -17.833 -166.5 -53.5s-57.5 -85.834 -57.5 -150.501v-244c0 -64.667 19.167 -114.834 57.5 -150.501s93.833 -53.5 166.5 -53.5c71.333 0 126.166 17.833 164.499 53.5
s57.5 85.834 57.5 150.501v244z" />
    <glyph glyph-name="Ocircumflex" unicode="&#xd4;" horiz-adv-x="660" 
d="M334 907c8 0 15.999 -3.66699 23.999 -11l132 -112c6.66699 -6.66699 4.66699 -10 -6 -10h-18c-9.33301 0 -16.333 2.33301 -21 7l-114 95l-116 -95c-5.33301 -4.66699 -11.666 -7 -18.999 -7h-19c-10.667 0 -12.667 3.33301 -6 10l133 112c8 7.33301 16 11 24 11h6z
M60.999 477c0 77.333 23.333 137.833 70 181.5s113.334 65.5 200.001 65.5c86 0 152.167 -21.833 198.5 -65.5s69.5 -104.167 69.5 -181.5v-244c0 -77.333 -23.167 -137.833 -69.5 -181.5s-112.5 -65.5 -198.5 -65.5c-86.667 0 -153.334 21.833 -200.001 65.5
s-70 104.167 -70 181.5v244zM552.999 477c0 64.667 -19.167 114.834 -57.5 150.501s-93.166 53.5 -164.499 53.5c-72.667 0 -128.167 -17.833 -166.5 -53.5s-57.5 -85.834 -57.5 -150.501v-244c0 -64.667 19.167 -114.834 57.5 -150.501s93.833 -53.5 166.5 -53.5
c71.333 0 126.166 17.833 164.499 53.5s57.5 85.834 57.5 150.501v244z" />
    <glyph glyph-name="Otilde" unicode="&#xd5;" horiz-adv-x="660" 
d="M475 885c5.33301 0 7.99902 -2.66699 7.99902 -8c0 -62.667 -25 -94 -75 -94c-24 0 -51.167 12 -81.5 36s-54.833 36 -73.5 36c-15.333 0 -27.166 -5.83301 -35.499 -17.5s-12.5 -27.167 -12.5 -46.5c0 -5.33301 -2.66699 -8 -8 -8h-14c-5.33301 0 -8 2.66699 -8 8
c0 62.667 25 94 75 94c20 0 39 -6 57 -18s35 -24 51 -36s32 -18 48 -18c32 0 48 21.333 48 64c0 5.33301 2.66699 8 8 8h13zM60.999 477c0 77.333 23.333 137.833 70 181.5s113.334 65.5 200.001 65.5c86 0 152.167 -21.833 198.5 -65.5s69.5 -104.167 69.5 -181.5v-244
c0 -77.333 -23.167 -137.833 -69.5 -181.5s-112.5 -65.5 -198.5 -65.5c-86.667 0 -153.334 21.833 -200.001 65.5s-70 104.167 -70 181.5v244zM552.999 477c0 64.667 -19.167 114.834 -57.5 150.501s-93.166 53.5 -164.499 53.5c-72.667 0 -128.167 -17.833 -166.5 -53.5
s-57.5 -85.834 -57.5 -150.501v-244c0 -64.667 19.167 -114.834 57.5 -150.501s93.833 -53.5 166.5 -53.5c71.333 0 126.166 17.833 164.499 53.5s57.5 85.834 57.5 150.501v244z" />
    <glyph glyph-name="Odieresis" unicode="&#xd6;" horiz-adv-x="660" 
d="M238 863c9.33301 0 15.5 -1.66699 18.5 -5s4.5 -9.33301 4.5 -18v-7c0 -8.66699 -1.5 -14.5 -4.5 -17.5s-9.16699 -4.5 -18.5 -4.5h-6c-8.66699 0 -14.667 1.5 -18 4.5s-5 8.83301 -5 17.5v7c0 8.66699 1.66699 14.667 5 18s9.33301 5 18 5h6zM429 863
c8.66699 0 14.667 -1.66699 18 -5s5 -9.33301 5 -18v-7c0 -8.66699 -1.66699 -14.5 -5 -17.5s-9.33301 -4.5 -18 -4.5h-6c-8.66699 0 -14.667 1.5 -18 4.5s-5 8.83301 -5 17.5v7c0 8.66699 1.66699 14.667 5 18s9.33301 5 18 5h6zM61 477c0 77.333 23.333 137.833 70 181.5
s113.334 65.5 200.001 65.5c86 0 152.167 -21.833 198.5 -65.5s69.5 -104.167 69.5 -181.5v-244c0 -77.333 -23.167 -137.833 -69.5 -181.5s-112.5 -65.5 -198.5 -65.5c-86.667 0 -153.334 21.833 -200.001 65.5s-70 104.167 -70 181.5v244zM553 477
c0 64.667 -19.167 114.834 -57.5 150.501s-93.166 53.5 -164.499 53.5c-72.667 0 -128.167 -17.833 -166.5 -53.5s-57.5 -85.834 -57.5 -150.501v-244c0 -64.667 19.167 -114.834 57.5 -150.501s93.833 -53.5 166.5 -53.5c71.333 0 126.166 17.833 164.499 53.5
s57.5 85.834 57.5 150.501v244z" />
    <glyph glyph-name="multiply" unicode="&#xd7;" horiz-adv-x="504" 
d="M437 167c6 -6 6 -12 0 -18l-10 -10c-6 -6 -12 -6 -18 0l-157 157l-157 -156c-6 -6 -12 -6 -18 0l-10 10c-6 5.33301 -6 11.333 0 18l157 156l-157 158c-6 6 -6 12 0 18l10 10c6 6 12 6 18 0l157 -158l157 158c6 6 12 6 18 0l10 -10c6 -6 6 -12 0 -18l-157 -158z" />
    <glyph glyph-name="Oslash" unicode="&#xd8;" horiz-adv-x="660" 
d="M602 749c3.33301 0 4.33105 -1.66797 2.99805 -5.00098l-63 -98c38 -41.333 57 -97.666 57 -168.999v-244c0 -77.333 -23.167 -137.833 -69.5 -181.5s-112.5 -65.5 -198.5 -65.5c-75.333 0 -135 16.333 -179 49l-47 -73c-2 -3.33301 -6 -5 -12 -5h-25
c-4 0 -5 1.66699 -3 5l60 94c-42.667 42.667 -64 101.667 -64 177v244c0 77.333 23.333 137.833 70 181.5s113.334 65.5 200.001 65.5c78.667 0 140.334 -18.667 185.001 -56l49 77c2.66699 2.66699 6 4 10 4h27zM491.998 629.999c-38 34 -91.667 51.001 -161 51.001
c-72.667 0 -128.167 -17.833 -166.5 -53.5s-57.5 -85.834 -57.5 -150.501v-244c0 -56 15.667 -100.333 47 -133zM175.998 74c38 -30 89.668 -45 155.001 -45c71.333 0 126.166 17.833 164.499 53.5s57.5 85.834 57.5 150.501v244c0 51.333 -13 92.666 -39 123.999z" />
    <glyph glyph-name="Ugrave" unicode="&#xd9;" horiz-adv-x="679" 
d="M246 886c5.33301 6 13 6.66602 23 1.99902l172 -102c6 -3.33301 6.33301 -8 1 -14l-7 -8c-2.66699 -4 -8 -4.33301 -16 -1l-180 98c-7.33301 2.66699 -8 7.33398 -2 14.001zM122 239.999c0 -66 18.334 -117.833 55.001 -155.5s91 -56.5 163 -56.5
c71.333 0 125.333 18.833 162 56.5s55 89.5 55 155.5v457c0 8.66699 4 13 12 13h22c8 0 12 -4.33301 12 -13v-457c0 -79.333 -22.333 -141.666 -67 -186.999s-110 -68 -196 -68c-86.667 0 -152.334 22.667 -197.001 68s-67 107.666 -67 186.999v457
c0 8.66699 4.33301 13 13 13h21c8 0 12 -4.33301 12 -13v-457z" />
    <glyph glyph-name="Uacute" unicode="&#xda;" horiz-adv-x="679" 
d="M409 895c10 4.66699 17.667 4.00098 23 -1.99902l9 -11c6.66699 -6.66699 6 -11.667 -2 -15l-177 -102c-7.33301 -2.66699 -12.666 -2.33398 -15.999 0.999023l-7 8c-4.66699 5.33301 -4.33398 10 0.999023 14zM122 240.001c0 -66 18.334 -117.833 55.001 -155.5
s91 -56.5 163 -56.5c71.333 0 125.333 18.833 162 56.5s55 89.5 55 155.5v457c0 8.66699 4 13 12 13h22c8 0 12 -4.33301 12 -13v-457c0 -79.333 -22.333 -141.666 -67 -186.999s-110 -68 -196 -68c-86.667 0 -152.334 22.667 -197.001 68s-67 107.666 -67 186.999v457
c0 8.66699 4.33301 13 13 13h21c8 0 12 -4.33301 12 -13v-457z" />
    <glyph glyph-name="Ucircumflex" unicode="&#xdb;" horiz-adv-x="679" 
d="M343 897c8 0 15.999 -3.66699 23.999 -11l132 -112c6.66699 -6.66699 4.66699 -10 -6 -10h-18c-9.33301 0 -16.333 2.33301 -21 7l-114 95l-116 -95c-5.33301 -4.66699 -11.666 -7 -18.999 -7h-19c-10.667 0 -12.667 3.33301 -6 10l133 112c8 7.33301 16 11 24 11h6z
M121.999 240c0 -66 18.334 -117.833 55.001 -155.5s91 -56.5 163 -56.5c71.333 0 125.333 18.833 162 56.5s55 89.5 55 155.5v457c0 8.66699 4 13 12 13h22c8 0 12 -4.33301 12 -13v-457c0 -79.333 -22.333 -141.666 -67 -186.999s-110 -68 -196 -68
c-86.667 0 -152.334 22.667 -197.001 68s-67 107.666 -67 186.999v457c0 8.66699 4.33301 13 13 13h21c8 0 12 -4.33301 12 -13v-457z" />
    <glyph glyph-name="Udieresis" unicode="&#xdc;" horiz-adv-x="679" 
d="M247 853c9.33301 0 15.5 -1.66699 18.5 -5s4.5 -9.33301 4.5 -18v-7c0 -8.66699 -1.5 -14.5 -4.5 -17.5s-9.16699 -4.5 -18.5 -4.5h-6c-8.66699 0 -14.667 1.5 -18 4.5s-5 8.83301 -5 17.5v7c0 8.66699 1.66699 14.667 5 18s9.33301 5 18 5h6zM438 853
c8.66699 0 14.667 -1.66699 18 -5s5 -9.33301 5 -18v-7c0 -8.66699 -1.66699 -14.5 -5 -17.5s-9.33301 -4.5 -18 -4.5h-6c-8.66699 0 -14.667 1.5 -18 4.5s-5 8.83301 -5 17.5v7c0 8.66699 1.66699 14.667 5 18s9.33301 5 18 5h6zM122 240
c0 -66 18.334 -117.833 55.001 -155.5s91 -56.5 163 -56.5c71.333 0 125.333 18.833 162 56.5s55 89.5 55 155.5v457c0 8.66699 4 13 12 13h22c8 0 12 -4.33301 12 -13v-457c0 -79.333 -22.333 -141.666 -67 -186.999s-110 -68 -196 -68
c-86.667 0 -152.334 22.667 -197.001 68s-67 107.666 -67 186.999v457c0 8.66699 4.33301 13 13 13h21c8 0 12 -4.33301 12 -13v-457z" />
    <glyph glyph-name="Yacute" unicode="&#xdd;" horiz-adv-x="619" 
d="M380 895c10 4.66699 17.667 4.00098 23 -1.99902l9 -11c6 -6.66699 5.33301 -11.667 -2 -15l-177 -102c-8 -2.66699 -13.333 -2.33398 -16 0.999023l-7 8c-5.33301 6 -5 10.667 1 14zM596 710.001c9.33301 0 11.668 -4.33301 7.00098 -13l-271 -405v-279
c0 -8.66699 -4 -13 -12 -13h-21c-8.66699 0 -13 4.33301 -13 13v280l-270 404c-4.66699 8.66699 -2.33398 13 6.99902 13h27c12 0 19.667 -3.66699 23 -11l237 -359l237 359c4.66699 7.33301 12.667 11 24 11h25z" />
    <glyph glyph-name="Thorn" unicode="&#xde;" horiz-adv-x="616" 
d="M354 587c70.667 0 126.834 -20.5 168.501 -61.5s62.5 -96.5 62.5 -166.5s-20.833 -125.167 -62.5 -165.5s-97.834 -60.5 -168.501 -60.5h-226v-120c0 -8.66699 -4 -13 -12 -13h-21c-8.66699 -0 -13 4.33301 -13 13v684c0 8.66699 4.33301 13 13 13h21
c8 0 12 -4.33301 12 -13v-110h226zM350 176c57.333 0 102.833 16.5 136.5 49.5s50.5 77.5 50.5 133.5c0 56.667 -16.833 101.667 -50.5 135s-79.167 50 -136.5 50h-222v-368h222z" />
    <glyph glyph-name="germandbls" unicode="&#xdf;" 
d="M71 528c0 68 17.332 122.001 51.999 162.001s84.334 60 149.001 60c136.667 0 205 -66.333 205 -199c0 -34.667 -8 -67.334 -24 -98.001s-40.667 -52.334 -74 -65.001v-1c39.333 -11.333 69.833 -32.5 91.5 -63.5s32.5 -70.833 32.5 -119.5
c0 -67.333 -17.333 -118.166 -52 -152.499s-84.667 -51.5 -150 -51.5h-96c-8 -0 -12 4.33301 -12 13v17c0 8 4 12 12 12h92c52 0 91.667 14 119 42s41 69.333 41 124c0 47.333 -13.333 85 -40 113s-63.667 42 -111 42h-97c-8 0 -12 4.33301 -12 13v16c0 8.66699 4 13 12 13
h94c43.333 0 75.833 14.667 97.5 44s32.5 62 32.5 98c0 107.333 -53.667 161 -161 161c-51.333 0 -90.5 -16 -117.5 -48s-40.5 -76 -40.5 -132v-515c0 -8.66699 -4.33301 -13 -13 -13h-17c-8.66699 -0 -13 4.33301 -13 13v515z" />
    <glyph glyph-name="agrave" unicode="&#xe0;" horiz-adv-x="509" 
d="M159 714c5.33301 6.66699 12.667 7 22 1l170 -106c5.33301 -4 5.66602 -8.66699 0.999023 -14l-7 -8c-3.33301 -4 -8.66602 -4.33301 -15.999 -1l-177 102c-8 3.33301 -8.66699 8.33301 -2 15zM57.001 421c36.667 70.667 102.334 105.998 197.001 105.998
c72.667 0 123.167 -17.667 151.5 -53s42.5 -82.666 42.5 -141.999v-263c0 -17.333 -2.5 -29.666 -7.5 -36.999s-14.5 -14 -28.5 -20c-40 -17.333 -93 -26 -159 -26c-82 0 -138 12.167 -168 36.5s-45 62.833 -45 115.5c0 55.333 16.667 94.333 50 117s89 34 167 34
c28.667 0 78 -3.66699 148 -11v55c0 48.667 -10.833 86.667 -32.5 114s-61.834 41 -120.501 41c-74.667 0 -127 -28.333 -157 -85c-4 -6 -9.33301 -7.66699 -16 -5l-16 6c-8 4 -10 9.66699 -6 17zM405.001 241.998c-73.333 7.33301 -124 10.999 -152 10.999
c-62 0 -105.667 -8.66699 -131 -26s-38 -46.666 -38 -87.999c0 -40 11.5 -69.5 34.5 -88.5s66.833 -28.5 131.5 -28.5c54 0 98 6.66699 132 20c10 4 16.333 8.16699 19 12.5s4 12.5 4 24.5v163z" />
    <glyph glyph-name="aacute" unicode="&#xe1;" horiz-adv-x="509" 
d="M321 715c9.33301 6 16.668 5.66699 22.001 -1l10 -11c5.33301 -6.66699 4.66602 -11.667 -2.00098 -15l-178 -102c-7.33301 -3.33301 -12.666 -3 -15.999 1l-7 8c-4.66699 5.33301 -4.33398 10 0.999023 14zM57.002 421c36.667 70.667 102.334 105.998 197.001 105.998
c72.667 0 123.167 -17.667 151.5 -53s42.5 -82.666 42.5 -141.999v-263c0 -17.333 -2.5 -29.666 -7.5 -36.999s-14.5 -14 -28.5 -20c-40 -17.333 -93 -26 -159 -26c-82 0 -138 12.167 -168 36.5s-45 62.833 -45 115.5c0 55.333 16.667 94.333 50 117s89 34 167 34
c28.667 0 78 -3.66699 148 -11v55c0 48.667 -10.833 86.667 -32.5 114s-61.834 41 -120.501 41c-74.667 0 -127 -28.333 -157 -85c-4 -6 -9.33301 -7.66699 -16 -5l-16 6c-8 4 -10 9.66699 -6 17zM405.002 241.998c-73.333 7.33301 -124 10.999 -152 10.999
c-62 0 -105.667 -8.66699 -131 -26s-38 -46.666 -38 -87.999c0 -40 11.5 -69.5 34.5 -88.5s66.833 -28.5 131.5 -28.5c54 0 98 6.66699 132 20c10 4 16.333 8.16699 19 12.5s4 12.5 4 24.5v163z" />
    <glyph glyph-name="acircumflex" unicode="&#xe2;" horiz-adv-x="509" 
d="M254 712c8 0 15.999 -3.66699 23.999 -11l132 -112c5.33301 -6.66699 3.33301 -10 -6 -10h-18c-8.66699 0 -15.667 2.33301 -21 7l-114 95l-116 -95c-5.33301 -4.66699 -11.666 -7 -18.999 -7h-18c-10 0 -12.333 3.33301 -7 10l134 112c7.33301 7.33301 15.333 11 24 11
h5zM56.999 421c36.667 70.667 102.334 105.998 197.001 105.998c72.667 0 123.167 -17.667 151.5 -53s42.5 -82.666 42.5 -141.999v-263c0 -17.333 -2.5 -29.666 -7.5 -36.999s-14.5 -14 -28.5 -20c-40 -17.333 -93 -26 -159 -26c-82 0 -138 12.167 -168 36.5
s-45 62.833 -45 115.5c0 55.333 16.667 94.333 50 117s89 34 167 34c28.667 0 78 -3.66699 148 -11v55c0 48.667 -10.833 86.667 -32.5 114s-61.834 41 -120.501 41c-74.667 0 -127 -28.333 -157 -85c-4 -6 -9.33301 -7.66699 -16 -5l-16 6c-8 4 -10 9.66699 -6 17z
M404.999 241.998c-73.333 7.33301 -124 10.999 -152 10.999c-62 0 -105.667 -8.66699 -131 -26s-38 -46.666 -38 -87.999c0 -40 11.5 -69.5 34.5 -88.5s66.833 -28.5 131.5 -28.5c54 0 98 6.66699 132 20c10 4 16.333 8.16699 19 12.5s4 12.5 4 24.5v163z" />
    <glyph glyph-name="atilde" unicode="&#xe3;" horiz-adv-x="509" 
d="M395 697c5.33301 0 8 -3 8 -9c0 -62 -24.667 -93 -74 -93c-24.667 0 -52.167 12 -82.5 36s-54.833 36 -73.5 36c-15.333 0 -27.166 -5.83301 -35.499 -17.5s-12.5 -27.167 -12.5 -46.5c0 -5.33301 -2.66699 -8 -8 -8h-14c-5.33301 0 -8 2.66699 -8 8
c0 62.667 25 94 75 94c25.333 0 53.166 -12 83.499 -36s54.5 -36 72.5 -36c32 0 48 21 48 63c0 6 2.66699 9 8 9h13zM57 421c36.667 70.667 102.334 105.998 197.001 105.998c72.667 0 123.167 -17.667 151.5 -53s42.5 -82.666 42.5 -141.999v-263
c0 -17.333 -2.5 -29.666 -7.5 -36.999s-14.5 -14 -28.5 -20c-40 -17.333 -93 -26 -159 -26c-82 0 -138 12.167 -168 36.5s-45 62.833 -45 115.5c0 55.333 16.667 94.333 50 117s89 34 167 34c28.667 0 78 -3.66699 148 -11v55c0 48.667 -10.833 86.667 -32.5 114
s-61.834 41 -120.501 41c-74.667 0 -127 -28.333 -157 -85c-4 -6 -9.33301 -7.66699 -16 -5l-16 6c-8 4 -10 9.66699 -6 17zM405 241.998c-73.333 7.33301 -124 10.999 -152 10.999c-62 0 -105.667 -8.66699 -131 -26s-38 -46.666 -38 -87.999c0 -40 11.5 -69.5 34.5 -88.5
s66.833 -28.5 131.5 -28.5c54 0 98 6.66699 132 20c10 4 16.333 8.16699 19 12.5s4 12.5 4 24.5v163z" />
    <glyph glyph-name="adieresis" unicode="&#xe4;" horiz-adv-x="509" 
d="M158 676c9.33301 0 15.5 -1.66699 18.5 -5s4.5 -9.33301 4.5 -18v-7c0 -8.66699 -1.5 -14.5 -4.5 -17.5s-9.16699 -4.5 -18.5 -4.5h-6c-8.66699 0 -14.667 1.5 -18 4.5s-5 8.83301 -5 17.5v7c0 8.66699 1.66699 14.667 5 18s9.33301 5 18 5h6zM349 676
c8.66699 0 14.667 -1.66699 18 -5s5 -9.33301 5 -18v-7c0 -8.66699 -1.66699 -14.5 -5 -17.5s-9.33301 -4.5 -18 -4.5h-5c-9.33301 0 -15.666 1.5 -18.999 4.5s-5 8.83301 -5 17.5v7c0 8.66699 1.66699 14.667 5 18s9.66602 5 18.999 5h5zM57 421
c36.667 70.667 102.334 105.998 197.001 105.998c72.667 0 123.167 -17.667 151.5 -53s42.5 -82.666 42.5 -141.999v-263c0 -17.333 -2.5 -29.666 -7.5 -36.999s-14.5 -14 -28.5 -20c-40 -17.333 -93 -26 -159 -26c-82 0 -138 12.167 -168 36.5s-45 62.833 -45 115.5
c0 55.333 16.667 94.333 50 117s89 34 167 34c28.667 0 78 -3.66699 148 -11v55c0 48.667 -10.833 86.667 -32.5 114s-61.834 41 -120.501 41c-74.667 0 -127 -28.333 -157 -85c-4 -6 -9.33301 -7.66699 -16 -5l-16 6c-8 4 -10 9.66699 -6 17zM405 241.998
c-73.333 7.33301 -124 10.999 -152 10.999c-62 0 -105.667 -8.66699 -131 -26s-38 -46.666 -38 -87.999c0 -40 11.5 -69.5 34.5 -88.5s66.833 -28.5 131.5 -28.5c54 0 98 6.66699 132 20c10 4 16.333 8.16699 19 12.5s4 12.5 4 24.5v163z" />
    <glyph glyph-name="aring" unicode="&#xe5;" horiz-adv-x="509" 
d="M155 681c0 28.667 9 51.667 27 69s42 26 72 26c29.333 0 52.5 -8.66699 69.5 -26s25.5 -40.333 25.5 -69s-8.66699 -51.5 -26 -68.5s-40.333 -25.5 -69 -25.5c-30 0 -54 8.5 -72 25.5s-27 39.833 -27 68.5zM324 681c0 21.333 -6.33301 38.333 -19 51s-29.667 19 -51 19
c-22.667 0 -40.667 -6.33301 -54 -19s-20 -29.667 -20 -51s6.66699 -38.166 20 -50.499s31.333 -18.5 54 -18.5c21.333 0 38.333 6.16699 51 18.5s19 29.166 19 50.499zM57 421c36.667 70.667 102.334 105.998 197.001 105.998c72.667 0 123.167 -17.667 151.5 -53
s42.5 -82.666 42.5 -141.999v-263c0 -17.333 -2.5 -29.666 -7.5 -36.999s-14.5 -14 -28.5 -20c-40 -17.333 -93 -26 -159 -26c-82 0 -138 12.167 -168 36.5s-45 62.833 -45 115.5c0 55.333 16.667 94.333 50 117s89 34 167 34c28.667 0 78 -3.66699 148 -11v55
c0 48.667 -10.833 86.667 -32.5 114s-61.834 41 -120.501 41c-74.667 0 -127 -28.333 -157 -85c-4 -6 -9.33301 -7.66699 -16 -5l-16 6c-8 4 -10 9.66699 -6 17zM405 241.998c-73.333 7.33301 -124 10.999 -152 10.999c-62 0 -105.667 -8.66699 -131 -26
s-38 -46.666 -38 -87.999c0 -40 11.5 -69.5 34.5 -88.5s66.833 -28.5 131.5 -28.5c54 0 98 6.66699 132 20c10 4 16.333 8.16699 19 12.5s4 12.5 4 24.5v163z" />
    <glyph glyph-name="ae" unicode="&#xe6;" horiz-adv-x="783" 
d="M58 422c37.333 70 95.6641 105 174.997 105c82.667 0 133.667 -34 153 -102c24.667 68 79 102 163 102c126 0 189 -68.333 189 -205v-53c0 -14.667 -7.66699 -22 -23 -22h-311v-69c0 -103.333 47.333 -155 142 -155c39.333 0 69 7.66699 89 23s39 39.666 57 72.999
c4.66699 7.33301 11 9 19 5l13 -7c7.33301 -4 9 -10 5 -18c-20 -38 -43.167 -66.333 -69.5 -85s-64.166 -28 -113.499 -28c-72 0 -121.667 23.667 -149 71c-30 -47.333 -84.667 -71 -164 -71c-73.333 0 -123.666 12 -150.999 36s-41 62 -41 114c0 56 14.667 95.333 44 118
s80 34 152 34c42.667 0 84 -4 124 -12v62c0 48 -8.66699 85 -26 111s-51.666 39 -102.999 39c-60 0 -105.333 -28 -136 -84c-4.66699 -6 -10 -7.66699 -16 -5l-15 6c-8 2.66699 -10.333 8.33398 -7 17.001zM694.998 324c0 110 -48.667 165 -146 165
c-96.667 0 -145 -55 -145 -165v-42h291v42zM360.998 240c-42 8 -84.998 11.999 -128.998 11.999c-54.667 0 -92.834 -8.83301 -114.501 -26.5s-32.5 -47.5 -32.5 -89.5c0 -39.333 10.167 -68.166 30.5 -86.499s58.166 -27.5 113.499 -27.5c78 0 125 24 141 72
c-6 22 -9 47 -9 75v71z" />
    <glyph glyph-name="ccedilla" unicode="&#xe7;" horiz-adv-x="513" 
d="M468 146c8 -3.33301 10.3301 -8.66797 6.99707 -16.001c-27.333 -91.333 -92.666 -139.333 -195.999 -144l-25 -68c8 2.66699 18.667 4 32 4c26.667 0 47.834 -6.83301 63.501 -20.5s23.167 -31.834 22.5 -54.501c-0.666992 -30 -11.167 -53 -31.5 -69
s-47.166 -24 -80.499 -24c-31.333 0 -59.333 7.33301 -84 22c-6 3.33301 -9 8.66602 -9 15.999v13c0 2 0.666992 3.66699 2 5s3 1 5 -1c22.667 -17.333 50 -26 82 -26c24.667 0 43.834 5.83301 57.501 17.5s20.5 27.834 20.5 48.501c0 32.667 -22.667 49 -68 49
c-14.667 0 -27 -2 -37 -6c-5.33301 -1.33301 -8.83301 -0.666016 -10.5 2.00098s-1.16699 6.66699 1.5 12l30 80c-64 2.66699 -112.833 20.834 -146.5 54.501s-50.5 80.167 -50.5 139.5v153c0 61.333 18 109 54 143s89 51 159 51c110.667 0 179.334 -45.667 206.001 -137
c2.66699 -8 0.333984 -13.667 -6.99902 -17l-17 -6c-8 -2.66699 -13.333 0 -16 8c-12 39.333 -30.833 68 -56.5 86s-62.834 27 -111.501 27c-55.333 0 -97.333 -13.5 -126 -40.5s-43 -64.5 -43 -112.5v-156c0 -48 14.667 -85.667 44 -113s71 -41 125 -41
c47.333 0 84.666 9.66699 111.999 29s46.666 49.333 57.999 90c2.66699 8 8 10.667 16 8z" />
    <glyph glyph-name="egrave" unicode="&#xe8;" horiz-adv-x="527" 
d="M175 715c6 6 13.333 6.33203 22 0.999023l170 -107c5.33301 -3.33301 5.66602 -7.66602 0.999023 -12.999l-7 -8c-3.33301 -4 -8.66602 -4.66699 -15.999 -2l-177 103c-7.33301 3.33301 -8 8.33301 -2 15zM51 317.999c0 65.333 18.498 116.5 55.498 153.5
s90.5 55.5 160.5 55.5c70.667 0 124.334 -18.667 161.001 -56s55 -87.666 55 -150.999v-51c0 -14.667 -7.66699 -22 -23 -22h-366v-68c0 -48.667 14.167 -86.834 42.5 -114.501s69.833 -41.5 124.5 -41.5c82 0 141 32.667 177 98c4.66699 7.33301 10.667 9 18 5l14 -8
c8 -4 9.33301 -10 4 -18c-40.667 -76 -111.667 -114 -213 -114c-69.333 0 -121.666 17.5 -156.999 52.5s-53 83.167 -53 144.5v135zM439.998 321.999c0 52 -14.667 92.833 -44 122.5s-72.333 44.5 -129 44.5s-99.667 -14.833 -129 -44.5s-44 -70.5 -44 -122.5v-40h346v40z
" />
    <glyph glyph-name="eacute" unicode="&#xe9;" horiz-adv-x="527" 
d="M337 716c8.66699 5.33301 16.001 5.00098 22.001 -0.999023l10 -11c5.33301 -6.66699 4.66602 -11.667 -2.00098 -15l-178 -103c-7.33301 -2.66699 -12.666 -2 -15.999 2l-7 8c-4.66699 5.33301 -4.33398 9.66602 0.999023 12.999zM51.001 318.001
c0 65.333 18.498 116.5 55.498 153.5s90.5 55.5 160.5 55.5c70.667 0 124.334 -18.667 161.001 -56s55 -87.666 55 -150.999v-51c0 -14.667 -7.66699 -22 -23 -22h-366v-68c0 -48.667 14.167 -86.834 42.5 -114.501s69.833 -41.5 124.5 -41.5c82 0 141 32.667 177 98
c4.66699 7.33301 10.667 9 18 5l14 -8c8 -4 9.33301 -10 4 -18c-40.667 -76 -111.667 -114 -213 -114c-69.333 0 -121.666 17.5 -156.999 52.5s-53 83.167 -53 144.5v135zM439.999 322.001c0 52 -14.667 92.833 -44 122.5s-72.333 44.5 -129 44.5
s-99.667 -14.833 -129 -44.5s-44 -70.5 -44 -122.5v-40h346v40z" />
    <glyph glyph-name="ecircumflex" unicode="&#xea;" horiz-adv-x="527" 
d="M270 708c8 0 15.668 -3.66699 23.001 -11l130 -109c6.66699 -6.66699 4.66699 -10 -6 -10h-18c-8.66699 0 -15.334 2.33301 -20.001 7l-112 93l-114 -93c-4.66699 -4.66699 -10.667 -7 -18 -7h-18c-10.667 0 -12.667 3.33301 -6 10l130 109
c7.33301 7.33301 15.333 11 24 11h5zM51.001 318c0 65.333 18.498 116.5 55.498 153.5s90.5 55.5 160.5 55.5c70.667 0 124.334 -18.667 161.001 -56s55 -87.666 55 -150.999v-51c0 -14.667 -7.66699 -22 -23 -22h-366v-68c0 -48.667 14.167 -86.834 42.5 -114.501
s69.833 -41.5 124.5 -41.5c82 0 141 32.667 177 98c4.66699 7.33301 10.667 9 18 5l14 -8c8 -4 9.33301 -10 4 -18c-40.667 -76 -111.667 -114 -213 -114c-69.333 0 -121.666 17.5 -156.999 52.5s-53 83.167 -53 144.5v135zM439.999 322c0 52 -14.667 92.833 -44 122.5
s-72.333 44.5 -129 44.5s-99.667 -14.833 -129 -44.5s-44 -70.5 -44 -122.5v-40h346v40z" />
    <glyph glyph-name="edieresis" unicode="&#xeb;" horiz-adv-x="527" 
d="M174 677c9.33301 0 15.5 -1.66699 18.5 -5s4.5 -9.33301 4.5 -18v-7c0 -8.66699 -1.5 -14.5 -4.5 -17.5s-9.16699 -4.5 -18.5 -4.5h-6c-8.66699 0 -14.667 1.5 -18 4.5s-5 8.83301 -5 17.5v7c0 8.66699 1.66699 14.667 5 18s9.33301 5 18 5h6zM365 677
c8.66699 0 14.667 -1.66699 18 -5s5 -9.33301 5 -18v-7c0 -8.66699 -1.66699 -14.5 -5 -17.5s-9.33301 -4.5 -18 -4.5h-5c-9.33301 0 -15.666 1.5 -18.999 4.5s-5 8.83301 -5 17.5v7c0 8.66699 1.66699 14.667 5 18s9.66602 5 18.999 5h5zM51 318
c0 65.333 18.498 116.5 55.498 153.5s90.5 55.5 160.5 55.5c70.667 0 124.334 -18.667 161.001 -56s55 -87.666 55 -150.999v-51c0 -14.667 -7.66699 -22 -23 -22h-366v-68c0 -48.667 14.167 -86.834 42.5 -114.501s69.833 -41.5 124.5 -41.5c82 0 141 32.667 177 98
c4.66699 7.33301 10.667 9 18 5l14 -8c8 -4 9.33301 -10 4 -18c-40.667 -76 -111.667 -114 -213 -114c-69.333 0 -121.666 17.5 -156.999 52.5s-53 83.167 -53 144.5v135zM439.998 322c0 52 -14.667 92.833 -44 122.5s-72.333 44.5 -129 44.5s-99.667 -14.833 -129 -44.5
s-44 -70.5 -44 -122.5v-40h346v40z" />
    <glyph glyph-name="igrave" unicode="&#xec;" horiz-adv-x="183" 
d="M21 709c5.33301 6.66699 12.667 7.33203 22 1.99902l133 -102c5.33301 -4.66699 6 -9.66699 2 -15l-6 -7c-2.66699 -4 -8 -4.33301 -16 -1l-142 98c-7.33301 2.66699 -8 7.33398 -2 14.001zM102.001 511.998c8 0 12 -3.66699 12 -11v-489c0 -8 -4 -12 -12 -12h-20
c-7.33301 0 -11 4 -11 12v489c0 7.33301 3.66699 11 11 11h20z" />
    <glyph glyph-name="iacute" unicode="&#xed;" horiz-adv-x="183" 
d="M143 711c9.33301 5.33301 16.333 4.66797 21 -1.99902l10 -11c5.33301 -6.66699 4.33301 -11.334 -3 -14.001l-142 -98c-6.66699 -4 -12 -4 -16 0l-6 7c-4 6.66699 -3.33301 11.667 2 15zM101 512.002c8 0 12 -3.66699 12 -11v-489c0 -8 -4 -12 -12 -12h-19
c-8 0 -12 4 -12 12v489c0 7.33301 4 11 12 11h19z" />
    <glyph glyph-name="icircumflex" unicode="&#xee;" horiz-adv-x="183" 
d="M214 595c6.66699 -6.66699 4.66406 -10 -6.00293 -10h-16c-10 0 -16.667 2.33301 -20 7l-81 88l-81 -88c-3.33301 -4.66699 -9.66602 -7 -18.999 -7h-17c-9.33301 0 -11.333 3.33301 -6 10l98 104c6.66699 7.33301 14.334 11 23.001 11h5
c8.66699 0 16.334 -3.66699 23.001 -11zM100.997 512c8 0 12 -3.66699 12 -11v-489c0 -8 -4 -12 -12 -12h-19c-8 0 -12 4 -12 12v489c0 7.33301 4 11 12 11h19z" />
    <glyph glyph-name="idieresis" unicode="&#xef;" horiz-adv-x="183" 
d="M24 691c9.33301 0 15.5 -1.66699 18.5 -5s4.5 -9 4.5 -17v-7c0 -9.33301 -1.5 -15.5 -4.5 -18.5s-9.16699 -4.5 -18.5 -4.5h-6c-8.66699 0 -14.667 1.66699 -18 5s-5 9.33301 -5 18v7c0 14.667 7.66699 22 23 22h6zM164 691c15.333 0 23 -7.33301 23 -22v-7
c0 -8.66699 -1.66699 -14.667 -5 -18s-9.33301 -5 -18 -5h-5c-9.33301 0 -15.666 1.5 -18.999 4.5s-5 9.16699 -5 18.5v7c0 8 1.66699 13.667 5 17s9.66602 5 18.999 5h5zM101 512c8 0 12 -3.66699 12 -11v-489c0 -8 -4 -12 -12 -12h-19c-8 0 -12 4 -12 12v489
c0 7.33301 4 11 12 11h19z" />
    <glyph glyph-name="eth" unicode="&#xf0;" horiz-adv-x="550" 
d="M427 746c3.33301 3.33301 7.33301 3.66504 12 0.998047l11 -9c4.66699 -4 4.66699 -7.66699 0 -11l-55 -58c60 -54 90 -143.333 90 -268v-226c0 -59.333 -18.5 -105.666 -55.5 -138.999s-90.5 -50 -160.5 -50c-70.667 0 -124.5 16.5 -161.5 49.5s-55.5 79.5 -55.5 139.5
v140c0 59.333 18.167 105.833 54.5 139.5s88.166 50.5 155.499 50.5c93.333 0 153.666 -30.333 180.999 -91c-1.33301 104.667 -26.666 179.334 -75.999 224.001l-79 -82c-3.33301 -3.33301 -7 -3.33301 -11 0l-11 8c-4 4 -4 7.66699 0 11l76 79
c-46.667 31.333 -112.667 47 -198 47c-8 0 -12.333 4 -13 12v16c0 8 4 12 12 12c96.667 0 172.334 -18 227.001 -54zM442 315.999c0 47.333 -14.833 84.167 -44.5 110.5s-72.5 39.5 -128.5 39.5c-56.667 0 -99.834 -13.167 -129.501 -39.5s-44.5 -63.5 -44.5 -111.5v-140
c0 -47.333 14.833 -84.166 44.5 -110.499s72.834 -39.5 129.501 -39.5c56 0 98.833 13.167 128.5 39.5s44.5 63.166 44.5 110.499v141z" />
    <glyph glyph-name="ntilde" unicode="&#xf1;" 
d="M416 697c5.33301 0 8.00098 -2.66797 8.00098 -8.00098c0 -62.667 -25 -94 -75 -94c-24 0 -51.167 12 -81.5 36s-54.833 36 -73.5 36c-15.333 0 -27.333 -5.66699 -36 -17s-13 -26.666 -13 -45.999c0 -6 -2.66699 -9 -8 -9h-13c-5.33301 0 -8 3 -8 9c0 62 25 93 75 93
c20 0 39 -6 57 -18s35 -24 51 -36s32 -18 48 -18c15.333 0 27.166 5.83301 35.499 17.5s12.5 27.167 12.5 46.5c0 5.33301 2.66699 8 8 8h13zM106.001 493.999c56 22 116.333 33.001 181 33.001c129.333 0 194 -64.333 194 -193v-322c0 -8 -4 -12 -12 -12h-20
c-7.33301 0 -11 4 -11 12v320c0 103.333 -52 155 -156 155c-54 0 -104 -8.66699 -150 -26c-14 -6.66699 -21 -17.667 -21 -33v-416c0 -8 -3.66699 -12 -11 -12h-20c-8 0 -12 4 -12 12v427c0 15.333 2.5 26.666 7.5 33.999s15.167 14.333 30.5 21z" />
    <glyph glyph-name="ograve" unicode="&#xf2;" horiz-adv-x="537" 
d="M176 714c5.33301 6 13 6.33301 23 1l169 -106c6 -3.33301 6.33301 -8 1 -14l-7 -8c-2.66699 -4 -8 -4.33301 -16 -1l-177 102c-7.33301 3.33301 -8 8.33301 -2 15zM54 351c0 54 19.333 96.833 58 128.5s90.667 47.5 156 47.5c66 0 118.333 -15.667 157 -47
s58 -74.333 58 -129v-190c0 -54 -19.333 -96.667 -58 -128s-91 -47 -157 -47c-65.333 0 -117.333 15.667 -156 47s-58 74 -58 128v190zM440 352c0 42 -15.667 75.167 -47 99.5s-73 36.5 -125 36.5c-51.333 0 -92.666 -12.333 -123.999 -37s-47 -57.667 -47 -99v-191
c0 -41.333 15.667 -74.333 47 -99s72.666 -37 123.999 -37c52 0 93.667 12.167 125 36.5s47 57.5 47 99.5v191z" />
    <glyph glyph-name="oacute" unicode="&#xf3;" horiz-adv-x="537" 
d="M338 715c9.33301 6 16.667 5.66699 22 -1l10 -11c5.33301 -6.66699 4.66602 -11.667 -2.00098 -15l-178 -102c-7.33301 -3.33301 -12.666 -3 -15.999 1l-6 8c-5.33301 6 -5 10.667 1 14zM54.001 351c0 54 19.333 96.833 58 128.5s90.667 47.5 156 47.5
c66 0 118.333 -15.667 157 -47s58 -74.333 58 -129v-190c0 -54 -19.333 -96.667 -58 -128s-91 -47 -157 -47c-65.333 0 -117.333 15.667 -156 47s-58 74 -58 128v190zM440.001 352c0 42 -15.667 75.167 -47 99.5s-73 36.5 -125 36.5c-51.333 0 -92.666 -12.333 -123.999 -37
s-47 -57.667 -47 -99v-191c0 -41.333 15.667 -74.333 47 -99s72.666 -37 123.999 -37c52 0 93.667 12.167 125 36.5s47 57.5 47 99.5v191z" />
    <glyph glyph-name="ocircumflex" unicode="&#xf4;" horiz-adv-x="537" 
d="M271 707c8 0 15.666 -3.33301 22.999 -10l130 -110c6.66699 -6.66699 4.66699 -10 -6 -10h-18c-8.66699 0 -15.334 2.33301 -20.001 7l-112 93l-113 -93c-5.33301 -4.66699 -11.666 -7 -18.999 -7h-18c-10.667 0 -12.667 3.33301 -6 10l131 110
c6.66699 6.66699 14.334 10 23.001 10h5zM53.999 351c0 54 19.333 96.833 58 128.5s90.667 47.5 156 47.5c66 0 118.333 -15.667 157 -47s58 -74.333 58 -129v-190c0 -54 -19.333 -96.667 -58 -128s-91 -47 -157 -47c-65.333 0 -117.333 15.667 -156 47s-58 74 -58 128v190z
M439.999 352c0 42 -15.667 75.167 -47 99.5s-73 36.5 -125 36.5c-51.333 0 -92.666 -12.333 -123.999 -37s-47 -57.667 -47 -99v-191c0 -41.333 15.667 -74.333 47 -99s72.666 -37 123.999 -37c52 0 93.667 12.167 125 36.5s47 57.5 47 99.5v191z" />
    <glyph glyph-name="otilde" unicode="&#xf5;" horiz-adv-x="537" 
d="M413 697c5.33301 0 8.00098 -3 8.00098 -9c0 -62 -25 -93 -75 -93c-24 0 -51.167 12 -81.5 36s-55.166 36 -74.499 36c-14.667 0 -26.334 -5.83301 -35.001 -17.5s-13 -27.167 -13 -46.5c0 -5.33301 -2.66699 -8 -8 -8h-14c-5.33301 0 -8 2.66699 -8 8
c0 62.667 25 94 75 94c25.333 0 53.166 -12 83.499 -36s54.833 -36 73.5 -36c31.333 0 47 21 47 63c0 6 2.66699 9 8 9h14zM54.001 351c0 54 19.333 96.833 58 128.5s90.667 47.5 156 47.5c66 0 118.333 -15.667 157 -47s58 -74.333 58 -129v-190
c0 -54 -19.333 -96.667 -58 -128s-91 -47 -157 -47c-65.333 0 -117.333 15.667 -156 47s-58 74 -58 128v190zM440.001 352c0 42 -15.667 75.167 -47 99.5s-73 36.5 -125 36.5c-51.333 0 -92.666 -12.333 -123.999 -37s-47 -57.667 -47 -99v-191
c0 -41.333 15.667 -74.333 47 -99s72.666 -37 123.999 -37c52 0 93.667 12.167 125 36.5s47 57.5 47 99.5v191z" />
    <glyph glyph-name="odieresis" unicode="&#xf6;" horiz-adv-x="537" 
d="M176 676c8.66699 0 14.5 -1.66699 17.5 -5s4.5 -9.33301 4.5 -18v-7c0 -8.66699 -1.5 -14.5 -4.5 -17.5s-8.83301 -4.5 -17.5 -4.5h-7c-8.66699 0 -14.5 1.5 -17.5 4.5s-4.5 8.83301 -4.5 17.5v7c0 8.66699 1.5 14.667 4.5 18s8.83301 5 17.5 5h7zM366 676
c16 0 24 -7.66699 24 -23v-7c0 -14.667 -8 -22 -24 -22h-5c-9.33301 0 -15.666 1.5 -18.999 4.5s-5 8.83301 -5 17.5v7c0 8.66699 1.66699 14.667 5 18s9.66602 5 18.999 5h5zM54 351c0 54 19.333 96.833 58 128.5s90.667 47.5 156 47.5c66 0 118.333 -15.667 157 -47
s58 -74.333 58 -129v-190c0 -54 -19.333 -96.667 -58 -128s-91 -47 -157 -47c-65.333 0 -117.333 15.667 -156 47s-58 74 -58 128v190zM440 352c0 42 -15.667 75.167 -47 99.5s-73 36.5 -125 36.5c-51.333 0 -92.666 -12.333 -123.999 -37s-47 -57.667 -47 -99v-191
c0 -41.333 15.667 -74.333 47 -99s72.666 -37 123.999 -37c52 0 93.667 12.167 125 36.5s47 57.5 47 99.5v191z" />
    <glyph glyph-name="divide" unicode="&#xf7;" horiz-adv-x="591" 
d="M298 556c10.667 0 17.834 -2 21.501 -6s5.5 -11 5.5 -21v-6c0 -10.667 -1.83301 -17.834 -5.5 -21.501s-10.834 -5.5 -21.501 -5.5h-5c-10.667 0 -17.834 1.83301 -21.501 5.5s-5.5 10.834 -5.5 21.501v6c0 10 1.83301 17 5.5 21s10.834 6 21.501 6h5zM518 345
c8.66699 0 13 -4 13 -12v-17c0 -8 -4.33301 -12 -13 -12h-445c-8.66699 0 -13 4 -13 12v17c0 8 4.33301 12 13 12h445zM298 155c10.667 0 17.834 -1.83398 21.501 -5.50098s5.5 -10.834 5.5 -21.501v-6c0 -10 -1.83301 -17 -5.5 -21s-10.834 -6 -21.501 -6h-5
c-10.667 0 -17.834 1.83301 -21.501 5.5s-5.5 10.834 -5.5 21.501v6c0 10.667 1.83301 17.834 5.5 21.501s10.834 5.5 21.501 5.5h5z" />
    <glyph glyph-name="oslash" unicode="&#xf8;" horiz-adv-x="537" 
d="M467 552c3.33301 0 4.33301 -1.66895 3 -5.00195l-43 -68c37.333 -31.333 56 -74 56 -128v-190c0 -54 -19.333 -96.667 -58 -128s-91 -47 -157 -47c-53.333 0 -97.666 10.667 -132.999 32l-31 -48c-2.66699 -3.33301 -6 -5 -10 -5h-20
c-2.66699 0.666992 -3.33398 2.33398 -2.00098 5.00098l40 63c-38.667 32.667 -58 75.334 -58 128.001v190c0 54 19.333 96.833 58 128.5s90.667 47.5 156 47.5c54.667 0 99.667 -11 135 -33l35 54c2 2.66699 5 4 9 4h20zM382 458.998c-32 19.333 -70.001 29 -114.001 29
c-51.333 0 -92.666 -12.333 -123.999 -37s-47 -57.667 -47 -99v-191c0 -36 13.333 -65.333 40 -88zM155.999 52.998c31.333 -18.667 68.667 -28 112 -28c52 0 93.667 12.167 125 36.5s47 57.5 47 99.5v191c0 36 -13 65 -39 87z" />
    <glyph glyph-name="ugrave" unicode="&#xf9;" 
d="M180 714c5.33301 6 13 6.33301 23 1l169 -106c6 -3.33301 6.33301 -8 1 -14l-7 -8c-2.66699 -4 -8 -4.33301 -16 -1l-177 102c-7.33301 3.33301 -8 8.33301 -2 15zM467 512c7.33301 0 11 -3.66797 11 -11.001v-428c0 -15.333 -2.5 -26.666 -7.5 -33.999
s-14.833 -14.333 -29.5 -21c-54 -21.333 -114.333 -32 -181 -32c-129.333 0 -194 64.333 -194 193v322c0 7.33301 4 11 12 11h19c8 0 12 -3.66699 12 -11v-320c0 -104 51.667 -156 155 -156c56 0 106 8.66699 150 26c14 6.66699 21 18 21 34v416c0 7.33301 4 11 12 11h20z
" />
    <glyph glyph-name="uacute" unicode="&#xfa;" 
d="M342 715c9.33301 6 16.667 5.66699 22 -1l10 -11c5.33301 -6.66699 4.66602 -11.667 -2.00098 -15l-178 -102c-7.33301 -3.33301 -12.666 -3 -15.999 1l-6 8c-5.33301 6 -5 10.667 1 14zM467.001 512c7.33301 0 11 -3.66797 11 -11.001v-428
c0 -15.333 -2.5 -26.666 -7.5 -33.999s-14.833 -14.333 -29.5 -21c-54 -21.333 -114.333 -32 -181 -32c-129.333 0 -194 64.333 -194 193v322c0 7.33301 4 11 12 11h19c8 0 12 -3.66699 12 -11v-320c0 -104 51.667 -156 155 -156c56 0 106 8.66699 150 26
c14 6.66699 21 18 21 34v416c0 7.33301 4 11 12 11h20z" />
    <glyph glyph-name="ucircumflex" unicode="&#xfb;" 
d="M276 712c8 0 15.668 -3.66699 23.001 -11l133 -112c5.33301 -6.66699 3 -10 -7 -10h-18c-8.66699 0 -15.334 2.33301 -20.001 7l-115 95l-116 -95c-4.66699 -4.66699 -11 -7 -19 -7h-18c-9.33301 0 -11.333 3.33301 -6 10l133 112c7.33301 7.33301 15.333 11 24 11h6z
M467.001 512c7.33301 0 11 -3.66797 11 -11.001v-428c0 -15.333 -2.5 -26.666 -7.5 -33.999s-14.833 -14.333 -29.5 -21c-54 -21.333 -114.333 -32 -181 -32c-129.333 0 -194 64.333 -194 193v322c0 7.33301 4 11 12 11h19c8 0 12 -3.66699 12 -11v-320
c0 -104 51.667 -156 155 -156c56 0 106 8.66699 150 26c14 6.66699 21 18 21 34v416c0 7.33301 4 11 12 11h20z" />
    <glyph glyph-name="udieresis" unicode="&#xfc;" 
d="M180 676c8.66699 0 14.5 -1.66699 17.5 -5s4.5 -9.33301 4.5 -18v-7c0 -8.66699 -1.5 -14.5 -4.5 -17.5s-8.83301 -4.5 -17.5 -4.5h-7c-8.66699 0 -14.5 1.5 -17.5 4.5s-4.5 8.83301 -4.5 17.5v7c0 8.66699 1.5 14.667 4.5 18s8.83301 5 17.5 5h7zM370 676
c16 0 24 -7.66699 24 -23v-7c0 -14.667 -8 -22 -24 -22h-5c-9.33301 0 -15.666 1.5 -18.999 4.5s-5 8.83301 -5 17.5v7c0 8.66699 1.66699 14.667 5 18s9.66602 5 18.999 5h5zM467 512c7.33301 0 11 -3.66797 11 -11.001v-428c0 -15.333 -2.5 -26.666 -7.5 -33.999
s-14.833 -14.333 -29.5 -21c-54 -21.333 -114.333 -32 -181 -32c-129.333 0 -194 64.333 -194 193v322c0 7.33301 4 11 12 11h19c8 0 12 -3.66699 12 -11v-320c0 -104 51.667 -156 155 -156c56 0 106 8.66699 150 26c14 6.66699 21 18 21 34v416c0 7.33301 4 11 12 11h20z
" />
    <glyph glyph-name="yacute" unicode="&#xfd;" horiz-adv-x="549" 
d="M342 715c9.33301 6 16.667 5.66699 22 -1l10 -11c5.33301 -6.66699 4.66602 -11.667 -2.00098 -15l-178 -102c-7.33301 -3.33301 -12.666 -3 -15.999 1l-6 8c-5.33301 6 -5 10.667 1 14zM467.001 512c7.33301 0 10.999 -3.66699 10.999 -11v-538
c0 -144 -69.333 -216 -208 -216c-92 0 -157 37.667 -195 113c-6 8.66699 -4.33301 15 5 19l13 7c8 4 14.333 2.33301 19 -5c32 -63.333 84.333 -95 157 -95c110.667 0 166 58.333 166 175v65c-59.333 -22 -117.666 -33 -174.999 -33c-129.333 0 -194 64.333 -194 193v315
c0 7.33301 4 11 12 11h19c8 0 12 -3.66699 12 -11v-313c0 -104 51.667 -156 155 -156c56.667 0 113.667 11.333 171 34v435c0 7.33301 4 11 12 11h20z" />
    <glyph glyph-name="thorn" unicode="&#xfe;" horiz-adv-x="537" 
d="M71 728c0 8 4 12 12 12h19c8 0 12 -4 12 -12v-244c52.667 24 107 36 163 36c137.333 0 206 -66.333 206 -199v-141c0 -130 -65.333 -195 -196 -195c-55.333 0 -113 14.333 -173 43v-236c0 -8 -4 -12 -12 -12h-19c-8 0 -12 4 -12 12v936zM440 320
c0 106.667 -55.667 160 -167 160c-57.333 0 -110.333 -12.667 -159 -38v-373c55.333 -30 112.333 -45 171 -45c103.333 0 155 52.333 155 157v139z" />
    <glyph glyph-name="ydieresis" unicode="&#xff;" horiz-adv-x="549" 
d="M180 676c8.66699 0 14.5 -1.66699 17.5 -5s4.5 -9.33301 4.5 -18v-7c0 -8.66699 -1.5 -14.5 -4.5 -17.5s-8.83301 -4.5 -17.5 -4.5h-7c-8.66699 0 -14.5 1.5 -17.5 4.5s-4.5 8.83301 -4.5 17.5v7c0 8.66699 1.5 14.667 4.5 18s8.83301 5 17.5 5h7zM370 676
c16 0 24 -7.66699 24 -23v-7c0 -14.667 -8 -22 -24 -22h-5c-9.33301 0 -15.666 1.5 -18.999 4.5s-5 8.83301 -5 17.5v7c0 8.66699 1.66699 14.667 5 18s9.66602 5 18.999 5h5zM467 512c7.33301 0 10.999 -3.66699 10.999 -11v-538c0 -144 -69.333 -216 -208 -216
c-92 0 -157 37.667 -195 113c-6 8.66699 -4.33301 15 5 19l13 7c8 4 14.333 2.33301 19 -5c32 -63.333 84.333 -95 157 -95c110.667 0 166 58.333 166 175v65c-59.333 -22 -117.666 -33 -174.999 -33c-129.333 0 -194 64.333 -194 193v315c0 7.33301 4 11 12 11h19
c8 0 12 -3.66699 12 -11v-313c0 -104 51.667 -156 155 -156c56.667 0 113.667 11.333 171 34v435c0 7.33301 4 11 12 11h20z" />
    <glyph glyph-name="Amacron" unicode="&#x100;" horiz-adv-x="632" 
d="M435 839c7.33301 0 11 -3.66699 11 -11v-10c0 -8 -3.66699 -12 -11 -12h-238c-7.33301 0 -11 4 -11 12v10c0 7.33301 3.66699 11 11 11h238zM620 12c3.33301 -8 -0.000976562 -12 -10.001 -12h-18c-13.333 0 -20.666 3.66699 -21.999 11l-89 221h-332l-88 -221
c-2.66699 -7.33301 -10.334 -11 -23.001 -11h-17c-9.33301 0 -12.333 4 -9 12l277 691c3.33301 8 9 12 17 12h20c8.66699 0 14.334 -4 17.001 -12zM325.999 626c-2 6 -5.33301 20.332 -10 42.999h-3c0 -13.333 -2.66699 -27.666 -8 -42.999l-142 -355h305z" />
    <glyph glyph-name="amacron" unicode="&#x101;" horiz-adv-x="509" 
d="M370 658c7.33301 0 11 -3.66699 11 -11v-10c0 -7.33301 -3.66699 -11 -11 -11h-238c-4.66699 0 -7.66699 0.666992 -9 2s-2 4.33301 -2 9v10c0 7.33301 3.66699 11 11 11h238zM57 421c36.667 70.667 102.334 105.998 197.001 105.998c72.667 0 123.167 -17.667 151.5 -53
s42.5 -82.666 42.5 -141.999v-263c0 -17.333 -2.5 -29.666 -7.5 -36.999s-14.5 -14 -28.5 -20c-40 -17.333 -93 -26 -159 -26c-82 0 -138 12.167 -168 36.5s-45 62.833 -45 115.5c0 55.333 16.667 94.333 50 117s89 34 167 34c28.667 0 78 -3.66699 148 -11v55
c0 48.667 -10.833 86.667 -32.5 114s-61.834 41 -120.501 41c-74.667 0 -127 -28.333 -157 -85c-4 -6 -9.33301 -7.66699 -16 -5l-16 6c-8 4 -10 9.66699 -6 17zM405 241.998c-73.333 7.33301 -124 10.999 -152 10.999c-62 0 -105.667 -8.66699 -131 -26
s-38 -46.666 -38 -87.999c0 -40 11.5 -69.5 34.5 -88.5s66.833 -28.5 131.5 -28.5c54 0 98 6.66699 132 20c10 4 16.333 8.16699 19 12.5s4 12.5 4 24.5v163z" />
    <glyph glyph-name="Abreve" unicode="&#x102;" horiz-adv-x="632" 
d="M466 876c-20.667 -74.667 -70.6689 -112 -150.002 -112c-78.667 0 -128.667 37.333 -150 112c-2 5.33301 0 9 6 11l16 6c6 2 10 0.333008 12 -5c16.667 -60 55.334 -90 116.001 -90s99.334 30 116.001 90c2 5.33301 5.66699 7 11 5l18 -6c5.33301 -2 7 -5.66699 5 -11z
M619.998 12c3.33301 -8 -0.000976562 -12 -10.001 -12h-18c-13.333 0 -20.666 3.66699 -21.999 11l-89 221h-332l-88 -221c-2.66699 -7.33301 -10.334 -11 -23.001 -11h-17c-9.33301 0 -12.333 4 -9 12l277 691c3.33301 8 9 12 17 12h20c8.66699 0 14.334 -4 17.001 -12z
M325.997 626c-2 6 -5.33301 20.332 -10 42.999h-3c0 -13.333 -2.66699 -27.666 -8 -42.999l-142 -355h305z" />
    <glyph glyph-name="abreve" unicode="&#x103;" horiz-adv-x="509" 
d="M401 695c-20.667 -74.667 -70.6689 -112 -150.002 -112s-129.333 37.333 -150 112c-2 5.33301 0 9 6 11l16 6c6 2 10 0.333008 12 -5c16.667 -60 55.334 -90 116.001 -90s99.334 30 116.001 90c2 5.33301 5.66699 7 11 5l18 -6c5.33301 -2 7 -5.66699 5 -11zM56.998 421
c36.667 70.667 102.334 105.998 197.001 105.998c72.667 0 123.167 -17.667 151.5 -53s42.5 -82.666 42.5 -141.999v-263c0 -17.333 -2.5 -29.666 -7.5 -36.999s-14.5 -14 -28.5 -20c-40 -17.333 -93 -26 -159 -26c-82 0 -138 12.167 -168 36.5s-45 62.833 -45 115.5
c0 55.333 16.667 94.333 50 117s89 34 167 34c28.667 0 78 -3.66699 148 -11v55c0 48.667 -10.833 86.667 -32.5 114s-61.834 41 -120.501 41c-74.667 0 -127 -28.333 -157 -85c-4 -6 -9.33301 -7.66699 -16 -5l-16 6c-8 4 -10 9.66699 -6 17zM404.998 241.998
c-73.333 7.33301 -124 10.999 -152 10.999c-62 0 -105.667 -8.66699 -131 -26s-38 -46.666 -38 -87.999c0 -40 11.5 -69.5 34.5 -88.5s66.833 -28.5 131.5 -28.5c54 0 98 6.66699 132 20c10 4 16.333 8.16699 19 12.5s4 12.5 4 24.5v163z" />
    <glyph glyph-name="Aogonek" unicode="&#x104;" horiz-adv-x="631" 
d="M326 715c8.66699 0 14.334 -3.99609 17.001 -11.9961l276 -688c2 -6.66699 1.33301 -11.667 -2 -15c-38 -30.667 -66.833 -63.334 -86.5 -98.001s-25.5 -62.334 -17.5 -83.001c7.33301 -21.333 22 -32 44 -32c25.333 0 47 9.33301 65 28
c3.33301 3.33301 6 2.66602 8 -2.00098l5 -15c1.33301 -4 0.666016 -7.33301 -2.00098 -10c-23.333 -23.333 -52.333 -35 -87 -35c-37.333 0 -61 15.667 -71 47c-9.33301 27.333 -4.5 59.666 14.5 96.999s50.5 73.333 94.5 108c-8.66699 0 -14 4 -16 12l-90 223h-325
l-92 -229c-2.66699 -7.33301 -10.334 -11 -23.001 -11h-16c-10.667 0 -13.667 4 -9 12l277 691c2.66699 8 8.33398 12 17.001 12h19zM383 487.004c-8.66699 21.333 -20.167 52.5 -34.5 93.5s-24.833 69.833 -31.5 86.5h-3c-6.66699 -16 -17 -44.5 -31 -85.5
s-25.333 -72.5 -34 -94.5l-82 -208h297z" />
    <glyph glyph-name="aogonek" unicode="&#x105;" horiz-adv-x="511" 
d="M57 421c36.667 70.667 102.336 106.001 197.003 106.001c72.667 0 123.167 -17.667 151.5 -53s42.5 -82.666 42.5 -141.999v-263c0 -20.667 -4.33301 -35.334 -13 -44.001c-39.333 -34 -69 -71.333 -89 -112s-26 -72 -18 -94c7.33301 -20.667 22.666 -31 45.999 -31
c24.667 0 45.334 9 62.001 27c4 3.33301 7 2.66602 9 -2.00098l5 -14c1.33301 -4 0.666016 -7.33301 -2.00098 -10c-24 -24 -53 -36 -87 -36c-38.667 0 -62.334 15.667 -71.001 47c-8 25.333 -4.16699 57.333 11.5 96s40.5 73.667 74.5 105
c-35.333 -10 -76.333 -15 -123 -15c-82 0 -138 12.167 -168 36.5s-45 62.833 -45 115.5c0 55.333 16.667 94.333 50 117s89 34 167 34c28.667 0 78 -3.66699 148 -11v55c0 48.667 -10.833 86.667 -32.5 114s-61.834 41 -120.501 41c-74.667 0 -127 -28.333 -157 -85
c-4 -6 -9.33301 -7.66699 -16 -5l-16 6c-8 4 -10 9.66699 -6 17zM405.002 242.001c-73.333 7.33301 -124 10.999 -152 10.999c-62 0 -105.667 -8.66699 -131 -26s-38 -46.666 -38 -87.999c0 -40 11.5 -69.5 34.5 -88.5s66.833 -28.5 131.5 -28.5c54 0 98 6.66699 132 20
c10 4 16.333 8.16699 19 12.5s4 12.5 4 24.5v163z" />
    <glyph glyph-name="Cacute" unicode="&#x106;" horiz-adv-x="634" 
d="M401 895c10 4.66699 17.666 4.00098 22.999 -1.99902l9 -11c6 -6.66699 5.33301 -11.667 -2 -15l-178 -102c-7.33301 -2.66699 -12.666 -2.33398 -15.999 0.999023l-6 8c-5.33301 6 -5 10.667 1 14zM60.999 478.001c0 77.333 23.0029 137.668 69.0029 181.001
s112.667 65 200 65c75.333 0 133.666 -14.333 174.999 -43s70.666 -72.334 87.999 -131.001c2 -7.33301 -1 -13 -9 -17l-18 -6c-8.66699 -2 -14.334 0.666992 -17.001 8c-15.333 50.667 -39.833 87.667 -73.5 111s-82.167 35 -145.5 35c-72.667 0 -128 -17.667 -166 -53
s-57 -85 -57 -149v-247c0 -63.333 19.333 -113 58 -149s93.667 -54 165 -54c64.667 0 113.667 12.167 147 36.5s58 62.5 74 114.5c3.33301 8 9 10.667 17 8l19 -7c8 -2.66699 10.667 -8 8 -16c-18 -60 -47.5 -104.833 -88.5 -134.5s-99.833 -44.5 -176.5 -44.5
c-86 0 -152.333 21.833 -199 65.5s-70 104.167 -70 181.5v245z" />
    <glyph glyph-name="cacute" unicode="&#x107;" horiz-adv-x="513" 
d="M336 715c9.33301 6 16.668 5.66699 22.001 -1l10 -11c5.33301 -6.66699 4.66602 -11.667 -2.00098 -15l-178 -102c-7.33301 -3.33301 -12.666 -3 -15.999 1l-7 8c-4.66699 5.33301 -4.33398 10 0.999023 14zM53.002 333c0 61.333 18 108.999 54 142.999s89 51 159 51
c110.667 0 179.334 -45.667 206.001 -137c2.66699 -8 0.333984 -13.667 -6.99902 -17l-17 -6c-8 -2.66699 -13.333 0 -16 8c-12 39.333 -30.833 68 -56.5 86s-62.834 27 -111.501 27c-55.333 0 -97.333 -13.5 -126 -40.5s-43 -64.5 -43 -112.5v-156
c0 -48 14.667 -85.667 44 -113s71 -41 125 -41c47.333 0 84.666 9.66699 111.999 29s46.666 49.333 57.999 90c2.66699 8 8 10.667 16 8l18 -6c8 -3.33301 10.333 -8.66602 7 -15.999c-29.333 -96 -99.666 -144 -210.999 -144c-68.667 0 -121 17 -157 51s-54 81.667 -54 143
v153z" />
    <glyph glyph-name="Ccircumflex" unicode="&#x108;" horiz-adv-x="634" 
d="M335 897c8 0 15.668 -3.66699 23.001 -11l133 -112c6.66699 -6.66699 4.66699 -10 -6 -10h-19c-8.66699 0 -15.334 2.33301 -20.001 7l-115 95l-116 -95c-4.66699 -4.66699 -11 -7 -19 -7h-18c-10.667 0 -12.667 3.33301 -6 10l133 112c7.33301 7.33301 15.333 11 24 11
h6zM61.001 478c0 77.333 23.0029 137.668 69.0029 181.001s112.667 65 200 65c75.333 0 133.666 -14.333 174.999 -43s70.666 -72.334 87.999 -131.001c2 -7.33301 -1 -13 -9 -17l-18 -6c-8.66699 -2 -14.334 0.666992 -17.001 8c-15.333 50.667 -39.833 87.667 -73.5 111
s-82.167 35 -145.5 35c-72.667 0 -128 -17.667 -166 -53s-57 -85 -57 -149v-247c0 -63.333 19.333 -113 58 -149s93.667 -54 165 -54c64.667 0 113.667 12.167 147 36.5s58 62.5 74 114.5c3.33301 8 9 10.667 17 8l19 -7c8 -2.66699 10.667 -8 8 -16
c-18 -60 -47.5 -104.833 -88.5 -134.5s-99.833 -44.5 -176.5 -44.5c-86 0 -152.333 21.833 -199 65.5s-70 104.167 -70 181.5v245z" />
    <glyph glyph-name="ccircumflex" unicode="&#x109;" horiz-adv-x="513" 
d="M269 707c8 0 15.668 -3.33301 23.001 -10l130 -110c6.66699 -6.66699 4.66699 -10 -6 -10h-18c-8.66699 0 -15.334 2.33301 -20.001 7l-112 93l-114 -93c-4.66699 -4.66699 -10.667 -7 -18 -7h-18c-10.667 0 -12.667 3.33301 -6 10l130 110
c7.33301 6.66699 15.333 10 24 10h5zM53.001 333c0 61.333 18 108.999 54 142.999s89 51 159 51c110.667 0 179.334 -45.667 206.001 -137c2.66699 -8 0.333984 -13.667 -6.99902 -17l-17 -6c-8 -2.66699 -13.333 0 -16 8c-12 39.333 -30.833 68 -56.5 86
s-62.834 27 -111.501 27c-55.333 0 -97.333 -13.5 -126 -40.5s-43 -64.5 -43 -112.5v-156c0 -48 14.667 -85.667 44 -113s71 -41 125 -41c47.333 0 84.666 9.66699 111.999 29s46.666 49.333 57.999 90c2.66699 8 8 10.667 16 8l18 -6c8 -3.33301 10.333 -8.66602 7 -15.999
c-29.333 -96 -99.666 -144 -210.999 -144c-68.667 0 -121 17 -157 51s-54 81.667 -54 143v153z" />
    <glyph glyph-name="Cdotaccent" unicode="&#x10a;" horiz-adv-x="634" 
d="M334 849c9.33301 0 15.5 -1.66699 18.5 -5s4.5 -9.66602 4.5 -18.999v-5c0 -9.33301 -1.5 -15.5 -4.5 -18.5s-9.16699 -4.5 -18.5 -4.5h-5c-9.33301 0 -15.666 1.5 -18.999 4.5s-5 9.16699 -5 18.5v5c0 9.33301 1.66699 15.666 5 18.999s9.66602 5 18.999 5h5zM61 478
c0 77.333 23.0029 137.668 69.0029 181.001s112.667 65 200 65c75.333 0 133.666 -14.333 174.999 -43s70.666 -72.334 87.999 -131.001c2 -7.33301 -1 -13 -9 -17l-18 -6c-8.66699 -2 -14.334 0.666992 -17.001 8c-15.333 50.667 -39.833 87.667 -73.5 111
s-82.167 35 -145.5 35c-72.667 0 -128 -17.667 -166 -53s-57 -85 -57 -149v-247c0 -63.333 19.333 -113 58 -149s93.667 -54 165 -54c64.667 0 113.667 12.167 147 36.5s58 62.5 74 114.5c3.33301 8 9 10.667 17 8l19 -7c8 -2.66699 10.667 -8 8 -16
c-18 -60 -47.5 -104.833 -88.5 -134.5s-99.833 -44.5 -176.5 -44.5c-86 0 -152.333 21.833 -199 65.5s-70 104.167 -70 181.5v245z" />
    <glyph glyph-name="cdotaccent" unicode="&#x10b;" horiz-adv-x="513" 
d="M268 669c9.33301 0 15.666 -1.66699 18.999 -5s5 -9.66602 5 -18.999v-4c0 -9.33301 -1.66699 -15.666 -5 -18.999s-9.66602 -5 -18.999 -5h-4c-9.33301 0 -15.666 1.66699 -18.999 5s-5 9.66602 -5 18.999v4c0 9.33301 1.66699 15.666 5 18.999s9.66602 5 18.999 5h4z
M53 333c0 61.333 18 108.999 54 142.999s89 51 159 51c110.667 0 179.334 -45.667 206.001 -137c2.66699 -8 0.333984 -13.667 -6.99902 -17l-17 -6c-8 -2.66699 -13.333 0 -16 8c-12 39.333 -30.833 68 -56.5 86s-62.834 27 -111.501 27
c-55.333 0 -97.333 -13.5 -126 -40.5s-43 -64.5 -43 -112.5v-156c0 -48 14.667 -85.667 44 -113s71 -41 125 -41c47.333 0 84.666 9.66699 111.999 29s46.666 49.333 57.999 90c2.66699 8 8 10.667 16 8l18 -6c8 -3.33301 10.333 -8.66602 7 -15.999
c-29.333 -96 -99.666 -144 -210.999 -144c-68.667 0 -121 17 -157 51s-54 81.667 -54 143v153z" />
    <glyph glyph-name="Ccaron" unicode="&#x10c;" horiz-adv-x="634" 
d="M484 898c10.667 0 12.332 -3.66699 4.99902 -11l-132 -111c-8 -8 -15.667 -12 -23 -12h-6c-8 0 -16 4 -24 12l-133 111c-2.66699 2 -3.66699 4.33301 -3 7s3.66699 4 9 4h18c8 0 14.333 -2.33301 19 -7l116 -95l115 95c4.66699 4.66699 11.334 7 20.001 7h19zM60.998 478
c0 77.333 23.0029 137.668 69.0029 181.001s112.667 65 200 65c75.333 0 133.666 -14.333 174.999 -43s70.666 -72.334 87.999 -131.001c2 -7.33301 -1 -13 -9 -17l-18 -6c-8.66699 -2 -14.334 0.666992 -17.001 8c-15.333 50.667 -39.833 87.667 -73.5 111
s-82.167 35 -145.5 35c-72.667 0 -128 -17.667 -166 -53s-57 -85 -57 -149v-247c0 -63.333 19.333 -113 58 -149s93.667 -54 165 -54c64.667 0 113.667 12.167 147 36.5s58 62.5 74 114.5c3.33301 8 9 10.667 17 8l19 -7c8 -2.66699 10.667 -8 8 -16
c-18 -60 -47.5 -104.833 -88.5 -134.5s-99.833 -44.5 -176.5 -44.5c-86 0 -152.333 21.833 -199 65.5s-70 104.167 -70 181.5v245z" />
    <glyph glyph-name="ccaron" unicode="&#x10d;" horiz-adv-x="513" 
d="M405 697c4.66699 0 7.49902 -1.16699 8.49902 -3.5s0.166992 -4.5 -2.5 -6.5l-121 -103c-7.33301 -7.33301 -14.666 -11 -21.999 -11h-5c-7.33301 0 -14.666 3.66699 -21.999 11l-122 103c-2.66699 2.66699 -3.66699 5 -3 7s3 3 7 3h18c7.33301 0 13.333 -2.33301 18 -7
l106 -88l105 88c5.33301 4.66699 11.666 7 18.999 7h16zM52.999 333c0 61.333 18 108.999 54 142.999s89 51 159 51c110.667 0 179.334 -45.667 206.001 -137c2.66699 -8 0.333984 -13.667 -6.99902 -17l-17 -6c-8 -2.66699 -13.333 0 -16 8c-12 39.333 -30.833 68 -56.5 86
s-62.834 27 -111.501 27c-55.333 0 -97.333 -13.5 -126 -40.5s-43 -64.5 -43 -112.5v-156c0 -48 14.667 -85.667 44 -113s71 -41 125 -41c47.333 0 84.666 9.66699 111.999 29s46.666 49.333 57.999 90c2.66699 8 8 10.667 16 8l18 -6c8 -3.33301 10.333 -8.66602 7 -15.999
c-29.333 -96 -99.666 -144 -210.999 -144c-68.667 0 -121 17 -157 51s-54 81.667 -54 143v153z" />
    <glyph glyph-name="Dcaron" unicode="&#x10e;" horiz-adv-x="646" 
d="M461 898c10.667 0 12.334 -3.66699 5.00098 -11l-132 -111c-8 -8 -15.667 -12 -23 -12h-6c-8 0 -16 4 -24 12l-132 111c-2.66699 2 -3.83398 4.33301 -3.50098 7s3.16602 4 8.49902 4h18c8 0 14.333 -2.33301 19 -7l116 -95l115 95c4.66699 4.66699 11.334 7 20.001 7h19
zM299 710c92 0 163.333 -23.5 214 -70.5s76 -111.5 76 -193.5v-182c0 -82 -25.333 -146.5 -76 -193.5s-122 -70.5 -214 -70.5h-204c-8.66699 -0 -13 4.33301 -13 13v684c0 8.66699 4.33301 13 13 13h204zM543 446c0 70 -20.999 124.333 -62.999 163s-102 58 -180 58h-172
v-624h172c77.333 0 137.166 19.333 179.499 58s63.5 93 63.5 163v182z" />
    <glyph glyph-name="dcaron" unicode="&#x10f;" horiz-adv-x="559" 
d="M54 331c0 130.667 64 196 192 196c58 0 117 -12 177 -36v237c0 8 4 12 12 12h19c8 0 12 -4 12 -12v-658c0 -16 -2.66699 -27.5 -8 -34.5s-16 -13.833 -32 -20.5c-48 -19.333 -103 -29 -165 -29c-138 0 -207 66.333 -207 199v146zM581 520
c-2 -7.33301 -6.33301 -11 -13 -11h-11c-6.66699 0 -9.66699 3 -9 9l45 210c0.666992 8 5 12 13 12h17c9.33301 0 13 -4 11 -12zM423 449c-52.667 25.333 -109.668 37.998 -171.001 37.998c-104 0 -156 -52.333 -156 -157v-144c0 -107.333 56 -161 168 -161
c48 0 93 7.66699 135 23c10.667 4.66699 17.334 8.83398 20.001 12.501s4 10.834 4 21.501v367z" />
    <glyph glyph-name="Dcroat" unicode="&#x110;" horiz-adv-x="655" 
d="M309 710c92 0 163.333 -23.5 214 -70.5s76 -111.5 76 -193.5v-182c0 -82 -25.333 -146.5 -76 -193.5s-122 -70.5 -214 -70.5h-205c-8.66699 -0 -13 4.33301 -13 13v328h-80c-6.66699 0 -10 3.33301 -10 10v13c0 6.66699 3.33301 10 10 10h80v323
c0 8.66699 4.33301 13 13 13h205zM553 446c0 70 -21.167 124.333 -63.5 163s-102.5 58 -180.5 58h-171v-293h191c6.66699 0 10 -3.33301 10 -10v-13c0 -6.66699 -3.33301 -10 -10 -10h-191v-298h171c78 0 138.167 19.333 180.5 58s63.5 93 63.5 163v182z" />
    <glyph glyph-name="dcroat" unicode="&#x111;" horiz-adv-x="536" 
d="M541 647c6.66699 0 10 -3.33105 10 -9.99805v-9c0 -6.66699 -3.33301 -10 -10 -10h-74v-548c0 -16.667 -2.5 -28.334 -7.5 -35.001s-15.5 -13.334 -31.5 -20.001c-48.667 -19.333 -103.667 -29 -165 -29c-138.667 0 -208 66.333 -208 199v146c0 130 64 195 192 195
c62 0 121 -11.667 177 -35v127h-168c-6 0 -9 3.33301 -9 10v9c0 6.66699 3 10 9 10h168v81c0 8 4 12 12 12h20c7.33301 0 11 -4 11 -12v-81h74zM424 449.002c-52.667 25.333 -109.335 37.998 -170.002 37.998c-104 0 -156 -52.333 -156 -157v-144
c0 -107.333 56 -161 168 -161c48.667 0 93.334 7.66699 134.001 23c10.667 4.66699 17.334 8.83398 20.001 12.501s4 10.834 4 21.501v367z" />
    <glyph glyph-name="Emacron" unicode="&#x112;" horiz-adv-x="570" 
d="M418 839c4.66699 0 7.66699 -0.666992 9 -2s2 -4.33301 2 -9v-10c0 -8 -3.66699 -12 -11 -12h-237c-7.33301 0 -11 4 -11 12v10c0 7.33301 3.66699 11 11 11h237zM503 710c8.66699 0 13 -4.33301 13 -13v-18c0 -8 -4.33301 -12 -13 -12h-375v-286h332c8 0 12 -4 12 -12
v-18c0 -8.66699 -4 -13 -12 -13h-332v-295h389c8.66699 0 13 -4 13 -12v-18c0 -8.66699 -4.33301 -13 -13 -13h-422c-8.66699 -0 -13 4.33301 -13 13v684c0 8.66699 4.33301 13 13 13h408z" />
    <glyph glyph-name="emacron" unicode="&#x113;" horiz-adv-x="527" 
d="M376 653c6.66699 0 10 -3.33301 10 -10v-11c0 -6.66699 -3.33301 -10 -10 -10h-218c-6.66699 0 -10 3.33301 -10 10v11c0 6.66699 3.33301 10 10 10h218zM51 318c0 65.333 18.498 116.5 55.498 153.5s90.5 55.5 160.5 55.5c70.667 0 124.334 -18.667 161.001 -56
s55 -87.666 55 -150.999v-51c0 -14.667 -7.66699 -22 -23 -22h-366v-68c0 -48.667 14.167 -86.834 42.5 -114.501s69.833 -41.5 124.5 -41.5c82 0 141 32.667 177 98c4.66699 7.33301 10.667 9 18 5l14 -8c8 -4 9.33301 -10 4 -18c-40.667 -76 -111.667 -114 -213 -114
c-69.333 0 -121.666 17.5 -156.999 52.5s-53 83.167 -53 144.5v135zM439.998 322c0 52 -14.667 92.833 -44 122.5s-72.333 44.5 -129 44.5s-99.667 -14.833 -129 -44.5s-44 -70.5 -44 -122.5v-40h346v40z" />
    <glyph glyph-name="Ebreve" unicode="&#x114;" horiz-adv-x="570" 
d="M450 876c-21.333 -74.667 -71.666 -112.001 -150.999 -112.001c-78.667 0 -128.334 37.333 -149.001 112c-2 5.33301 -0.333008 9 5 11l16 6c6 2 10.333 0.333008 13 -5c15.333 -60 53.666 -90 114.999 -90c62 0 100.667 30 116 90
c2.66699 4.66699 6.33398 6.33398 11.001 5.00098l18 -6c6 -2 8 -5.66699 6 -11zM503 709.999c8.66699 0 13 -4.33301 13 -13v-18c0 -8 -4.33301 -12 -13 -12h-375v-286h332c8 0 12 -4 12 -12v-18c0 -8.66699 -4 -13 -12 -13h-332v-295h389c8.66699 0 13 -4 13 -12v-18
c0 -8.66699 -4.33301 -13 -13 -13h-422c-8.66699 0 -13 4.33301 -13 13v684c0 8.66699 4.33301 13 13 13h408z" />
    <glyph glyph-name="ebreve" unicode="&#x115;" horiz-adv-x="527" 
d="M417 695c-20.667 -74 -70.6699 -111 -150.003 -111s-129.333 37 -150 111c-2 6 0 10 6 12l16 6c6 2 10 0.333008 12 -5c16.667 -60 55.334 -90 116.001 -90s99.334 30 116.001 90c2 5.33301 5.66699 7 11 5l18 -6c4.66699 -2.66699 6.33398 -6.66699 5.00098 -12z
M50.9971 318c0 65.333 18.498 116.5 55.498 153.5s90.5 55.5 160.5 55.5c70.667 0 124.334 -18.667 161.001 -56s55 -87.666 55 -150.999v-51c0 -14.667 -7.66699 -22 -23 -22h-366v-68c0 -48.667 14.167 -86.834 42.5 -114.501s69.833 -41.5 124.5 -41.5
c82 0 141 32.667 177 98c4.66699 7.33301 10.667 9 18 5l14 -8c8 -4 9.33301 -10 4 -18c-40.667 -76 -111.667 -114 -213 -114c-69.333 0 -121.666 17.5 -156.999 52.5s-53 83.167 -53 144.5v135zM439.995 322c0 52 -14.667 92.833 -44 122.5s-72.333 44.5 -129 44.5
s-99.667 -14.833 -129 -44.5s-44 -70.5 -44 -122.5v-40h346v40z" />
    <glyph glyph-name="Edotaccent" unicode="&#x116;" horiz-adv-x="570" 
d="M302 849c9.33301 0 15.5 -1.66699 18.5 -5s4.5 -9.66602 4.5 -18.999v-5c0 -9.33301 -1.5 -15.5 -4.5 -18.5s-9.16699 -4.5 -18.5 -4.5h-5c-9.33301 0 -15.666 1.5 -18.999 4.5s-5 9.16699 -5 18.5v5c0 9.33301 1.66699 15.666 5 18.999s9.66602 5 18.999 5h5zM503 710
c8.66699 0 13 -4.33301 13 -13v-18c0 -8 -4.33301 -12 -13 -12h-375v-286h332c8 0 12 -4 12 -12v-18c0 -8.66699 -4 -13 -12 -13h-332v-295h389c8.66699 0 13 -4 13 -12v-18c0 -8.66699 -4.33301 -13 -13 -13h-422c-8.66699 -0 -13 4.33301 -13 13v684
c0 8.66699 4.33301 13 13 13h408z" />
    <glyph glyph-name="edotaccent" unicode="&#x117;" horiz-adv-x="527" 
d="M269 670c8.66699 0 14.834 -1.66504 18.501 -4.99805s5.5 -9.66602 5.5 -18.999v-5c0 -8.66699 -1.83301 -14.834 -5.5 -18.501s-9.83398 -5.5 -18.501 -5.5h-4c-9.33301 0 -15.666 1.66699 -18.999 5s-5 9.66602 -5 18.999v5c0 9.33301 1.66699 15.666 5 18.999
s9.66602 5 18.999 5h4zM51 318.002c0 65.333 18.498 116.5 55.498 153.5s90.5 55.5 160.5 55.5c70.667 0 124.334 -18.667 161.001 -56s55 -87.666 55 -150.999v-51c0 -14.667 -7.66699 -22 -23 -22h-366v-68c0 -48.667 14.167 -86.834 42.5 -114.501
s69.833 -41.5 124.5 -41.5c82 0 141 32.667 177 98c4.66699 7.33301 10.667 9 18 5l14 -8c8 -4 9.33301 -10 4 -18c-40.667 -76 -111.667 -114 -213 -114c-69.333 0 -121.666 17.5 -156.999 52.5s-53 83.167 -53 144.5v135zM439.998 322.002c0 52 -14.667 92.833 -44 122.5
s-72.333 44.5 -129 44.5s-99.667 -14.833 -129 -44.5s-44 -70.5 -44 -122.5v-40h346v40z" />
    <glyph glyph-name="Eogonek" unicode="&#x118;" horiz-adv-x="570" 
d="M503 710c8.66699 0 12.999 -4.33203 12.999 -12.999v-18c0 -8 -4.33301 -12 -13 -12h-375v-286h332c8 0 12 -4.33301 12 -13v-18c0 -8 -4 -12 -12 -12h-332v-295h389c8.66699 0 13 -4 13 -12v-18c0 -3.33301 -1.33301 -7 -4 -11c-44 -34.667 -76 -68.5 -96 -101.5
s-26 -60.167 -18 -81.5c7.33301 -20 22.666 -30 45.999 -30c24 0 44.333 9 61 27c4 3.33301 7 2.66602 9 -2.00098l5 -14c2 -4 1.33301 -7.66699 -2 -11c-25.333 -24 -54.333 -36 -87 -36c-36.667 0 -60 16 -70 48c-9.33301 26.667 -4.16602 58 15.501 94
s51.834 71 96.501 105h-391c-8.66699 -0 -13 4.33301 -13 13v684c0 8.66699 4.33301 13 13 13h408z" />
    <glyph glyph-name="eogonek" unicode="&#x119;" horiz-adv-x="527" 
d="M51 318c0 65.333 18.5 116.502 55.5 153.502s90.5 55.5 160.5 55.5c70.667 0 124.334 -18.667 161.001 -56s55 -87.666 55 -150.999v-51c0 -14.667 -7.66699 -22 -23 -22h-366v-68c0 -48.667 14.167 -86.834 42.5 -114.501s69.833 -41.5 124.5 -41.5
c82 0 141 32.667 177 98c4.66699 7.33301 10.667 9 18 5l14 -8c8 -4 9.33301 -10 4 -18c-13.333 -24.667 -28.333 -44.334 -45 -59.001c-38 -38.667 -67.167 -80 -87.5 -124s-26.5 -76.667 -18.5 -98s23.333 -32 46 -32c23.333 0 44.333 9.33301 63 28
c4.66699 3.33301 7.33398 2.66602 8.00098 -2.00098l6 -14c1.33301 -4 0.666016 -7.33301 -2.00098 -10c-24 -24 -53 -36 -87 -36c-38.667 0 -62.334 15.667 -71.001 47c-8.66699 24 -5.33398 55 9.99902 93s39.333 75.667 72 113c-30 -13.333 -65.667 -20 -107 -20
c-69.333 0 -121.666 17.5 -156.999 52.5s-53 83.167 -53 144.5v135zM440 322.002c0 52 -14.667 92.833 -44 122.5s-72.333 44.5 -129 44.5s-99.667 -14.833 -129 -44.5s-44 -70.5 -44 -122.5v-40h346v40z" />
    <glyph glyph-name="Ecaron" unicode="&#x11a;" horiz-adv-x="570" 
d="M452 898c10.667 0 12.334 -3.66699 5.00098 -11l-132 -111c-8 -8 -15.667 -12 -23 -12h-6c-8 0 -16 4 -24 12l-132 111c-2.66699 2 -3.83398 4.33301 -3.50098 7s3.16602 4 8.49902 4h18c8 0 14.333 -2.33301 19 -7l116 -95l115 95c4.66699 4.66699 11.334 7 20.001 7h19
zM503 710c8.66699 0 13 -4.33301 13 -13v-18c0 -8 -4.33301 -12 -13 -12h-375v-286h332c8 0 12 -4 12 -12v-18c0 -8.66699 -4 -13 -12 -13h-332v-295h389c8.66699 0 13 -4 13 -12v-18c0 -8.66699 -4.33301 -13 -13 -13h-422c-8.66699 -0 -13 4.33301 -13 13v684
c0 8.66699 4.33301 13 13 13h408z" />
    <glyph glyph-name="ecaron" unicode="&#x11b;" horiz-adv-x="527" 
d="M406 697c10 0 11.999 -3 5.99902 -9l-121 -104c-7.33301 -6.66699 -14.666 -10 -21.999 -10h-5c-8 0 -15.333 3.33301 -22 10l-122 104c-6 6 -4.66699 9 4 9h18c7.33301 0 13.333 -2 18 -6l106 -88l105 88c4.66699 4 11 6 19 6h16zM50.999 318
c0 65.333 18.498 116.5 55.498 153.5s90.5 55.5 160.5 55.5c70.667 0 124.334 -18.667 161.001 -56s55 -87.666 55 -150.999v-51c0 -14.667 -7.66699 -22 -23 -22h-366v-68c0 -48.667 14.167 -86.834 42.5 -114.501s69.833 -41.5 124.5 -41.5c82 0 141 32.667 177 98
c4.66699 7.33301 10.667 9 18 5l14 -8c8 -4 9.33301 -10 4 -18c-40.667 -76 -111.667 -114 -213 -114c-69.333 0 -121.666 17.5 -156.999 52.5s-53 83.167 -53 144.5v135zM439.997 322c0 52 -14.667 92.833 -44 122.5s-72.333 44.5 -129 44.5s-99.667 -14.833 -129 -44.5
s-44 -70.5 -44 -122.5v-40h346v40z" />
    <glyph glyph-name="Gcircumflex" unicode="&#x11c;" horiz-adv-x="651" 
d="M333 907c8 0 15.998 -3.66699 23.998 -11l132 -112c6.66699 -6.66699 4.66699 -10 -6 -10h-18c-8.66699 0 -15.667 2.33301 -21 7l-114 95l-116 -95c-5.33301 -4.66699 -11.666 -7 -18.999 -7h-18c-11.333 0 -13.666 3.33301 -6.99902 10l134 112
c7.33301 7.33301 15.333 11 24 11h5zM585.998 358c8.66699 0 13.0039 -4.66406 13.0039 -13.9971v-117c0 -74 -23.333 -132.667 -70 -176s-112.667 -65 -198 -65c-86.667 0 -153.334 22 -200.001 66s-70 104.667 -70 182v244c0 77.333 23 137.666 69 180.999
s112.667 65 200 65c75.333 0 133.666 -14.333 174.999 -43s70.666 -72.334 87.999 -131.001c2 -7.33301 -1 -13 -9 -17l-18 -6c-8.66699 -2.66699 -14.334 0 -17.001 8c-15.333 50.667 -39.833 87.667 -73.5 111s-82.167 35 -145.5 35
c-73.333 0 -128.833 -17.667 -166.5 -53s-56.5 -85 -56.5 -149v-245c0 -64.667 19.333 -115 58 -151s94 -54 166 -54c71.333 0 126.333 17.667 165 53s58 83.666 58 144.999v87h-214c-8.66699 0 -13 4.33301 -13 13v18c0 8.66699 4.33301 13 13 13h246z" />
    <glyph glyph-name="gcircumflex" unicode="&#x11d;" horiz-adv-x="534" 
d="M277 707c7.33301 0 15.001 -3.33301 23.001 -10l129 -110c6.66699 -6.66699 4.66699 -10 -6 -10h-18c-8.66699 0 -15.334 2.33301 -20.001 7l-112 93l-113 -93c-4.66699 -4.66699 -11 -7 -19 -7h-18c-9.33301 0 -11.333 3.33301 -6 10l131 110
c7.33301 6.66699 15 10 23 10h6zM53.001 325c0 134.667 69.999 202 209.999 202c62.667 0 117.334 -9.66699 164.001 -29c16 -7.33301 26.5 -14.333 31.5 -21s7.5 -18 7.5 -34v-480c0 -144 -69 -216 -207 -216c-91.333 0 -156 37.667 -194 113c-4.66699 8.66699 -3 15 5 19
l14 7c7.33301 4 13.333 2.33301 18 -5c15.333 -30.667 35 -54.167 59 -70.5s56.333 -24.5 97 -24.5c110 0 165 58.333 165 175v68c-56.667 -24 -116 -36 -178 -36c-128 0 -192 64 -192 192v140zM398 464c-40.667 15.333 -84.667 22.999 -132 22.999
c-113.333 0 -170 -54.333 -170 -163v-138c0 -102.667 51.333 -154 154 -154c56 0 113.667 12.333 173 37v362c0 10 -1.5 16.833 -4.5 20.5s-9.83301 7.83398 -20.5 12.501z" />
    <glyph glyph-name="Gbreve" unicode="&#x11e;" horiz-adv-x="651" 
d="M480 886c-20.667 -74.667 -70.6689 -112 -150.002 -112s-129.333 37.333 -150 112c-2 5.33301 0 9 6 11l16 6c6 2 10 0.333008 12 -5c16.667 -60 55.334 -90 116.001 -90s99.334 30 116.001 90c2 5.33301 5.66699 7 11 5l18 -6c5.33301 -2 7 -5.66699 5 -11zM585.998 358
c8.66699 0 13.0039 -4.66406 13.0039 -13.9971v-117c0 -74 -23.333 -132.667 -70 -176s-112.667 -65 -198 -65c-86.667 0 -153.334 22 -200.001 66s-70 104.667 -70 182v244c0 77.333 23 137.666 69 180.999s112.667 65 200 65c75.333 0 133.666 -14.333 174.999 -43
s70.666 -72.334 87.999 -131.001c2 -7.33301 -1 -13 -9 -17l-18 -6c-8.66699 -2.66699 -14.334 0 -17.001 8c-15.333 50.667 -39.833 87.667 -73.5 111s-82.167 35 -145.5 35c-73.333 0 -128.833 -17.667 -166.5 -53s-56.5 -85 -56.5 -149v-245
c0 -64.667 19.333 -115 58 -151s94 -54 166 -54c71.333 0 126.333 17.667 165 53s58 83.666 58 144.999v87h-214c-8.66699 0 -13 4.33301 -13 13v18c0 8.66699 4.33301 13 13 13h246z" />
    <glyph glyph-name="gbreve" unicode="&#x11f;" horiz-adv-x="534" 
d="M424 695c-21.333 -74.667 -71.666 -112.001 -150.999 -112.001c-78.667 0 -128.334 37.333 -149.001 112c-2 5.33301 -0.333008 9 5 11l16 6c6 2 10.333 0.333008 13 -5c15.333 -60 53.666 -90 114.999 -90c62 0 100.667 30 116 90
c2.66699 4.66699 6.33398 6.33398 11.001 5.00098l18 -6c6 -2 8 -5.66699 6 -11zM53 324.999c0 134.667 69.999 202 209.999 202c62.667 0 117.334 -9.66699 164.001 -29c16 -7.33301 26.5 -14.333 31.5 -21s7.5 -18 7.5 -34v-480c0 -144 -69 -216 -207 -216
c-91.333 0 -156 37.667 -194 113c-4.66699 8.66699 -3 15 5 19l14 7c7.33301 4 13.333 2.33301 18 -5c15.333 -30.667 35 -54.167 59 -70.5s56.333 -24.5 97 -24.5c110 0 165 58.333 165 175v68c-56.667 -24 -116 -36 -178 -36c-128 0 -192 64 -192 192v140z
M397.999 463.999c-40.667 15.333 -84.667 22.999 -132 22.999c-113.333 0 -170 -54.333 -170 -163v-138c0 -102.667 51.333 -154 154 -154c56 0 113.667 12.333 173 37v362c0 10 -1.5 16.833 -4.5 20.5s-9.83301 7.83398 -20.5 12.501z" />
    <glyph glyph-name="Gdotaccent" unicode="&#x120;" horiz-adv-x="651" 
d="M332 859c9.33301 0 15.666 -1.66699 18.999 -5s5 -9.66602 5 -18.999v-5c0 -8.66699 -1.66699 -14.667 -5 -18s-9.66602 -5 -18.999 -5h-4c-9.33301 0 -15.666 1.5 -18.999 4.5s-5 9.16699 -5 18.5v5c0 9.33301 1.66699 15.666 5 18.999s9.66602 5 18.999 5h4zM586 358
c8.66699 0 13.0039 -4.66406 13.0039 -13.9971v-117c0 -74 -23.333 -132.667 -70 -176s-112.667 -65 -198 -65c-86.667 0 -153.334 22 -200.001 66s-70 104.667 -70 182v244c0 77.333 23 137.666 69 180.999s112.667 65 200 65c75.333 0 133.666 -14.333 174.999 -43
s70.666 -72.334 87.999 -131.001c2 -7.33301 -1 -13 -9 -17l-18 -6c-8.66699 -2.66699 -14.334 0 -17.001 8c-15.333 50.667 -39.833 87.667 -73.5 111s-82.167 35 -145.5 35c-73.333 0 -128.833 -17.667 -166.5 -53s-56.5 -85 -56.5 -149v-245
c0 -64.667 19.333 -115 58 -151s94 -54 166 -54c71.333 0 126.333 17.667 165 53s58 83.666 58 144.999v87h-214c-8.66699 0 -13 4.33301 -13 13v18c0 8.66699 4.33301 13 13 13h246z" />
    <glyph glyph-name="gdotaccent" unicode="&#x121;" horiz-adv-x="534" 
d="M276 669c9.33301 0 15.5 -1.66699 18.5 -5s4.5 -9.66602 4.5 -18.999v-4c0 -9.33301 -1.5 -15.666 -4.5 -18.999s-9.16699 -5 -18.5 -5h-5c-9.33301 0 -15.666 1.66699 -18.999 5s-5 9.66602 -5 18.999v4c0 9.33301 1.66699 15.666 5 18.999s9.66602 5 18.999 5h5z
M53 325c0 134.667 69.999 202 209.999 202c62.667 0 117.334 -9.66699 164.001 -29c16 -7.33301 26.5 -14.333 31.5 -21s7.5 -18 7.5 -34v-480c0 -144 -69 -216 -207 -216c-91.333 0 -156 37.667 -194 113c-4.66699 8.66699 -3 15 5 19l14 7c7.33301 4 13.333 2.33301 18 -5
c15.333 -30.667 35 -54.167 59 -70.5s56.333 -24.5 97 -24.5c110 0 165 58.333 165 175v68c-56.667 -24 -116 -36 -178 -36c-128 0 -192 64 -192 192v140zM397.999 464c-40.667 15.333 -84.667 22.999 -132 22.999c-113.333 0 -170 -54.333 -170 -163v-138
c0 -102.667 51.333 -154 154 -154c56 0 113.667 12.333 173 37v362c0 10 -1.5 16.833 -4.5 20.5s-9.83301 7.83398 -20.5 12.501z" />
    <glyph glyph-name="Gcommaaccent" unicode="&#x122;" horiz-adv-x="651" 
d="M586 358c8.66699 0 13.0039 -4.66406 13.0039 -13.9971v-117c0 -74 -23.333 -132.667 -70 -176s-112.667 -65 -198 -65c-86.667 0 -153.334 22 -200.001 66s-70 104.667 -70 182v244c0 77.333 23 137.666 69 180.999s112.667 65 200 65
c75.333 0 133.666 -14.333 174.999 -43s70.666 -72.334 87.999 -131.001c2 -7.33301 -1 -13 -9 -17l-18 -6c-8.66699 -2.66699 -14.334 0 -17.001 8c-15.333 50.667 -39.833 87.667 -73.5 111s-82.167 35 -145.5 35c-73.333 0 -128.833 -17.667 -166.5 -53
s-56.5 -85 -56.5 -149v-245c0 -64.667 19.333 -115 58 -151s94 -54 166 -54c71.333 0 126.333 17.667 165 53s58 83.666 58 144.999v87h-214c-8.66699 0 -13 4.33301 -13 13v18c0 8.66699 4.33301 13 13 13h246zM325.004 -233.997c-2.66699 -7.33301 -7.33301 -11 -14 -11
h-14c-6 0 -8.66699 3 -8 9l39 146c1.33301 8 6.33301 12 15 12h19c10 0 13.667 -4.33301 11 -13z" />
    <glyph glyph-name="gcommaaccent" unicode="&#x123;" horiz-adv-x="534" 
d="M290 721c2.66699 8 7.66699 12 15 12h11c8 0 11 -3.33301 9 -10l-46 -134c-1.33301 -5.33301 -3 -8.83301 -5 -10.5s-5.66699 -2.5 -11 -2.5h-16c-10.667 0 -14 4.33301 -10 13zM53 325c0 134.667 69.999 202 209.999 202c62.667 0 117.334 -9.66699 164.001 -29
c16 -7.33301 26.5 -14.333 31.5 -21s7.5 -18 7.5 -34v-480c0 -144 -69 -216 -207 -216c-91.333 0 -156 37.667 -194 113c-4.66699 8.66699 -3 15 5 19l14 7c7.33301 4 13.333 2.33301 18 -5c15.333 -30.667 35 -54.167 59 -70.5s56.333 -24.5 97 -24.5
c110 0 165 58.333 165 175v68c-56.667 -24 -116 -36 -178 -36c-128 0 -192 64 -192 192v140zM397.999 464c-40.667 15.333 -84.667 22.999 -132 22.999c-113.333 0 -170 -54.333 -170 -163v-138c0 -102.667 51.333 -154 154 -154c56 0 113.667 12.333 173 37v362
c0 10 -1.5 16.833 -4.5 20.5s-9.83301 7.83398 -20.5 12.501z" />
    <glyph glyph-name="Hcircumflex" unicode="&#x124;" horiz-adv-x="679" 
d="M343 897c8 0 15.668 -3.66699 23.001 -11l133 -112c6.66699 -6.66699 4.66699 -10 -6 -10h-19c-8.66699 0 -15.334 2.33301 -20.001 7l-115 95l-116 -95c-4.66699 -4.66699 -11 -7 -19 -7h-18c-10.667 0 -12.667 3.33301 -6 10l133 112c7.33301 7.33301 15.333 11 24 11
h6zM584.001 710c8.66699 0 13 -4.33301 13 -13v-684c0 -8.66699 -4.33301 -13 -13 -13h-21c-8 -0 -12 4.33301 -12 13v325h-423v-325c0 -8.66699 -4 -13 -12 -13h-21c-8.66699 -0 -13 4.33301 -13 13v684c0 8.66699 4.33301 13 13 13h21c8 0 12 -4.33301 12 -13v-316h423
v316c0 8.66699 4 13 12 13h21z" />
    <glyph glyph-name="hcircumflex" unicode="&#x125;" horiz-adv-x="549" 
d="M95 917c8 0 15.667 -3.66699 23 -11l127 -108c6 -6 4 -9 -6 -9h-17c-8.66699 0 -15.334 2 -20.001 6l-110 92l-111 -92c-5.33301 -4 -11.666 -6 -18.999 -6h-17c-10 0 -12 3 -6 9l128 108c7.33301 7.33301 15 11 23 11h5zM102 740c8 0 12 -4 12 -12v-236
c50.667 23.333 109 35 175 35c129.333 0 194 -64.333 194 -193v-322c0 -8 -3.66699 -12 -11 -12h-20c-8 0 -12 4 -12 12v320c0 103.333 -51.667 155 -155 155c-64.667 0 -121.667 -12 -171 -36v-439c0 -8 -4 -12 -12 -12h-20c-7.33301 0 -11 4 -11 12v716
c0 8 3.66699 12 11 12h20z" />
    <glyph glyph-name="Hbar" unicode="&#x126;" horiz-adv-x="685" 
d="M668 584c6 0 9 -3.33301 9 -10v-10c0 -7.33301 -3 -11 -9 -11h-68v-540c0 -8.66699 -4.33301 -13 -13 -13h-21c-8 -0 -12 4.33301 -12 13v325h-423v-325c0 -8.66699 -4 -13 -12 -13h-21c-8.66699 -0 -13 4.33301 -13 13v540h-67c-6 0 -9 3.66699 -9 11v10
c0 6.66699 3 10 9 10h67v113c0 8.66699 4.33301 13 13 13h21c8 0 12 -4.33301 12 -13v-113h423v113c0 8.66699 4 13 12 13h21c8.66699 0 13 -4.33301 13 -13v-113h68zM131 553v-172h423v172h-423z" />
    <glyph glyph-name="hbar" unicode="&#x127;" horiz-adv-x="549" 
d="M113 492c50.667 23.333 109.333 35 176 35c129.333 0 194 -64.333 194 -193v-322c0 -8 -4 -12 -12 -12h-20c-7.33301 0 -11 4 -11 12v320c0 103.333 -52 155 -156 155c-64 0 -121 -12 -171 -36v-439c0 -8 -3.66699 -12 -11 -12h-20c-8 0 -12 4 -12 12v611h-61
c-6.66699 0 -10 3.66699 -10 11v8c0 6.66699 3.33301 10 10 10h61v76c0 8 4 12 12 12h20c7.33301 0 11 -4 11 -12v-76h168c6 0 9 -3.33301 9 -10v-8c0 -7.33301 -3 -11 -9 -11h-168v-131z" />
    <glyph glyph-name="Itilde" unicode="&#x128;" horiz-adv-x="210" 
d="M249 875c5.33301 0 8 -2.66699 8 -8c0 -62.667 -24.667 -94 -74 -94c-24.667 0 -52.167 12 -82.5 36s-54.833 36 -73.5 36c-15.333 0 -27.166 -5.83301 -35.499 -17.5s-12.5 -27.167 -12.5 -46.5c0 -5.33301 -2.66699 -8 -8 -8h-14c-5.33301 0 -8 2.66699 -8 8
c0 62.667 25 94 75 94c25.333 0 53.166 -12 83.499 -36s54.5 -36 72.5 -36c32 0 48 21.333 48 64c0 5.33301 2.66699 8 8 8h13zM82 697c0 8.66699 4.33301 13 13 13h21c8 0 12 -4.33301 12 -13v-684c0 -8.66699 -4 -13 -12 -13h-21c-8.66699 -0 -13 4.33301 -13 13v684z" />
    <glyph glyph-name="itilde" unicode="&#x129;" horiz-adv-x="183" 
d="M196 703c4.66699 0 7.00098 -2.66699 7.00098 -8c0 -61.333 -18.667 -92 -56 -92c-12.667 0 -24 3.5 -34 10.5s-17.667 14.833 -23 23.5s-12.333 16.5 -21 23.5s-18.334 10.5 -29.001 10.5c-25.333 0 -38 -20 -38 -60c0 -5.33301 -2.33301 -8 -7 -8h-11
c-4.66699 0 -7 2.66699 -7 8c0 61.333 19.667 92 59 92c13.333 0 25 -3.66699 35 -11s17.833 -15.333 23.5 -24s12.667 -16.667 21 -24s17.833 -11 28.5 -11c22.667 0 34 20.667 34 62c0 5.33301 2.33301 8 7 8h11zM101.001 512c8 0 12 -3.66699 12 -11v-489
c0 -8 -4 -12 -12 -12h-19c-8 0 -12 4 -12 12v489c0 7.33301 4 11 12 11h19z" />
    <glyph glyph-name="Imacron" unicode="&#x12a;" horiz-adv-x="210" 
d="M224 839c7.33301 0 11 -3.66699 11 -11v-10c0 -8 -3.66699 -12 -11 -12h-238c-7.33301 0 -11 4 -11 12v10c0 7.33301 3.66699 11 11 11h238zM82 697c0 8.66699 4.33301 13 13 13h21c8 0 12 -4.33301 12 -13v-684c0 -8.66699 -4 -13 -12 -13h-21
c-8.66699 -0 -13 4.33301 -13 13v684z" />
    <glyph glyph-name="imacron" unicode="&#x12b;" horiz-adv-x="183" 
d="M166 660c4 0 6 -3.33301 6 -10v-11c0 -7.33301 -2 -11 -6 -11h-148c-4.66699 0 -7 3.66699 -7 11v11c0 6.66699 2.33301 10 7 10h148zM101 512c8 0 12 -3.66699 12 -11v-489c0 -8 -4 -12 -12 -12h-19c-8 0 -12 4 -12 12v489c0 7.33301 4 11 12 11h19z" />
    <glyph glyph-name="Ibreve" unicode="&#x12c;" horiz-adv-x="210" 
d="M255 876c-20.667 -74.667 -70.6689 -112 -150.002 -112s-129.333 37.333 -150 112c-2 5.33301 0 9 6 11l16 6c6 2 10 0.333008 12 -5c16.667 -60 55.334 -90 116.001 -90s99.334 30 116.001 90c2 5.33301 5.66699 7 11 5l18 -6c5.33301 -2 7 -5.66699 5 -11zM81.998 697
c0 8.66699 4.33301 13 13 13h21c8 0 12 -4.33301 12 -13v-684c0 -8.66699 -4 -13 -12 -13h-21c-8.66699 -0 -13 4.33301 -13 13v684z" />
    <glyph glyph-name="ibreve" unicode="&#x12d;" horiz-adv-x="183" 
d="M209 705c4.66699 -2.66699 6.66699 -6.66699 6 -12c-14.667 -71.333 -56 -107 -124 -107c-32.667 0 -59.5 9.16699 -80.5 27.5s-34.833 44.833 -41.5 79.5c-2 6 -0.333008 10 5 12l15 5c7.33301 1.33301 11.666 -0.333984 12.999 -5.00098
c8.66699 -56.667 38.334 -85 89.001 -85c51.333 0 81.333 28.333 90 85c1.33301 4.66699 5 6.33398 11 5.00098zM101 512c8 0 12 -3.66699 12 -11v-489c0 -8 -4 -12 -12 -12h-19c-8 0 -12 4 -12 12v489c0 7.33301 4 11 12 11h19z" />
    <glyph glyph-name="Iogonek" unicode="&#x12e;" horiz-adv-x="210" 
d="M188 -201c1.33301 -4 0.666992 -7.33203 -2 -9.99902c-24 -24 -53 -36 -87 -36c-38.667 0 -62.334 15.667 -71.001 47c-18 49.333 3.66699 116.333 65 201c-7.33301 0 -11 4 -11 12v684c0 8.66699 4.33301 13 13 13h21c8 0 12 -4.33301 12 -13v-684
c0 -5.33301 -1 -9 -3 -11c-56 -79.333 -75.667 -140.333 -59 -183c6.66699 -20.667 21.667 -31 45 -31c24 0 45 9 63 27c4.66699 3.33301 7.33398 2.66602 8.00098 -2.00098z" />
    <glyph glyph-name="iogonek" unicode="&#x12f;" horiz-adv-x="184" 
d="M90 634c-10 0 -16.833 1.83301 -20.5 5.5s-5.5 10.5 -5.5 20.5v6c0 9.33301 1.83301 15.833 5.5 19.5s10.5 5.5 20.5 5.5h5c9.33301 0 15.833 -1.83301 19.5 -5.5s5.5 -10.167 5.5 -19.5v-6c0 -9.33301 -1.83301 -16 -5.5 -20s-10.167 -6 -19.5 -6h-5zM159 -198
c2.66699 -3.33301 2.33203 -6.66797 -1.00098 -10.001c-16 -25.333 -39 -38 -69 -38c-18.667 0 -34.167 5.16699 -46.5 15.5s-19.5 24.5 -21.5 42.5c-2.66699 32 3 66.833 17 104.5s27.667 66.167 41 85.5c-5.33301 0 -8 3.33301 -8 10v489c0 7.33301 3.66699 11 11 11h20
c8 0 12 -3.66699 12 -11v-489c0 -5.33301 -1 -8.33301 -3 -9c-12.667 -21.333 -25.167 -49.166 -37.5 -83.499s-17.166 -65.833 -14.499 -94.5c0.666992 -11.333 5 -20.5 13 -27.5s17 -10.5 27 -10.5c18 0 33 9 45 27c2 3.33301 5 3 9 -1z" />
    <glyph glyph-name="Idotaccent" unicode="&#x130;" horiz-adv-x="210" 
d="M107 849c9.33301 0 15.666 -1.66699 18.999 -5s5 -9.66602 5 -18.999v-5c0 -8.66699 -1.66699 -14.667 -5 -18s-9.66602 -5 -18.999 -5h-4c-9.33301 0 -15.666 1.5 -18.999 4.5s-5 9.16699 -5 18.5v5c0 9.33301 1.66699 15.666 5 18.999s9.66602 5 18.999 5h4zM82 697
c0 8.66699 4.33301 13 13 13h21c8 0 12 -4.33301 12 -13v-684c0 -8.66699 -4 -13 -12 -13h-21c-8.66699 -0 -13 4.33301 -13 13v684z" />
    <glyph glyph-name="dotlessi" unicode="&#x131;" horiz-adv-x="184" 
d="M102 512c8 0 12 -3.66699 12 -11v-489c0 -8 -4 -12 -12 -12h-20c-7.33301 0 -11 4 -11 12v489c0 7.33301 3.66699 11 11 11h20z" />
    <glyph glyph-name="IJ" unicode="&#x132;" horiz-adv-x="780" 
d="M82 697c0 8.66699 4.33301 13 13 13h21c8 0 12 -4.33301 12 -13v-684c0 -8.66699 -4 -13 -12 -13h-21c-8.66699 -0 -13 4.33301 -13 13v684zM691 710c8 0 11.998 -4.00098 11.998 -12.001v-481c0 -72 -20.5 -128.667 -61.5 -170s-99.167 -62 -174.5 -62
c-129.333 0 -206.666 65.667 -231.999 197c-2.66699 8.66699 0 14.334 8 17.001l20 7c8 2.66699 13.333 0 16 -8c10.667 -56 30.834 -98.167 60.501 -126.5s72.167 -42.5 127.5 -42.5c61.333 0 108.333 16.5 141 49.5s49 79.167 49 138.5v481c0 8 4 12 12 12h22z" />
    <glyph glyph-name="ij" unicode="&#x133;" horiz-adv-x="429" 
d="M95 691c9.33301 0 15.833 -1.83301 19.5 -5.5s5.5 -10.167 5.5 -19.5v-6c0 -9.33301 -1.83301 -16 -5.5 -20s-10.167 -6 -19.5 -6h-5c-10 0 -16.833 1.83301 -20.5 5.5s-5.5 10.5 -5.5 20.5v6c0 9.33301 1.83301 15.833 5.5 19.5s10.5 5.5 20.5 5.5h5zM339 691
c10 0 16.833 -1.83301 20.5 -5.5s5.5 -10.167 5.5 -19.5v-6c0 -9.33301 -1.83301 -16 -5.5 -20s-10.5 -6 -20.5 -6h-5c-9.33301 0 -15.833 1.83301 -19.5 5.5s-5.5 10.5 -5.5 20.5v6c0 9.33301 1.83301 15.833 5.5 19.5s10.167 5.5 19.5 5.5h5zM102 512
c8 0 12 -3.66699 12 -11v-489c0 -8 -4 -12 -12 -12h-20c-7.33301 0 -11 4 -11 12v489c0 7.33301 3.66699 11 11 11h20zM346 512c8 0 12 -3.66699 12 -11v-510c0 -74 -15 -129.333 -45 -166s-80.667 -55 -152 -55c-8 0 -12 4 -12 12v17c0 7.33301 4 11 12 11
c58 0 98.167 14.833 120.5 44.5s33.5 75.167 33.5 136.5v510c0 7.33301 4 11 12 11h19z" />
    <glyph glyph-name="Jcircumflex" unicode="&#x134;" horiz-adv-x="567" 
d="M470 897c8 0 16 -3.66699 24 -11l132 -112c6.66699 -6.66699 4.66699 -10 -6 -10h-18c-9.33301 0 -16.333 2.33301 -21 7l-114 95l-116 -95c-5.33301 -4.66699 -12 -7 -20 -7h-18c-10.667 0 -12.667 3.33301 -6 10l133 112c8 7.33301 16 11 24 11h6zM478 710
c8 0 11.998 -4.00098 11.998 -12.001v-481c0 -72 -20.5 -128.667 -61.5 -170s-99.167 -62 -174.5 -62c-129.333 0 -206.666 65.667 -231.999 197c-2.66699 8.66699 0 14.334 8 17.001l20 7c8 2.66699 13.333 0 16 -8c10.667 -56 30.834 -98.167 60.501 -126.5
s72.167 -42.5 127.5 -42.5c61.333 0 108.333 16.5 141 49.5s49 79.167 49 138.5v481c0 8 4 12 12 12h22z" />
    <glyph glyph-name="jcircumflex" unicode="&#x135;" horiz-adv-x="184" 
d="M95 708c8.66699 0 16.333 -3.66699 23 -11l106 -110c5.33301 -6.66699 3.33301 -10 -6 -10h-17c-9.33301 0 -16 2.33301 -20 7l-89 94l-91 -94c-4 -4.66699 -10.333 -7 -19 -7h-18c-8.66699 0 -10.334 3.33301 -5.00098 10l107 110c6.66699 7.33301 14.334 11 23.001 11
h6zM101.999 512c8 0 12 -3.66699 12 -11v-510c0 -74 -15 -129.333 -45 -166s-80.667 -55 -152 -55c-8 0 -12 4 -12 12v17c0 7.33301 4 11 12 11c57.333 0 97.333 14.833 120 44.5s34 75.167 34 136.5v510c0 7.33301 4 11 12 11h19z" />
    <glyph glyph-name="Kcommaaccent" unicode="&#x136;" horiz-adv-x="600" 
d="M579 13c4.66699 -8.66699 2.33398 -12.999 -6.99902 -12.999h-20c-12.667 0 -21 3.66699 -25 11l-117 233c-17.333 34 -37.333 58.333 -60 73s-54.334 22 -95.001 22h-127v-326c0 -8.66699 -4 -13 -12 -13h-21c-8.66699 0 -13 4.33301 -13 13v684
c0 8.66699 4.33301 13 13 13h21c8 0 12 -4.33301 12 -13v-316h124c12 0 20.333 -0.333008 25 -1l236 319c6 7.33301 14.667 11 26 11h23c10 0 12 -4.33301 6 -13l-243 -325c29.333 -6.66699 54 -18.834 74 -36.501s38 -42.167 54 -73.5zM305 -233.999
c-1.33301 -7.33301 -6 -11 -14 -11h-14c-6 0 -8.66699 3 -8 9l39 146c1.33301 8 6.33301 12 15 12h19c10 0 13.667 -4.33301 11 -13z" />
    <glyph glyph-name="kcommaaccent" unicode="&#x137;" horiz-adv-x="499" 
d="M475 13c4 -8.66699 1.66406 -12.999 -7.00293 -12.999h-20c-9.33301 0 -15.666 3.33301 -18.999 10l-83 168c-11.333 23.333 -25.166 40.166 -41.499 50.499s-37.833 15.5 -64.5 15.5h-126v-232c0 -8 -4 -12 -12 -12h-19c-8 0 -12 4 -12 12v716c0 8 4 12 12 12h19
c8 0 12 -4 12 -12v-445h121h10l174 220c4 6 11.667 9 23 9h17c12.667 0 15.334 -4.33301 8.00098 -13l-178 -223c40.667 -8 72 -34.667 94 -80zM253.997 -215.999c-2 -8 -7 -12 -15 -12h-12c-6.66699 0 -9.66699 3.33301 -9 10l35 151c1.33301 8.66699 6.33301 13 15 13h17
c10 0 13.667 -4.33301 11 -13z" />
    <glyph glyph-name="kgreenlandic" unicode="&#x138;" horiz-adv-x="459" 
d="M439 15c6.66699 -10 4.33496 -15 -6.99805 -15h-19c-10.667 -0 -18.667 3.33301 -24 10l-178 251l-97 -103v-146c0 -8 -4 -12 -12 -12h-19c-8 0 -12 4 -12 12v489c0 7.33301 4 11 12 11h19c8 0 12 -3.66699 12 -11v-283l267 285c5.33301 6 13.666 9 24.999 9h17
c13.333 0 15.666 -4.33301 6.99902 -13l-190 -205z" />
    <glyph glyph-name="Lacute" unicode="&#x139;" horiz-adv-x="518" 
d="M175 895c10 4.66699 17.667 4.00098 23 -1.99902l9 -11c6.66699 -6.66699 6 -11.667 -2 -15l-177 -102c-7.33301 -2.66699 -12.666 -2.33398 -15.999 0.999023l-7 8c-4.66699 5.33301 -4.33398 10 0.999023 14zM116 710.001c8 0 12 -4.33301 12 -13v-654h364
c8 0 12 -4 12 -12v-18c0 -8.66699 -4 -13 -12 -13h-397c-8.66699 0 -13 4.33301 -13 13v684c0 8.66699 4.33301 13 13 13h21z" />
    <glyph glyph-name="lacute" unicode="&#x13a;" horiz-adv-x="192" 
d="M149 882c8 4 14.667 3.00098 20 -2.99902l11 -13c4.66699 -6.66699 3.66699 -11.334 -3 -14.001l-146 -76c-6.66699 -2.66699 -12 -2.33398 -16 0.999023l-7 9c-3.33301 6.66699 -2.33301 11.334 3 14.001zM117 12.001c0 -8 -3.66699 -12 -11 -12h-20c-8 0 -12 4 -12 12
v716c0 8 4 12 12 12h20c7.33301 0 11 -4 11 -12v-716z" />
    <glyph glyph-name="Lcommaaccent" unicode="&#x13b;" horiz-adv-x="518" 
d="M116 710c8 0 12 -4.33301 12 -13v-654h364c8 0 12 -4 12 -12v-18c0 -8.66699 -4 -13 -12 -13h-397c-8.66699 -0 -13 4.33301 -13 13v684c0 8.66699 4.33301 13 13 13h21zM271 -234c-1.33301 -7.33301 -6.00098 -11 -14.001 -11h-13c-6.66699 0 -9.66699 3 -9 9l40 146
c0.666992 8 5.33398 12 14.001 12h19c10 0 13.667 -4.33301 11 -13z" />
    <glyph glyph-name="lcommaaccent" unicode="&#x13c;" horiz-adv-x="192" 
d="M117 12c0 -8 -3.66699 -12 -11 -12h-20c-7.33301 0 -11 4 -11 12v716c0 8 3.66699 12 11 12h20c7.33301 0 11 -4 11 -12v-716zM79 -208c-2.66699 -8 -7.66699 -12 -15 -12h-11c-6.66699 0 -9.66699 3.33301 -9 10l35 158c1.33301 8.66699 6.33301 13 15 13h16
c10.667 0 14 -4.33301 10 -13z" />
    <glyph glyph-name="Lcaron" unicode="&#x13d;" horiz-adv-x="518" 
d="M116 710c8 0 12 -4.33301 12 -13v-654h364c8 0 12 -4 12 -12v-18c0 -8.66699 -4 -13 -12 -13h-397c-8.66699 -0 -13 4.33301 -13 13v684c0 8.66699 4.33301 13 13 13h21zM359 500c-2 -8 -6.66699 -12 -14 -12h-11c-6.66699 0 -9.33398 3.33301 -8.00098 10l40 200
c0.666992 8 5.33398 12 14.001 12h18c10 0 13.667 -4.33301 11 -13z" />
    <glyph glyph-name="lcaron" unicode="&#x13e;" horiz-adv-x="198" 
d="M117 12c0 -8 -3.66699 -12 -11 -12h-20c-7.33301 0 -11 4 -11 12v716c0 8 3.66699 12 11 12h20c7.33301 0 11 -4 11 -12v-716zM243 549c-2.66699 -7.33301 -7.33301 -11 -14 -11h-11c-6 0 -8.66699 3.33301 -8 10l33 180c1.33301 8 6.33301 12 15 12h18
c10.667 0 14 -4.33301 10 -13z" />
    <glyph glyph-name="Ldot" unicode="&#x13f;" horiz-adv-x="518" 
d="M116 710c8 0 12 -4.33301 12 -13v-654h364c8 0 12 -4 12 -12v-18c0 -8.66699 -4 -13 -12 -13h-397c-8.66699 -0 -13 4.33301 -13 13v684c0 8.66699 4.33301 13 13 13h21zM341 383c10 0 17 -1.83301 21 -5.5s6 -10.834 6 -21.501v-5c0 -10.667 -2 -18 -6 -22
s-11 -6 -21 -6h-5c-10.667 0 -18 2 -22 6s-6 11.333 -6 22v5c0 10.667 2 17.834 6 21.501s11.333 5.5 22 5.5h5z" />
    <glyph glyph-name="ldot" unicode="&#x140;" horiz-adv-x="298" 
d="M117 12c0 -8 -3.66699 -12 -11 -12h-20c-7.33301 0 -11 4 -11 12v716c0 8 3.66699 12 11 12h20c7.33301 0 11 -4 11 -12v-716zM248 404c10.667 0 18 -1.83301 22 -5.5s6 -10.834 6 -21.501v-6c0 -10.667 -2 -17.834 -6 -21.501s-11.333 -5.5 -22 -5.5h-5
c-10.667 0 -17.834 1.83301 -21.501 5.5s-5.5 10.834 -5.5 21.501v6c0 10.667 1.83301 17.834 5.5 21.501s10.834 5.5 21.501 5.5h5z" />
    <glyph glyph-name="Lslash" unicode="&#x141;" horiz-adv-x="544" 
d="M518 43c8 0 12 -4 12 -12v-18c0 -8.66699 -4 -13 -12 -13h-398c-8 -0 -12 4.33301 -12 13v285l-90 -44c-6.66699 -2.66699 -11 -1 -13 5l-7 14c-4 6 -3 10.333 3 13l107 52v359c0 8.66699 4 13 12 13h21c8.66699 0 13 -4.33301 13 -13v-338l235 114
c6.66699 3.33301 11.667 2 15 -4l7 -14c2.66699 -6 1 -10.333 -5 -13l-252 -122v-277h364z" />
    <glyph glyph-name="lslash" unicode="&#x142;" horiz-adv-x="261" 
d="M251 436c2.66699 -4.66699 1.00098 -8.66602 -4.99902 -11.999l-97 -58v-354c0 -8 -3.66699 -12 -11 -12h-20c-8 0 -12 4 -12 12v330l-75 -45c-6 -3.33301 -10.333 -2.33301 -13 3l-8 13c-2.66699 5.33301 -1.33398 9.66602 3.99902 12.999l92 54v348c0 8 4 12 12 12h20
c7.33301 0 11 -4 11 -12v-324l80 47c5.33301 3.33301 10 2.33301 14 -3z" />
    <glyph glyph-name="Nacute" unicode="&#x143;" horiz-adv-x="688" 
d="M414 895c10 4.66699 17.667 4.00098 23 -1.99902l9 -11c6.66699 -6.66699 6 -11.667 -2 -15l-177 -102c-7.33301 -2.66699 -12.666 -2.33398 -15.999 0.999023l-7 8c-4.66699 5.33301 -4.33398 10 0.999023 14zM594 710.001c8 0 12.0029 -4.33496 12.0029 -13.002v-684
c0 -8.66699 -4 -13 -12 -13h-21c-6 0 -10.667 2.66699 -14 8l-355 506c-12 16.667 -26.833 40.334 -44.5 71.001s-29.834 50.334 -36.501 59.001h-2c0 -10.667 1 -35 3 -73s3 -68.667 3 -92v-466c0 -8.66699 -4 -13 -12 -13h-20c-8.66699 0 -13 4.33301 -13 13v684
c0 8.66699 4.33301 13 13 13h20c6 0 10.667 -2.33301 14 -7l345 -493c13.333 -18.667 30.166 -44.667 50.499 -78s34.166 -55 41.499 -65h2c0 12.667 -1.16699 39.5 -3.5 80.5s-3.5 74.167 -3.5 99.5v451c0 8 4.33301 12 13 12h20z" />
    <glyph glyph-name="nacute" unicode="&#x144;" 
d="M341 716c9.33301 5.33301 17 5.00098 23 -0.999023l9 -11c6 -6.66699 5.33301 -11.667 -2 -15l-177 -103c-7.33301 -2.66699 -12.666 -2 -15.999 2l-7 8c-4.66699 5.33301 -4.33398 9.66602 0.999023 12.999zM106 494.001c56 22 116.333 33.001 181 33.001
c129.333 0 194 -64.333 194 -193v-322c0 -8 -4 -12 -12 -12h-20c-7.33301 0 -11 4 -11 12v320c0 103.333 -52 155 -156 155c-54 0 -104 -8.66699 -150 -26c-14 -6.66699 -21 -17.667 -21 -33v-416c0 -8 -3.66699 -12 -11 -12h-20c-8 0 -12 4 -12 12v427
c0 15.333 2.5 26.666 7.5 33.999s15.167 14.333 30.5 21z" />
    <glyph glyph-name="Ncommaaccent" unicode="&#x145;" horiz-adv-x="688" 
d="M594 710c8 0 12.0029 -4.33496 12.0029 -13.002v-684c0 -8.66699 -4 -13 -12 -13h-21c-6 0 -10.667 2.66699 -14 8l-355 506c-12 16.667 -26.833 40.334 -44.5 71.001s-29.834 50.334 -36.501 59.001h-2c0 -10.667 1 -35 3 -73s3 -68.667 3 -92v-466
c0 -8.66699 -4 -13 -12 -13h-20c-8.66699 -0 -13 4.33301 -13 13v684c0 8.66699 4.33301 13 13 13h20c6 0 10.667 -2.33301 14 -7l345 -493c13.333 -18.667 30.166 -44.667 50.499 -78s34.166 -55 41.499 -65h2c0 12.667 -1.16699 39.5 -3.5 80.5s-3.5 74.167 -3.5 99.5v451
c0 8 4.33301 12 13 12h20zM325.003 -234.002c-2.66699 -7.33301 -7.33301 -11 -14 -11h-14c-6 0 -8.66699 3 -8 9l39 146c1.33301 8 6.33301 12 15 12h18c10 0 13.667 -4.33301 11 -13z" />
    <glyph glyph-name="ncommaaccent" unicode="&#x146;" 
d="M106 494c56 22 116.333 33.001 181 33.001c129.333 0 194 -64.333 194 -193v-322c0 -8 -4 -12 -12 -12h-20c-7.33301 0 -11 4 -11 12v320c0 103.333 -52 155 -156 155c-54 0 -104 -8.66699 -150 -26c-14 -6.66699 -21 -17.667 -21 -33v-416c0 -8 -3.66699 -12 -11 -12
h-20c-8 0 -12 4 -12 12v427c0 15.333 2.5 26.666 7.5 33.999s15.167 14.333 30.5 21zM263 -204.999c-2.66699 -8 -7.66602 -12 -14.999 -12h-12c-6.66699 0 -9.66699 3.33301 -9 10l35 155c1.33301 8.66699 6.33301 13 15 13h17c9.33301 0 12.666 -4.33301 9.99902 -13z" />
    <glyph glyph-name="Ncaron" unicode="&#x147;" horiz-adv-x="688" 
d="M497 898c10 0 12.0029 -3.66699 6.00293 -11l-132 -111c-8.66699 -8 -16.667 -12 -24 -12h-6c-7.33301 0 -15 4 -23 12l-133 111c-2.66699 2 -3.83398 4.33301 -3.50098 7s3.16602 4 8.49902 4h19c7.33301 0 13.666 -2.33301 18.999 -7l116 -95l114 95
c4.66699 4.66699 11.667 7 21 7h18zM594.003 710c8 0 12.0029 -4.33496 12.0029 -13.002v-684c0 -8.66699 -4 -13 -12 -13h-21c-6 0 -10.667 2.66699 -14 8l-355 506c-12 16.667 -26.833 40.334 -44.5 71.001s-29.834 50.334 -36.501 59.001h-2c0 -10.667 1 -35 3 -73
s3 -68.667 3 -92v-466c0 -8.66699 -4 -13 -12 -13h-20c-8.66699 -0 -13 4.33301 -13 13v684c0 8.66699 4.33301 13 13 13h20c6 0 10.667 -2.33301 14 -7l345 -493c13.333 -18.667 30.166 -44.667 50.499 -78s34.166 -55 41.499 -65h2c0 12.667 -1.16699 39.5 -3.5 80.5
s-3.5 74.167 -3.5 99.5v451c0 8 4.33301 12 13 12h20z" />
    <glyph glyph-name="ncaron" unicode="&#x148;" 
d="M411 697c4.66699 0 7.33203 -1 7.99902 -3s-0.333008 -4 -3 -6l-121 -104c-6.66699 -6.66699 -13.667 -10 -21 -10h-5c-8 0 -15.333 3.33301 -22 10l-123 104c-4.66699 6 -3 9 5 9h18c6.66699 0 12.334 -2 17.001 -6l107 -88l105 88c4 4 10 6 18 6h17zM105.998 494
c56 22 116.333 33.001 181 33.001c129.333 0 194 -64.333 194 -193v-322c0 -8 -4 -12 -12 -12h-20c-7.33301 0 -11 4 -11 12v320c0 103.333 -52 155 -156 155c-54 0 -104 -8.66699 -150 -26c-14 -6.66699 -21 -17.667 -21 -33v-416c0 -8 -3.66699 -12 -11 -12h-20
c-8 0 -12 4 -12 12v427c0 15.333 2.5 26.666 7.5 33.999s15.167 14.333 30.5 21z" />
    <glyph glyph-name="napostrophe" unicode="&#x149;" 
d="M78 548c-3.33301 -6 -8.33398 -9 -15.001 -9h-11c-6.66699 0 -8.66699 3.33301 -6 10l80 180c2.66699 7.33301 7.33398 11 14.001 11h20c10 0 12.667 -4.33301 8 -13zM105.999 494c56 22 116.333 33.001 181 33.001c129.333 0 194 -64.333 194 -193v-322
c0 -8 -4 -12 -12 -12h-20c-7.33301 0 -11 4 -11 12v320c0 103.333 -52 155 -156 155c-54 0 -104 -8.66699 -150 -26c-14 -6.66699 -21 -17.667 -21 -33v-416c0 -8 -3.66699 -12 -11 -12h-20c-8 0 -12 4 -12 12v427c0 15.333 2.5 26.666 7.5 33.999s15.167 14.333 30.5 21z
" />
    <glyph glyph-name="Eng" unicode="&#x14a;" horiz-adv-x="688" 
d="M594 710c8 0 12.001 -4.33496 12.001 -13.002v-710c0 -68.667 -19.167 -122 -57.5 -160s-93.166 -57 -164.499 -57c-7.33301 0 -11 4 -11 12v17c0 4.66699 0.666992 7.66699 2 9s4.33301 2 9 2c56.667 0 100.334 15.833 131.001 47.5s46 75.5 46 131.5v16l-357 509
c-12 16.667 -26.833 40.334 -44.5 71.001s-29.834 50.334 -36.501 59.001h-2c0 -9.33301 1 -31 3 -65s3 -61.333 3 -82v-484c0 -8.66699 -4 -13 -12 -13h-20c-8.66699 -0 -13 4.33301 -13 13v684c0 8.66699 4.33301 13 13 13h20c6 0 10.667 -2.33301 14 -7l345 -493
c13.333 -18.667 30.166 -44.667 50.499 -78s34.166 -55 41.499 -65h2c0 12.667 -1.16699 39.5 -3.5 80.5s-3.5 74.167 -3.5 99.5v451c0 8 4.33301 12 13 12h20z" />
    <glyph glyph-name="eng" unicode="&#x14b;" 
d="M106 494c56 22 116.333 33.002 181 33.002c129.333 0 194 -64.333 194 -193v-349c0 -67.333 -19 -120 -57 -158s-92 -57 -162 -57c-7.33301 0 -11 3.66699 -11 11v17c0 7.33301 3.66699 11 11 11c56.667 0 100.167 15.667 130.5 47s45.5 74.666 45.5 129.999v346
c0 103.333 -52 155 -156 155c-54 0 -104 -8.66699 -150 -26c-14 -6.66699 -21 -17.667 -21 -33v-416c0 -8 -3.66699 -12 -11 -12h-20c-8 0 -12 4 -12 12v427c0 15.333 2.5 26.666 7.5 33.999s15.167 14.333 30.5 21z" />
    <glyph glyph-name="Omacron" unicode="&#x14c;" horiz-adv-x="660" 
d="M449 849c8 0 12 -3.66699 12 -11v-10c0 -8 -4 -12 -12 -12h-237c-7.33301 0 -11 4 -11 12v10c0 7.33301 3.66699 11 11 11h237zM61 477c0 77.333 23.333 137.833 70 181.5s113.334 65.5 200.001 65.5c86 0 152.167 -21.833 198.5 -65.5s69.5 -104.167 69.5 -181.5v-244
c0 -77.333 -23.167 -137.833 -69.5 -181.5s-112.5 -65.5 -198.5 -65.5c-86.667 0 -153.334 21.833 -200.001 65.5s-70 104.167 -70 181.5v244zM553 477c0 64.667 -19.167 114.834 -57.5 150.501s-93.166 53.5 -164.499 53.5c-72.667 0 -128.167 -17.833 -166.5 -53.5
s-57.5 -85.834 -57.5 -150.501v-244c0 -64.667 19.167 -114.834 57.5 -150.501s93.833 -53.5 166.5 -53.5c71.333 0 126.166 17.833 164.499 53.5s57.5 85.834 57.5 150.501v244z" />
    <glyph glyph-name="omacron" unicode="&#x14d;" horiz-adv-x="537" 
d="M377 652c6.66699 0 10 -3.33301 10 -10v-10c0 -7.33301 -3.33301 -11 -10 -11h-218c-6.66699 0 -10 3.66699 -10 11v10c0 6.66699 3.33301 10 10 10h218zM54 351c0 54 19.333 96.833 58 128.5s90.667 47.5 156 47.5c66 0 118.333 -15.667 157 -47s58 -74.333 58 -129
v-190c0 -54 -19.333 -96.667 -58 -128s-91 -47 -157 -47c-65.333 0 -117.333 15.667 -156 47s-58 74 -58 128v190zM440 352c0 42 -15.667 75.167 -47 99.5s-73 36.5 -125 36.5c-51.333 0 -92.666 -12.333 -123.999 -37s-47 -57.667 -47 -99v-191
c0 -41.333 15.667 -74.333 47 -99s72.666 -37 123.999 -37c52 0 93.667 12.167 125 36.5s47 57.5 47 99.5v191z" />
    <glyph glyph-name="Obreve" unicode="&#x14e;" horiz-adv-x="660" 
d="M481 886c-21.333 -74.667 -71.334 -111.999 -150.001 -111.999c-79.333 0 -129.333 37.333 -150 112c-2 5.33301 -0.333008 9 5 11l17 6c5.33301 1.33301 9.33301 -0.333984 12 -5.00098c15.333 -60 54 -90 116 -90c60.667 0 99.334 30 116.001 90
c2 5.33301 5.66699 7 11 5l17 -6c6 -2 8 -5.66699 6 -11zM60.999 477.001c0 77.333 23.333 137.833 70 181.5s113.334 65.5 200.001 65.5c86 0 152.167 -21.833 198.5 -65.5s69.5 -104.167 69.5 -181.5v-244c0 -77.333 -23.167 -137.833 -69.5 -181.5
s-112.5 -65.5 -198.5 -65.5c-86.667 0 -153.334 21.833 -200.001 65.5s-70 104.167 -70 181.5v244zM552.999 477.001c0 64.667 -19.167 114.834 -57.5 150.501s-93.166 53.5 -164.499 53.5c-72.667 0 -128.167 -17.833 -166.5 -53.5s-57.5 -85.834 -57.5 -150.501v-244
c0 -64.667 19.167 -114.834 57.5 -150.501s93.833 -53.5 166.5 -53.5c71.333 0 126.166 17.833 164.499 53.5s57.5 85.834 57.5 150.501v244z" />
    <glyph glyph-name="obreve" unicode="&#x14f;" horiz-adv-x="537" 
d="M418 695c-20.667 -74.667 -70.6689 -112.001 -150.002 -112.001c-78.667 0 -128.334 37.333 -149.001 112c-2.66699 5.33301 -1 9 5 11l16 6c6 2 10 0.333008 12 -5c16.667 -60 55.334 -90 116.001 -90s99.334 30 116.001 90
c2.66699 4.66699 6.33398 6.33398 11.001 5.00098l18 -6c5.33301 -2 7 -5.66699 5 -11zM53.998 350.999c0 54 19.333 96.833 58 128.5s90.667 47.5 156 47.5c66 0 118.333 -15.667 157 -47s58 -74.333 58 -129v-190c0 -54 -19.333 -96.667 -58 -128s-91 -47 -157 -47
c-65.333 0 -117.333 15.667 -156 47s-58 74 -58 128v190zM439.998 351.999c0 42 -15.667 75.167 -47 99.5s-73 36.5 -125 36.5c-51.333 0 -92.666 -12.333 -123.999 -37s-47 -57.667 -47 -99v-191c0 -41.333 15.667 -74.333 47 -99s72.666 -37 123.999 -37
c52 0 93.667 12.167 125 36.5s47 57.5 47 99.5v191z" />
    <glyph glyph-name="Ohungarumlaut" unicode="&#x150;" horiz-adv-x="660" 
d="M297 901c6 6.66699 12.666 9.33398 19.999 8.00098l15 -4c8.66699 -2.66699 10.334 -7.33398 5.00098 -14.001l-113 -113c-5.33301 -5.33301 -10.333 -7 -15 -5l-9 3c-6.66699 2 -8 6 -4 12zM471.999 901c6 6.66699 12.667 9.33398 20 8.00098l16 -4
c9.33301 -2.66699 10.666 -7.33398 3.99902 -14.001l-115 -114c-6 -6 -11 -7.66699 -15 -5l-9 3c-7.33301 2 -8.66602 6 -3.99902 12zM60.999 477c0 77.333 23.333 137.833 70 181.5s113.334 65.5 200.001 65.5c86 0 152.167 -21.833 198.5 -65.5s69.5 -104.167 69.5 -181.5
v-244c0 -77.333 -23.167 -137.833 -69.5 -181.5s-112.5 -65.5 -198.5 -65.5c-86.667 0 -153.334 21.833 -200.001 65.5s-70 104.167 -70 181.5v244zM552.999 477c0 64.667 -19.167 114.834 -57.5 150.501s-93.166 53.5 -164.499 53.5
c-72.667 0 -128.167 -17.833 -166.5 -53.5s-57.5 -85.834 -57.5 -150.501v-244c0 -64.667 19.167 -114.834 57.5 -150.501s93.833 -53.5 166.5 -53.5c71.333 0 126.166 17.833 164.499 53.5s57.5 85.834 57.5 150.501v244z" />
    <glyph glyph-name="ohungarumlaut" unicode="&#x151;" horiz-adv-x="537" 
d="M237 690c6 6.66699 12.334 9 19.001 7l14 -3c8 -2.66699 9.33301 -6.66699 4 -12l-104 -105c-4.66699 -4.66699 -9.33398 -6 -14.001 -4l-9 2c-6 2.66699 -7 6.66699 -3 12zM400.001 689c5.33301 7.33301 11.333 9.66699 18 7l15 -4c8.66699 -2 10 -6 4 -12l-109 -102
c-5.33301 -5.33301 -10 -7 -14 -5l-9 3c-6.66699 2 -7.66699 5.66699 -3 11zM54.001 351.001c0 54 19.333 96.833 58 128.5s90.667 47.5 156 47.5c66 0 118.333 -15.667 157 -47s58 -74.333 58 -129v-190c0 -54 -19.333 -96.667 -58 -128s-91 -47 -157 -47
c-65.333 0 -117.333 15.667 -156 47s-58 74 -58 128v190zM440.001 352.001c0 42 -15.667 75.167 -47 99.5s-73 36.5 -125 36.5c-51.333 0 -92.666 -12.333 -123.999 -37s-47 -57.667 -47 -99v-191c0 -41.333 15.667 -74.333 47 -99s72.666 -37 123.999 -37
c52 0 93.667 12.167 125 36.5s47 57.5 47 99.5v191z" />
    <glyph glyph-name="OE" unicode="&#x152;" horiz-adv-x="838" 
d="M785 43c8 0 12 -4 12 -12v-18c0 -8.66699 -4 -13 -12 -13h-344c-35.333 -10 -72 -15 -110 -15c-86.667 0 -153.334 22 -200.001 66s-70 104.667 -70 182v244c0 77.333 23.333 138 70 182s113.334 66 200.001 66c38 0 74.667 -5 110 -15h330c8.66699 0 13 -4.33301 13 -13
v-18c0 -8 -4.33301 -12 -13 -12h-297v-286h253c8.66699 0 13 -4.33301 13 -13v-18c0 -8 -4.33301 -12 -13 -12h-253v-295h311zM107 233c0 -64.667 19.333 -115 58 -151s94 -54 166 -54c38 0 70 4.66699 96 14v626c-32 9.33301 -64 14 -96 14c-72 0 -127.333 -18 -166 -54
s-58 -86.333 -58 -151v-244z" />
    <glyph glyph-name="oe" unicode="&#x153;" horiz-adv-x="811" 
d="M413 423c24.667 69.333 79.668 104.001 165.001 104.001c125.333 0 188 -68.333 188 -205v-53c0 -14.667 -7.33301 -22 -22 -22h-311v-69c0 -103.333 47.333 -155 142 -155c39.333 0 69 7.66699 89 23s39 39.666 57 72.999c4.66699 7.33301 10.667 9 18 5l14 -7
c8 -4 9.33301 -10 4 -18c-19.333 -37.333 -42.166 -65.5 -68.499 -84.5s-64.5 -28.5 -114.5 -28.5c-84 0 -138 33 -162 99c-12 -31.333 -32.833 -55.666 -62.5 -72.999s-64.834 -26 -105.501 -26c-56.667 0 -102.167 15.667 -136.5 47s-51.5 73.666 -51.5 126.999v192
c0 54 17.167 96.667 51.5 128s79.833 47 136.5 47c41.333 0 77.166 -9.16699 107.499 -27.5s50.833 -43.833 61.5 -76.5zM724.001 324.001c0 110 -48.667 165 -146 165c-96.667 0 -145 -55 -145 -165v-42h291v42zM390.001 352.001c0 41.333 -13.333 74.333 -40 99
s-62 37 -106 37c-43.333 0 -78.333 -12.333 -105 -37s-40 -57.667 -40 -99v-192c0 -41.333 13.333 -74.166 40 -98.499s61.667 -36.5 105 -36.5c44 0 79.333 12.167 106 36.5s40 57.166 40 98.499v192z" />
    <glyph glyph-name="Racute" unicode="&#x154;" horiz-adv-x="640" 
d="M382 895c9.33301 4.66699 16.667 4.00098 22 -1.99902l10 -11c5.33301 -6.66699 4.66602 -11.667 -2.00098 -15l-178 -102c-7.33301 -2.66699 -12.666 -2.33398 -15.999 0.999023l-7 8c-4.66699 6 -4 10.667 2 14zM382.001 710.001c63.333 0 113 -17.498 149 -52.498
s54 -84.167 54 -147.5c0 -56.667 -15.667 -101.834 -47 -135.501s-74.333 -52.834 -129 -57.501c32.667 -14 60 -41.333 82 -82l112 -222c6 -8.66699 3.66699 -13 -7 -13h-19c-13.333 0 -21.666 3.66699 -24.999 11l-104 206c-17.333 34 -37.333 58.333 -60 73
s-54.334 22 -95.001 22h-165v-299c0 -8.66699 -4 -13 -12 -13h-21c-8.66699 0 -13 4.33301 -13 13v684c0 8.66699 4.33301 13 13 13h287zM537.001 510.003c0 50 -14 88.667 -42 116s-67.333 41 -118 41h-249v-312h249c50.667 0 90 13.5 118 40.5s42 65.167 42 114.5z" />
    <glyph glyph-name="racute" unicode="&#x155;" horiz-adv-x="337" 
d="M271 715c9.33301 6 16.668 5.66699 22.001 -1l10 -11c5.33301 -6.66699 4.66602 -11.667 -2.00098 -15l-178 -102c-7.33301 -3.33301 -12.666 -3 -15.999 1l-7 8c-4.66699 5.33301 -4.33398 10 0.999023 14zM284.002 527h31c7.33301 0 11 -4 11 -12v-16
c0 -8 -3.66699 -12 -11 -12h-32c-56.667 0 -107 -8.66699 -151 -26c-14 -6.66699 -21 -17.667 -21 -33v-416c0 -8 -3.66699 -12 -11 -12h-20c-8 0 -12 4 -12 12v428c0 15.333 2.5 26.666 7.5 33.999s15.167 14.333 30.5 21c50.667 20.667 110 31.334 178 32.001z" />
    <glyph glyph-name="Rcommaaccent" unicode="&#x156;" horiz-adv-x="640" 
d="M382 710c63.333 0 113 -17.498 149 -52.498s54 -84.167 54 -147.5c0 -56.667 -15.667 -101.834 -47 -135.501s-74.333 -52.834 -129 -57.501c32.667 -14 60 -41.333 82 -82l112 -222c6 -8.66699 3.66699 -13 -7 -13h-19c-13.333 0 -21.666 3.66699 -24.999 11l-104 206
c-17.333 34 -37.333 58.333 -60 73s-54.334 22 -95.001 22h-165v-299c0 -8.66699 -4 -13 -12 -13h-21c-8.66699 -0 -13 4.33301 -13 13v684c0 8.66699 4.33301 13 13 13h287zM537 510.002c0 50 -14 88.667 -42 116s-67.333 41 -118 41h-249v-312h249
c50.667 0 90 13.5 118 40.5s42 65.167 42 114.5zM318 -233.998c-1.33301 -7.33301 -6.00098 -11 -14.001 -11h-13c-6.66699 0 -9.66699 3 -9 9l40 146c0.666992 8 5.33398 12 14.001 12h19c10 0 13.667 -4.33301 11 -13z" />
    <glyph glyph-name="rcommaaccent" unicode="&#x157;" horiz-adv-x="337" 
d="M284 527h31c7.33301 0 11 -4 11 -12v-16c0 -8 -3.66699 -12 -11 -12h-32c-56.667 0 -107 -8.66699 -151 -26c-14 -6.66699 -21 -17.667 -21 -33v-416c0 -8 -3.66699 -12 -11 -12h-20c-8 0 -12 4 -12 12v428c0 15.333 2.5 26.666 7.5 33.999s15.167 14.333 30.5 21
c50.667 20.667 110 31.334 178 32.001zM75 -210c-2.66699 -7.33301 -7.66699 -11 -15 -11h-13c-6.66699 0 -9.66699 3.33301 -9 10l34 155c0.666992 8.66699 5.66699 13 15 13h17c9.33301 0 13 -4.33301 11 -13z" />
    <glyph glyph-name="Rcaron" unicode="&#x158;" horiz-adv-x="640" 
d="M464 898c5.33301 0 8.33301 -1.16699 9 -3.5s-0.333008 -4.83301 -3 -7.5l-132 -111c-8.66699 -8 -16.667 -12 -24 -12h-5c-8 0 -16 4 -24 12l-133 111c-2.66699 2 -3.66699 4.33301 -3 7s3.66699 4 9 4h18c7.33301 0 13.666 -2.33301 18.999 -7l116 -95l115 95
c4.66699 4.66699 11.334 7 20.001 7h18zM382 710c63.333 0 113 -17.498 149 -52.498s54 -84.167 54 -147.5c0 -56.667 -15.667 -101.834 -47 -135.501s-74.333 -52.834 -129 -57.501c32.667 -14 60 -41.333 82 -82l112 -222c6 -8.66699 3.66699 -13 -7 -13h-19
c-13.333 0 -21.666 3.66699 -24.999 11l-104 206c-17.333 34 -37.333 58.333 -60 73s-54.334 22 -95.001 22h-165v-299c0 -8.66699 -4 -13 -12 -13h-21c-8.66699 -0 -13 4.33301 -13 13v684c0 8.66699 4.33301 13 13 13h287zM537 510.002c0 50 -14 88.667 -42 116
s-67.333 41 -118 41h-249v-312h249c50.667 0 90 13.5 118 40.5s42 65.167 42 114.5z" />
    <glyph glyph-name="rcaron" unicode="&#x159;" horiz-adv-x="337" 
d="M340 697c4.66699 0 7.33105 -1.16699 7.99805 -3.5s-0.333008 -4.5 -3 -6.5l-120 -103c-7.33301 -7.33301 -14.666 -11 -21.999 -11h-5c-7.33301 0 -14.666 3.66699 -21.999 11l-122 103c-2.66699 2.66699 -3.66699 5 -3 7s3 3 7 3h18c7.33301 0 13.333 -2.33301 18 -7
l106 -88l105 88c4.66699 4.66699 11 7 19 7h16zM283.997 527h31c7.33301 0 11 -4 11 -12v-16c0 -8 -3.66699 -12 -11 -12h-32c-56.667 0 -107 -8.66699 -151 -26c-14 -6.66699 -21 -17.667 -21 -33v-416c0 -8 -3.66699 -12 -11 -12h-20c-8 0 -12 4 -12 12v428
c0 15.333 2.5 26.666 7.5 33.999s15.167 14.333 30.5 21c50.667 20.667 110 31.334 178 32.001z" />
    <glyph glyph-name="Sacute" unicode="&#x15a;" horiz-adv-x="622" 
d="M384 904c10 4.66699 17.667 4.33301 23 -1l9 -11c6.66699 -7.33301 6 -12.333 -2 -15l-177 -103c-7.33301 -2.66699 -12.666 -2 -15.999 2l-7 8c-4.66699 4.66699 -4.33398 9 0.999023 13zM56 524.999c0 61.333 22.166 109.827 66.499 145.494s105.833 53.5 184.5 53.5
c66 0 119.5 -12.333 160.5 -37s74.833 -64 101.5 -118c4.66699 -8 2.66699 -13.667 -6 -17l-20 -9c-6.66699 -2.66699 -12 -0.666992 -16 6c-22.667 45.333 -51.167 78.5 -85.5 99.5s-79.166 31.5 -134.499 31.5c-64.667 0 -114.834 -13.333 -150.501 -40
s-53.5 -64 -53.5 -112c0 -22.667 4.33301 -42.5 13 -59.5s19.5 -30.5 32.5 -40.5s30.333 -18.5 52 -25.5s41.334 -12 59.001 -15s40.167 -5.83301 67.5 -8.5c30 -3.33301 54.5 -6.66602 73.5 -9.99902s40.833 -9.33301 65.5 -18s44.167 -19.334 58.5 -32.001
s26.5 -30 36.5 -52s15 -47.667 15 -77c0 -65.333 -22.5 -115.666 -67.5 -150.999s-110.5 -53 -196.5 -53c-69.333 0 -125.5 14.167 -168.5 42.5s-76.5 72.5 -100.5 132.5c-3.33301 8.66699 -1 14.667 7 18l19 7c7.33301 2.66699 13 0 17 -8
c42 -98.667 117.333 -148 226 -148c145.333 0 218 52.667 218 158c0 22.667 -4.16699 42.334 -12.5 59.001s-18.333 29.834 -30 39.501s-28.167 17.834 -49.5 24.501s-40 11.334 -56 14.001s-37.667 5.66699 -65 9c-26 3.33301 -47.167 6.33301 -63.5 9
s-36 6.83398 -59 12.501s-41.5 12.834 -55.5 21.501s-28 19.5 -42 32.5s-24.333 29.167 -31 48.5s-10 41.666 -10 66.999z" />
    <glyph glyph-name="sacute" unicode="&#x15b;" horiz-adv-x="492" 
d="M317 716c9.33301 6 16.667 5.66797 22 -0.999023l10 -11c5.33301 -6.66699 4.66602 -11.667 -2.00098 -15l-178 -103c-7.33301 -2.66699 -12.666 -2 -15.999 2l-7 8c-4 5.33301 -3.33301 9.66602 2 12.999zM51.001 383.001c0 46 16.1689 81.5 48.502 106.5
s79.833 37.5 142.5 37.5c102.667 0 169.334 -36.667 200.001 -110c4 -7.33301 2 -13 -6 -17l-15 -6c-6.66699 -3.33301 -12.334 -1.66602 -17.001 5.00098c-12 29.333 -30.333 51.5 -55 66.5s-60 22.5 -106 22.5c-100 0 -150 -34.667 -150 -104
c0 -18.667 3.16699 -34.5 9.5 -47.5s13.5 -23 21.5 -30s20.833 -12.833 38.5 -17.5s32.167 -7.66699 43.5 -9s29.666 -3.33301 54.999 -6c30 -2.66699 54.833 -6.33398 74.5 -11.001s39.167 -11.834 58.5 -21.501s33.666 -23.667 42.999 -42s14 -40.833 14 -67.5
c0 -46 -16.5 -81.833 -49.5 -107.5s-82.833 -38.5 -149.5 -38.5c-109.333 0 -180.333 42 -213 126c-2.66699 8 -0.333984 13.333 6.99902 16l17 5c6.66699 2.66699 11.667 0.333984 15 -6.99902c24.667 -68 82.334 -102 173.001 -102c105.333 0 158 35.333 158 106
c0 38 -12.667 63.833 -38 77.5s-65 23.167 -119 28.5c-27.333 2.66699 -48 5 -62 7s-31.5 6.16699 -52.5 12.5s-36.667 14.333 -47 24s-19.5 23.167 -27.5 40.5s-12 38.333 -12 63z" />
    <glyph glyph-name="Scircumflex" unicode="&#x15c;" horiz-adv-x="622" 
d="M318 907c7.33301 0 15.332 -3.66699 23.999 -11l132 -113c6.66699 -6.66699 4.66699 -10 -6 -10h-18c-8.66699 0 -15.667 2.33301 -21 7l-114 95l-116 -95c-5.33301 -4.66699 -11.666 -7 -18.999 -7h-19c-10.667 0 -12.667 3.33301 -6 10l133 113
c8.66699 7.33301 16.667 11 24 11h6zM55.999 525c0 61.333 22.166 109.827 66.499 145.494s105.833 53.5 184.5 53.5c66 0 119.5 -12.333 160.5 -37s74.833 -64 101.5 -118c4.66699 -8 2.66699 -13.667 -6 -17l-20 -9c-6.66699 -2.66699 -12 -0.666992 -16 6
c-22.667 45.333 -51.167 78.5 -85.5 99.5s-79.166 31.5 -134.499 31.5c-64.667 0 -114.834 -13.333 -150.501 -40s-53.5 -64 -53.5 -112c0 -22.667 4.33301 -42.5 13 -59.5s19.5 -30.5 32.5 -40.5s30.333 -18.5 52 -25.5s41.334 -12 59.001 -15s40.167 -5.83301 67.5 -8.5
c30 -3.33301 54.5 -6.66602 73.5 -9.99902s40.833 -9.33301 65.5 -18s44.167 -19.334 58.5 -32.001s26.5 -30 36.5 -52s15 -47.667 15 -77c0 -65.333 -22.5 -115.666 -67.5 -150.999s-110.5 -53 -196.5 -53c-69.333 0 -125.5 14.167 -168.5 42.5s-76.5 72.5 -100.5 132.5
c-3.33301 8.66699 -1 14.667 7 18l19 7c7.33301 2.66699 13 0 17 -8c42 -98.667 117.333 -148 226 -148c145.333 0 218 52.667 218 158c0 22.667 -4.16699 42.334 -12.5 59.001s-18.333 29.834 -30 39.501s-28.167 17.834 -49.5 24.501s-40 11.334 -56 14.001
s-37.667 5.66699 -65 9c-26 3.33301 -47.167 6.33301 -63.5 9s-36 6.83398 -59 12.501s-41.5 12.834 -55.5 21.501s-28 19.5 -42 32.5s-24.333 29.167 -31 48.5s-10 41.666 -10 66.999z" />
    <glyph glyph-name="scircumflex" unicode="&#x15d;" horiz-adv-x="492" 
d="M250 708c8 0 15.667 -3.66699 23 -11l130 -109c6.66699 -6.66699 4.66699 -10 -6 -10h-18c-8.66699 0 -15.334 2.33301 -20.001 7l-112 93l-113 -93c-5.33301 -4.66699 -11.666 -7 -18.999 -7h-18c-10.667 0 -12.667 3.33301 -6 10l130 109
c7.33301 7.33301 15.333 11 24 11h5zM51 383c0 46 16.1689 81.5 48.502 106.5s79.833 37.5 142.5 37.5c102.667 0 169.334 -36.667 200.001 -110c4 -7.33301 2 -13 -6 -17l-15 -6c-6.66699 -3.33301 -12.334 -1.66602 -17.001 5.00098c-12 29.333 -30.333 51.5 -55 66.5
s-60 22.5 -106 22.5c-100 0 -150 -34.667 -150 -104c0 -18.667 3.16699 -34.5 9.5 -47.5s13.5 -23 21.5 -30s20.833 -12.833 38.5 -17.5s32.167 -7.66699 43.5 -9s29.666 -3.33301 54.999 -6c30 -2.66699 54.833 -6.33398 74.5 -11.001s39.167 -11.834 58.5 -21.501
s33.666 -23.667 42.999 -42s14 -40.833 14 -67.5c0 -46 -16.5 -81.833 -49.5 -107.5s-82.833 -38.5 -149.5 -38.5c-109.333 0 -180.333 42 -213 126c-2.66699 8 -0.333984 13.333 6.99902 16l17 5c6.66699 2.66699 11.667 0.333984 15 -6.99902
c24.667 -68 82.334 -102 173.001 -102c105.333 0 158 35.333 158 106c0 38 -12.667 63.833 -38 77.5s-65 23.167 -119 28.5c-27.333 2.66699 -48 5 -62 7s-31.5 6.16699 -52.5 12.5s-36.667 14.333 -47 24s-19.5 23.167 -27.5 40.5s-12 38.333 -12 63z" />
    <glyph glyph-name="Scedilla" unicode="&#x15e;" horiz-adv-x="622" 
d="M327 379c24.667 -2.66699 44.9971 -5.33496 60.9971 -8.00195s34.833 -6.83398 56.5 -12.501s39.334 -12.834 53.001 -21.501s27 -19.5 40 -32.5s22.667 -29.167 29 -48.5s9.5 -41.333 9.5 -66c0 -63.333 -20.667 -112.5 -62 -147.5s-102 -53.833 -182 -56.5l-25 -70
c10.667 2.66699 21.334 4 32.001 4c26.667 0 47.834 -6.83301 63.501 -20.5s23.167 -31.834 22.5 -54.501c-1.33301 -30 -12.166 -53 -32.499 -69s-46.833 -24 -79.5 -24s-60.667 7.33301 -84 22c-6 3.33301 -9 8.33301 -9 15v13c0 6 2.33301 7.66699 7 5
c23.333 -18 50.666 -27 81.999 -27c24.667 0 43.834 5.83301 57.501 17.5s20.5 27.834 20.5 48.501c0 32.667 -22.667 49 -68 49c-16 0 -28.667 -1.66699 -38 -5c-4.66699 -0.666992 -7.83398 0 -9.50098 2s-1.5 5.66699 0.5 11l31 83
c-66.667 0.666992 -120.834 15.167 -162.501 43.5s-74.5 72.166 -98.5 131.499c-3.33301 8.66699 -0.666016 14.667 8.00098 18l19 7c7.33301 2.66699 12.666 0 15.999 -8c42.667 -98.667 118 -148 226 -148c145.333 0 218 52.667 218 158
c0 22.667 -4.16699 42.334 -12.5 59.001s-18.166 29.834 -29.499 39.501s-27.833 17.834 -49.5 24.501s-40.334 11.334 -56.001 14.001s-37.167 5.66699 -64.5 9c-26 3.33301 -47.167 6.33301 -63.5 9s-36 6.83398 -59 12.501s-41.5 12.834 -55.5 21.501s-28 19.5 -42 32.5
s-24.333 29.167 -31 48.5s-10 41.666 -10 66.999c0 61.333 22.167 109.833 66.5 145.5s105.833 53.5 184.5 53.5c66 0 119.5 -12.333 160.5 -37s74.833 -64 101.5 -118c4.66699 -8 2.33398 -13.667 -6.99902 -17l-19 -9c-7.33301 -2.66699 -13 -0.666992 -17 6
c-22.667 45.333 -51 78.5 -85 99.5s-78.667 31.5 -134 31.5c-64.667 0 -114.834 -13.333 -150.501 -40s-53.5 -64 -53.5 -112c0 -22.667 4.33301 -42.5 13 -59.5s19.5 -30.5 32.5 -40.5s30.333 -18.5 52 -25.5s41.334 -12 59.001 -15s40.167 -5.83301 67.5 -8.5z" />
    <glyph glyph-name="scedilla" unicode="&#x15f;" horiz-adv-x="492" 
d="M51 383c0 46 16.1719 81.501 48.5049 106.501s79.833 37.5 142.5 37.5c102.667 0 169.334 -36.667 200.001 -110c4 -7.33301 2 -13 -6 -17l-15 -6c-6.66699 -3.33301 -12.334 -1.66602 -17.001 5.00098c-12 29.333 -30.333 51.5 -55 66.5s-60 22.5 -106 22.5
c-100 0 -150 -34.667 -150 -104c0 -18.667 3.16699 -34.5 9.5 -47.5s13.5 -23 21.5 -30s20.833 -12.833 38.5 -17.5s32.167 -7.66699 43.5 -9s29.666 -3.33301 54.999 -6c30 -2.66699 54.833 -6.33398 74.5 -11.001s39.167 -11.834 58.5 -21.501s33.666 -23.667 42.999 -42
s14 -40.833 14 -67.5c0 -93.333 -63 -142 -189 -146l-26 -70c8 2 18.333 3 31 3c26 0 46.667 -6.5 62 -19.5s22.666 -30.5 21.999 -52.5c-0.666992 -29.333 -10.834 -51.5 -30.501 -66.5s-45.834 -22.5 -78.501 -22.5c-32 0 -59.333 7 -82 21c-6 3.33301 -9 8.33301 -9 15
v12c0 6 2.33301 7.66699 7 5c22.667 -17.333 49.334 -26 80.001 -26c24 0 42.667 5.66699 56 17s20 27 20 47c0 31.333 -22 47 -66 47c-16 0 -28.333 -1.66699 -37 -5c-4.66699 -1.33301 -7.83398 -0.833008 -9.50098 1.5s-1.5 6.16602 0.5 11.499l32 82
c-100 4 -165 46 -195 126c-2.66699 8 -0.333984 13.333 6.99902 16l17 5c6.66699 2.66699 11.667 0.333984 15 -6.99902c24.667 -68 82.334 -102 173.001 -102c105.333 0 158 35.333 158 106c0 38 -12.667 63.833 -38 77.5s-65 23.167 -119 28.5
c-27.333 2.66699 -48 5 -62 7s-31.5 6.16699 -52.5 12.5s-36.667 14.333 -47 24s-19.5 23.167 -27.5 40.5s-12 38.333 -12 63z" />
    <glyph glyph-name="Scaron" unicode="&#x160;" horiz-adv-x="622" 
d="M467 907c10 0 12 -3.66699 6 -11l-132 -111c-8 -7.33301 -16 -11 -24 -11h-6c-8 0 -15.667 3.66699 -23 11l-133 111c-7.33301 7.33301 -5.66602 11 5.00098 11h19c7.33301 0 13.666 -2.33301 18.999 -7l116 -95l114 95c4.66699 4.66699 11.667 7 21 7h18zM56 525
c0 61.333 22.166 109.827 66.499 145.494s105.833 53.5 184.5 53.5c66 0 119.5 -12.333 160.5 -37s74.833 -64 101.5 -118c4.66699 -8 2.66699 -13.667 -6 -17l-20 -9c-6.66699 -2.66699 -12 -0.666992 -16 6c-22.667 45.333 -51.167 78.5 -85.5 99.5
s-79.166 31.5 -134.499 31.5c-64.667 0 -114.834 -13.333 -150.501 -40s-53.5 -64 -53.5 -112c0 -22.667 4.33301 -42.5 13 -59.5s19.5 -30.5 32.5 -40.5s30.333 -18.5 52 -25.5s41.334 -12 59.001 -15s40.167 -5.83301 67.5 -8.5c30 -3.33301 54.5 -6.66602 73.5 -9.99902
s40.833 -9.33301 65.5 -18s44.167 -19.334 58.5 -32.001s26.5 -30 36.5 -52s15 -47.667 15 -77c0 -65.333 -22.5 -115.666 -67.5 -150.999s-110.5 -53 -196.5 -53c-69.333 0 -125.5 14.167 -168.5 42.5s-76.5 72.5 -100.5 132.5c-3.33301 8.66699 -1 14.667 7 18l19 7
c7.33301 2.66699 13 0 17 -8c42 -98.667 117.333 -148 226 -148c145.333 0 218 52.667 218 158c0 22.667 -4.16699 42.334 -12.5 59.001s-18.333 29.834 -30 39.501s-28.167 17.834 -49.5 24.501s-40 11.334 -56 14.001s-37.667 5.66699 -65 9
c-26 3.33301 -47.167 6.33301 -63.5 9s-36 6.83398 -59 12.501s-41.5 12.834 -55.5 21.501s-28 19.5 -42 32.5s-24.333 29.167 -31 48.5s-10 41.666 -10 66.999z" />
    <glyph glyph-name="scaron" unicode="&#x161;" horiz-adv-x="492" 
d="M385 694c8.66699 0 10.3311 -3.33301 4.99805 -10l-119 -101c-7.33301 -6.66699 -14.666 -10 -21.999 -10h-5c-7.33301 0 -14.333 3.33301 -21 10l-121 102c-6 6 -4.66699 9 4 9h18c6.66699 0 12.334 -2.33301 17.001 -7l105 -86l104 86c4 4.66699 10 7 18 7h17z
M50.9971 383c0 46 16.1689 81.5 48.502 106.5s79.833 37.5 142.5 37.5c102.667 0 169.334 -36.667 200.001 -110c4 -7.33301 2 -13 -6 -17l-15 -6c-6.66699 -3.33301 -12.334 -1.66602 -17.001 5.00098c-12 29.333 -30.333 51.5 -55 66.5s-60 22.5 -106 22.5
c-100 0 -150 -34.667 -150 -104c0 -18.667 3.16699 -34.5 9.5 -47.5s13.5 -23 21.5 -30s20.833 -12.833 38.5 -17.5s32.167 -7.66699 43.5 -9s29.666 -3.33301 54.999 -6c30 -2.66699 54.833 -6.33398 74.5 -11.001s39.167 -11.834 58.5 -21.501s33.666 -23.667 42.999 -42
s14 -40.833 14 -67.5c0 -46 -16.5 -81.833 -49.5 -107.5s-82.833 -38.5 -149.5 -38.5c-109.333 0 -180.333 42 -213 126c-2.66699 8 -0.333984 13.333 6.99902 16l17 5c6.66699 2.66699 11.667 0.333984 15 -6.99902c24.667 -68 82.334 -102 173.001 -102
c105.333 0 158 35.333 158 106c0 38 -12.667 63.833 -38 77.5s-65 23.167 -119 28.5c-27.333 2.66699 -48 5 -62 7s-31.5 6.16699 -52.5 12.5s-36.667 14.333 -47 24s-19.5 23.167 -27.5 40.5s-12 38.333 -12 63z" />
    <glyph glyph-name="Tcaron" unicode="&#x164;" horiz-adv-x="532" 
d="M419 898c10 0 12.0029 -3.66699 6.00293 -11l-132 -111c-8.66699 -8 -16.667 -12 -24 -12h-6c-7.33301 0 -15.333 4 -24 12l-132 111c-2.66699 2 -3.83398 4.33301 -3.50098 7s3.16602 4 8.49902 4h19c7.33301 0 13.666 -2.33301 18.999 -7l116 -95l114 95
c4.66699 4.66699 11.667 7 21 7h18zM506.003 710c8.66699 0 13 -4.33301 13 -13v-18c0 -8 -4.33301 -12 -13 -12h-217v-654c0 -8.66699 -4 -13 -12 -13h-21c-8.66699 -0 -13 4.33301 -13 13v654h-217c-8.66699 0 -13 4 -13 12v18c0 8.66699 4.33301 13 13 13h480z" />
    <glyph glyph-name="tcaron" unicode="&#x165;" horiz-adv-x="344" 
d="M304 566c-2.66699 -7.33301 -7.33398 -11 -14.001 -11h-11c-6 0 -8.66699 3 -8 9l35 164c0.666992 8 5.33398 12 14.001 12h17c10 0 13.667 -4 11 -12zM154 632c8 0 12 -3.66797 12 -11.001v-109h159c8 0 12 -3.66699 12 -11v-17c0 -7.33301 -4 -11 -12 -11h-159v-290
c0 -63.333 10.833 -105.166 32.5 -125.499s63.167 -30.5 124.5 -30.5c8 0 12 -4 12 -12v-17c0 -8 -4 -12 -12 -12c-75.333 -0.666992 -127.5 12.833 -156.5 40.5s-43.5 79.5 -43.5 155.5v291h-108c-7.33301 0 -11 3.66699 -11 11v17c0 7.33301 3.66699 11 11 11h108v109
c0 7.33301 4 11 12 11h19z" />
    <glyph glyph-name="Tbar" unicode="&#x166;" horiz-adv-x="555" 
d="M518 710c8.66699 0 13 -4.33301 13 -13v-18c0 -8 -4.33301 -12 -13 -12h-217v-319h151c6.66699 0 10 -3.33301 10 -10v-15c0 -6.66699 -3.33301 -10 -10 -10h-151v-300c0 -8.66699 -4 -13 -12 -13h-22c-8 -0 -12 4.33301 -12 13v300h-151c-6.66699 0 -10 3.33301 -10 10
v15c0 6.66699 3.33301 10 10 10h151v319h-217c-8.66699 0 -13 4 -13 12v18c0 8.66699 4.33301 13 13 13h480z" />
    <glyph glyph-name="tbar" unicode="&#x167;" horiz-adv-x="353" 
d="M163 633c8 0 12 -4.00195 12 -12.002v-108h159c7.33301 0 11 -4 11 -12v-17c0 -7.33301 -3.66699 -11 -11 -11h-159v-194h129c6.66699 0 10 -3.33301 10 -10v-12c0 -6.66699 -3.33301 -10 -10 -10h-129v-64c0 -63.333 10.667 -105.166 32 -125.499s63 -30.5 125 -30.5
c8 0 12 -4 12 -12v-17c0 -8 -4 -12 -12 -12c-75.333 -0.666992 -127.5 12.833 -156.5 40.5s-43.5 79.834 -43.5 156.501v64h-98c-6 0 -9 3.33301 -9 10v12c0 6.66699 3 10 9 10h98v194h-108c-7.33301 0 -11 3.66699 -11 11v17c0 8 3.66699 12 11 12h108v108
c0 8 3.66699 12 11 12h20z" />
    <glyph glyph-name="Utilde" unicode="&#x168;" horiz-adv-x="679" 
d="M484 875c5.33301 0 7.99902 -2.66699 7.99902 -8c0 -62.667 -25 -94 -75 -94c-24 0 -51.167 12 -81.5 36s-54.833 36 -73.5 36c-15.333 0 -27.166 -5.83301 -35.499 -17.5s-12.5 -27.167 -12.5 -46.5c0 -5.33301 -2.66699 -8 -8 -8h-14c-5.33301 0 -8 2.66699 -8 8
c0 62.667 25 94 75 94c20 0 39 -6 57 -18s35 -24 51 -36s32 -18 48 -18c32 0 48 21.333 48 64c0 5.33301 2.66699 8 8 8h13zM121.999 240c0 -66 18.334 -117.833 55.001 -155.5s91 -56.5 163 -56.5c71.333 0 125.333 18.833 162 56.5s55 89.5 55 155.5v457
c0 8.66699 4 13 12 13h22c8 0 12 -4.33301 12 -13v-457c0 -79.333 -22.333 -141.666 -67 -186.999s-110 -68 -196 -68c-86.667 0 -152.334 22.667 -197.001 68s-67 107.666 -67 186.999v457c0 8.66699 4.33301 13 13 13h21c8 0 12 -4.33301 12 -13v-457z" />
    <glyph glyph-name="utilde" unicode="&#x169;" 
d="M417 697c5.33301 0 8.00098 -3 8.00098 -9c0 -62 -25 -93 -75 -93c-24 0 -51.167 12 -81.5 36s-55.166 36 -74.499 36c-14.667 0 -26.334 -5.83301 -35.001 -17.5s-13 -27.167 -13 -46.5c0 -5.33301 -2.66699 -8 -8 -8h-14c-5.33301 0 -8 2.66699 -8 8
c0 62.667 25 94 75 94c25.333 0 53.166 -12 83.499 -36s54.833 -36 73.5 -36c31.333 0 47 21 47 63c0 6 2.66699 9 8 9h14zM467.001 512c7.33301 0 11 -3.66797 11 -11.001v-428c0 -15.333 -2.5 -26.666 -7.5 -33.999s-14.833 -14.333 -29.5 -21
c-54 -21.333 -114.333 -32 -181 -32c-129.333 0 -194 64.333 -194 193v322c0 7.33301 4 11 12 11h19c8 0 12 -3.66699 12 -11v-320c0 -104 51.667 -156 155 -156c56 0 106 8.66699 150 26c14 6.66699 21 18 21 34v416c0 7.33301 4 11 12 11h20z" />
    <glyph glyph-name="Umacron" unicode="&#x16a;" horiz-adv-x="679" 
d="M458 839c8 0 12 -3.66699 12 -11v-10c0 -8 -4 -12 -12 -12h-237c-7.33301 0 -11 4 -11 12v10c0 7.33301 3.66699 11 11 11h237zM122 240c0 -66 18.334 -117.833 55.001 -155.5s91 -56.5 163 -56.5c71.333 0 125.333 18.833 162 56.5s55 89.5 55 155.5v457
c0 8.66699 4 13 12 13h22c8 0 12 -4.33301 12 -13v-457c0 -79.333 -22.333 -141.666 -67 -186.999s-110 -68 -196 -68c-86.667 0 -152.334 22.667 -197.001 68s-67 107.666 -67 186.999v457c0 8.66699 4.33301 13 13 13h21c8 0 12 -4.33301 12 -13v-457z" />
    <glyph glyph-name="umacron" unicode="&#x16b;" 
d="M391 658c4.66699 0 7.66699 -0.666992 9 -2s2 -4.33301 2 -9v-10c0 -4.66699 -0.666992 -7.66699 -2 -9s-4.33301 -2 -9 -2h-238c-7.33301 0 -11 3.66699 -11 11v10c0 7.33301 3.66699 11 11 11h238zM467 512c7.33301 0 11 -3.66797 11 -11.001v-428
c0 -15.333 -2.5 -26.666 -7.5 -33.999s-14.833 -14.333 -29.5 -21c-54 -21.333 -114.333 -32 -181 -32c-129.333 0 -194 64.333 -194 193v322c0 7.33301 4 11 12 11h19c8 0 12 -3.66699 12 -11v-320c0 -104 51.667 -156 155 -156c56 0 106 8.66699 150 26
c14 6.66699 21 18 21 34v416c0 7.33301 4 11 12 11h20z" />
    <glyph glyph-name="Ubreve" unicode="&#x16c;" horiz-adv-x="679" 
d="M490 876c-21.333 -74.667 -71.334 -111.999 -150.001 -111.999c-79.333 0 -129.333 37.333 -150 112c-2 5.33301 -0.333008 9 5 11l17 6c5.33301 1.33301 9.33301 -0.333984 12 -5.00098c15.333 -60 54 -90 116 -90c60.667 0 99.334 30 116.001 90
c2 5.33301 5.66699 7 11 5l17 -6c6 -2 8 -5.66699 6 -11zM121.999 240.001c0 -66 18.334 -117.833 55.001 -155.5s91 -56.5 163 -56.5c71.333 0 125.333 18.833 162 56.5s55 89.5 55 155.5v457c0 8.66699 4 13 12 13h22c8 0 12 -4.33301 12 -13v-457
c0 -79.333 -22.333 -141.666 -67 -186.999s-110 -68 -196 -68c-86.667 0 -152.334 22.667 -197.001 68s-67 107.666 -67 186.999v457c0 8.66699 4.33301 13 13 13h21c8 0 12 -4.33301 12 -13v-457z" />
    <glyph glyph-name="ubreve" unicode="&#x16d;" 
d="M422 695c-20.667 -74.667 -70.6689 -112.001 -150.002 -112.001c-78.667 0 -128.334 37.333 -149.001 112c-2.66699 5.33301 -1 9 5 11l16 6c6 2 10 0.333008 12 -5c16.667 -60 55.334 -90 116.001 -90s99.334 30 116.001 90
c2.66699 4.66699 6.33398 6.33398 11.001 5.00098l18 -6c5.33301 -2 7 -5.66699 5 -11zM466.998 511.999c7.33301 0 11 -3.66797 11 -11.001v-428c0 -15.333 -2.5 -26.666 -7.5 -33.999s-14.833 -14.333 -29.5 -21c-54 -21.333 -114.333 -32 -181 -32
c-129.333 0 -194 64.333 -194 193v322c0 7.33301 4 11 12 11h19c8 0 12 -3.66699 12 -11v-320c0 -104 51.667 -156 155 -156c56 0 106 8.66699 150 26c14 6.66699 21 18 21 34v416c0 7.33301 4 11 12 11h20z" />
    <glyph glyph-name="Uring" unicode="&#x16e;" horiz-adv-x="679" 
d="M243 837c0 29.333 8.83301 52.5 26.5 69.5s41.5 25.5 71.5 25.5c29.333 0 52.666 -8.5 69.999 -25.5s26 -40.167 26 -69.5c0 -28.667 -8.66699 -51.5 -26 -68.5s-40.666 -25.5 -69.999 -25.5c-30 0 -53.833 8.5 -71.5 25.5s-26.5 39.833 -26.5 68.5zM412 837
c0 21.333 -6.33301 38.333 -19 51s-30 19 -52 19c-22.667 0 -40.5 -6.33301 -53.5 -19s-19.5 -29.667 -19.5 -51s6.5 -38.166 19.5 -50.499s30.833 -18.5 53.5 -18.5c22 0 39.333 6.16699 52 18.5s19 29.166 19 50.499zM122 240c0 -66 18.334 -117.833 55.001 -155.5
s91 -56.5 163 -56.5c71.333 0 125.333 18.833 162 56.5s55 89.5 55 155.5v457c0 8.66699 4 13 12 13h22c8 0 12 -4.33301 12 -13v-457c0 -79.333 -22.333 -141.666 -67 -186.999s-110 -68 -196 -68c-86.667 0 -152.334 22.667 -197.001 68s-67 107.666 -67 186.999v457
c0 8.66699 4.33301 13 13 13h21c8 0 12 -4.33301 12 -13v-457z" />
    </font>
</defs>
</svg>
