<svg width="40" height="40" viewBox="0 0 40 40" fill="none" xmlns="http://www.w3.org/2000/svg">
<path d="M20 40C8.97186 40 0 31.0281 0 20C0 8.97186 8.97186 0 20 0C31.0281 0 40 8.97186 40 20C40 31.0281 31.0281 40 20 40ZM20 2.85706C10.5475 2.85706 2.85706 10.5475 2.85706 20C2.85706 29.4525 10.5475 37.1429 20 37.1429C29.4525 37.1429 37.1429 29.4525 37.1429 20C37.1429 10.5475 29.4525 2.85706 20 2.85706Z" fill="#90D7FF"/>
<path d="M27.1429 28.5715C26.7773 28.5715 26.4117 28.432 26.1328 28.1528L11.8472 13.8672C11.289 13.309 11.289 12.4051 11.8472 11.8472C12.4051 11.2894 13.3093 11.2891 13.8672 11.8472L28.1527 26.1328C28.7109 26.691 28.7109 27.5949 28.1527 28.1528C27.8738 28.432 27.5085 28.5715 27.1429 28.5715V28.5715Z" fill="#90D7FF"/>
<path d="M12.857 28.5706C12.4914 28.5706 12.1261 28.4311 11.8472 28.1519C11.289 27.594 11.289 26.6898 11.8472 26.1319L26.1328 11.8464C26.691 11.2882 27.5949 11.2882 28.1528 11.8464C28.7106 12.4042 28.7109 13.3085 28.1528 13.8663L13.8672 28.1519C13.5882 28.4311 13.2226 28.5706 12.857 28.5706V28.5706Z" fill="#90D7FF"/>
</svg>
