<svg width="60" height="60" viewBox="0 0 60 60" fill="none" xmlns="http://www.w3.org/2000/svg">
<path d="M59.5769 45.168L52.7638 38.3549C52.8865 38.169 52.9993 37.9745 53.0987 37.7684C53.6495 36.6268 53.6823 35.3687 53.7141 34.1519C53.7344 33.3698 53.7537 32.6311 53.9059 31.9615C54.0499 31.3278 54.3457 30.6738 54.6588 29.9813C55.1671 28.8574 55.6925 27.6954 55.6925 26.3801C55.6925 25.0646 55.1671 23.9025 54.6588 22.7786C54.3457 22.0862 54.0499 21.4322 53.9059 20.7985C53.7537 20.129 53.7344 19.3902 53.7141 18.6081C53.6824 17.3914 53.6495 16.1332 53.0987 14.9915C52.5377 13.8289 51.566 13.0154 50.626 12.2285C50.0344 11.7333 49.4756 11.2654 49.0591 10.7441C48.6388 10.2176 48.3042 9.5654 47.95 8.87493C47.3923 7.7879 46.8155 6.66384 45.8139 5.86392C44.8171 5.0681 43.5952 4.75486 42.4136 4.45193L42.2244 4.40341C41.7574 4.28294 41.2821 4.56407 41.162 5.0306C41.0418 5.49712 41.3225 5.9729 41.7892 6.09302L41.9803 6.14212C43.0298 6.41107 44.021 6.66525 44.7252 7.2274C45.4342 7.79353 45.9021 8.70572 46.3976 9.67146C46.7755 10.408 47.1662 11.1696 47.6958 11.8327C48.2212 12.491 48.8744 13.0378 49.5061 13.5665C50.341 14.2653 51.1297 14.9256 51.5272 15.7497C51.915 16.5536 51.9416 17.5736 51.9698 18.6535C51.9915 19.4863 52.014 20.3472 52.2046 21.1851C52.3876 21.9906 52.734 22.7566 53.0691 23.4975C53.521 24.4968 53.9478 25.4408 53.9478 26.3801C53.9478 27.3193 53.521 28.2631 53.0692 29.2624C52.734 30.0034 52.3876 30.7694 52.2046 31.5749C52.014 32.4129 51.9916 33.2737 51.9698 34.1065C51.9417 35.1862 51.9151 36.2063 51.5272 37.0102C51.1296 37.8344 50.3409 38.4947 49.506 39.1936C48.8743 39.7222 48.2212 40.269 47.6955 40.9271C47.1662 41.5902 46.7754 42.3518 46.3975 43.0883C45.9021 44.054 45.4341 44.9663 44.7251 45.5325C44.0209 46.0947 43.0296 46.3489 41.9801 46.6177C41.1763 46.8238 40.345 47.0368 39.5769 47.4075C38.8261 47.7697 38.1527 48.281 37.5014 48.7755C36.6305 49.4367 35.8077 50.0614 34.9047 50.2666C34.0486 50.4611 33.0553 50.2615 32.0037 50.0499C31.1784 49.884 30.3251 49.7123 29.4519 49.7123C28.5788 49.7123 27.7254 49.884 26.9002 50.0499C25.8488 50.2615 24.8557 50.4611 23.9994 50.2666C23.0961 50.0613 22.2735 49.4367 21.4025 48.7754C20.7513 48.281 20.078 47.7698 19.3272 47.4075C18.5589 47.0368 17.7277 46.8239 16.9239 46.6177C15.8743 46.3488 14.8831 46.0946 14.179 45.5325C13.47 44.9663 13.002 44.054 12.5066 43.0884C12.1287 42.3519 11.738 41.5903 11.2085 40.9271C10.6829 40.2689 10.0297 39.7221 9.3981 39.1933C8.56314 38.4945 7.77447 37.8343 7.37685 37.0101C6.98908 36.2062 6.96248 35.1862 6.93424 34.1063C6.91256 33.2737 6.89006 32.4126 6.69963 31.5747C6.51658 30.7693 6.17006 30.0031 5.83502 29.2623C5.38314 28.263 4.95635 27.3192 4.95635 26.3799C4.95635 25.4407 5.38314 24.4967 5.83513 23.4975C6.17017 22.7565 6.51658 21.9904 6.69963 21.185C6.89017 20.347 6.91256 19.4861 6.93424 18.6534C6.96236 17.5736 6.98908 16.5535 7.37685 15.7496C7.77447 14.9254 8.56314 14.2653 9.3981 13.5663C10.0297 13.0377 10.6829 12.4909 11.2085 11.8326C11.7381 11.1696 12.1288 10.4079 12.5067 9.67134C13.0022 8.7056 13.4701 7.79341 14.1792 7.22728C14.8834 6.66501 15.8747 6.41083 16.9241 6.142C17.7279 5.93599 18.5591 5.72283 19.3274 5.35228C20.0781 4.99005 20.7516 4.47876 21.4028 3.98423C22.2737 3.32306 23.0964 2.69833 23.9994 2.49314C24.8557 2.29861 25.8489 2.49841 26.9003 2.70982C27.7255 2.87575 28.5789 3.04743 29.452 3.04743C30.3252 3.04743 31.1784 2.87575 32.0038 2.70982C33.0552 2.49841 34.048 2.29861 34.9048 2.49314C35.8078 2.69845 36.6306 3.32306 37.5015 3.98435C37.6834 4.12251 37.8652 4.26032 38.0476 4.3945C38.436 4.68044 38.9818 4.59677 39.2673 4.20876C39.5529 3.82064 39.4696 3.27454 39.0816 2.98896C38.9061 2.86005 38.7315 2.7274 38.5568 2.59462C37.5764 1.85025 36.5626 1.08056 35.2916 0.791575C34.0706 0.514192 32.8452 0.760637 31.66 0.998997C30.8843 1.15509 30.1518 1.3024 29.4524 1.3024C28.753 1.3024 28.0204 1.15509 27.2448 0.998997C26.0596 0.760637 24.8339 0.514075 23.6132 0.791575C22.3422 1.08056 21.3285 1.85013 20.3481 2.5945C19.7386 3.05728 19.1629 3.49439 18.5697 3.78068C17.9581 4.07564 17.2457 4.25833 16.4915 4.45157C15.3097 4.7545 14.0878 5.06775 13.091 5.86368C12.0893 6.66349 11.5126 7.78767 10.9548 8.8747C10.6006 9.56529 10.266 10.2173 9.84564 10.7438C9.42927 11.2652 8.87041 11.733 8.27884 12.2283C7.33888 13.0151 6.36693 13.8286 5.80607 14.9913C5.25529 16.1329 5.22248 17.3911 5.19072 18.6078C5.17033 19.3899 5.15111 20.1287 4.99889 20.7983C4.85486 21.4319 4.55908 22.086 4.24596 22.7784C3.73771 23.9024 3.21225 25.0644 3.21225 26.3798C3.21225 27.6951 3.73771 28.8572 4.24596 29.9811C4.55908 30.6736 4.85486 31.3276 4.99889 31.9612C5.15111 32.6307 5.17033 33.3696 5.19072 34.1517C5.22236 35.3683 5.25529 36.6266 5.80595 37.7682C6.02252 38.217 6.3006 38.6135 6.6142 38.9768L0.423184 45.1678C0.0649425 45.526 -0.0776746 46.0338 0.0416222 46.5261C0.160919 47.0185 0.520216 47.4048 1.00268 47.5592L8.80607 50.0584C9.02709 50.1292 9.20123 50.3034 9.27213 50.5243L11.7713 58.3277C11.9257 58.8103 12.312 59.1695 12.8043 59.2888C13.289 59.4075 13.8042 59.2673 14.1627 58.9072L21.8477 51.2222C22.3896 51.5503 22.9683 51.8211 23.6135 51.9678C23.9984 52.0552 24.3836 52.0908 24.7679 52.0908C25.6029 52.0906 26.4335 51.9236 27.245 51.7604C28.0207 51.6043 28.7534 51.457 29.4527 51.457C30.1522 51.457 30.8848 51.6043 31.6603 51.7604C32.8457 51.9988 34.0714 52.2452 35.292 51.9678C36.2059 51.76 36.9865 51.3035 37.7175 50.7868L45.8379 58.9072C46.1964 59.2673 46.7116 59.4075 47.1963 59.2888C47.6886 59.1693 48.0749 58.8102 48.2293 58.3277L50.7285 50.5243C50.7993 50.3034 50.9735 50.1292 51.1945 50.0584L53.9149 49.1871C54.3738 49.0401 54.6267 48.549 54.4796 48.0902C54.3327 47.6313 53.841 47.3784 53.3828 47.5254L50.6625 48.3967C49.9056 48.639 49.309 49.2355 49.0667 49.9922L46.7195 57.3213L39.1323 49.734C39.536 49.4389 39.9318 49.1735 40.3355 48.9787C40.9471 48.6838 41.6595 48.5011 42.4138 48.3078C43.5955 48.0049 44.8174 47.6917 45.8142 46.8957C46.8161 46.0958 47.3927 44.9717 47.9504 43.8845C48.3046 43.194 48.6391 42.542 49.0595 42.0156C49.4759 41.4943 50.0347 41.0265 50.6264 40.5313C50.9585 40.2533 51.2943 39.9716 51.6148 39.6727L57.9915 46.0494L56.9775 46.3741C56.5187 46.5211 56.2658 47.0122 56.4128 47.4711C56.5314 47.8414 56.8741 48.0775 57.2434 48.0775C57.3315 48.0775 58.9978 47.5591 58.9978 47.5591C59.4804 47.4047 59.8396 47.0184 59.9589 46.5261C60.0777 46.0341 59.9351 45.5264 59.5769 45.168ZM13.2804 57.3218L10.9331 49.9925C10.6907 49.2357 10.0943 48.6393 9.33763 48.3971L2.0085 46.0499L7.87045 40.188C8.00615 40.3037 8.14244 40.4181 8.27814 40.5316C8.86982 41.0268 9.42869 41.4947 9.84505 42.016C10.2654 42.5425 10.6 43.1947 10.9542 43.8851C11.5119 44.9721 12.0886 46.0963 13.0903 46.8962C14.0871 47.6921 15.309 48.0054 16.4908 48.3082C17.245 48.5015 17.9575 48.6841 18.5691 48.9792C19.1623 49.2655 19.738 49.7026 20.3475 50.1654C20.3644 50.1781 20.3814 50.191 20.3983 50.2038L13.2804 57.3218Z" fill="black"/>
<path d="M20.7298 43.2695C23.4045 44.6535 26.4206 45.3851 29.4522 45.3851C39.9317 45.3851 48.4573 36.8595 48.4573 26.3802C48.4573 15.9009 39.9317 7.37524 29.4522 7.37524C18.9728 7.37524 10.4472 15.9009 10.4472 26.3802C10.4472 32.0226 12.9313 37.3373 17.2628 40.9619C17.6322 41.271 18.1825 41.2223 18.4918 40.8527C18.801 40.4832 18.752 39.9329 18.3826 39.6237C14.4485 36.3316 12.192 31.5045 12.192 26.3802C12.192 16.863 19.9349 9.11993 29.4522 9.11993C38.9696 9.11993 46.7125 16.8629 46.7125 26.3802C46.7125 35.8976 38.9696 43.6404 29.4522 43.6404C26.659 43.6404 23.9942 42.9943 21.5316 41.7201C21.1038 41.4987 20.5774 41.6662 20.3559 42.0939C20.1345 42.5218 20.3019 43.0482 20.7298 43.2695Z" fill="black"/>
<path d="M29.4375 41.1247C21.3545 41.1247 14.7786 34.5488 14.7786 26.4657C14.7786 18.3826 21.3545 11.8066 29.4375 11.8066C37.5206 11.8066 44.0965 18.3826 44.0965 26.4657C44.0965 34.5486 37.5206 41.1247 29.4375 41.1247ZM29.4375 13.5056C22.2913 13.5056 16.4775 19.3195 16.4775 26.4657C16.4775 33.612 22.2913 39.4257 29.4375 39.4257C36.5838 39.4257 42.3975 33.612 42.3975 26.4657C42.3975 19.3195 36.5838 13.5056 29.4375 13.5056Z" fill="black"/>
<path d="M34.2171 34.498H22.7354C21.9407 34.498 21.2964 33.8537 21.2964 33.059V26.6094C21.2964 25.8147 21.9407 25.1704 22.7354 25.1704H24.2526C24.3444 24.8799 24.4615 24.5974 24.6021 24.328C24.9019 23.7535 26.4676 20.7792 26.9391 19.8628C26.9596 19.8229 26.9847 19.7059 26.9758 19.5714C26.9156 18.6587 26.8217 17.7452 26.7378 16.9717C26.7061 16.6806 26.7242 15.9714 27.5704 15.6709C29.0718 15.138 30.5413 15.6778 31.4052 17.0792C32.1785 18.3332 32.1667 19.7097 32.07 20.7689C32.0377 21.1238 31.9926 21.4797 31.9452 21.8294L36.0049 21.836C37.1526 21.8714 38.1911 22.6516 38.5061 23.7557C38.5694 23.9778 38.6038 24.2079 38.6038 24.4407C38.6038 24.9124 38.4751 25.3714 38.2389 25.77C38.5368 26.1866 38.7038 26.6912 38.7038 27.214C38.7038 27.9112 38.4164 28.5587 37.9249 29.0199C37.9731 29.2142 37.9978 29.4146 37.9978 29.6165C37.9978 30.536 37.4942 31.3544 36.7274 31.7824C36.7412 31.9278 36.7425 32.0747 36.7306 32.2211C36.6271 33.4981 35.5231 34.498 34.2171 34.498ZM23.0542 32.7402H34.2171C34.614 32.7402 34.9484 32.4498 34.9785 32.0793C34.9887 31.9541 34.9683 31.8341 34.9181 31.7227C34.7908 31.4395 34.8002 31.1202 34.9439 30.8462C35.0876 30.5725 35.3446 30.3832 35.6493 30.327C35.9918 30.2642 36.24 29.9653 36.24 29.6166C36.24 29.4871 36.2071 29.3651 36.1422 29.2539C36.0038 29.0171 35.9688 28.7305 36.0458 28.4677C36.1229 28.2047 36.3072 27.9824 36.5514 27.858C36.7945 27.7336 36.9458 27.4869 36.9458 27.2141C36.9458 26.9796 36.8363 26.766 36.6454 26.628C36.3983 26.449 36.2477 26.1727 36.232 25.8694C36.2161 25.5665 36.3368 25.2764 36.5629 25.0736C36.7456 24.9099 36.846 24.6852 36.846 24.4408C36.846 23.9792 36.4846 23.6064 36.0232 23.5923L35.9933 23.5914L31.2573 23.5866C30.9232 23.5864 30.6054 23.4417 30.3854 23.1897C30.1654 22.9375 30.0651 22.6024 30.1102 22.2708C30.1102 22.2708 30.28 21.0427 30.3196 20.6092C30.4293 19.4078 30.3102 18.6524 29.9091 18.0018C29.5518 17.4222 29.0904 17.1659 28.5339 17.2357C28.6058 17.9208 28.6792 18.6855 28.7299 19.4557C28.7467 19.7101 28.7394 20.2057 28.5024 20.6669C28.027 21.5907 26.4594 24.5684 26.1606 25.1412C26.0373 25.3773 25.9412 25.6286 25.875 25.8881C25.7188 26.5005 25.1665 26.9281 24.5318 26.9281H23.0542V32.7402ZM37.3521 29.4229C37.3517 29.4231 37.3511 29.4233 37.3506 29.4236C37.3511 29.4233 37.3515 29.4231 37.3521 29.4229Z" fill="#FD983A"/>
</svg>
