<svg width="60" height="60" viewBox="0 0 60 60" fill="none" xmlns="http://www.w3.org/2000/svg">
<path d="M13.8456 39.5195V48.6602C13.8456 48.8777 13.932 49.0864 14.0858 49.2402C14.2397 49.394 14.4483 49.4805 14.6659 49.4805H30.6034C30.821 49.4805 31.0296 49.394 31.1835 49.2402C31.3373 49.0864 31.4237 48.8777 31.4237 48.6602V39.5195C31.4238 39.4118 31.4026 39.3051 31.3614 39.2055C31.3202 39.106 31.2598 39.0155 31.1836 38.9393C31.1074 38.8632 31.017 38.8027 30.9174 38.7615C30.8179 38.7203 30.7112 38.6992 30.6034 38.6992H14.6659C14.5582 38.6992 14.4515 38.7203 14.3519 38.7615C14.2523 38.8027 14.1619 38.8632 14.0857 38.9393C14.0095 39.0155 13.9491 39.106 13.9079 39.2055C13.8667 39.3051 13.8455 39.4118 13.8456 39.5195ZM15.4862 40.3398H29.7831V47.8398H15.4862V40.3398Z" fill="black"/>
<path d="M17.0096 18.0081C16.7921 18.0081 16.5834 18.0945 16.4296 18.2483C16.2758 18.4022 16.1893 18.6108 16.1893 18.8284C16.1893 19.0459 16.2758 19.2546 16.4296 19.4084C16.5834 19.5623 16.7921 19.6487 17.0096 19.6487H28.2596C28.4772 19.6487 28.6859 19.5623 28.8397 19.4084C28.9935 19.2546 29.08 19.0459 29.08 18.8284C29.08 18.6108 28.9935 18.4022 28.8397 18.2483C28.6859 18.0945 28.4772 18.0081 28.2596 18.0081H17.0096Z" fill="#FD983A"/>
<path d="M17.0096 23.3203H28.2596C28.4772 23.3203 28.6859 23.2339 28.8397 23.08C28.9935 22.9262 29.08 22.7176 29.08 22.5C29.08 22.2824 28.9935 22.0738 28.8397 21.92C28.6859 21.7661 28.4772 21.6797 28.2596 21.6797H17.0096C16.7921 21.6797 16.5834 21.7661 16.4296 21.92C16.2758 22.0738 16.1893 22.2824 16.1893 22.5C16.1893 22.7176 16.2758 22.9262 16.4296 23.08C16.5834 23.2339 16.7921 23.3203 17.0096 23.3203Z" fill="#FD983A"/>
<path d="M17.0096 26.9919H28.2596C28.3674 26.9919 28.474 26.9707 28.5736 26.9295C28.6731 26.8883 28.7635 26.8279 28.8397 26.7517C28.9159 26.6755 28.9763 26.5851 29.0175 26.4856C29.0587 26.386 29.08 26.2794 29.08 26.1716C29.08 26.0639 29.0587 25.9572 29.0175 25.8577C28.9763 25.7582 28.9159 25.6678 28.8397 25.5916C28.7635 25.5154 28.6731 25.455 28.5736 25.4138C28.474 25.3725 28.3674 25.3513 28.2596 25.3513H17.0096C16.7921 25.3513 16.5834 25.4377 16.4296 25.5916C16.2758 25.7454 16.1893 25.9541 16.1893 26.1716C16.1893 26.3892 16.2758 26.5978 16.4296 26.7517C16.5834 26.9055 16.7921 26.9919 17.0096 26.9919Z" fill="#FD983A"/>
<path d="M57.4186 11.2809C57.309 11.2056 57.1828 11.1579 57.0508 11.1421C56.9188 11.1263 56.7849 11.1427 56.6606 11.19L52.6542 12.7181H50.8566C49.771 10.0055 47.0067 5.83969 40.1147 4.52859C36.1851 3.76349 32.1292 3.95399 28.2886 5.08406V3.04687C28.2885 2.82943 28.2021 2.62093 28.0484 2.46713C27.8947 2.31333 27.6862 2.22681 27.4688 2.22656H17.8003C17.5828 2.22669 17.3742 2.31315 17.2204 2.46696C17.0666 2.62078 16.9801 2.82935 16.98 3.04687V10.5188H15.6675C14.0143 10.5168 12.4237 11.151 11.2253 12.29C10.027 13.4289 9.31273 14.9852 9.23063 16.6364L7.9425 41.7769C7.39885 41.3941 6.76048 41.1682 6.09711 41.1237C5.43374 41.0791 4.77089 41.2178 4.18098 41.5245C3.59107 41.8311 3.09678 42.294 2.7521 42.8625C2.40743 43.4311 2.22563 44.0834 2.22657 44.7483V54.1406C2.22596 54.857 2.43736 55.5576 2.83414 56.1541C3.23092 56.7506 3.79533 57.2164 4.4563 57.4927C5.11727 57.7691 5.84523 57.8437 6.54851 57.7071C7.25179 57.5706 7.89893 57.2289 8.40844 56.7253C9.08435 57.3932 9.99512 57.7695 10.9453 57.7734H34.3219C35.2725 57.7694 36.1837 57.3927 36.8597 56.7244C37.3691 57.2281 38.0162 57.5698 38.7195 57.7065C39.4228 57.8432 40.1508 57.7687 40.8118 57.4925C41.4728 57.2162 42.0373 56.7505 42.4342 56.1541C42.831 55.5576 43.0425 54.8571 43.042 54.1406V44.7483C43.0429 44.0834 42.8611 43.431 42.5164 42.8625C42.1716 42.2939 41.6773 41.8311 41.0873 41.5244C40.4973 41.2178 39.8344 41.0792 39.171 41.1238C38.5076 41.1684 37.8693 41.3945 37.3256 41.7773L36.0413 16.6359C35.9568 14.9851 35.2414 13.4298 34.0429 12.2914C32.8445 11.153 31.2545 10.5184 29.6016 10.5188H28.2891V6.82078C32.0117 5.63668 35.9715 5.40286 39.8077 6.14062C45.4411 7.21266 47.9541 10.3725 49.0645 12.7186H48.5869C48.3694 12.7187 48.1608 12.8052 48.007 12.959C47.8532 13.1128 47.7667 13.3214 47.7666 13.5389V22.9687C47.767 23.1655 47.8383 23.3556 47.9674 23.5041C48.0965 23.6526 48.2749 23.7496 48.4697 23.7773V49.4648C48.2805 49.4915 48.1066 49.5835 47.9782 49.725C47.8498 49.8664 47.7749 50.0483 47.7666 50.2392L47.4853 56.9175C47.4807 57.028 47.4985 57.1383 47.5376 57.2417C47.5767 57.3452 47.6363 57.4396 47.7128 57.5195C47.7894 57.5993 47.8812 57.6628 47.983 57.7062C48.0847 57.7496 48.1941 57.772 48.3047 57.772H53.0859C53.1965 57.7721 53.3059 57.7499 53.4076 57.7066C53.5094 57.6633 53.6013 57.6 53.6779 57.5203C53.7545 57.4406 53.8143 57.3463 53.8535 57.2429C53.8927 57.1396 53.9107 57.0294 53.9063 56.9189L53.625 50.2406C53.6167 50.0497 53.5418 49.8678 53.4134 49.7264C53.285 49.5849 53.1111 49.4929 52.9219 49.4662V23.7787C53.117 23.7512 53.2957 23.654 53.4249 23.5052C53.5541 23.3563 53.6251 23.1658 53.625 22.9687V16.7123L57.067 16.2258C57.2623 16.1976 57.441 16.0999 57.5701 15.9507C57.6992 15.8015 57.7703 15.6108 57.7702 15.4134V11.9564C57.7705 11.8238 57.7387 11.6931 57.6775 11.5754C57.6162 11.4578 57.5274 11.3567 57.4186 11.2809ZM18.6206 3.86719H26.648V5.67422C23.8983 6.82031 21.9464 8.51437 21.0577 10.5188H18.6202L18.6206 3.86719ZM5.85938 56.1328C5.33121 56.1322 4.82485 55.9221 4.45137 55.5486C4.0779 55.1752 3.86781 54.6688 3.86719 54.1406V44.7483C3.86719 44.2199 4.07708 43.7132 4.45069 43.3396C4.8243 42.966 5.33102 42.7561 5.85938 42.7561C6.38774 42.7561 6.89446 42.966 7.26807 43.3396C7.64168 43.7132 7.85157 44.2199 7.85157 44.7483V54.1406C7.85095 54.6688 7.64086 55.1752 7.26738 55.5486C6.89391 55.9221 6.38755 56.1322 5.85938 56.1328ZM39.4092 42.7561C39.9374 42.7567 40.4438 42.9668 40.8172 43.3403C41.1907 43.7137 41.4008 44.2201 41.4014 44.7483V54.1406C41.4014 54.669 41.1915 55.1757 40.8179 55.5493C40.4443 55.9229 39.9376 56.1328 39.4092 56.1328C38.8809 56.1328 38.3741 55.9229 38.0005 55.5493C37.6269 55.1757 37.417 54.669 37.417 54.1406V44.7483C37.4177 44.2201 37.6278 43.7137 38.0012 43.3403C38.3747 42.9668 38.8811 42.7567 39.4092 42.7561ZM34.4025 16.7198L35.8125 44.2734C35.7907 44.4308 35.7791 44.5894 35.7778 44.7483V54.1406C35.7783 54.5246 35.8399 54.9061 35.9602 55.2708C35.7774 55.5362 35.533 55.7532 35.2479 55.9034C34.9628 56.0535 34.6455 56.1322 34.3233 56.1328H10.9453C10.6234 56.132 10.3065 56.0532 10.0216 55.9031C9.73681 55.7531 9.49258 55.5363 9.30985 55.2712C9.43016 54.9064 9.49171 54.5248 9.49219 54.1406V44.7483C9.49093 44.5888 9.47919 44.4295 9.45704 44.2716L10.8689 16.7189C10.9303 15.4884 11.4626 14.3287 12.3555 13.4799C13.2485 12.6312 14.4336 12.1583 15.6656 12.1594H17.7891H17.8003H27.4688H27.48H29.6016C30.8338 12.1593 32.0191 12.6325 32.9125 13.4812C33.8059 14.3298 34.3393 15.4892 34.4025 16.7198ZM22.9097 10.5188C23.8436 9.17047 25.1395 8.11347 26.648 7.46953V10.5188H22.9097ZM50.1094 49.4531V23.7891H51.2813V49.4531H50.1094ZM51.9844 15.998V22.1484H49.4063V14.3587H51.9844V15.998ZM49.162 56.1314L49.373 51.0937H52.0186L52.2295 56.1314H49.162ZM56.1328 14.7009L53.6259 15.0553V14.1037L56.1328 13.1475V14.7009Z" fill="black"/>
</svg>
