<svg width="60" height="60" viewBox="0 0 60 60" fill="none" xmlns="http://www.w3.org/2000/svg">
<path d="M53.4375 23.9907L54.6703 24.8279C54.8269 24.9338 55.0097 24.9901 55.1972 24.9901C55.2553 24.9901 55.3153 24.9845 55.3734 24.9732C55.6172 24.9263 55.8328 24.7848 55.9725 24.5785L58.0781 21.4745C58.3697 21.046 58.2572 20.4629 57.8287 20.1723L30.5269 1.64634C30.2081 1.43071 29.7928 1.43071 29.4741 1.64634L2.17031 20.1732C1.74187 20.4638 1.63031 21.047 1.92094 21.4754L4.02656 24.5795C4.16531 24.7857 4.38187 24.9273 4.62562 24.9741C4.87125 25.021 5.12344 24.9676 5.32875 24.8288L6.5625 23.9907V33.3704C6.01312 33.6104 5.56406 34.0538 5.32875 34.637C3.75281 38.5332 1.875 43.6538 1.875 45.9376C1.875 49.3032 3.83437 51.917 6.5625 52.4091V56.2501H1.875V58.1251H58.125V56.2501H53.4375V23.9907ZM5.05219 22.7504L3.99937 21.197L30 3.55415L56.0006 21.197L54.9478 22.7495L30.5269 6.17821C30.3675 6.0704 30.1837 6.01603 30 6.01603C29.8162 6.01603 29.6325 6.0704 29.4731 6.17821L5.05219 22.7504ZM3.75 45.9376C3.75 44.4142 4.95844 40.5517 7.06594 35.3401C7.17375 35.0748 7.40531 35.0466 7.5 35.0466C7.59469 35.0466 7.82625 35.0748 7.93406 35.3401C10.0416 40.5517 11.25 44.4142 11.25 45.9376C11.25 48.6535 9.67219 50.6251 7.5 50.6251C5.32781 50.6251 3.75 48.6535 3.75 45.9376ZM8.4375 52.4091C11.1656 51.917 13.125 49.3032 13.125 45.9376C13.125 43.6538 11.2472 38.5332 9.67125 34.637C9.43594 34.0538 8.98687 33.6104 8.4375 33.3704V22.7185L30 8.08696L51.5625 22.7185V40.967L51.405 40.7307C51.0572 40.2085 50.1928 40.2085 49.845 40.7307L47.97 43.5432C47.8678 43.696 47.8125 43.8779 47.8125 44.0626V45.9376H45.9375V44.0626C45.9375 43.8779 45.8822 43.696 45.78 43.5423L43.905 40.7298C43.5572 40.2076 42.6928 40.2076 42.345 40.7298L40.47 43.5423C40.3678 43.696 40.3125 43.8779 40.3125 44.0626V45.9376H38.4375V44.0626C38.4375 43.8779 38.3822 43.696 38.28 43.5423L36.405 40.7298C36.0572 40.2076 35.1928 40.2076 34.845 40.7298L32.97 43.5423C32.8678 43.696 32.8125 43.8779 32.8125 44.0626V56.2501H27.1875V38.4376C27.1875 37.9192 26.7684 37.5001 26.25 37.5001H15.9375C15.4191 37.5001 15 37.9192 15 38.4376V56.2501H8.4375V52.4091ZM36.5625 56.2501H34.6875V44.3467L35.625 42.9404L36.5625 44.3467V56.2501ZM38.4375 47.8126H40.3125V49.6876H38.4375V47.8126ZM38.4375 51.5626H40.3125V56.2501H38.4375V51.5626ZM44.0625 56.2501H42.1875V44.3467L43.125 42.9404L44.0625 44.3467V56.2501ZM45.9375 47.8126H47.8125V49.6876H45.9375V47.8126ZM45.9375 51.5626H47.8125V56.2501H45.9375V51.5626ZM25.3125 56.2501H16.875V39.3751H25.3125V56.2501ZM49.6875 56.2501V44.3467L50.625 42.9404L51.5625 44.3467V56.2501H49.6875Z" fill="black"/>
<path d="M27.1875 30.9375H32.8125C34.8806 30.9375 36.5625 29.2556 36.5625 27.1875V21.5625C36.5625 19.4944 34.8806 17.8125 32.8125 17.8125H27.1875C25.1194 17.8125 23.4375 19.4944 23.4375 21.5625V27.1875C23.4375 29.2556 25.1194 30.9375 27.1875 30.9375ZM25.3125 27.1875V25.3125H29.0625V29.0625H27.1875C26.1534 29.0625 25.3125 28.2216 25.3125 27.1875ZM32.8125 29.0625H30.9375V25.3125H34.6875V27.1875C34.6875 28.2216 33.8466 29.0625 32.8125 29.0625ZM34.6875 21.5625V23.4375H30.9375V19.6875H32.8125C33.8466 19.6875 34.6875 20.5284 34.6875 21.5625ZM27.1875 19.6875H29.0625V23.4375H25.3125V21.5625C25.3125 20.5284 26.1534 19.6875 27.1875 19.6875Z" fill="#FD983A"/>
<path d="M21.5625 46.875H23.4375V48.75H21.5625V46.875Z" fill="black"/>
</svg>
