<svg width="60" height="60" viewBox="0 0 60 60" fill="none" xmlns="http://www.w3.org/2000/svg">
<g clip-path="url(#clip0)">
<path d="M16.5331 37.1058C17.5214 37.1058 18.3257 36.3016 18.3257 35.3132V28.9613C18.3257 27.973 17.5214 27.1687 16.5331 27.1687H6.81335C5.82504 27.1687 5.02075 27.973 5.02075 28.9613V35.3132C5.02075 36.3016 5.82504 37.1058 6.81335 37.1058H16.5331ZM6.77856 35.3132V28.9618C6.77856 28.9425 6.79413 28.9265 6.81335 28.9265H16.5331C16.5523 28.9265 16.5678 28.9425 16.5678 28.9618V35.3132C16.5678 35.3325 16.5523 35.348 16.5331 35.348H6.81335C6.79413 35.348 6.77856 35.3325 6.77856 35.3132Z" fill="black"/>
<path d="M8.86047 31.6453H10.7355C11.2212 31.6453 11.6144 31.2516 11.6144 30.7664C11.6144 30.2811 11.2212 29.8875 10.7355 29.8875H8.86047C8.37524 29.8875 7.98157 30.2811 7.98157 30.7664C7.98157 31.2516 8.37524 31.6453 8.86047 31.6453Z" fill="black"/>
<path d="M8.86047 34.3872H14.4859C14.9712 34.3872 15.3648 33.994 15.3648 33.5083C15.3648 33.0231 14.9712 32.6294 14.4859 32.6294H8.86047C8.37524 32.6294 7.98157 33.0231 7.98157 33.5083C7.98157 33.994 8.37524 34.3872 8.86047 34.3872Z" fill="black"/>
<path d="M55.7382 23.9717C55.3793 23.6453 54.8232 23.6719 54.4968 24.0312C54.1704 24.3901 54.1969 24.9463 54.5563 25.2727C56.8987 27.4013 58.2422 30.4372 58.2422 33.6012V35.1064H47.7301C47.3378 35.1064 46.9748 34.9104 46.7596 34.5822L45.0774 32.0155C44.5363 31.1902 43.624 30.6972 42.637 30.6972H41.4665C40.8266 30.6972 40.3061 30.1767 40.3061 29.5372V22.3494H46.9908C48.6974 22.3494 50.3362 22.7216 51.8619 23.4554C52.299 23.6659 52.8241 23.4819 53.0347 23.0443C53.2452 22.6071 53.0612 22.0821 52.6236 21.8715C50.8585 21.0223 48.9633 20.5916 46.9908 20.5916H35.7623C35.5023 20.5916 35.2515 20.6314 35.0157 20.7056V8.61328C35.0157 7.22397 33.8855 6.09375 32.4962 6.09375H3.72208C2.33276 6.09375 1.20255 7.22397 1.20255 8.61328V39.494C0.527344 39.5668 0 40.1399 0 40.8339V45.4124C0 46.1554 0.604706 46.7601 1.34766 46.7601H3.01071C3.4964 46.7601 3.88962 46.3664 3.88962 45.8812C3.88962 45.396 3.4964 45.0023 3.01071 45.0023H1.75781V41.244H7.64008C6.4032 42.5963 5.64743 44.3958 5.64743 46.3687C5.64743 50.5586 9.05594 53.9671 13.2458 53.9671C17.3044 53.9671 20.63 50.7687 20.8342 46.7601H36.6129C37.0981 46.7601 37.4918 46.3664 37.4918 45.8812C37.4918 45.396 37.0981 45.0023 36.6129 45.0023H35.0153V40.3908C35.0153 40.3825 35.0157 40.3738 35.0157 40.3651V23.0731C35.0281 22.6721 35.3581 22.3494 35.7623 22.3494H38.5483V29.5372C38.5483 31.1458 39.857 32.455 41.4661 32.455H42.6366C43.0289 32.455 43.3919 32.6509 43.607 32.9791L45.2893 35.5458C45.8308 36.3712 46.7427 36.8642 47.7301 36.8642H58.2422V44.2548C58.2422 44.6667 57.9066 45.0023 57.4947 45.0023H54.2688C53.6234 41.4624 50.5165 38.7703 46.7935 38.7703C42.6036 38.7703 39.1951 42.1788 39.1951 46.3687C39.1951 50.5586 42.6036 53.9671 46.7935 53.9671C50.8516 53.9671 54.1772 50.7687 54.3819 46.7601H57.4947C58.8762 46.7601 60 45.6363 60 44.2548V33.6012C60 29.9428 58.4468 26.4331 55.7382 23.9717ZM18.8516 41.244H33.2574V45.0023H20.7211C20.4602 43.5699 19.7964 42.2768 18.8516 41.244ZM2.96036 39.4862V8.61328C2.96036 8.19305 3.30185 7.85156 3.72208 7.85156H12.2369V11.0976C12.2369 11.5833 12.6306 11.9765 13.1158 11.9765C13.6011 11.9765 13.9948 11.5833 13.9948 11.0976V7.85202H22.2226V17.0284L21.2567 16.3014C20.8736 16.013 20.338 16.013 19.9544 16.3014L18.11 17.6894L16.2639 16.3014C15.8803 16.013 15.3452 16.013 14.962 16.3014L13.9948 17.0288V14.6132C13.9948 14.128 13.6015 13.7343 13.1158 13.7343C12.6306 13.7343 12.2369 14.128 12.2369 14.6132V18.3806C12.2369 18.7935 12.4667 19.1647 12.8362 19.3497C13.206 19.5341 13.6409 19.4948 13.9709 19.2462L15.6129 18.0112L17.4596 19.4C17.6509 19.5438 17.8807 19.6156 18.11 19.6156C18.3398 19.6156 18.5696 19.5438 18.7614 19.3991L20.6058 18.0112L22.2469 19.2458C22.5769 19.4943 23.0118 19.5341 23.3812 19.3497C23.7511 19.1647 23.9809 18.7935 23.9809 18.3806V7.85156H32.4962C32.916 7.85156 33.2579 8.19305 33.2579 8.61328V23.0544C33.2574 23.0681 33.2574 23.0823 33.2574 23.0965V39.4862H16.4653C15.4871 39.0271 14.3962 38.7703 13.2458 38.7703C12.0959 38.7703 11.0046 39.0271 10.0269 39.4862H2.96036ZM13.2458 52.2093C10.0255 52.2093 7.40524 49.5891 7.40524 46.3687C7.40524 43.1479 10.0255 40.5281 13.2458 40.5281C16.5042 40.5281 19.0865 43.1877 19.0865 46.3687C19.0865 49.5891 16.4667 52.2093 13.2458 52.2093ZM46.7935 52.2093C43.5727 52.2093 40.9529 49.5891 40.9529 46.3687C40.9529 43.1479 43.5727 40.5281 46.7935 40.5281C49.8642 40.5281 52.3888 42.9099 52.6172 45.9233C52.6176 45.9361 52.6186 45.9494 52.6199 45.9622C52.6291 46.0963 52.6337 46.2318 52.6337 46.3683C52.6341 49.5891 50.0139 52.2093 46.7935 52.2093Z" fill="black"/>
<path d="M46.7935 43.125C45.0045 43.125 43.5493 44.5798 43.5493 46.3687C43.5493 48.1572 45.0045 49.6124 46.7935 49.6124C48.582 49.6124 50.0372 48.1572 50.0372 46.3687C50.0372 44.5798 48.582 43.125 46.7935 43.125ZM46.7935 47.8546C45.9741 47.8546 45.3071 47.1881 45.3071 46.3687C45.3071 45.5493 45.9741 44.8824 46.7935 44.8824C47.6129 44.8824 48.2794 45.5493 48.2794 46.3687C48.2794 47.1881 47.6129 47.8546 46.7935 47.8546Z" fill="#FD983A"/>
<path d="M13.2459 43.125C11.4574 43.125 10.0022 44.5798 10.0022 46.3687C10.0022 48.1572 11.4574 49.6124 13.2459 49.6124C15.0349 49.6124 16.4896 48.1572 16.4896 46.3687C16.4896 44.5798 15.0344 43.125 13.2459 43.125ZM13.2459 47.8546C12.4265 47.8546 11.76 47.1881 11.76 46.3687C11.76 45.5493 12.4265 44.8824 13.2459 44.8824C14.0653 44.8824 14.7318 45.5493 14.7318 46.3687C14.7318 47.1881 14.0653 47.8546 13.2459 47.8546Z" fill="#FD983A"/>
</g>
<defs>
<clipPath id="clip0">
<rect width="60" height="60" fill="white"/>
</clipPath>
</defs>
</svg>
