<svg width="60" height="60" viewBox="0 0 60 60" fill="none" xmlns="http://www.w3.org/2000/svg">
<path d="M54.8438 15.9375H50.625V14.2969C50.6244 13.7376 50.4019 13.2015 50.0065 12.806C49.611 12.4106 49.0749 12.1881 48.5156 12.1875H45V9.375C45 9.12636 44.9012 8.8879 44.7254 8.71209C44.5496 8.53627 44.3111 8.4375 44.0625 8.4375H15.9375C15.6889 8.4375 15.4504 8.53627 15.2746 8.71209C15.0988 8.8879 15 9.12636 15 9.375V12.1875H13.125V7.96875C13.1254 7.59592 13.2737 7.23848 13.5374 6.97485C13.801 6.71122 14.1584 6.56292 14.5312 6.5625H45.4688C45.8416 6.56292 46.199 6.71122 46.4626 6.97485C46.7263 7.23848 46.8746 7.59592 46.875 7.96875V10.3125H48.75V7.96875C48.749 7.09881 48.403 6.26477 47.7879 5.64963C47.1727 5.03449 46.3387 4.68847 45.4688 4.6875H14.5312C13.6613 4.68847 12.8273 5.03449 12.2121 5.64963C11.597 6.26477 11.251 7.09881 11.25 7.96875V12.2005C10.7346 12.2588 10.2587 12.5046 9.91288 12.8913C9.56709 13.2779 9.37564 13.7782 9.375 14.2969V15.9375H5.15625C4.28631 15.9385 3.45227 16.2845 2.83713 16.8996C2.22199 17.5148 1.87597 18.3488 1.875 19.2188V22.5H3.75V19.2188C3.75042 18.8459 3.89872 18.4885 4.16235 18.2249C4.42598 17.9612 4.78342 17.8129 5.15625 17.8125H5.625V44.4967C5.05521 44.1675 4.58203 43.6942 4.25293 43.1243C3.92383 42.5545 3.75038 41.9081 3.75 41.25V24.375H1.875V51.0938C1.87597 51.9637 2.22199 52.7977 2.83713 53.4129C3.45227 54.028 4.28631 54.374 5.15625 54.375H54.8438C55.7137 54.374 56.5477 54.028 57.1629 53.4129C57.778 52.7977 58.124 51.9637 58.125 51.0938V48.75H56.25V51.0938C56.2496 51.4666 56.1013 51.824 55.8376 52.0876C55.574 52.3513 55.2166 52.4996 54.8438 52.5H5.15625C4.78342 52.4996 4.42598 52.3513 4.16235 52.0876C3.89872 51.824 3.75042 51.4666 3.75 51.0938V45.4391C4.77964 46.3646 6.11552 46.8761 7.5 46.875H24.375V48.5156C24.3756 49.0749 24.5981 49.611 24.9935 50.0065C25.389 50.4019 25.9251 50.6244 26.4844 50.625H33.5156C34.0749 50.6244 34.611 50.4019 35.0065 50.0065C35.4019 49.611 35.6244 49.0749 35.625 48.5156V46.875H50.1562C51.3177 46.8753 52.465 46.6212 53.5178 46.1307C54.5705 45.6402 55.5031 44.9251 56.25 44.0357V46.875H58.125V19.2188C58.124 18.3488 57.778 17.5148 57.1629 16.8996C56.5477 16.2845 55.7137 15.9385 54.8438 15.9375ZM48.75 14.2969V15.9375H43.125V14.2969C43.1251 14.2347 43.1498 14.1752 43.1937 14.1312C43.2377 14.0873 43.2972 14.0626 43.3594 14.0625H48.5156C48.5778 14.0626 48.6373 14.0873 48.6813 14.1312C48.7252 14.1752 48.7499 14.2347 48.75 14.2969ZM43.125 10.3125V12.2005C42.6096 12.2588 42.1337 12.5046 41.7879 12.8913C41.4421 13.2779 41.2506 13.7782 41.25 14.2969V15.9375H18.75V14.2969C18.7494 13.7782 18.5579 13.2779 18.2121 12.8913C17.8663 12.5046 17.3904 12.2588 16.875 12.2005V10.3125H43.125ZM11.25 14.2969C11.2501 14.2347 11.2748 14.1752 11.3187 14.1312C11.3627 14.0873 11.4222 14.0626 11.4844 14.0625H16.6406C16.7028 14.0626 16.7623 14.0873 16.8063 14.1312C16.8502 14.1752 16.8749 14.2347 16.875 14.2969V15.9375H11.25V14.2969ZM33.75 48.5156C33.7499 48.5778 33.7252 48.6373 33.6813 48.6813C33.6373 48.7252 33.5778 48.7499 33.5156 48.75H26.4844C26.4222 48.7499 26.3627 48.7252 26.3187 48.6813C26.2748 48.6373 26.2501 48.5778 26.25 48.5156V45.2344C26.2501 45.1722 26.2748 45.1127 26.3187 45.0687C26.3627 45.0248 26.4222 45.0001 26.4844 45H33.5156C33.5778 45.0001 33.6373 45.0248 33.6813 45.0687C33.7252 45.1127 33.7499 45.1722 33.75 45.2344V48.5156ZM54.375 43.2995V40.3125H52.5V44.5312C51.7576 44.8415 50.9609 45.0009 50.1562 45H35.612C35.5537 44.4846 35.3079 44.0087 34.9212 43.6629C34.5346 43.3171 34.0343 43.1256 33.5156 43.125H26.4844C25.9657 43.1256 25.4654 43.3171 25.0788 43.6629C24.6921 44.0087 24.4463 44.4846 24.388 45H7.5V17.8125H52.5V38.4375H54.375V17.8125H54.8438C55.2166 17.8129 55.574 17.9612 55.8376 18.2249C56.1013 18.4885 56.2496 18.8459 56.25 19.2188V38.9062C56.2504 39.7272 56.0845 40.5398 55.7623 41.2948C55.44 42.0499 54.9681 42.7319 54.375 43.2995Z" fill="black"/>
<path d="M38.4375 26.25H34.6875V22.5C34.6875 22.2514 34.5887 22.0129 34.4129 21.8371C34.2371 21.6613 33.9986 21.5625 33.75 21.5625H26.25C26.0014 21.5625 25.7629 21.6613 25.5871 21.8371C25.4113 22.0129 25.3125 22.2514 25.3125 22.5V26.25H21.5625C21.3139 26.25 21.0754 26.3488 20.8996 26.5246C20.7238 26.7004 20.625 26.9389 20.625 27.1875V34.6875C20.625 34.9361 20.7238 35.1746 20.8996 35.3504C21.0754 35.5262 21.3139 35.625 21.5625 35.625H25.3125V39.375C25.3125 39.6236 25.4113 39.8621 25.5871 40.0379C25.7629 40.2137 26.0014 40.3125 26.25 40.3125H33.75C33.9986 40.3125 34.2371 40.2137 34.4129 40.0379C34.5887 39.8621 34.6875 39.6236 34.6875 39.375V35.625H38.4375C38.6861 35.625 38.9246 35.5262 39.1004 35.3504C39.2762 35.1746 39.375 34.9361 39.375 34.6875V27.1875C39.375 26.9389 39.2762 26.7004 39.1004 26.5246C38.9246 26.3488 38.6861 26.25 38.4375 26.25ZM37.5 33.75H33.75C33.5014 33.75 33.2629 33.8488 33.0871 34.0246C32.9113 34.2004 32.8125 34.4389 32.8125 34.6875V38.4375H27.1875V34.6875C27.1875 34.4389 27.0887 34.2004 26.9129 34.0246C26.7371 33.8488 26.4986 33.75 26.25 33.75H22.5V28.125H26.25C26.4986 28.125 26.7371 28.0262 26.9129 27.8504C27.0887 27.6746 27.1875 27.4361 27.1875 27.1875V23.4375H32.8125V27.1875C32.8125 27.4361 32.9113 27.6746 33.0871 27.8504C33.2629 28.0262 33.5014 28.125 33.75 28.125H37.5V33.75Z" fill="#FD983A"/>
<path d="M31.875 45.9375H28.125V47.8125H31.875V45.9375Z" fill="black"/>
</svg>
