<svg width="60" height="60" viewBox="0 0 60 60" fill="none" xmlns="http://www.w3.org/2000/svg">
<path d="M20.1359 50.8385H22.6272C23.3536 50.8385 23.9446 50.2475 23.9446 49.5211V48.9749H24.4907C25.217 48.9749 25.808 48.3839 25.808 47.6575V45.1693C25.808 44.4429 25.217 43.8519 24.4907 43.8519H23.9446V43.3057C23.9446 42.5793 23.3536 41.9883 22.6272 41.9883H20.1359C19.4112 41.9883 18.8218 42.5793 18.8218 43.3057V43.8519H18.2757C17.5494 43.8519 16.9584 44.4429 16.9584 45.1693V47.6575C16.9584 48.3839 17.5494 48.9749 18.2757 48.9749H18.8218V49.5211C18.8218 50.2475 19.4113 50.8385 20.1359 50.8385ZM18.7162 47.2172V45.61H19.7007C20.1862 45.61 20.5796 45.2164 20.5796 44.7311V43.7463H22.1868V44.7309C22.1868 45.2163 22.5802 45.6098 23.0657 45.6098H24.0502V47.2171H23.0657C22.5802 47.2171 22.1868 47.6106 22.1868 48.096V49.0806H20.5796V48.096C20.5796 47.6106 20.1862 47.2171 19.7007 47.2171H18.7162V47.2172Z" fill="black"/>
<path d="M23.6769 54.6418H28.1579C29.7159 54.6418 30.9833 53.3743 30.9833 51.8162V41.4421C30.9833 39.886 29.7159 38.6199 28.1579 38.6199H14.9239C13.3678 38.6199 12.1018 39.8859 12.1018 41.4421V51.8162C12.1018 53.3743 13.3678 54.6418 14.9239 54.6418H19.6608C20.1463 54.6418 20.5397 54.2482 20.5397 53.7628C20.5397 53.2775 20.1463 52.8839 19.6608 52.8839H14.9239C14.337 52.8839 13.8596 52.405 13.8596 51.8162V41.4421C13.8596 40.8552 14.337 40.3777 14.9239 40.3777H28.1579C28.7465 40.3777 29.2255 40.8551 29.2255 41.4421V51.8162C29.2255 52.405 28.7465 52.8839 28.1579 52.8839H23.6769C23.1914 52.8839 22.798 53.2775 22.798 53.7628C22.798 54.2482 23.1914 54.6418 23.6769 54.6418Z" fill="#FD983A"/>
<path d="M43.6994 10.5505H43.6873C43.2017 10.5505 42.8083 10.9441 42.8083 11.4294C42.8083 11.9148 43.2017 12.3083 43.6873 12.3083H43.6994C44.185 12.3083 44.5784 11.9148 44.5784 11.4294C44.5784 10.9441 44.185 10.5505 43.6994 10.5505Z" fill="black"/>
<path d="M48.2188 0.949951H48.2048C47.7193 0.949951 47.3259 1.34347 47.3259 1.82886C47.3259 2.31425 47.7193 2.70776 48.2048 2.70776H48.2188C48.7043 2.70776 49.0977 2.31425 49.0977 1.82886C49.0977 1.34347 48.7042 0.949951 48.2188 0.949951Z" fill="black"/>
<path d="M52.7225 1.75781H52.7299C53.2154 1.75781 53.6052 1.3643 53.6052 0.878906C53.6052 0.393516 53.2079 0 52.7225 0C52.2371 0 51.8436 0.393516 51.8436 0.878906C51.8436 1.3643 52.237 1.75781 52.7225 1.75781Z" fill="black"/>
<path d="M43.6905 3.65454H43.7005C44.186 3.65454 44.5744 3.26103 44.5744 2.77563C44.5744 2.29024 44.1761 1.89673 43.6905 1.89673C43.205 1.89673 42.8116 2.29024 42.8116 2.77563C42.8116 3.26103 43.2052 3.65454 43.6905 3.65454Z" fill="black"/>
<path d="M41.3787 6.21729C40.8932 6.21729 40.4998 6.61244 40.4998 7.09783C40.4998 7.58322 40.8932 7.97673 41.3787 7.97673C41.8642 7.97673 42.2576 7.58322 42.2576 7.09783V7.09455C42.2576 6.60916 41.8641 6.21729 41.3787 6.21729Z" fill="black"/>
<path d="M48.2048 11.5C47.7193 11.5 47.3259 11.8935 47.3259 12.3789C47.3259 12.8643 47.7193 13.2578 48.2048 13.2578H48.2106C48.6961 13.2578 49.0867 12.8643 49.0867 12.3789C49.0867 11.8935 48.6902 11.5 48.2048 11.5Z" fill="black"/>
<path d="M52.7225 12.4502C52.237 12.4502 51.8436 12.8437 51.8436 13.3291C51.8436 13.8145 52.237 14.208 52.7225 14.208H52.7298C53.2153 14.208 53.6051 13.8145 53.6051 13.3291C53.6051 12.8437 53.2079 12.4502 52.7225 12.4502Z" fill="black"/>
<path d="M46.5972 6.21509C46.1117 6.21509 45.7183 6.6086 45.7183 7.094C45.7183 7.57939 46.1117 7.97291 46.5972 7.97291H46.6087C47.0942 7.97291 47.4818 7.57939 47.4818 7.094C47.4818 6.6086 47.0827 6.21509 46.5972 6.21509Z" fill="black"/>
<path d="M52.4372 7.71217C52.7804 7.36893 52.7787 6.81405 52.4354 6.47092C52.0922 6.12768 51.5343 6.12944 51.1908 6.47256C50.8475 6.81581 50.8475 7.37233 51.1908 7.71545C51.3625 7.88701 51.5875 7.97291 51.8123 7.97291C52.0372 7.97291 52.2622 7.88713 52.4339 7.71545L52.4372 7.71217Z" fill="black"/>
<path d="M36.19 4.3083H35.2551V3.96143C35.2551 3.47604 34.8617 3.08252 34.3762 3.08252H13.0604C12.8121 3.08252 12.5753 3.18752 12.4086 3.37174L9.50578 6.58022C9.29824 6.8092 9.10183 7.02284 8.91808 7.22241C7.65082 8.59971 6.88593 9.43104 7.1475 10.4249C7.37332 11.283 8.27988 11.684 9.22546 11.9894C11.0921 12.5937 12.0453 13.7793 12.413 15.9537C12.4844 16.3765 12.8508 16.6861 13.2797 16.6861H14.4537V19.3962H11.6089C10.7231 19.3962 10.0025 20.1168 10.0025 21.0026V25.8227C10.0025 26.2464 10.1687 26.6312 10.4378 26.9186C10.4378 26.9186 7.02785 33.573 6.94171 33.7121C6.56754 34.3166 6.41507 34.6918 6.41507 35.9868L6.40839 43.0159C6.40793 43.5013 6.80109 43.8952 7.28648 43.8957H7.2873C7.77234 43.8957 8.16574 43.5026 8.16621 43.0176L8.17289 35.9877C8.17289 35.063 8.22878 34.9728 8.43632 34.6373C8.53136 34.4838 12.1506 27.4292 12.1506 27.4292H25.1283C26.6242 30.6838 29.0926 33.1218 32.658 34.8705C34.8651 35.9505 34.9554 37.9863 34.9249 41.4915C34.9221 41.8199 34.9192 42.1526 34.9192 42.4886V57.2276C34.9192 57.7871 34.4655 58.2423 33.908 58.2423H9.16406C8.89558 58.2423 8.64164 58.1358 8.44898 57.9425C8.25714 57.7501 8.15203 57.4972 8.15285 57.2288L8.16609 47.0307C8.16668 46.5453 7.77375 46.1513 7.28836 46.1506C7.28789 46.1506 7.28753 46.1506 7.28718 46.1506C6.80226 46.1506 6.40898 46.5434 6.40828 47.0283L6.39504 57.2248C6.39257 57.9622 6.68004 58.6578 7.20398 59.1835C7.72898 59.7098 8.42507 59.9998 9.16406 59.9998H33.9078C35.4347 59.9998 36.6769 58.7561 36.6769 57.2274V42.4884C36.6769 42.1576 36.6797 41.8299 36.6826 41.5065C36.7107 38.2638 36.7399 34.9106 33.4312 33.2916C30.3555 31.7832 28.2654 29.8025 26.9222 27.1064C27.3137 26.8131 27.5686 26.3475 27.5686 25.8225V21.0025C27.5686 20.1167 26.8465 19.3961 25.9589 19.3961H22.2538V16.686H22.5143C22.7719 16.686 23.0164 16.573 23.1834 16.3769C24.3589 14.9964 25.7566 14.1546 27.8502 13.6939C27.8809 16.518 28.3608 19.5174 30.6158 22.5764C31.605 23.9207 32.9644 24.4345 34.1265 24.4345C34.8287 24.4345 35.4592 24.2467 35.8919 23.9412C36.696 23.3737 36.8843 22.4257 36.351 21.6375C34.3902 18.7266 33.4539 15.812 33.5624 12.9658C34.3194 12.589 35.1206 11.8937 35.24 10.9425H36.1901C37.6728 10.9425 38.8793 9.73608 38.8793 8.25319V6.99752C38.8793 5.51475 37.6728 4.3083 36.19 4.3083ZM25.8108 21.154V25.6711H25.7031H11.7603V21.154H15.3326H21.3749H25.8108ZM16.2115 19.3962V16.6861H20.496V19.3962H16.2115ZM22.1188 14.9282H13.9959C13.4096 12.5309 12.0514 11.0565 9.76628 10.3167C9.27257 10.1574 9.02601 10.0351 8.90671 9.96167C9.08847 9.63342 13.4504 4.84022 13.4504 4.84022H33.4973V10.6981C33.4973 10.9057 33.0547 11.308 32.5739 11.4822C28.0214 11.5559 24.6531 12.1799 22.1188 14.9282ZM34.8349 22.5331C34.7121 22.6027 34.4733 22.6875 34.1269 22.6875C34.12 22.6875 34.1132 22.6875 34.1062 22.6874C33.7349 22.6839 32.7892 22.5644 32.0311 21.5341C30.0884 18.8987 29.6118 16.349 29.6067 13.4119C30.2752 13.3377 31.0017 13.2878 31.7982 13.2601C31.7721 16.3142 32.8111 19.4972 34.8349 22.5331ZM37.1215 8.25319C37.1215 8.76682 36.7037 9.18471 36.1901 9.18471H35.2553V6.06612H36.1901C36.7037 6.06612 37.1215 6.48401 37.1215 6.99764V8.25319Z" fill="black"/>
</svg>
