<svg width="60" height="60" viewBox="0 0 60 60" fill="none" xmlns="http://www.w3.org/2000/svg">
<g clip-path="url(#clip0)">
<path d="M34.1088 29.8021L28.9606 34.9503C28.3664 35.5445 28.0691 36.2377 28.0691 37.0296V49.505L37.3764 40.1981H48.4652L57.772 49.505V37.0296C57.772 36.2377 57.4752 35.4454 56.881 34.9503L51.7328 29.8021L52.1288 27.7228C53.9107 19.2078 51.6337 10.2969 45.8909 3.56445L42.9206 0L39.9503 3.56445C34.307 10.1978 31.9309 19.1087 33.7128 27.7228L34.1088 29.8021ZM30.0493 37.0296C30.0493 36.7328 30.1484 36.5346 30.3466 36.3368L34.6038 32.0791L35.9899 38.8121L30.0493 44.7527V37.0296ZM55.495 36.3368C55.6932 36.5346 55.7918 36.7328 55.7918 37.0296V44.7527L49.9504 38.9107L51.3364 32.1782L55.495 36.3368ZM41.4354 4.85139L42.9206 3.0694L44.4057 4.85139C45.8909 6.63386 47.0792 8.51495 48.0693 10.4951H37.7723C38.7624 8.51495 39.9503 6.63386 41.4354 4.85139ZM36.8814 12.4753H48.8612C50.7427 17.2276 51.1387 22.3763 50.1486 27.4259L49.1585 32.2773H45.8909V34.2575H48.8612L48.0693 38.2179H43.9107V32.2773H41.9305V38.2179H37.7723L36.98 34.2575H39.9503V32.2773H36.584L35.5939 27.4259C34.6038 22.3763 35.0989 17.2276 36.8814 12.4753Z" fill="black"/>
<path d="M42.9206 28.317C46.1882 28.317 48.8612 25.6435 48.8612 22.3764C48.8612 19.1088 46.1882 16.4358 42.9206 16.4358C39.6534 16.4358 36.98 19.1088 36.98 22.3764C36.98 25.6435 39.6534 28.317 42.9206 28.317ZM42.9206 18.416C45.099 18.416 46.881 20.198 46.881 22.3764C46.881 24.5543 45.099 26.3368 42.9206 26.3368C40.7426 26.3368 38.9602 24.5543 38.9602 22.3764C38.9602 20.198 40.7426 18.416 42.9206 18.416Z" fill="black"/>
<path d="M57.772 60.0004V57.0301C57.772 54.0598 55.5941 51.5845 52.7229 51.1886C52.3265 48.9111 50.6436 47.03 48.3661 46.4358C48.2675 44.6539 47.6733 42.9705 46.5841 41.5845L44.9999 42.7728C46.9801 45.1489 46.7823 48.7134 44.5048 50.8913L42.9206 52.6737L41.1386 50.8913C38.9602 48.7134 38.7624 45.248 40.6435 42.7728L39.0593 41.5845C37.9701 42.9705 37.3764 44.6539 37.2773 46.4358C34.9998 47.03 33.3169 48.9111 32.921 51.1886C30.2475 51.5845 28.0691 54.0598 28.0691 57.0301V60.0004H30.0493V57.0301C30.0493 54.8517 31.8318 53.0697 34.0097 53.0697H34.9998V52.0796C34.9998 50.3962 36.089 48.9111 37.5741 48.416C37.8714 49.9012 38.6633 51.2872 39.7525 52.3764L42.9206 55.5449L46.0891 52.3764C47.1783 51.2872 47.9702 49.9012 48.2675 48.416C49.8512 49.0102 50.8413 50.4953 50.8413 52.0796V53.0697H51.8314C54.0099 53.0697 55.7918 54.8517 55.7918 57.0301V60.0004H57.772Z" fill="#FD983A"/>
<path d="M34.0097 59.0099V60H35.9899V59.0099C35.9899 57.3265 37.2773 56.0395 38.9602 56.0395V54.0593C36.1881 54.0593 34.0097 56.2373 34.0097 59.0099Z" fill="black"/>
<path d="M51.8315 60V59.0099C51.8315 56.2373 49.6535 54.0593 46.881 54.0593V56.0395C48.5643 56.0395 49.8513 57.3265 49.8513 59.0099V60H51.8315Z" fill="black"/>
<path d="M18.7623 47.1287L26.0889 54.4553V45.9403C26.0889 45.1485 25.7921 44.3561 25.1979 43.861L21.3366 39.9997L21.7326 38.2178C23.2177 30.5938 21.1384 22.7721 15.9902 16.9306L14.2077 14.9504L12.4257 17.0297C7.27703 22.7721 5.19821 30.6929 6.68336 38.3169L7.0793 40.0989L3.21801 43.9601C2.62386 44.4552 2.32654 45.1485 2.32654 45.9403V54.4553L9.65366 47.1287H18.7623ZM23.8119 45.2476C24.0101 45.4453 24.1087 45.6435 24.1087 45.9403V49.703L20.2474 45.8412L20.9407 42.3759L23.8119 45.2476ZM13.9109 18.3167L14.2077 17.9207L14.505 18.3167C15.8911 19.8018 16.9803 21.5838 17.8713 23.3663H10.4455C11.4356 21.5838 12.5248 19.8018 13.9109 18.3167ZM9.65366 25.3465H18.7623C20.2474 29.3069 20.6434 33.6632 19.8515 37.9204L19.5546 39.2079H17.178V41.1881H19.1582L18.3663 45.1485H15.1978V39.2079H13.2176V45.1485H10.0496L9.25723 41.1881H11.2374V39.2079H8.86129L8.56445 37.9204C7.77208 33.6632 8.16851 29.3069 9.65366 25.3465ZM4.30674 45.9403C4.30674 45.6435 4.40584 45.4453 4.60406 45.2476L7.47525 42.3759L8.16851 45.8412L4.30674 49.703V45.9403Z" fill="black"/>
<path d="M4.3067 60.0006H6.2869C6.2869 57.1295 8.3662 54.6542 11.2374 54.1592C11.4356 54.5551 11.7324 54.951 12.1289 55.347L14.3068 57.5254L16.4852 55.347C16.782 55.0501 17.0794 54.6542 17.3762 54.1592C20.2474 54.6542 22.3267 57.1295 22.3267 60.0006H24.3069C24.3069 56.238 21.7325 53.0699 18.0695 52.2776C18.2672 50.9906 17.9704 49.7037 17.2771 48.6145L15.5942 49.7037C16.4852 50.9906 16.287 52.7726 15.1978 53.9609L14.2077 54.6542L13.5149 53.9609C12.4257 52.8717 12.2275 51.0898 13.119 49.7037L11.4356 48.6145C10.7423 49.7037 10.4455 50.9906 10.6437 52.2776C6.88106 53.0699 4.3067 56.238 4.3067 60.0006Z" fill="#FD983A"/>
<path d="M14.2077 36.2377C16.3861 36.2377 18.1681 34.4552 18.1681 32.2773C18.1681 30.0989 16.3861 28.3169 14.2077 28.3169C12.0298 28.3169 10.2473 30.0989 10.2473 32.2773C10.2473 34.4552 12.0298 36.2377 14.2077 36.2377ZM14.2077 30.2971C15.2969 30.2971 16.1879 31.1881 16.1879 32.2773C16.1879 33.3665 15.2969 34.2575 14.2077 34.2575C13.119 34.2575 12.2275 33.3665 12.2275 32.2773C12.2275 31.1881 13.119 30.2971 14.2077 30.2971Z" fill="black"/>
<path d="M27.079 4.5542H29.0592V9.50469H27.079V4.5542Z" fill="black"/>
<path d="M21.1384 12.4756H23.1186V15.4459H21.1384V12.4756Z" fill="black"/>
<path d="M11.2374 6.53442H13.2176V11.4849H11.2374V6.53442Z" fill="black"/>
<path d="M19.1583 0.593994H21.1385V4.55439H19.1583V0.593994Z" fill="black"/>
<path d="M25.0988 22.3762H27.079V25.3465H25.0988V22.3762Z" fill="black"/>
<path d="M2.32654 12.4756H4.30673V15.4459H2.32654V12.4756Z" fill="black"/>
<path d="M54.8018 1.58398H56.782V6.53448H54.8018V1.58398Z" fill="black"/>
<path d="M34.0097 1.58398H35.9899V4.55428H34.0097V1.58398Z" fill="black"/>
</g>
<defs>
<clipPath id="clip0">
<rect width="60" height="60" fill="white"/>
</clipPath>
</defs>
</svg>
