<svg width="60" height="60" viewBox="0 0 60 60" fill="none" xmlns="http://www.w3.org/2000/svg">
<g clip-path="url(#clip0)">
<path d="M59.897 53.4445L56.0915 43.7994C56.0095 43.5917 56.0095 43.363 56.0915 43.1553L59.8969 33.5104C60.0748 33.0597 60.0183 32.5516 59.7458 32.1509C59.4732 31.7504 59.0212 31.5112 58.5366 31.5112H51.5078V27.6541C51.5078 25.235 49.5398 23.2668 47.1206 23.2668H42.9742V21.8117C44.1346 21.7727 45.0768 20.865 45.1693 19.7186H46.8677C47.9965 19.7186 48.9151 18.8001 48.9151 17.6713V14.5432C48.9151 13.4143 47.9965 12.4958 46.8677 12.4958H45.169C45.0733 11.3253 44.092 10.4016 42.8971 10.4016H39.6122C35.4884 10.4016 31.6387 8.76559 28.7723 5.795C28.4556 5.46688 27.9782 5.36516 27.5558 5.53567C27.1339 5.70606 26.8613 6.11024 26.8613 6.56563V12.4632C24.9612 12.5902 23.4538 14.1755 23.4538 16.1072C23.4538 18.0389 24.9611 19.6242 26.8613 19.7512V23.2668H20.3905C20.5484 22.9446 20.6156 22.6249 20.6689 22.3692C20.7638 21.9139 20.8071 21.7947 21.0149 21.6696C21.2227 21.5444 21.3483 21.562 21.7951 21.6913C22.3076 21.8396 23.0824 22.0638 23.968 21.5307C24.3831 21.2807 24.5172 20.7416 24.2673 20.3265C24.0174 19.9113 23.4781 19.7772 23.063 20.0272C22.8551 20.1523 22.7297 20.1349 22.2828 20.0055C21.7703 19.8573 20.9956 19.6331 20.1099 20.1661C19.2243 20.6991 19.0598 21.4886 18.9509 22.0111C18.856 22.4663 18.8128 22.5855 18.6049 22.7107C18.3971 22.8357 18.2716 22.8181 17.825 22.689C17.3124 22.5407 16.5376 22.3164 15.6522 22.8494C14.7666 23.3825 14.6022 24.172 14.4933 24.6944C14.3985 25.1496 14.3553 25.2688 14.1475 25.3938C13.7323 25.6438 13.5983 26.1828 13.8482 26.598C14.0129 26.8716 14.3031 27.023 14.6008 27.023C14.7548 27.023 14.9109 26.9825 15.0524 26.8973C15.938 26.3642 16.1024 25.5747 16.2113 25.0523C16.2135 25.0416 16.2156 25.032 16.2178 25.0217H26.8613V25.6487C26.8613 26.1039 27.1339 26.5082 27.5556 26.6786C27.9729 26.8481 28.4545 26.7494 28.7722 26.4194C29.2599 25.914 29.7769 25.4483 30.3182 25.0217H37.029V27.6979C37.029 28.6333 37.79 29.3943 38.7254 29.3943H41.2777C42.2131 29.3943 42.9741 28.6333 42.9741 27.6979V25.0217H47.1206C48.5721 25.0217 49.7529 26.2026 49.7529 27.6541V42.812C49.7529 44.2634 48.5721 45.4443 47.1206 45.4443H12.8779C11.4264 45.4443 10.2455 44.2634 10.2455 42.812V27.6541C10.2455 26.6847 10.7762 25.7962 11.6305 25.3353C12.0569 25.1052 12.2162 24.573 11.9861 24.1464C11.7561 23.72 11.2238 23.5609 10.7972 23.7908C9.37459 24.5584 8.49065 26.0387 8.49065 27.654V31.5111H1.46174C0.977174 31.5111 0.525182 31.7503 0.252604 32.1509C-0.0199745 32.5515 -0.0764588 33.0597 0.101432 33.5102L3.90698 43.1553C3.98901 43.363 3.98901 43.5917 3.90698 43.7994L2.57678 47.1706C2.39889 47.6214 2.62014 48.1311 3.07096 48.3089C3.51018 48.4856 4.03155 48.27 4.2092 47.8147L5.5394 44.4434C5.78526 43.8205 5.78526 43.1341 5.5394 42.5111L1.89171 33.266H8.49065V42.8118C8.49065 43.5191 8.65987 44.187 8.95834 44.7793C8.96373 44.7915 8.96842 44.8038 8.9744 44.8159L13.4139 53.6885H1.89171L2.80776 51.3665C2.98553 50.9157 2.7644 50.4062 2.31358 50.2283C1.86311 50.0505 1.35323 50.2716 1.17534 50.7225L0.101549 53.4441C-0.0763416 53.8948 -0.0198573 54.403 0.252721 54.8035C0.525299 55.2042 0.977291 55.4434 1.46186 55.4434H14.2491C14.9265 55.4434 15.4776 54.8922 15.4776 54.2149V47.199H44.5211V54.2149C44.5211 54.8922 45.0723 55.4434 45.7496 55.4434H51.6501C52.1347 55.4434 52.5276 55.0506 52.5276 54.5659C52.5276 54.0813 52.1348 53.6884 51.6501 53.6884H46.5847L51.0243 44.8157C51.0303 44.8037 51.035 44.7914 51.0404 44.7792C51.3388 44.187 51.5081 43.519 51.5081 42.8117V33.2659H58.107L54.4593 42.511C54.2135 43.134 54.2135 43.8204 54.4593 44.4433L58.107 53.6885H55.7735C55.2889 53.6885 54.896 54.0813 54.896 54.566C54.896 55.0506 55.2888 55.4435 55.7735 55.4435H58.5366C59.0212 55.4435 59.4732 55.2043 59.7458 54.8038C60.0183 54.4032 60.0748 53.8951 59.897 53.4445ZM47.1602 14.5432V17.6713C47.1602 17.8325 47.0289 17.9638 46.8677 17.9638H45.1785V14.2507H46.8677C47.0289 14.2507 47.1602 14.3818 47.1602 14.5432ZM25.2088 16.1072C25.2088 15.1439 25.9306 14.3478 26.8614 14.2266V17.9877C25.9306 17.8666 25.2088 17.0704 25.2088 16.1072ZM28.6163 24.1509V8.06387C31.669 10.7136 35.5197 12.1565 39.6124 12.1565H42.8972C43.1875 12.1565 43.4238 12.3927 43.4238 12.683V19.5343C43.4238 19.8246 43.1876 20.0608 42.8972 20.0608H39.6124C35.5189 20.0607 31.6683 21.5027 28.6163 24.1509ZM33.1393 23.2668C34.3678 22.6815 35.6736 22.2666 37.0291 22.0346V23.2668H33.1393ZM38.784 27.6395V21.8383C39.0588 21.8236 41.2194 21.8156 41.2194 21.8156V27.6395H38.784ZM13.7226 50.3838L12.0933 47.1276C12.3481 47.1738 12.61 47.1993 12.8779 47.1993H13.7226V50.3838ZM47.1206 47.1992C47.3885 47.1992 47.6504 47.1738 47.9051 47.1276L46.2759 50.3838V47.1992H47.1206Z" fill="black"/>
<path d="M25.0754 39.4371L25.5614 38.1612H28.8737L29.3543 39.4345C29.487 39.7858 29.8208 40.0024 30.1754 40.0024C30.2783 40.0024 30.3831 39.9841 30.485 39.9457C30.9384 39.7746 31.1673 39.2683 30.9962 38.8149L28.2063 31.4224C28.2033 31.4143 28.2001 31.4063 28.1968 31.3984C28.0347 31.004 27.6545 30.7495 27.2282 30.7495C27.2278 30.7495 27.2273 30.7495 27.227 30.7495C26.8002 30.75 26.4202 31.0054 26.2586 31.4005C26.2559 31.4071 26.2533 31.4136 26.2508 31.4203L23.4354 38.8125C23.2629 39.2654 23.4901 39.7722 23.9431 39.9447C24.3961 40.1171 24.9028 39.8898 25.0754 39.4371ZM27.2251 33.7928L28.2114 36.4063H26.2297L27.2251 33.7928Z" fill="#FD983A"/>
<path d="M34.764 30.6387C34.2794 30.6387 33.8865 31.0315 33.8865 31.5162V39.0077C33.8865 39.4352 34.1946 39.8005 34.616 39.8726C34.6782 39.8832 36.5436 39.8899 37.3942 39.8851C37.8788 39.8824 38.2695 39.4874 38.2668 39.0028C38.2641 38.5182 37.8674 38.1285 37.3845 38.1302C36.7824 38.1336 36.136 38.136 35.6414 38.1364V31.5162C35.6415 31.0316 35.2485 30.6387 34.764 30.6387Z" fill="#FD983A"/>
<path d="M44.9957 32.462C45.4803 32.462 45.8732 32.0692 45.8732 31.5845C45.8732 31.1 45.4804 30.707 44.9957 30.707H41.8653C41.3807 30.707 40.9878 31.0998 40.9878 31.5845V39.014C40.9878 39.4986 41.3806 39.8915 41.8653 39.8915H44.9957C45.4803 39.8915 45.8732 39.4987 45.8732 39.014C45.8732 38.5294 45.4804 38.1365 44.9957 38.1365H42.7427V36.1766H44.7649C45.2494 36.1766 45.6424 35.7838 45.6424 35.2991C45.6424 34.8146 45.2496 34.4216 44.7649 34.4216H42.7427V32.4618H44.9957V32.462Z" fill="#FD983A"/>
<path d="M18.0568 38.2475C17.295 38.2475 16.5612 37.9398 16.0941 37.4244C15.7687 37.0653 15.2138 37.038 14.8548 37.3634C14.4957 37.6888 14.4684 38.2437 14.7937 38.6027C15.5879 39.4792 16.8077 40.0024 18.0567 40.0024C19.6078 40.0024 20.91 39.0149 21.1529 37.6542C21.3353 36.6327 20.8685 35.297 19.0114 34.6119C18.0803 34.2684 17.2143 33.8943 16.9593 33.7825C16.725 33.5994 16.7325 33.3414 16.7478 33.2345C16.7684 33.0908 16.8719 32.74 17.3861 32.585C18.4739 32.2574 19.4766 33.0506 19.5045 33.073C19.8754 33.3809 20.426 33.332 20.7366 32.9625C21.0485 32.5915 21.0005 32.038 20.6295 31.7262C20.5597 31.6675 18.8974 30.2967 16.8799 30.9047C15.8674 31.2097 15.1511 32.0068 15.0106 32.9851C14.8726 33.9394 15.2832 34.9694 16.1688 35.3518C16.7199 35.5898 17.2428 35.8301 18.4038 36.2583C18.7467 36.3847 19.5324 36.7438 19.4251 37.3457C19.3463 37.7891 18.8128 38.2475 18.0568 38.2475Z" fill="#FD983A"/>
<path d="M10.7764 15.9659C11.0189 15.9659 11.1174 16.0457 11.4334 16.3868C11.7961 16.7783 12.3442 17.3699 13.3777 17.3699C14.4113 17.3699 14.9594 16.7783 15.3221 16.3868C15.6382 16.0456 15.7366 15.9659 15.9791 15.9659C16.2217 15.9659 16.3202 16.0457 16.6363 16.3869C16.999 16.7783 17.5472 17.3699 18.5808 17.3699C19.6143 17.3699 20.1626 16.7783 20.5254 16.3869C20.8414 16.0457 20.94 15.9659 21.1826 15.9659C21.6671 15.9659 22.0601 15.5731 22.0601 15.0884C22.0601 14.6039 21.6672 14.2109 21.1826 14.2109C20.149 14.2109 19.6008 14.8025 19.2381 15.1939C18.922 15.535 18.8235 15.6148 18.5808 15.6148C18.3382 15.6148 18.2396 15.535 17.9236 15.1939C17.5609 14.8025 17.0127 14.2109 15.9791 14.2109C14.9455 14.2109 14.3974 14.8025 14.0347 15.194C13.7186 15.5352 13.6201 15.6148 13.3776 15.6148C13.1352 15.6148 13.0366 15.535 12.7207 15.194C12.358 14.8025 11.8099 14.2109 10.7763 14.2109C10.2917 14.2109 9.8988 14.6038 9.8988 15.0884C9.89892 15.573 10.2919 15.9659 10.7764 15.9659Z" fill="black"/>
<path d="M14.1482 6.18677C14.3559 6.31181 14.3991 6.43087 14.494 6.88614C14.6029 7.40856 14.7673 8.19817 15.6529 8.73114C16.5385 9.26411 17.3131 9.03993 17.8257 8.89157C18.2722 8.7622 18.3979 8.74474 18.6057 8.86989C18.8135 8.99505 18.8568 9.11411 18.9517 9.5695C19.0606 10.0919 19.2253 10.8814 20.1107 11.4145C20.5334 11.6689 20.9308 11.7508 21.2866 11.7508C21.6761 11.7508 22.0157 11.6526 22.2836 11.575C22.7305 11.4458 22.856 11.4283 23.0638 11.5534C23.4789 11.8032 24.0182 11.6693 24.2681 11.2541C24.518 10.839 24.384 10.2997 23.9688 10.0499C23.0834 9.51688 22.3086 9.74106 21.7959 9.88931C21.349 10.0186 21.2235 10.036 21.0158 9.91099C20.8079 9.78583 20.7646 9.66677 20.6697 9.21138C20.5608 8.68895 20.3962 7.89934 19.5107 7.36638C18.6253 6.83329 17.8505 7.05759 17.3378 7.20595C16.891 7.3352 16.7656 7.35267 16.5578 7.22763C16.3501 7.10259 16.3069 6.98353 16.212 6.52825C16.1031 6.00583 15.9387 5.21622 15.0531 4.68325C14.6381 4.43317 14.0988 4.56735 13.8489 4.98255C13.5991 5.39774 13.733 5.93692 14.1482 6.18677Z" fill="black"/>
</g>
<defs>
<clipPath id="clip0">
<rect width="60" height="60" fill="white"/>
</clipPath>
</defs>
</svg>
