<svg width="60" height="60" viewBox="0 0 60 60" fill="none" xmlns="http://www.w3.org/2000/svg">
<g clip-path="url(#clip0)">
<path d="M47.1748 30.5335C47.66 30.5335 48.0537 30.1403 48.0537 29.6546V27.6812C48.0537 27.1955 47.66 26.8022 47.1748 26.8022C46.6891 26.8022 46.2959 27.1955 46.2959 27.6812V29.6546C46.2959 30.1403 46.6891 30.5335 47.1748 30.5335Z" fill="black"/>
<path d="M56.9691 30.6825H54.5571C53.9396 28.2646 52.8108 25.9648 51.2681 23.9928C49.714 22.0066 47.7323 20.3408 45.5131 19.151V12.773C45.5131 12.2402 45.2833 11.733 44.8823 11.3814C44.4827 11.0308 43.9517 10.8692 43.4248 10.9383C39.9669 11.3956 37.1145 13.7467 35.9884 17.006H35.061C35.0752 16.8068 35.0825 16.6068 35.0825 16.4049C35.0825 11.9596 31.4671 8.34326 27.0227 8.34326C22.5774 8.34326 18.9611 11.9596 18.9611 16.4049C18.9611 17.0206 19.0325 17.6276 19.1689 18.2158C15.9577 19.4435 13.1685 21.5305 11.0656 24.288C10.7712 24.6739 10.8454 25.2255 11.2318 25.5199C11.3906 25.6412 11.5778 25.6998 11.7637 25.6998C12.0287 25.6998 12.2901 25.5808 12.4636 25.3542C14.3574 22.8708 16.8645 20.9885 19.7512 19.8752C20.1439 20.6955 20.6731 21.4485 21.3181 22.0976C21.2261 22.121 21.1345 22.1457 21.043 22.1709C20.5751 22.3004 20.3009 22.7843 20.43 23.2526C20.5381 23.6417 20.8915 23.8971 21.2769 23.8971C21.3543 23.8971 21.4334 23.8866 21.5117 23.8651C22.1631 23.6847 22.8314 23.5561 23.498 23.4824C24.5009 23.3721 23.9186 23.4055 34.1112 23.4046C34.5969 23.4046 34.9901 23.0113 34.9901 22.5257C34.9901 22.0404 34.5969 21.6468 34.1112 21.6468H33.1531C33.8754 20.8058 34.4137 19.8258 34.7356 18.7638H36.6385C37.0372 18.7638 37.386 18.4955 37.4881 18.1101C38.258 15.2056 40.6787 13.0747 43.6541 12.6815C43.6637 12.6796 43.693 12.6764 43.7233 12.703C43.7448 12.7218 43.7553 12.7451 43.7553 12.7735V19.6862C43.7553 20.0199 43.9439 20.3247 44.2428 20.473C48.6968 22.6877 51.9708 26.9014 53.0007 31.745C53.0868 32.1506 53.4452 32.4408 53.8604 32.4408H56.9691C57.4177 32.4408 57.7825 32.8056 57.7825 33.2538V39.759C57.7825 40.2067 57.4177 40.5711 56.9691 40.5711H53.5999C52.927 40.5711 52.32 40.9721 52.0532 41.5947C51.7918 42.2081 51.4897 42.8132 51.1546 43.3923C50.911 43.8121 51.0543 44.3499 51.4745 44.593C51.6132 44.6736 51.7648 44.7116 51.914 44.7116C52.2175 44.7116 52.5127 44.5541 52.6753 44.273C53.0387 43.6459 53.3669 42.9913 53.6507 42.3289H56.9691C58.3868 42.3289 59.5403 41.1763 59.5403 39.759V33.2538C59.5403 31.8361 58.3868 30.6825 56.9691 30.6825ZM23.6083 21.7049C21.8193 20.5486 20.7184 18.5427 20.7184 16.4049C20.7184 12.9291 23.5465 10.1015 27.0223 10.1015C30.4976 10.1015 33.3247 12.9291 33.3247 16.4049C33.3247 16.8279 33.2835 17.2431 33.2034 17.6464C33.1929 17.6848 33.1847 17.7242 33.1792 17.7645C32.8354 19.3419 31.8979 20.7294 30.5228 21.6468C25.0717 21.6651 24.7257 21.6046 23.6083 21.7049Z" fill="black"/>
<path d="M50.3031 46.1873C49.9451 45.86 49.389 45.8847 49.0617 46.2432C48.2661 47.1129 47.3753 47.8993 46.414 48.58C46.1892 48.7389 46.0519 48.9938 46.0432 49.269C45.9814 51.2007 45.7868 53.3522 45.465 55.663C45.2599 57.1361 43.9874 58.242 42.501 58.242H42.485C41.0288 58.2342 39.7727 57.1242 39.5361 55.6479C39.3791 54.5154 39.2523 53.4177 39.1584 52.3845C39.1081 51.8384 39.0664 51.3097 39.0339 50.8125C38.9996 50.2751 38.9744 49.7492 38.9584 49.2493C38.9433 48.7641 38.5327 48.38 38.0525 48.3988C37.5672 48.4139 37.1864 48.8199 37.2015 49.3047C37.218 49.8233 37.2441 50.3685 37.2798 50.9251C37.2935 51.1389 37.3091 51.3582 37.3265 51.5816C37.2006 51.5843 37.0751 51.5862 36.9511 51.5862H25.5299C24.9426 51.5862 24.3329 51.5518 23.7167 51.4841C23.4819 51.458 23.2466 51.528 23.064 51.6777C22.8813 51.8269 22.7664 52.0439 22.7454 52.2792C22.6474 53.371 22.516 54.5094 22.3553 55.663C22.1507 57.1333 20.8768 58.242 19.3918 58.242C17.9073 58.242 16.6329 57.1333 16.4282 55.663C16.4246 55.6387 16.4214 55.6145 16.4182 55.5902C16.4168 55.5815 16.4154 55.5724 16.4145 55.5637C16.4131 55.5554 16.4122 55.5472 16.4108 55.5389C16.2369 54.2714 16.0364 52.5649 15.922 50.7585C15.6958 47.1111 15.9476 44.9166 16.1655 43.7923C16.2575 43.3158 15.9462 42.8548 15.4697 42.7623C14.9927 42.6703 14.5317 42.9816 14.4397 43.4581C14.2337 44.5215 14.1248 45.7035 14.0863 46.9348C10.9209 43.8655 9.13105 39.6889 9.11915 35.2198C9.11869 35.1475 9.11915 35.0756 9.12006 35.0033C9.12006 35.0028 9.12006 35.0023 9.12006 35.0019C9.12006 34.9936 9.12006 34.9854 9.12006 34.9772C9.14798 32.6783 9.65747 30.4545 10.6371 28.3634C10.8431 27.9235 10.6536 27.4003 10.2141 27.1943C9.7742 26.9888 9.25144 27.1783 9.04545 27.6177C8.0814 29.6758 7.52751 31.8502 7.39338 34.0955C4.85967 34.1358 3.07852 34.6741 1.8247 35.7668C0.566316 36.8663 0.063693 38.4351 0.513673 39.8619C1.18521 41.9905 3.65713 42.7047 5.15767 41.1734C5.69463 40.6255 5.95097 39.9086 5.86125 39.206C5.79945 38.7244 5.36 38.3847 4.87798 38.4456C4.39641 38.507 4.05584 38.9473 4.11764 39.4289C4.14785 39.6642 3.9771 39.867 3.90249 39.943C3.70519 40.1444 3.4255 40.2584 3.19067 40.2332C2.72604 40.1833 2.3525 39.8468 2.19046 39.3332C1.95013 38.5715 2.24585 37.7334 2.98055 37.0916C3.88647 36.3015 5.3275 35.895 7.3737 35.8547C7.56596 41.1139 9.98661 45.9584 14.0904 49.2859C14.1577 51.4525 14.3866 53.7505 14.6869 55.9051C15.0119 58.2397 17.0348 59.9998 19.3918 59.9998C21.7488 59.9998 23.7712 58.2397 24.0962 55.9051C24.2184 55.0272 24.3242 54.157 24.4116 53.3083C24.7897 53.3321 25.1633 53.344 25.5299 53.344H36.9506C37.1269 53.344 37.3049 53.3412 37.4839 53.3362C37.5682 54.1492 37.6689 54.9823 37.7847 55.8214C37.7883 55.8488 37.7925 55.8768 37.797 55.9042V55.9051C37.7984 55.9138 37.7998 55.9225 37.8012 55.9312C38.1747 58.2461 40.165 59.9875 42.4754 59.9998C42.4841 59.9998 42.4923 60.0003 42.501 59.9998C44.8599 59.9998 46.88 58.2439 47.2059 55.9056C47.5126 53.7029 47.7067 51.637 47.784 49.7569C48.7128 49.0653 49.5771 48.2839 50.3585 47.4292C50.6863 47.0708 50.6615 46.5151 50.3031 46.1873Z" fill="black"/>
<path d="M27.6293 15.5263H26.4149C26.1489 15.5263 25.9324 15.3098 25.9324 15.0439C25.9324 14.7784 26.1489 14.5618 26.4149 14.5618H28.7389C29.2246 14.5618 29.6178 14.1686 29.6178 13.6829C29.6178 13.1977 29.2246 12.804 28.7389 12.804H28.0317V12.3691C28.0317 11.8835 27.6385 11.4902 27.1528 11.4902C26.6675 11.4902 26.2739 11.8835 26.2739 12.3691V12.8086C25.1043 12.8814 24.1746 13.8564 24.1746 15.0443C24.1746 16.2794 25.1794 17.2841 26.4149 17.2841H27.6293C27.8948 17.2841 28.1113 17.5007 28.1113 17.7662C28.1113 18.0321 27.8948 18.2482 27.6293 18.2482H25.3048C24.8195 18.2482 24.4259 18.6419 24.4259 19.1271C24.4259 19.6128 24.8195 20.006 25.3048 20.006H26.2739V20.4413C26.2739 20.9266 26.6675 21.3203 27.1528 21.3203C27.6385 21.3203 28.0317 20.9266 28.0317 20.4413V19.9698C29.0754 19.7799 29.8691 18.8639 29.8691 17.7662C29.8691 16.5311 28.8643 15.5263 27.6293 15.5263Z" fill="#FD983A"/>
<path d="M11.1635 16.122C15.6084 16.122 19.2248 12.5061 19.2248 8.06076C19.2248 3.61588 15.6084 0 11.1635 0C9.54855 0 7.98987 0.476074 6.65594 1.37741C6.25357 1.64886 6.14783 2.19498 6.41974 2.59735C6.69119 2.99973 7.23776 3.10547 7.64014 2.83401C8.68201 2.12997 9.90057 1.75781 11.1635 1.75781C14.6393 1.75781 17.4669 4.58542 17.4669 8.06076C17.4669 11.5366 14.6393 14.3642 11.1635 14.3642C7.6882 14.3642 4.8606 11.5366 4.8606 8.06076C4.8606 7.05276 5.09131 6.09009 5.54587 5.19928C5.76651 4.76715 5.59531 4.23752 5.16272 4.01688C4.73059 3.79623 4.20142 3.96744 3.98032 4.40002C3.40628 5.52429 3.10278 6.79047 3.10278 8.06076C3.10278 12.5061 6.71866 16.122 11.1635 16.122Z" fill="black"/>
<path d="M11.2945 3.146C10.8093 3.146 10.4156 3.53922 10.4156 4.0249V4.46436C9.24603 4.53714 8.31677 5.51218 8.31677 6.70007C8.31677 7.93512 9.32111 8.93991 10.5566 8.93991H11.7711C12.0366 8.93991 12.2531 9.15598 12.2531 9.42194C12.2531 9.6879 12.0366 9.90396 11.7711 9.90396H9.44699C8.9613 9.90396 8.56808 10.2972 8.56808 10.7829C8.56808 11.2686 8.9613 11.6618 9.44699 11.6618H10.4161V12.0966C10.4161 12.5823 10.8093 12.9756 11.295 12.9756C11.7802 12.9756 12.1739 12.5823 12.1739 12.0966V11.6256C13.2171 11.4356 14.0109 10.5197 14.0109 9.42194C14.0109 8.18689 13.0061 7.1821 11.7711 7.1821H10.5566C10.2906 7.1821 10.0746 6.96558 10.0746 6.70007C10.0746 6.43411 10.2906 6.21805 10.5566 6.21805H12.8807C13.3664 6.21805 13.7596 5.82437 13.7596 5.33914C13.7596 4.85345 13.3664 4.46024 12.8807 4.46024H12.1739V4.0249C12.1734 3.53922 11.7802 3.146 11.2945 3.146Z" fill="#FD983A"/>
</g>
<defs>
<clipPath id="clip0">
<rect width="60" height="60" fill="white"/>
</clipPath>
</defs>
</svg>
