<svg width="47" height="47" viewBox="0 0 47 47" fill="none" xmlns="http://www.w3.org/2000/svg">
<g clip-path="url(#clip0)">
<path d="M13.4062 28.8574C14.1474 28.8558 14.7493 28.2512 14.7476 27.51L14.737 22.746C14.7354 22.0048 14.1308 21.4029 13.3896 21.4046L6.09982 21.4208C5.35859 21.4225 4.75671 22.027 4.75836 22.7683L4.76897 27.5322C4.77062 28.2734 5.37518 28.8753 6.11641 28.8737L13.4062 28.8574ZM6.08733 27.5293L6.07672 22.7657C6.07669 22.7513 6.08834 22.7392 6.10275 22.7392L13.3925 22.7229C13.4069 22.7229 13.4186 22.7349 13.4187 22.7493L13.4293 27.5129C13.4293 27.5273 13.4177 27.539 13.4032 27.5391L6.11348 27.5553C6.09906 27.5553 6.08736 27.5437 6.08733 27.5293Z" fill="black"/>
<path d="M7.64258 24.7748L9.04883 24.7716C9.41309 24.7708 9.70735 24.4749 9.70654 24.111C9.70573 23.7471 9.41016 23.4525 9.04589 23.4533L7.63965 23.4564C7.27573 23.4572 6.98113 23.7531 6.98194 24.1171C6.98275 24.481 7.27866 24.7756 7.64258 24.7748Z" fill="black"/>
<path d="M7.64722 26.8313L11.8663 26.8219C12.2302 26.8211 12.5248 26.5255 12.524 26.1613C12.5232 25.7974 12.2273 25.5028 11.8634 25.5036L7.64429 25.513C7.28036 25.5138 6.98576 25.8097 6.98657 26.1736C6.98739 26.5379 7.2833 26.8321 7.64722 26.8313Z" fill="black"/>
<path d="M42.788 18.9414C42.5183 18.6972 42.1012 18.718 41.857 18.9881C41.6128 19.2578 41.6337 19.6749 41.9037 19.9191C43.664 21.5116 44.6768 23.7863 44.6821 26.1593L44.6846 27.2882L36.8005 27.3057C36.5063 27.3064 36.2337 27.16 36.0718 26.9142L34.8058 24.992C34.3986 24.3739 33.7136 24.0057 32.9734 24.0074L32.0955 24.0093C31.6155 24.0104 31.2243 23.6209 31.2232 23.1413L31.2112 17.7504L36.2248 17.7393C37.5047 17.7364 38.7344 18.0128 39.8799 18.5606C40.2081 18.7178 40.6016 18.5789 40.7588 18.2503C40.916 17.9221 40.7771 17.5286 40.4485 17.3714C39.1233 16.7375 37.7012 16.4176 36.2218 16.4209L27.8005 16.4397C27.6055 16.4401 27.4174 16.4704 27.2407 16.5264L27.2205 7.4572C27.2182 6.41522 26.3686 5.56944 25.3267 5.57176L3.74614 5.61981C2.70416 5.62213 1.85838 6.47168 1.8607 7.51366L1.91227 30.6742C1.40599 30.7299 1.01144 31.1606 1.0126 31.6811L1.02024 35.115C1.02148 35.6722 1.47602 36.1247 2.03323 36.1235L3.28052 36.1207C3.64478 36.1199 3.93904 35.824 3.93823 35.46C3.93742 35.0961 3.64185 34.8015 3.27758 34.8023L2.33791 34.8044L2.33164 31.9857L6.74332 31.9759C5.81793 32.9922 5.25411 34.343 5.2574 35.8227C5.2644 38.9652 7.82646 41.5158 10.9689 41.5089C14.0128 41.5021 16.5017 39.0977 16.6481 36.0909L28.4821 36.0646C28.846 36.0638 29.1406 35.7679 29.1398 35.4039C29.139 35.04 28.843 34.7454 28.4791 34.7462L27.2809 34.7489L27.2732 31.2903C27.2732 31.2841 27.2735 31.2776 27.2735 31.271L27.2447 18.3021C27.2533 18.0013 27.5003 17.7587 27.8034 17.758L29.8929 17.7534L29.9049 23.1442C29.9076 24.3506 30.8913 25.3304 32.0981 25.3277L32.976 25.3257C33.2702 25.3251 33.5428 25.4714 33.7047 25.7172L34.9707 27.6394C35.3782 28.2575 36.0629 28.6257 36.8035 28.6241L44.6875 28.6065L44.6998 34.1495C44.7005 34.4585 44.4494 34.7107 44.1404 34.7114L41.7211 34.7167C41.2311 32.0629 38.8964 30.049 36.1042 30.0552C32.9618 30.0622 30.4111 32.6243 30.4181 35.7667C30.4251 38.9091 32.9872 41.4598 36.1296 41.4528C39.1731 41.4461 41.662 39.0417 41.8088 36.0349L44.1434 36.0297C45.1795 36.0274 46.0205 35.1827 46.0182 34.1465L46.0004 26.1564C45.9943 23.4126 44.8235 20.7829 42.788 18.9414V18.9414ZM15.152 31.9572L25.9563 31.9332L25.9626 34.7518L16.5604 34.7728C16.3623 33.6989 15.8623 32.7302 15.152 31.9572ZM3.23061 30.6654L3.17906 7.51072C3.17836 7.19555 3.43391 6.93887 3.74908 6.93816L10.1352 6.92395L10.1406 9.35844C10.1414 9.72271 10.4374 10.017 10.8013 10.0162C11.1652 10.0153 11.4598 9.71977 11.459 9.35551L11.4536 6.92135L17.6244 6.90762L17.6398 13.7898L16.9141 13.2463C16.6263 13.0306 16.2246 13.0315 15.9374 13.2484L14.5565 14.2925L13.1695 13.2546C12.8813 13.0389 12.48 13.0398 12.1931 13.2568L11.4689 13.8039L11.4649 11.9922C11.464 11.6283 11.1685 11.3337 10.8042 11.3345C10.4403 11.3353 10.1457 11.6312 10.1465 11.9952L10.1528 14.8207C10.1535 15.1304 10.3264 15.4084 10.6038 15.5465C10.8815 15.6842 11.2076 15.654 11.4547 15.467L12.6842 14.538L14.0714 15.5766C14.2152 15.684 14.3877 15.7376 14.5597 15.7372C14.732 15.7368 14.9042 15.6825 15.0479 15.5737L16.4288 14.5297L17.6617 15.4529C17.9096 15.6387 18.2358 15.6679 18.5126 15.5289C18.7897 15.3896 18.9614 15.1108 18.9607 14.8011L18.9431 6.90434L25.3296 6.89012C25.6444 6.88942 25.9015 7.14497 25.9022 7.46013L25.9263 18.2909C25.926 18.3012 25.926 18.3119 25.926 18.3225L25.9534 30.6148L13.3593 30.6428C12.6248 30.3001 11.8063 30.1093 10.9435 30.1113C10.0811 30.1132 9.26304 30.3076 8.53047 30.6536L3.23061 30.6654ZM10.966 40.1905C8.55068 40.1959 6.58113 38.2351 6.57576 35.8198C6.57038 33.4042 8.53118 31.435 10.9464 31.4296C13.3902 31.4242 15.3313 33.4146 15.3366 35.8003C15.342 38.2156 13.3816 40.1851 10.966 40.1905V40.1905ZM36.1266 40.1345C33.711 40.1399 31.7418 38.1791 31.7364 35.7638C31.7311 33.3482 33.6915 31.379 36.1071 31.3736C38.4101 31.3685 40.3075 33.1506 40.4839 35.4103C40.4843 35.4199 40.485 35.4298 40.486 35.4394C40.4931 35.54 40.4968 35.6416 40.497 35.7439C40.5027 38.1596 38.5419 40.1291 36.1266 40.1345V40.1345Z" fill="black"/>
<path d="M36.1115 33.3213C34.7698 33.3242 33.6808 34.4178 33.6838 35.7595C33.6867 37.1008 34.7806 38.1898 36.1223 38.1868C37.4637 38.1838 38.5526 37.09 38.5497 35.7486C38.5467 34.4069 37.4528 33.3183 36.1115 33.3213V33.3213ZM36.1194 36.8685C35.5048 36.8698 35.0035 36.3711 35.0021 35.7565C35.0007 35.142 35.4999 34.6406 36.1144 34.6393C36.7289 34.6379 37.2299 35.137 37.2313 35.7516C37.2327 36.3661 36.7339 36.8671 36.1194 36.8685V36.8685Z" fill="#FD983A"/>
<path d="M10.9508 33.3773C9.60949 33.3803 8.5205 34.4738 8.52348 35.8155C8.52647 37.1568 9.62032 38.2458 10.9617 38.2428C12.3034 38.2398 13.392 37.146 13.389 35.8046C13.3861 34.4629 12.2922 33.3743 10.9508 33.3773ZM10.9587 36.9245C10.3442 36.9258 9.84321 36.4271 9.84184 35.8125C9.84047 35.198 10.3392 34.6967 10.9538 34.6953C11.5683 34.6939 12.0693 35.193 12.0707 35.8076C12.0721 36.4221 11.5733 36.9231 10.9587 36.9245V36.9245Z" fill="#FD983A"/>
</g>
<defs>
<clipPath id="clip0">
<rect width="45" height="45" fill="white" transform="translate(0.944458 1.05573) rotate(-0.127557)"/>
</clipPath>
</defs>
</svg>
