<svg width="45" height="45" viewBox="0 0 45 45" fill="none" xmlns="http://www.w3.org/2000/svg">
<path d="M42.7472 38.8909C42.7483 38.858 42.7488 38.8254 42.7488 38.7931C42.748 37.9703 42.4316 37.1815 41.8692 36.5997C41.3068 36.0178 40.5443 35.6906 39.749 35.6897V21.3362L42.4489 19.2414C42.5426 19.1686 42.6186 19.0741 42.6707 18.9655C42.7228 18.8569 42.7495 18.7371 42.7488 18.6159C42.7481 18.4946 42.7199 18.3752 42.6665 18.2673C42.6131 18.1593 42.536 18.0658 42.4414 17.9943L35.9992 13.1239V4.65517C36.1981 4.65517 36.3889 4.57343 36.5295 4.42793C36.6702 4.28242 36.7492 4.08508 36.7492 3.87931V0.775862C36.7492 0.570091 36.6702 0.372747 36.5295 0.227245C36.3889 0.0817424 36.1981 0 35.9992 0H28.4997C28.3008 0 28.11 0.0817424 27.9694 0.227245C27.8287 0.372747 27.7497 0.570091 27.7497 0.775862V3.87931C27.7497 4.08508 27.8287 4.28242 27.9694 4.42793C28.11 4.57343 28.3008 4.65517 28.4997 4.65517V7.45419L22.9425 3.2529C22.814 3.1558 22.6591 3.10347 22.5 3.10347C22.3409 3.10347 22.186 3.1558 22.0575 3.2529L2.55863 17.9943C2.464 18.0658 2.38689 18.1593 2.3335 18.2673C2.2801 18.3752 2.25191 18.4946 2.25118 18.6159C2.25045 18.7371 2.27721 18.8569 2.3293 18.9655C2.38139 19.0741 2.45737 19.1686 2.55114 19.2414L5.25098 21.3362V35.6897C4.45565 35.6906 3.69315 36.0178 3.13077 36.5997C2.56838 37.1815 2.25205 37.9703 2.25115 38.7931C2.25115 38.8254 2.25171 38.858 2.25284 38.8909C1.54534 39.0791 0.928528 39.5279 0.518135 40.1531C0.107742 40.7783 -0.0680275 41.5369 0.0238046 42.2867C0.115637 43.0364 0.468759 43.7258 1.01692 44.2253C1.56508 44.7249 2.2706 45.0003 3.00111 45H41.9989C42.7294 45.0003 43.4349 44.7249 43.9831 44.2253C44.5312 43.7258 44.8844 43.0364 44.9762 42.2867C45.068 41.5369 44.8923 40.7783 44.4819 40.1531C44.0715 39.5279 43.4547 39.0791 42.7472 38.8909ZM29.2496 1.55172H35.2493V3.10345H29.2496V1.55172ZM29.9996 8.53448V4.65517H34.4993V11.99L29.9286 8.53448H29.9996ZM22.5 4.84022L40.7385 18.6288L38.9922 19.9838L22.9412 7.907C22.813 7.81053 22.6585 7.75857 22.5 7.75857C22.3415 7.75857 22.187 7.81053 22.0588 7.907L6.00778 19.9838L4.26151 18.6288L22.5 4.84022ZM1.50119 41.8966C1.50161 41.4892 1.65669 41.0982 1.93304 40.808C2.20938 40.5177 2.58487 40.3514 2.97861 40.3448H2.98039C3.01873 40.3504 3.05708 40.3551 3.09617 40.3577C3.22045 40.3658 3.34472 40.3418 3.45778 40.2878C3.57084 40.2338 3.66911 40.1515 3.74375 40.0484C3.81838 39.9453 3.86701 39.8245 3.88526 39.6971C3.90351 39.5697 3.8908 39.4395 3.84828 39.3185C3.78622 39.1506 3.75331 38.9728 3.75107 38.7931C3.75154 38.3817 3.90972 37.9873 4.1909 37.6964C4.47209 37.4055 4.85332 37.2419 5.25098 37.2414V43.4483H3.00111C2.60345 43.4478 2.22222 43.2841 1.94103 42.9932C1.65984 42.7024 1.50167 42.3079 1.50119 41.8966ZM33.7494 43.4483H24.7499V26.3793H33.7494V43.4483ZM35.2493 43.4483V25.6034C35.2493 25.3977 35.1703 25.2003 35.0296 25.0548C34.889 24.9093 34.6982 24.8276 34.4993 24.8276H23.9999C23.801 24.8276 23.6103 24.9093 23.4696 25.0548C23.329 25.2003 23.25 25.3977 23.25 25.6034V43.4483H6.7509V21.3434L22.5 9.49384L38.2491 21.3434V43.4483H35.2493ZM41.9989 43.4483H39.749V37.2414C40.1467 37.2419 40.5279 37.4055 40.8091 37.6964C41.0903 37.9873 41.2485 38.3817 41.2489 38.7931C41.2467 38.9729 41.2138 39.1509 41.1517 39.3188C41.1092 39.4399 41.0965 39.5701 41.1147 39.6975C41.133 39.8249 41.1816 39.9457 41.2563 40.0488C41.3309 40.1519 41.4292 40.2342 41.5422 40.2882C41.6553 40.3422 41.7796 40.3662 41.9038 40.3581C41.9429 40.3555 41.9813 40.3507 42.0196 40.3452H42.0214C42.4192 40.3483 42.7995 40.5147 43.0787 40.8079C43.3579 41.1011 43.513 41.497 43.5101 41.9086C43.5071 42.3201 43.3462 42.7136 43.0628 43.0024C42.7794 43.2912 42.3967 43.4514 41.9989 43.4483Z" fill="black"/>
<path d="M19.5002 24.8277H10.5007C10.3018 24.8277 10.111 24.9094 9.97039 25.0549C9.82975 25.2004 9.75073 25.3977 9.75073 25.6035V36.4656C9.75073 36.6714 9.82975 36.8687 9.97039 37.0142C10.111 37.1597 10.3018 37.2415 10.5007 37.2415H19.5002C19.6991 37.2415 19.8898 37.1597 20.0305 37.0142C20.1711 36.8687 20.2501 36.6714 20.2501 36.4656V25.6035C20.2501 25.3977 20.1711 25.2004 20.0305 25.0549C19.8898 24.9094 19.6991 24.8277 19.5002 24.8277ZM18.7502 30.2587H15.7504V26.3794H18.7502V30.2587ZM14.2505 26.3794V30.2587H11.2506V26.3794H14.2505ZM11.2506 31.8104H14.2505V35.6897H11.2506V31.8104ZM15.7504 35.6897V31.8104H18.7502V35.6897H15.7504Z" fill="#F69F1C"/>
<path d="M27.6927 34.4349C27.8512 34.039 27.6694 33.5852 27.2868 33.4212C26.9041 33.2572 26.4654 33.4452 26.3069 33.8411C26.1484 34.237 26.3301 34.6909 26.7128 34.8548C27.0954 35.0188 27.5341 34.8308 27.6927 34.4349Z" fill="black"/>
</svg>
