<svg width="147" height="50" viewBox="0 0 147 50" fill="none" xmlns="http://www.w3.org/2000/svg">
<path d="M18.6475 20.8955C18.4814 23.1904 17.6318 24.9971 16.0986 26.3154C14.5752 27.6338 12.5635 28.293 10.0635 28.293C7.3291 28.293 5.17578 27.375 3.60352 25.5391C2.04102 23.6934 1.25977 21.1641 1.25977 17.9512V16.6475C1.25977 14.5967 1.62109 12.79 2.34375 11.2275C3.06641 9.66504 4.09668 8.46875 5.43457 7.63867C6.78223 6.79883 8.34473 6.37891 10.1221 6.37891C12.583 6.37891 14.5654 7.03809 16.0693 8.35645C17.5732 9.6748 18.4424 11.5254 18.6768 13.9082H14.2822C14.1748 12.5312 13.7891 11.5352 13.125 10.9199C12.4707 10.2949 11.4697 9.98242 10.1221 9.98242C8.65723 9.98242 7.55859 10.5098 6.82617 11.5645C6.10352 12.6094 5.73242 14.2354 5.71289 16.4424V18.0537C5.71289 20.3584 6.05957 22.043 6.75293 23.1074C7.45605 24.1719 8.55957 24.7041 10.0635 24.7041C11.4209 24.7041 12.4316 24.3965 13.0957 23.7812C13.7695 23.1562 14.1553 22.1943 14.2529 20.8955H18.6475ZM25.7227 28H21.4746V5.5H25.7227V28ZM36.5186 28.293C34.1943 28.293 32.2998 27.5801 30.835 26.1543C29.3799 24.7285 28.6523 22.8291 28.6523 20.4561V20.0459C28.6523 18.4541 28.96 17.0332 29.5752 15.7832C30.1904 14.5234 31.0596 13.5566 32.1826 12.8828C33.3154 12.1992 34.6045 11.8574 36.0498 11.8574C38.2178 11.8574 39.9219 12.541 41.1621 13.9082C42.4121 15.2754 43.0371 17.2139 43.0371 19.7236V21.4521H32.9443C33.0811 22.4873 33.4912 23.3174 34.1748 23.9424C34.8682 24.5674 35.7422 24.8799 36.7969 24.8799C38.4277 24.8799 39.7021 24.2891 40.6201 23.1074L42.7002 25.4365C42.0654 26.335 41.2061 27.0381 40.1221 27.5459C39.0381 28.0439 37.8369 28.293 36.5186 28.293ZM36.0352 15.2852C35.1953 15.2852 34.5117 15.5684 33.9844 16.1348C33.4668 16.7012 33.1348 17.5117 32.9883 18.5664H38.877V18.2295C38.8574 17.292 38.6035 16.5693 38.1152 16.0615C37.627 15.5439 36.9336 15.2852 36.0352 15.2852ZM54.6387 28C54.4434 27.6191 54.3018 27.1455 54.2139 26.5791C53.1885 27.7217 51.8555 28.293 50.2148 28.293C48.6621 28.293 47.373 27.8438 46.3477 26.9453C45.332 26.0469 44.8242 24.9141 44.8242 23.5469C44.8242 21.8672 45.4443 20.5781 46.6846 19.6797C47.9346 18.7812 49.7363 18.3271 52.0898 18.3174H54.0381V17.4092C54.0381 16.6768 53.8477 16.0908 53.4668 15.6514C53.0957 15.2119 52.5049 14.9922 51.6943 14.9922C50.9814 14.9922 50.4199 15.1631 50.0098 15.5049C49.6094 15.8467 49.4092 16.3154 49.4092 16.9111H45.1758C45.1758 15.9932 45.459 15.1436 46.0254 14.3623C46.5918 13.5811 47.3926 12.9707 48.4277 12.5312C49.4629 12.082 50.625 11.8574 51.9141 11.8574C53.8672 11.8574 55.415 12.3506 56.5576 13.3369C57.71 14.3135 58.2861 15.6904 58.2861 17.4678V24.3379C58.2959 25.8418 58.5059 26.9795 58.916 27.751V28H54.6387ZM51.1377 25.0557C51.7627 25.0557 52.3389 24.9189 52.8662 24.6455C53.3936 24.3623 53.7842 23.9863 54.0381 23.5176V20.793H52.4561C50.3369 20.793 49.209 21.5254 49.0723 22.9902L49.0576 23.2393C49.0576 23.7666 49.2432 24.2012 49.6143 24.543C49.9854 24.8848 50.4932 25.0557 51.1377 25.0557ZM65.4346 12.1504L65.5664 13.9814C66.6992 12.5654 68.2178 11.8574 70.1221 11.8574C71.8018 11.8574 73.0518 12.3506 73.8721 13.3369C74.6924 14.3232 75.1123 15.7979 75.1318 17.7607V28H70.8984V17.8633C70.8984 16.9648 70.7031 16.3154 70.3125 15.915C69.9219 15.5049 69.2725 15.2998 68.3643 15.2998C67.1729 15.2998 66.2793 15.8076 65.6836 16.8232V28H61.4502V12.1504H65.4346ZM92.1387 28H88.623V20.6875H81.7676V28H78.252V10.9375H81.7676V17.8516H88.623V10.9375H92.1387V28ZM94.4707 21.543C94.4707 20.2852 94.7129 19.1641 95.1973 18.1797C95.6816 17.1953 96.377 16.4336 97.2832 15.8945C98.1973 15.3555 99.2559 15.0859 100.459 15.0859C102.17 15.0859 103.564 15.6094 104.643 16.6562C105.729 17.7031 106.334 19.125 106.459 20.9219L106.482 21.7891C106.482 23.7344 105.939 25.2969 104.854 26.4766C103.768 27.6484 102.311 28.2344 100.482 28.2344C98.6543 28.2344 97.1934 27.6484 96.0996 26.4766C95.0137 25.3047 94.4707 23.7109 94.4707 21.6953V21.543ZM97.8574 21.7891C97.8574 22.9922 98.084 23.9141 98.5371 24.5547C98.9902 25.1875 99.6387 25.5039 100.482 25.5039C101.303 25.5039 101.943 25.1914 102.404 24.5664C102.865 23.9336 103.096 22.9258 103.096 21.543C103.096 20.3633 102.865 19.4492 102.404 18.8008C101.943 18.1523 101.295 17.8281 100.459 17.8281C99.6309 17.8281 98.9902 18.1523 98.5371 18.8008C98.084 19.4414 97.8574 20.4375 97.8574 21.7891ZM116.162 26.7109C115.326 27.7266 114.17 28.2344 112.693 28.2344C111.334 28.2344 110.295 27.8438 109.576 27.0625C108.865 26.2812 108.502 25.1367 108.486 23.6289V15.3203H111.873V23.5117C111.873 24.832 112.475 25.4922 113.678 25.4922C114.826 25.4922 115.615 25.0938 116.045 24.2969V15.3203H119.443V28H116.256L116.162 26.7109ZM128.865 24.4961C128.865 24.082 128.658 23.7578 128.244 23.5234C127.838 23.2812 127.182 23.0664 126.275 22.8789C123.26 22.2461 121.752 20.9648 121.752 19.0352C121.752 17.9102 122.217 16.9727 123.146 16.2227C124.084 15.4648 125.307 15.0859 126.814 15.0859C128.424 15.0859 129.709 15.4648 130.67 16.2227C131.639 16.9805 132.123 17.9648 132.123 19.1758H128.736C128.736 18.6914 128.58 18.293 128.268 17.9805C127.955 17.6602 127.467 17.5 126.803 17.5C126.232 17.5 125.791 17.6289 125.479 17.8867C125.166 18.1445 125.01 18.4727 125.01 18.8711C125.01 19.2461 125.186 19.5508 125.537 19.7852C125.896 20.0117 126.498 20.2109 127.342 20.3828C128.186 20.5469 128.896 20.7344 129.475 20.9453C131.264 21.6016 132.158 22.7383 132.158 24.3555C132.158 25.5117 131.662 26.4492 130.67 27.168C129.678 27.8789 128.396 28.2344 126.826 28.2344C125.764 28.2344 124.818 28.0469 123.99 27.6719C123.17 27.2891 122.525 26.7695 122.057 26.1133C121.588 25.4492 121.354 24.7344 121.354 23.9688H124.564C124.596 24.5703 124.818 25.0312 125.232 25.3516C125.646 25.6719 126.201 25.832 126.896 25.832C127.545 25.832 128.033 25.7109 128.361 25.4688C128.697 25.2188 128.865 24.8945 128.865 24.4961ZM140.186 28.2344C138.326 28.2344 136.811 27.6641 135.639 26.5234C134.475 25.3828 133.893 23.8633 133.893 21.9648V21.6367C133.893 20.3633 134.139 19.2266 134.631 18.2266C135.123 17.2188 135.818 16.4453 136.717 15.9062C137.623 15.3594 138.654 15.0859 139.811 15.0859C141.545 15.0859 142.908 15.6328 143.9 16.7266C144.9 17.8203 145.4 19.3711 145.4 21.3789V22.7617H137.326C137.436 23.5898 137.764 24.2539 138.311 24.7539C138.865 25.2539 139.564 25.5039 140.408 25.5039C141.713 25.5039 142.732 25.0312 143.467 24.0859L145.131 25.9492C144.623 26.668 143.936 27.2305 143.068 27.6367C142.201 28.0352 141.24 28.2344 140.186 28.2344ZM139.799 17.8281C139.127 17.8281 138.58 18.0547 138.158 18.5078C137.744 18.9609 137.479 19.6094 137.361 20.4531H142.072V20.1836C142.057 19.4336 141.854 18.8555 141.463 18.4492C141.072 18.0352 140.518 17.8281 139.799 17.8281Z" fill="white"/>
<path d="M2.882 42.8809C2.882 41.7649 3.212 40.8949 3.872 40.2709C4.532 39.6469 5.51 39.3349 6.806 39.3349C8.822 39.3349 10.076 40.1449 10.568 41.7649C10.64 41.9929 10.568 42.1489 10.352 42.2329L9.884 42.3949C9.668 42.4669 9.518 42.3949 9.434 42.1789C9.242 41.5669 8.936 41.1229 8.516 40.8469C8.108 40.5589 7.526 40.4149 6.77 40.4149C5.894 40.4149 5.228 40.6309 4.772 41.0629C4.316 41.4829 4.088 42.0769 4.088 42.8449V45.5989C4.088 46.3669 4.316 46.9669 4.772 47.3989C5.24 47.8309 5.906 48.0469 6.77 48.0469C8.174 48.0469 9.068 47.4289 9.452 46.1929C9.536 45.9889 9.692 45.9169 9.92 45.9769L10.388 46.1209C10.616 46.2049 10.688 46.3609 10.604 46.5889C10.052 48.2689 8.762 49.1089 6.734 49.1089C5.474 49.1089 4.514 48.7969 3.854 48.1729C3.206 47.5489 2.882 46.6789 2.882 45.5629V42.8809ZM12.1097 43.1329C12.1097 41.9329 12.4457 41.0029 13.1177 40.3429C13.8017 39.6709 14.7917 39.3349 16.0877 39.3349C17.3957 39.3349 18.3857 39.6769 19.0577 40.3609C19.7417 41.0329 20.0837 41.9329 20.0837 43.0609V44.0509C20.0837 44.3869 19.9037 44.5549 19.5437 44.5549H13.3157V45.5989C13.3157 46.3789 13.5437 46.9849 13.9997 47.4169C14.4677 47.8489 15.1397 48.0649 16.0157 48.0649C17.3477 48.0649 18.2897 47.5669 18.8417 46.5709C18.9857 46.3789 19.1597 46.3369 19.3637 46.4449L19.7417 46.6429C19.9697 46.7629 20.0117 46.9369 19.8677 47.1649C19.1477 48.4609 17.8637 49.1089 16.0157 49.1089C14.7077 49.1089 13.7297 48.7849 13.0817 48.1369C12.4337 47.4889 12.1097 46.6009 12.1097 45.4729V43.1329ZM18.8777 42.9889C18.8777 42.1729 18.6377 41.5369 18.1577 41.0809C17.6897 40.6129 16.9997 40.3789 16.0877 40.3789C15.1877 40.3789 14.4977 40.6129 14.0177 41.0809C13.5497 41.5369 13.3157 42.1729 13.3157 42.9889V43.6189H18.8777V42.9889ZM28.2443 39.6049C28.3763 39.6049 28.4603 39.6289 28.4963 39.6769C28.5443 39.7249 28.5683 39.8089 28.5683 39.9289V40.3969C28.5683 40.6129 28.4603 40.7209 28.2443 40.7209H25.4003V48.5329C25.4003 48.7489 25.2923 48.8569 25.0763 48.8569H24.5183C24.3023 48.8569 24.1943 48.7489 24.1943 48.5329V40.7209H21.3143C21.0983 40.7209 20.9903 40.6129 20.9903 40.3969V39.9289C20.9903 39.7129 21.0983 39.6049 21.3143 39.6049H28.2443ZM34.3502 42.5209C35.3582 42.5209 36.1502 42.7969 36.7262 43.3489C37.3022 43.9009 37.5902 44.6749 37.5902 45.6709C37.5902 46.6789 37.3022 47.4649 36.7262 48.0289C36.1622 48.5809 35.3702 48.8569 34.3502 48.8569H30.3362C30.1202 48.8569 30.0122 48.7489 30.0122 48.5329V39.9289C30.0122 39.7129 30.1202 39.6049 30.3362 39.6049H30.9122C31.1282 39.6049 31.2362 39.7129 31.2362 39.9289V42.5209H34.3502ZM34.2062 47.7589C34.8782 47.7589 35.4002 47.5789 35.7722 47.2189C36.1442 46.8469 36.3302 46.3309 36.3302 45.6709C36.3302 45.0229 36.1442 44.5189 35.7722 44.1589C35.4002 43.7989 34.8782 43.6189 34.2062 43.6189H31.2362V47.7589H34.2062ZM50.3694 39.6049C50.6814 39.6049 50.7534 39.7249 50.5854 39.9649L47.5074 44.1049L50.7834 48.4969C50.9514 48.7369 50.8734 48.8569 50.5494 48.8569H50.0094C49.7454 48.8569 49.5534 48.7669 49.4334 48.5869L46.7334 44.9689L44.0514 48.5869C43.9434 48.7669 43.7514 48.8569 43.4754 48.8569H42.9714C42.6354 48.8569 42.5574 48.7369 42.7374 48.4969L46.0134 44.1049L42.8814 39.9649C42.7254 39.7249 42.8094 39.6049 43.1334 39.6049H43.6374C43.9134 39.6049 44.1114 39.6949 44.2314 39.8749L46.7514 43.2229L49.2714 39.8749C49.3554 39.7549 49.4274 39.6829 49.4874 39.6589C49.5474 39.6229 49.6614 39.6049 49.8294 39.6049H50.3694ZM53.2189 39.6049C53.4349 39.6049 53.5429 39.7129 53.5429 39.9289V45.1309C53.5429 45.8029 53.4769 46.5049 53.3449 47.2369H53.3809C53.6449 46.7329 53.9569 46.2409 54.3169 45.7609L58.8529 39.7669C58.9249 39.6589 59.0269 39.6049 59.1589 39.6049H59.7349C59.9509 39.6049 60.0589 39.7129 60.0589 39.9289V48.5329C60.0589 48.7489 59.9509 48.8569 59.7349 48.8569H59.1589C58.9429 48.8569 58.8349 48.7489 58.8349 48.5329V43.4389C58.8349 42.8629 58.9069 42.1309 59.0509 41.2429H58.9969C58.8289 41.5669 58.4989 42.0769 58.0069 42.7729L53.5429 48.6769C53.4709 48.7969 53.3629 48.8569 53.2189 48.8569H52.6429C52.4269 48.8569 52.3189 48.7489 52.3189 48.5329V39.9289C52.3189 39.7129 52.4269 39.6049 52.6429 39.6049H53.2189ZM71.1743 39.6049C71.3183 39.6049 71.4143 39.6289 71.4623 39.6769C71.5103 39.7249 71.5343 39.8149 71.5343 39.9469V48.5149C71.5343 48.6469 71.5103 48.7369 71.4623 48.7849C71.4143 48.8329 71.3243 48.8569 71.1923 48.8569H70.7423C70.5983 48.8569 70.5023 48.8329 70.4543 48.7849C70.4183 48.7369 70.4003 48.6469 70.4003 48.5149V43.6189C70.4003 43.0669 70.4663 42.3049 70.5983 41.3329H70.5443C70.3403 41.8729 70.0463 42.4669 69.6623 43.1149L67.5563 46.8409C67.4603 47.0089 67.3223 47.0929 67.1423 47.0929H66.8543C66.6623 47.0929 66.5183 47.0029 66.4223 46.8229L64.3343 43.1869C64.0103 42.6229 63.7043 42.0049 63.4163 41.3329H63.3623C63.4943 42.3649 63.5603 43.1629 63.5603 43.7269V48.5149C63.5603 48.6469 63.5363 48.7369 63.4883 48.7849C63.4523 48.8329 63.3683 48.8569 63.2363 48.8569H62.7683C62.6363 48.8569 62.5463 48.8329 62.4983 48.7849C62.4503 48.7369 62.4263 48.6469 62.4263 48.5149V39.9469C62.4263 39.8149 62.4503 39.7249 62.4983 39.6769C62.5583 39.6289 62.6603 39.6049 62.8043 39.6049H63.2003C63.4163 39.6049 63.5783 39.6949 63.6863 39.8749L66.9983 45.7429L70.2743 39.8929C70.3703 39.7009 70.5203 39.6049 70.7243 39.6049H71.1743ZM73.3288 39.9289C73.3288 39.7129 73.4368 39.6049 73.6528 39.6049H74.2288C74.4448 39.6049 74.5528 39.7129 74.5528 39.9289V42.1609C74.5528 42.9289 74.7568 43.4929 75.1648 43.8529C75.5728 44.2129 76.2208 44.3929 77.1088 44.3929C77.6848 44.3929 78.4768 44.2669 79.4848 44.0149V39.9289C79.4848 39.8089 79.5028 39.7249 79.5388 39.6769C79.5868 39.6289 79.6708 39.6049 79.7908 39.6049H80.3668C80.5828 39.6049 80.6908 39.7129 80.6908 39.9289V48.5329C80.6908 48.7489 80.5828 48.8569 80.3668 48.8569H79.7908C79.6708 48.8569 79.5868 48.8329 79.5388 48.7849C79.5028 48.7369 79.4848 48.6529 79.4848 48.5329V45.1489C78.5728 45.3769 77.7268 45.4909 76.9468 45.4909C75.7108 45.4909 74.7988 45.2209 74.2108 44.6809C73.6228 44.1289 73.3288 43.3009 73.3288 42.1969V39.9289ZM83.963 39.6049C84.179 39.6049 84.287 39.7129 84.287 39.9289V45.1309C84.287 45.8029 84.221 46.5049 84.089 47.2369H84.125C84.389 46.7329 84.701 46.2409 85.061 45.7609L89.597 39.7669C89.669 39.6589 89.771 39.6049 89.903 39.6049H90.479C90.695 39.6049 90.803 39.7129 90.803 39.9289V48.5329C90.803 48.7489 90.695 48.8569 90.479 48.8569H89.903C89.687 48.8569 89.579 48.7489 89.579 48.5329V43.4389C89.579 42.8629 89.651 42.1309 89.795 41.2429H89.741C89.573 41.5669 89.243 42.0769 88.751 42.7729L84.287 48.6769C84.215 48.7969 84.107 48.8569 83.963 48.8569H83.387C83.171 48.8569 83.063 48.7489 83.063 48.5329V39.9289C83.063 39.7129 83.171 39.6049 83.387 39.6049H83.963ZM92.8644 42.8809C92.8644 41.7649 93.1944 40.8949 93.8544 40.2709C94.5144 39.6469 95.4924 39.3349 96.7884 39.3349C98.8044 39.3349 100.058 40.1449 100.55 41.7649C100.622 41.9929 100.55 42.1489 100.334 42.2329L99.8664 42.3949C99.6504 42.4669 99.5004 42.3949 99.4164 42.1789C99.2244 41.5669 98.9184 41.1229 98.4984 40.8469C98.0904 40.5589 97.5084 40.4149 96.7524 40.4149C95.8764 40.4149 95.2104 40.6309 94.7544 41.0629C94.2984 41.4829 94.0704 42.0769 94.0704 42.8449V45.5989C94.0704 46.3669 94.2984 46.9669 94.7544 47.3989C95.2224 47.8309 95.8884 48.0469 96.7524 48.0469C98.1564 48.0469 99.0504 47.4289 99.4344 46.1929C99.5184 45.9889 99.6744 45.9169 99.9024 45.9769L100.37 46.1209C100.598 46.2049 100.67 46.3609 100.586 46.5889C100.034 48.2689 98.7444 49.1089 96.7164 49.1089C95.4564 49.1089 94.4964 48.7969 93.8364 48.1729C93.1884 47.5489 92.8644 46.6789 92.8644 45.5629V42.8809ZM108.752 39.6049C108.884 39.6049 108.968 39.6289 109.004 39.6769C109.052 39.7249 109.076 39.8089 109.076 39.9289V40.3969C109.076 40.6129 108.968 40.7209 108.752 40.7209H105.908V48.5329C105.908 48.7489 105.8 48.8569 105.584 48.8569H105.026C104.81 48.8569 104.702 48.7489 104.702 48.5329V40.7209H101.822C101.606 40.7209 101.498 40.6129 101.498 40.3969V39.9289C101.498 39.7129 101.606 39.6049 101.822 39.6049H108.752ZM110.127 42.6469C110.127 41.6149 110.475 40.8049 111.171 40.2169C111.879 39.6289 112.845 39.3349 114.069 39.3349C115.305 39.3349 116.277 39.6289 116.985 40.2169C117.693 40.8049 118.047 41.6149 118.047 42.6469V45.8149C118.047 46.8469 117.693 47.6569 116.985 48.2449C116.277 48.8209 115.305 49.1089 114.069 49.1089C112.845 49.1089 111.879 48.8149 111.171 48.2269C110.475 47.6389 110.127 46.8349 110.127 45.8149V42.6469ZM116.823 42.6469C116.823 41.9629 116.577 41.4229 116.085 41.0269C115.593 40.6309 114.921 40.4329 114.069 40.4329C113.229 40.4329 112.563 40.6309 112.071 41.0269C111.579 41.4229 111.333 41.9629 111.333 42.6469V45.8149C111.333 46.4989 111.579 47.0389 112.071 47.4349C112.575 47.8189 113.241 48.0109 114.069 48.0109C114.921 48.0109 115.593 47.8189 116.085 47.4349C116.577 47.0389 116.823 46.4989 116.823 45.8149V42.6469ZM127.822 48.4789C127.894 48.6109 127.912 48.7069 127.876 48.7669C127.852 48.8269 127.768 48.8569 127.624 48.8569H127.084C126.904 48.8569 126.778 48.8389 126.706 48.8029C126.646 48.7669 126.586 48.6889 126.526 48.5689L125.158 45.7609C124.978 45.3769 124.75 45.1009 124.474 44.9329C124.21 44.7529 123.856 44.6629 123.412 44.6629H121.342V48.5149C121.342 48.6469 121.318 48.7369 121.27 48.7849C121.222 48.8329 121.132 48.8569 121 48.8569H120.46C120.328 48.8569 120.238 48.8329 120.19 48.7849C120.142 48.7369 120.118 48.6469 120.118 48.5149V39.9289C120.118 39.7129 120.232 39.6049 120.46 39.6049H121C121.228 39.6049 121.342 39.7129 121.342 39.9289V43.5469H123.25H123.43L126.31 39.8569C126.394 39.7369 126.472 39.6649 126.544 39.6409C126.628 39.6169 126.766 39.6049 126.958 39.6049H127.462C127.786 39.6049 127.858 39.7309 127.678 39.9829L124.636 43.7809C125.284 43.9489 125.806 44.4349 126.202 45.2389L127.822 48.4789Z" fill="white"/>
</svg>
