<svg width="160" height="52" viewBox="0 0 160 52" fill="none" xmlns="http://www.w3.org/2000/svg">
<path d="M129.173 11.3235C136.632 10.072 142.657 14.9085 147.238 18.5857C152.154 22.5311 155.406 25.1419 156.983 17.4655C160.029 2.63481 113.71 13.9176 129.173 11.3235Z" fill="#1AB2F3"/>
<path d="M129.173 11.3235C136.632 10.072 142.657 14.9085 147.238 18.5857C152.154 22.5311 155.406 25.1419 156.983 17.4655C160.029 2.63481 113.71 13.9176 129.173 11.3235Z" stroke="#14A3F3"/>
<path d="M18.6475 24.8955C18.4814 27.1904 17.6318 28.9971 16.0986 30.3154C14.5752 31.6338 12.5635 32.293 10.0635 32.293C7.3291 32.293 5.17578 31.375 3.60352 29.5391C2.04102 27.6934 1.25977 25.1641 1.25977 21.9512V20.6475C1.25977 18.5967 1.62109 16.79 2.34375 15.2275C3.06641 13.665 4.09668 12.4688 5.43457 11.6387C6.78223 10.7988 8.34473 10.3789 10.1221 10.3789C12.583 10.3789 14.5654 11.0381 16.0693 12.3564C17.5732 13.6748 18.4424 15.5254 18.6768 17.9082H14.2822C14.1748 16.5312 13.7891 15.5352 13.125 14.9199C12.4707 14.2949 11.4697 13.9824 10.1221 13.9824C8.65723 13.9824 7.55859 14.5098 6.82617 15.5645C6.10352 16.6094 5.73242 18.2354 5.71289 20.4424V22.0537C5.71289 24.3584 6.05957 26.043 6.75293 27.1074C7.45605 28.1719 8.55957 28.7041 10.0635 28.7041C11.4209 28.7041 12.4316 28.3965 13.0957 27.7812C13.7695 27.1562 14.1553 26.1943 14.2529 24.8955H18.6475ZM25.7227 32H21.4746V9.5H25.7227V32ZM36.5186 32.293C34.1943 32.293 32.2998 31.5801 30.835 30.1543C29.3799 28.7285 28.6523 26.8291 28.6523 24.4561V24.0459C28.6523 22.4541 28.96 21.0332 29.5752 19.7832C30.1904 18.5234 31.0596 17.5566 32.1826 16.8828C33.3154 16.1992 34.6045 15.8574 36.0498 15.8574C38.2178 15.8574 39.9219 16.541 41.1621 17.9082C42.4121 19.2754 43.0371 21.2139 43.0371 23.7236V25.4521H32.9443C33.0811 26.4873 33.4912 27.3174 34.1748 27.9424C34.8682 28.5674 35.7422 28.8799 36.7969 28.8799C38.4277 28.8799 39.7021 28.2891 40.6201 27.1074L42.7002 29.4365C42.0654 30.335 41.2061 31.0381 40.1221 31.5459C39.0381 32.0439 37.8369 32.293 36.5186 32.293ZM36.0352 19.2852C35.1953 19.2852 34.5117 19.5684 33.9844 20.1348C33.4668 20.7012 33.1348 21.5117 32.9883 22.5664H38.877V22.2295C38.8574 21.292 38.6035 20.5693 38.1152 20.0615C37.627 19.5439 36.9336 19.2852 36.0352 19.2852ZM54.6387 32C54.4434 31.6191 54.3018 31.1455 54.2139 30.5791C53.1885 31.7217 51.8555 32.293 50.2148 32.293C48.6621 32.293 47.373 31.8438 46.3477 30.9453C45.332 30.0469 44.8242 28.9141 44.8242 27.5469C44.8242 25.8672 45.4443 24.5781 46.6846 23.6797C47.9346 22.7812 49.7363 22.3271 52.0898 22.3174H54.0381V21.4092C54.0381 20.6768 53.8477 20.0908 53.4668 19.6514C53.0957 19.2119 52.5049 18.9922 51.6943 18.9922C50.9814 18.9922 50.4199 19.1631 50.0098 19.5049C49.6094 19.8467 49.4092 20.3154 49.4092 20.9111H45.1758C45.1758 19.9932 45.459 19.1436 46.0254 18.3623C46.5918 17.5811 47.3926 16.9707 48.4277 16.5312C49.4629 16.082 50.625 15.8574 51.9141 15.8574C53.8672 15.8574 55.415 16.3506 56.5576 17.3369C57.71 18.3135 58.2861 19.6904 58.2861 21.4678V28.3379C58.2959 29.8418 58.5059 30.9795 58.916 31.751V32H54.6387ZM51.1377 29.0557C51.7627 29.0557 52.3389 28.9189 52.8662 28.6455C53.3936 28.3623 53.7842 27.9863 54.0381 27.5176V24.793H52.4561C50.3369 24.793 49.209 25.5254 49.0723 26.9902L49.0576 27.2393C49.0576 27.7666 49.2432 28.2012 49.6143 28.543C49.9854 28.8848 50.4932 29.0557 51.1377 29.0557ZM65.4346 16.1504L65.5664 17.9814C66.6992 16.5654 68.2178 15.8574 70.1221 15.8574C71.8018 15.8574 73.0518 16.3506 73.8721 17.3369C74.6924 18.3232 75.1123 19.7979 75.1318 21.7607V32H70.8984V21.8633C70.8984 20.9648 70.7031 20.3154 70.3125 19.915C69.9219 19.5049 69.2725 19.2998 68.3643 19.2998C67.1729 19.2998 66.2793 19.8076 65.6836 20.8232V32H61.4502V16.1504H65.4346Z" fill="#1AB2F3"/>
<path d="M92.1387 32H88.623V24.6875H81.7676V32H78.252V14.9375H81.7676V21.8516H88.623V14.9375H92.1387V32ZM94.4707 25.543C94.4707 24.2852 94.7129 23.1641 95.1973 22.1797C95.6816 21.1953 96.377 20.4336 97.2832 19.8945C98.1973 19.3555 99.2559 19.0859 100.459 19.0859C102.17 19.0859 103.564 19.6094 104.643 20.6562C105.729 21.7031 106.334 23.125 106.459 24.9219L106.482 25.7891C106.482 27.7344 105.939 29.2969 104.854 30.4766C103.768 31.6484 102.311 32.2344 100.482 32.2344C98.6543 32.2344 97.1934 31.6484 96.0996 30.4766C95.0137 29.3047 94.4707 27.7109 94.4707 25.6953V25.543ZM97.8574 25.7891C97.8574 26.9922 98.084 27.9141 98.5371 28.5547C98.9902 29.1875 99.6387 29.5039 100.482 29.5039C101.303 29.5039 101.943 29.1914 102.404 28.5664C102.865 27.9336 103.096 26.9258 103.096 25.543C103.096 24.3633 102.865 23.4492 102.404 22.8008C101.943 22.1523 101.295 21.8281 100.459 21.8281C99.6309 21.8281 98.9902 22.1523 98.5371 22.8008C98.084 23.4414 97.8574 24.4375 97.8574 25.7891ZM116.162 30.7109C115.326 31.7266 114.17 32.2344 112.693 32.2344C111.334 32.2344 110.295 31.8438 109.576 31.0625C108.865 30.2812 108.502 29.1367 108.486 27.6289V19.3203H111.873V27.5117C111.873 28.832 112.475 29.4922 113.678 29.4922C114.826 29.4922 115.615 29.0938 116.045 28.2969V19.3203H119.443V32H116.256L116.162 30.7109ZM128.865 28.4961C128.865 28.082 128.658 27.7578 128.244 27.5234C127.838 27.2812 127.182 27.0664 126.275 26.8789C123.26 26.2461 121.752 24.9648 121.752 23.0352C121.752 21.9102 122.217 20.9727 123.146 20.2227C124.084 19.4648 125.307 19.0859 126.814 19.0859C128.424 19.0859 129.709 19.4648 130.67 20.2227C131.639 20.9805 132.123 21.9648 132.123 23.1758H128.736C128.736 22.6914 128.58 22.293 128.268 21.9805C127.955 21.6602 127.467 21.5 126.803 21.5C126.232 21.5 125.791 21.6289 125.479 21.8867C125.166 22.1445 125.01 22.4727 125.01 22.8711C125.01 23.2461 125.186 23.5508 125.537 23.7852C125.896 24.0117 126.498 24.2109 127.342 24.3828C128.186 24.5469 128.896 24.7344 129.475 24.9453C131.264 25.6016 132.158 26.7383 132.158 28.3555C132.158 29.5117 131.662 30.4492 130.67 31.168C129.678 31.8789 128.396 32.2344 126.826 32.2344C125.764 32.2344 124.818 32.0469 123.99 31.6719C123.17 31.2891 122.525 30.7695 122.057 30.1133C121.588 29.4492 121.354 28.7344 121.354 27.9688H124.564C124.596 28.5703 124.818 29.0312 125.232 29.3516C125.646 29.6719 126.201 29.832 126.896 29.832C127.545 29.832 128.033 29.7109 128.361 29.4688C128.697 29.2188 128.865 28.8945 128.865 28.4961ZM140.186 32.2344C138.326 32.2344 136.811 31.6641 135.639 30.5234C134.475 29.3828 133.893 27.8633 133.893 25.9648V25.6367C133.893 24.3633 134.139 23.2266 134.631 22.2266C135.123 21.2188 135.818 20.4453 136.717 19.9062C137.623 19.3594 138.654 19.0859 139.811 19.0859C141.545 19.0859 142.908 19.6328 143.9 20.7266C144.9 21.8203 145.4 23.3711 145.4 25.3789V26.7617H137.326C137.436 27.5898 137.764 28.2539 138.311 28.7539C138.865 29.2539 139.564 29.5039 140.408 29.5039C141.713 29.5039 142.732 29.0312 143.467 28.0859L145.131 29.9492C144.623 30.668 143.936 31.2305 143.068 31.6367C142.201 32.0352 141.24 32.2344 140.186 32.2344ZM139.799 21.8281C139.127 21.8281 138.58 22.0547 138.158 22.5078C137.744 22.9609 137.479 23.6094 137.361 24.4531H142.072V24.1836C142.057 23.4336 141.854 22.8555 141.463 22.4492C141.072 22.0352 140.518 21.8281 139.799 21.8281Z" fill="#585050"/>
<path d="M1.882 45.024C1.882 43.908 2.212 43.038 2.872 42.414C3.532 41.79 4.51 41.478 5.806 41.478C7.822 41.478 9.076 42.288 9.568 43.908C9.64 44.136 9.568 44.292 9.352 44.376L8.884 44.538C8.668 44.61 8.518 44.538 8.434 44.322C8.242 43.71 7.936 43.266 7.516 42.99C7.108 42.702 6.526 42.558 5.77 42.558C4.894 42.558 4.228 42.774 3.772 43.206C3.316 43.626 3.088 44.22 3.088 44.988V47.742C3.088 48.51 3.316 49.11 3.772 49.542C4.24 49.974 4.906 50.19 5.77 50.19C7.174 50.19 8.068 49.572 8.452 48.336C8.536 48.132 8.692 48.06 8.92 48.12L9.388 48.264C9.616 48.348 9.688 48.504 9.604 48.732C9.052 50.412 7.762 51.252 5.734 51.252C4.474 51.252 3.514 50.94 2.854 50.316C2.206 49.692 1.882 48.822 1.882 47.706V45.024ZM11.1097 45.276C11.1097 44.076 11.4457 43.146 12.1177 42.486C12.8017 41.814 13.7917 41.478 15.0877 41.478C16.3957 41.478 17.3857 41.82 18.0577 42.504C18.7417 43.176 19.0837 44.076 19.0837 45.204V46.194C19.0837 46.53 18.9037 46.698 18.5437 46.698H12.3157V47.742C12.3157 48.522 12.5437 49.128 12.9997 49.56C13.4677 49.992 14.1397 50.208 15.0157 50.208C16.3477 50.208 17.2897 49.71 17.8417 48.714C17.9857 48.522 18.1597 48.48 18.3637 48.588L18.7417 48.786C18.9697 48.906 19.0117 49.08 18.8677 49.308C18.1477 50.604 16.8637 51.252 15.0157 51.252C13.7077 51.252 12.7297 50.928 12.0817 50.28C11.4337 49.632 11.1097 48.744 11.1097 47.616V45.276ZM17.8777 45.132C17.8777 44.316 17.6377 43.68 17.1577 43.224C16.6897 42.756 15.9997 42.522 15.0877 42.522C14.1877 42.522 13.4977 42.756 13.0177 43.224C12.5497 43.68 12.3157 44.316 12.3157 45.132V45.762H17.8777V45.132ZM27.2443 41.748C27.3763 41.748 27.4603 41.772 27.4963 41.82C27.5443 41.868 27.5683 41.952 27.5683 42.072V42.54C27.5683 42.756 27.4603 42.864 27.2443 42.864H24.4003V50.676C24.4003 50.892 24.2923 51 24.0763 51H23.5183C23.3023 51 23.1943 50.892 23.1943 50.676V42.864H20.3143C20.0983 42.864 19.9903 42.756 19.9903 42.54V42.072C19.9903 41.856 20.0983 41.748 20.3143 41.748H27.2443ZM33.3502 44.664C34.3582 44.664 35.1502 44.94 35.7262 45.492C36.3022 46.044 36.5902 46.818 36.5902 47.814C36.5902 48.822 36.3022 49.608 35.7262 50.172C35.1622 50.724 34.3702 51 33.3502 51H29.3362C29.1202 51 29.0122 50.892 29.0122 50.676V42.072C29.0122 41.856 29.1202 41.748 29.3362 41.748H29.9122C30.1282 41.748 30.2362 41.856 30.2362 42.072V44.664H33.3502ZM33.2062 49.902C33.8782 49.902 34.4002 49.722 34.7722 49.362C35.1442 48.99 35.3302 48.474 35.3302 47.814C35.3302 47.166 35.1442 46.662 34.7722 46.302C34.4002 45.942 33.8782 45.762 33.2062 45.762H30.2362V49.902H33.2062ZM49.3694 41.748C49.6814 41.748 49.7534 41.868 49.5854 42.108L46.5074 46.248L49.7834 50.64C49.9514 50.88 49.8734 51 49.5494 51H49.0094C48.7454 51 48.5534 50.91 48.4334 50.73L45.7334 47.112L43.0514 50.73C42.9434 50.91 42.7514 51 42.4754 51H41.9714C41.6354 51 41.5574 50.88 41.7374 50.64L45.0134 46.248L41.8814 42.108C41.7254 41.868 41.8094 41.748 42.1334 41.748H42.6374C42.9134 41.748 43.1114 41.838 43.2314 42.018L45.7514 45.366L48.2714 42.018C48.3554 41.898 48.4274 41.826 48.4874 41.802C48.5474 41.766 48.6614 41.748 48.8294 41.748H49.3694ZM52.2189 41.748C52.4349 41.748 52.5429 41.856 52.5429 42.072V47.274C52.5429 47.946 52.4769 48.648 52.3449 49.38H52.3809C52.6449 48.876 52.9569 48.384 53.3169 47.904L57.8529 41.91C57.9249 41.802 58.0269 41.748 58.1589 41.748H58.7349C58.9509 41.748 59.0589 41.856 59.0589 42.072V50.676C59.0589 50.892 58.9509 51 58.7349 51H58.1589C57.9429 51 57.8349 50.892 57.8349 50.676V45.582C57.8349 45.006 57.9069 44.274 58.0509 43.386H57.9969C57.8289 43.71 57.4989 44.22 57.0069 44.916L52.5429 50.82C52.4709 50.94 52.3629 51 52.2189 51H51.6429C51.4269 51 51.3189 50.892 51.3189 50.676V42.072C51.3189 41.856 51.4269 41.748 51.6429 41.748H52.2189ZM70.1743 41.748C70.3183 41.748 70.4143 41.772 70.4623 41.82C70.5103 41.868 70.5343 41.958 70.5343 42.09V50.658C70.5343 50.79 70.5103 50.88 70.4623 50.928C70.4143 50.976 70.3243 51 70.1923 51H69.7423C69.5983 51 69.5023 50.976 69.4543 50.928C69.4183 50.88 69.4003 50.79 69.4003 50.658V45.762C69.4003 45.21 69.4663 44.448 69.5983 43.476H69.5443C69.3403 44.016 69.0463 44.61 68.6623 45.258L66.5563 48.984C66.4603 49.152 66.3223 49.236 66.1423 49.236H65.8543C65.6623 49.236 65.5183 49.146 65.4223 48.966L63.3343 45.33C63.0103 44.766 62.7043 44.148 62.4163 43.476H62.3623C62.4943 44.508 62.5603 45.306 62.5603 45.87V50.658C62.5603 50.79 62.5363 50.88 62.4883 50.928C62.4523 50.976 62.3683 51 62.2363 51H61.7683C61.6363 51 61.5463 50.976 61.4983 50.928C61.4503 50.88 61.4263 50.79 61.4263 50.658V42.09C61.4263 41.958 61.4503 41.868 61.4983 41.82C61.5583 41.772 61.6603 41.748 61.8043 41.748H62.2003C62.4163 41.748 62.5783 41.838 62.6863 42.018L65.9983 47.886L69.2743 42.036C69.3703 41.844 69.5203 41.748 69.7243 41.748H70.1743ZM72.3288 42.072C72.3288 41.856 72.4368 41.748 72.6528 41.748H73.2288C73.4448 41.748 73.5528 41.856 73.5528 42.072V44.304C73.5528 45.072 73.7568 45.636 74.1648 45.996C74.5728 46.356 75.2208 46.536 76.1088 46.536C76.6848 46.536 77.4768 46.41 78.4848 46.158V42.072C78.4848 41.952 78.5028 41.868 78.5388 41.82C78.5868 41.772 78.6708 41.748 78.7908 41.748H79.3668C79.5828 41.748 79.6908 41.856 79.6908 42.072V50.676C79.6908 50.892 79.5828 51 79.3668 51H78.7908C78.6708 51 78.5868 50.976 78.5388 50.928C78.5028 50.88 78.4848 50.796 78.4848 50.676V47.292C77.5728 47.52 76.7268 47.634 75.9468 47.634C74.7108 47.634 73.7988 47.364 73.2108 46.824C72.6228 46.272 72.3288 45.444 72.3288 44.34V42.072ZM82.963 41.748C83.179 41.748 83.287 41.856 83.287 42.072V47.274C83.287 47.946 83.221 48.648 83.089 49.38H83.125C83.389 48.876 83.701 48.384 84.061 47.904L88.597 41.91C88.669 41.802 88.771 41.748 88.903 41.748H89.479C89.695 41.748 89.803 41.856 89.803 42.072V50.676C89.803 50.892 89.695 51 89.479 51H88.903C88.687 51 88.579 50.892 88.579 50.676V45.582C88.579 45.006 88.651 44.274 88.795 43.386H88.741C88.573 43.71 88.243 44.22 87.751 44.916L83.287 50.82C83.215 50.94 83.107 51 82.963 51H82.387C82.171 51 82.063 50.892 82.063 50.676V42.072C82.063 41.856 82.171 41.748 82.387 41.748H82.963ZM91.8644 45.024C91.8644 43.908 92.1944 43.038 92.8544 42.414C93.5144 41.79 94.4924 41.478 95.7884 41.478C97.8044 41.478 99.0584 42.288 99.5504 43.908C99.6224 44.136 99.5504 44.292 99.3344 44.376L98.8664 44.538C98.6504 44.61 98.5004 44.538 98.4164 44.322C98.2244 43.71 97.9184 43.266 97.4984 42.99C97.0904 42.702 96.5084 42.558 95.7524 42.558C94.8764 42.558 94.2104 42.774 93.7544 43.206C93.2984 43.626 93.0704 44.22 93.0704 44.988V47.742C93.0704 48.51 93.2984 49.11 93.7544 49.542C94.2224 49.974 94.8884 50.19 95.7524 50.19C97.1564 50.19 98.0504 49.572 98.4344 48.336C98.5184 48.132 98.6744 48.06 98.9024 48.12L99.3704 48.264C99.5984 48.348 99.6704 48.504 99.5864 48.732C99.0344 50.412 97.7444 51.252 95.7164 51.252C94.4564 51.252 93.4964 50.94 92.8364 50.316C92.1884 49.692 91.8644 48.822 91.8644 47.706V45.024ZM107.752 41.748C107.884 41.748 107.968 41.772 108.004 41.82C108.052 41.868 108.076 41.952 108.076 42.072V42.54C108.076 42.756 107.968 42.864 107.752 42.864H104.908V50.676C104.908 50.892 104.8 51 104.584 51H104.026C103.81 51 103.702 50.892 103.702 50.676V42.864H100.822C100.606 42.864 100.498 42.756 100.498 42.54V42.072C100.498 41.856 100.606 41.748 100.822 41.748H107.752ZM109.127 44.79C109.127 43.758 109.475 42.948 110.171 42.36C110.879 41.772 111.845 41.478 113.069 41.478C114.305 41.478 115.277 41.772 115.985 42.36C116.693 42.948 117.047 43.758 117.047 44.79V47.958C117.047 48.99 116.693 49.8 115.985 50.388C115.277 50.964 114.305 51.252 113.069 51.252C111.845 51.252 110.879 50.958 110.171 50.37C109.475 49.782 109.127 48.978 109.127 47.958V44.79ZM115.823 44.79C115.823 44.106 115.577 43.566 115.085 43.17C114.593 42.774 113.921 42.576 113.069 42.576C112.229 42.576 111.563 42.774 111.071 43.17C110.579 43.566 110.333 44.106 110.333 44.79V47.958C110.333 48.642 110.579 49.182 111.071 49.578C111.575 49.962 112.241 50.154 113.069 50.154C113.921 50.154 114.593 49.962 115.085 49.578C115.577 49.182 115.823 48.642 115.823 47.958V44.79ZM126.822 50.622C126.894 50.754 126.912 50.85 126.876 50.91C126.852 50.97 126.768 51 126.624 51H126.084C125.904 51 125.778 50.982 125.706 50.946C125.646 50.91 125.586 50.832 125.526 50.712L124.158 47.904C123.978 47.52 123.75 47.244 123.474 47.076C123.21 46.896 122.856 46.806 122.412 46.806H120.342V50.658C120.342 50.79 120.318 50.88 120.27 50.928C120.222 50.976 120.132 51 120 51H119.46C119.328 51 119.238 50.976 119.19 50.928C119.142 50.88 119.118 50.79 119.118 50.658V42.072C119.118 41.856 119.232 41.748 119.46 41.748H120C120.228 41.748 120.342 41.856 120.342 42.072V45.69H122.25H122.43L125.31 42C125.394 41.88 125.472 41.808 125.544 41.784C125.628 41.76 125.766 41.748 125.958 41.748H126.462C126.786 41.748 126.858 41.874 126.678 42.126L123.636 45.924C124.284 46.092 124.806 46.578 125.202 47.382L126.822 50.622Z" fill="#585050"/>
</svg>
