<svg width="48" height="48" viewBox="0 0 48 48" fill="none" xmlns="http://www.w3.org/2000/svg">
<g clip-path="url(#clip0)">
<path d="M41.3853 12.4875C39.6979 7.03125 35.254 2.58741 29.7978 0.9C27.8853 0.309281 25.9165 0 24.004 0C20.0947 0 16.326 1.20938 13.176 3.57197C8.50706 7.00313 5.72278 12.4875 5.72278 18.2812C5.72278 22.2749 6.9884 26.072 9.37903 29.2501L24.004 48L38.629 29.2501C42.2008 24.4688 43.2134 18.3657 41.3853 12.4875ZM24.004 28.125C18.5759 28.125 14.1603 23.7094 14.1603 18.2812C14.1603 12.8531 18.5759 8.4375 24.004 8.4375C29.4322 8.4375 33.8478 12.8531 33.8478 18.2812C33.8478 23.7094 29.4322 28.125 24.004 28.125Z" fill="#FF3636"/>
<path d="M38.629 29.2501L24.004 48V28.125C29.4322 28.125 33.8478 23.7094 33.8478 18.2812C33.8478 12.8531 29.4322 8.4375 24.004 8.4375V0C25.9165 0 27.8853 0.309375 29.7978 0.9C35.254 2.58741 39.6979 7.03125 41.3853 12.4875C43.2134 18.3657 42.2008 24.4688 38.629 29.2501Z" fill="#F40000"/>
</g>
<defs>
<clipPath id="clip0">
<rect width="48" height="48" fill="white"/>
</clipPath>
</defs>
</svg>
